<svg xmlns="http://www.w3.org/2000/svg" viewBox="0 0 362.73 362.73"><defs><style>.cls-1,.cls-2{fill:none;stroke:#fff;stroke-width:11px;}.cls-1{stroke-miterlimit:10;}.cls-2{stroke-linecap:round;stroke-linejoin:round;}.cls-3{fill:#fff;}</style></defs><g id="Layer_2" data-name="Layer 2"><g id="Layer_1-2" data-name="Layer 1"><circle class="cls-1" cx="181.37" cy="181.37" r="175.87"/><path class="cls-2" d="M76.33,319.87,120.23,276c-12.32-9-16.75-26.18-17-41.46s3.37-30.33,4.91-45.53.65-31.5-7.71-44.29c-3.93-6-9.67-12-8.51-19.12S101,114.4,108,115.32s12.9,5.62,17.69,10.8a78.73,78.73,0,0,1,19.86,63.32"/><path class="cls-2" d="M135.27,199.41,241.11,91c5.36-5.49,11-11.16,18.23-13.69s16.57-.86,20.41,5.78c2.62,4.54,2.1,10.37-.05,15.15s-5.76,8.75-9.31,12.61q-34.35,37.37-70,73.54"/><path class="cls-2" d="M200.84,184.5c3.48-3.88,8.1-7.44,12-10.92,7.21-6.38,17.34-9.65,24.67-1.53,11.41,12.62-5.23,27-14.06,35.08"/><path class="cls-2" d="M223.63,207.29c3.48-3.88,8.09-7.44,12-10.93,7.21-6.37,17.33-9.64,24.66-1.53,11.41,12.63-5.23,27-14.06,35.08"/><path class="cls-3" d="M286.63,214.35c-8.28-9.16-21.3-8.72-32.39,1.1-1.07.94-2.19,1.9-3.33,2.86a93.21,93.21,0,0,0-9.15,8.51,5.5,5.5,0,1,0,8.18,7.34,87,87,0,0,1,8.1-7.47c1.19-1,2.36-2,3.49-3,3.12-2.77,11-8.5,16.93-2,6.13,6.78,0,14.83-12.69,26.42l-1,.92c-10.67,9.8-19.54,20.42-28.12,30.7-4.81,5.75-9.78,11.7-15.05,17.5-4.65,5.11-9.45,10.4-14.93,14.31-4,2.85-10.2,6.2-17,6.1-1.49,0-3.1-.22-4.79-.42-4.08-.48-8.69-1-13.38.59-5.56,1.92-9.42,6.37-12.23,9.62l-22.61,26.12a32.26,32.26,0,0,1,7.41,3c1.24.29,2.48.59,3.7.95l19.81-22.89c2.23-2.56,4.74-5.47,7.51-6.42,2.31-.8,5.17-.46,8.5-.07a54.8,54.8,0,0,0,5.89.49c7.82.15,15.95-2.67,23.6-8.14,6.44-4.6,11.64-10.32,16.68-15.86,5.43-6,10.47-12,15.35-17.85,8.74-10.46,17-20.34,27.12-29.64l1-.91C282.31,247.92,301.28,230.57,286.63,214.35Z"/><line class="cls-2" x1="160.42" y1="98.46" x2="137.25" y2="75.29"/><line class="cls-2" x1="202.32" y1="98.46" x2="225.49" y2="75.29"/><line class="cls-2" x1="181.96" y1="91.81" x2="181.96" y2="59.04"/></g></g></svg>