<svg xmlns="http://www.w3.org/2000/svg" viewBox="0 0 362.73 362.73"><defs><style>.cls-1{fill:#fff;}.cls-2,.cls-3{fill:none;stroke:#fff;stroke-width:11px;}.cls-2{stroke-miterlimit:10;}.cls-3{stroke-linecap:round;stroke-linejoin:round;}</style></defs><g id="Layer_2" data-name="Layer 2"><g id="Layer_1-2" data-name="Layer 1"><path class="cls-1" d="M280.64,151.22V267.64a14.51,14.51,0,0,1-14.5,14.5H93.59a14.52,14.52,0,0,1-14.5-14.5V95.09a14.52,14.52,0,0,1,14.5-14.5H205a32.77,32.77,0,0,1,2.53-5.15,22,22,0,0,1,5.38-5.85H93.59a25.53,25.53,0,0,0-25.5,25.5V267.64a25.53,25.53,0,0,0,25.5,25.5H266.14a25.52,25.52,0,0,0,25.5-25.5V142.55A40.29,40.29,0,0,1,280.64,151.22Z"/><path class="cls-1" d="M196.55,121.71H148a4.51,4.51,0,0,1-4.5-4.5V80.59H205a32.77,32.77,0,0,1,2.53-5.15,22,22,0,0,1,5.38-5.85H132.5v47.62a15.51,15.51,0,0,0,15.5,15.5h53.13A44.4,44.4,0,0,1,196.55,121.71Z"/><path class="cls-2" d="M121.58,195H238.1a10,10,0,0,1,10,10v82.64a0,0,0,0,1,0,0H111.58a0,0,0,0,1,0,0V205A10,10,0,0,1,121.58,195Z"/><line class="cls-3" x1="132.43" y1="216.46" x2="227.31" y2="216.46"/><line class="cls-3" x1="132.43" y1="236.63" x2="227.31" y2="236.63"/><line class="cls-3" x1="132.43" y1="256.81" x2="227.31" y2="256.81"/><circle class="cls-2" cx="181.37" cy="181.37" r="175.87"/><circle class="cls-2" cx="248.1" cy="109.82" r="52.73"/><line class="cls-3" x1="268.48" y1="89.44" x2="227.72" y2="130.2"/><line class="cls-3" x1="268.48" y1="130.2" x2="227.72" y2="89.44"/></g></g></svg>