<svg xmlns="http://www.w3.org/2000/svg" viewBox="0 0 362.73 362.73"><defs><style>.cls-1,.cls-2{fill:none;stroke:#fff;stroke-width:11px;}.cls-1{stroke-miterlimit:10;}.cls-2{stroke-linecap:round;stroke-linejoin:round;}.cls-3{fill:#fff;}</style></defs><g id="Layer_2" data-name="Layer 2"><g id="Layer_1-2" data-name="Layer 1"><circle class="cls-1" cx="181.37" cy="181.37" r="175.87"/><path class="cls-2" d="M285.76,240.35,281.1,252"/><path class="cls-3" d="M131.76,165.19a5.5,5.5,0,0,1-7.78,0l-8.41-8.41a5.5,5.5,0,1,1,7.78-7.78l8.41,8.41A5.5,5.5,0,0,1,131.76,165.19Z"/><path class="cls-3" d="M167.1,165.19a5.5,5.5,0,0,1,0-7.78l8.41-8.41a5.5,5.5,0,0,1,7.78,7.78l-8.41,8.41A5.5,5.5,0,0,1,167.1,165.19Z"/><path class="cls-3" d="M149.73,162.55a5.5,5.5,0,0,1-5.5-5.5v-11.9a5.5,5.5,0,0,1,11,0v11.9A5.5,5.5,0,0,1,149.73,162.55Z"/><path class="cls-3" d="M126.79,191.39a81,81,0,0,0-62.18-32.27A81.18,81.18,0,0,0,5.72,182.46a8.07,8.07,0,0,1,.39,2.09c.2,3.87.8,7.81,1.31,11.76a5.63,5.63,0,0,0,1.75-1.38,70.9,70.9,0,0,1,55.14-24.81A70.91,70.91,0,0,1,118,198a5.5,5.5,0,0,0,8.81-6.58Z"/><path class="cls-2" d="M101,228.21a64.82,64.82,0,0,1,97.38-37"/><path class="cls-2" d="M217.35,219.55c-15.15-4-17.8-21.62-16-34.86,5.3-24.72,12.36-46.79,18.37-70.64"/><path class="cls-3" d="M313.27,253.77A1624.49,1624.49,0,0,0,264.39,78,5.5,5.5,0,1,0,254,81.54a1614.54,1614.54,0,0,1,48.54,174.58c1,4.5,1.7,8.47.54,11.51a7.73,7.73,0,0,1-5.88,4.69c-.5.07-.82,0-3.05-3.06-.33-.45-.67-.91-1-1.37a5.49,5.49,0,0,0-8.32-.51,160,160,0,0,1-86,45.6c-29.66,5.28-61.4-.06-94.33-15.85a5.49,5.49,0,0,0-5.63.52A129.53,129.53,0,0,1,69,314c2.79,2.77,5.51,5.62,8.09,8.57a140.53,140.53,0,0,0,25.6-14.08c34,15.73,67,20.9,98.06,15.37a171.11,171.11,0,0,0,87.49-44.38,11.6,11.6,0,0,0,10.48,3.78,18.67,18.67,0,0,0,14.6-11.64C315.76,265.21,314.32,258.6,313.27,253.77Z"/><path class="cls-2" d="M232.49,101.62c-1.64,6.42-7.55,11.19-14,12.71s-13.3.19-19.4-2.41a17.11,17.11,0,0,1-6.8-4.61c-1.73-2.16-2.51-5.27-1.3-7.75"/><path class="cls-2" d="M260.41,83.68c.93-4.93-2.6-10.22-7-12.87-20.31-12.36-39.73-22.07-60-32.67a44.25,44.25,0,0,0-11.48-3.53c-8.83-.88-17.65.89-24.72,7.07-8.83,8.82-22.07,16.77-20.3,31.78.88,6.18,7.06,11.47,13.57,8.33"/><path class="cls-2" d="M175.2,48,158.33,69.16c-2.85,3.57-5.79,7.32-6.75,11.79A14.88,14.88,0,0,0,169.81,98.5"/><path class="cls-2" d="M188.49,62.87C181,76.1,165.12,87.58,170.41,104.35c3.54,8,15,11.48,23,6.27"/><path class="cls-2" d="M58,168c-17.16,45.6-12.16,101.6,16.78,141.93"/></g></g></svg>