<svg xmlns="http://www.w3.org/2000/svg" viewBox="0 0 307.24 241.22"><defs><style>.cls-1{fill:#fdfefe;}.cls-2,.cls-5{fill:#2d2d2d;}.cls-3{isolation:isolate;}.cls-4{opacity:0.68;}.cls-5{opacity:0.69;}</style></defs><g id="Layer_2" data-name="Layer 2"><g id="Layer_1-2" data-name="Layer 1"><path class="cls-1" d="M220.47,18.55a10.86,10.86,0,0,0-1-2.77l0,0c0-1.06.08-2.11.11-3.16,0-1.64.1-3.26-.83-4.7-1.14-1.75-2.94-2.08-4.86-2.23L204.76,5l-18-1.3c-6.76-.49-13.51-1-20.27-1.43a3.11,3.11,0,0,0-2.1.69c-2.41-.23-4.83-.35-7.22-.43-6.93-.26-13.86-.13-20.8-.06-3.46,0-6.93.08-10.4.06l-5.2,0a7.21,7.21,0,0,0-5,1.45,6.84,6.84,0,0,0-2,4.44c-.26,1.89-.48,3.77-.62,5.67a62.82,62.82,0,0,0,0,10.08c.23,2.54.41,6.05,2.29,7.87a2.34,2.34,0,0,0,.67,1.57l.47.36a2.28,2.28,0,0,0,1.17.31c.13,0,.27,0,.41,0l.43-.05h.05l-.12,0,.16,0h.07a3.41,3.41,0,0,0,.71.06,7.53,7.53,0,0,0,.83-.1,2.41,2.41,0,0,0,1-.45,4.75,4.75,0,0,0,.85.18c5.84.65,11.68,1.06,17.51,1.33v.65a1.31,1.31,0,0,0,.42,1c0,.68,0,1.35-.1,2s-.16,1.21-.26,1.8a9.78,9.78,0,0,0-.32,1.5c-.18.73-.39,1.46-.62,2.17a.84.84,0,0,0,.15.87,2.57,2.57,0,0,0,.24,1.58,1,1,0,0,0,1.08.44c1.1-.44,1.57-1.66,1.92-2.71s.59-1.87.82-2.82c.17-.71.32-1.42.46-2.13l.06-.12a2.88,2.88,0,0,0,.45-.19l0,0c.58-.32,1.14-.67,1.72-1,.31-.18.63-.35,1-.51l.4-.2.33-.15.31-.13.51-.19.94-.31.7-.22c.43-.12.85-.26,1.29-.36a1.4,1.4,0,0,0,.87-.62c9,.11,18-.05,27-.31,4.64-.13,9.29-.21,13.91-.61,2-.16,4.08-.35,6.17-.64a41.53,41.53,0,0,0,10.15.06c2.35-.29,4.81-.71,6.63-2a4.21,4.21,0,0,0,1.13-.67c1.57-1.32,1.63-3.15,1.82-5.05l.06-.74a4.6,4.6,0,0,0,1.06-1.44A9.11,9.11,0,0,0,220.47,18.55Z"/><path class="cls-2" d="M222.21,10.08c-.3-3.4-1.6-7.1-5.4-8-2.3-.6-5-.4-7.3-.5-3.1-.2-6.2-.3-9.3-.4-12-.4-23.9-.6-35.9-.8s-24.1-.8-36,.1c-2.8.3-5.7.7-8.5.9a13.55,13.55,0,0,0-2,.2,11.22,11.22,0,0,0-2.6.8c-3.5,1.7-3.4,7.5-3.7,10.8a65.58,65.58,0,0,0,.2,17.7c.3,2,.7,4.3,2.7,5.3s4.7.3,6.8.2a72.2,72.2,0,0,1,9.3-.2l4.6.3a8.85,8.85,0,0,1,2.27.3c-.08.88-.07,1.79-.13,2.64-.08,1.4-.22,2.8-.33,4.2s-.15,2.82-.39,4.22c-.11.72-.25,1.43-.4,2.15a5.27,5.27,0,0,0-.23,2.19c.08.48.7.54,1,.27l.06-.07a.45.45,0,0,0,.46,0A11.6,11.6,0,0,0,141,49.14c.94-1.28,1.85-2.6,2.7-3.94s1.48-2.65,2.42-3.85c.39-.51.9-1.05,1.34-1.56l.25-.3h0a8.24,8.24,0,0,1,2-.72c5.3-1.1,11.4-.5,16.9-.6,6-.1,11.9-.3,17.9-.5s12-.6,17.9-.9c4.7-.3,10.4.3,14.8-1.7,3.8-1.7,4.5-5.1,4.6-8.9C222,20.88,222.71,15.38,222.21,10.08Zm-4.8,21.1c-1.7,1.8-4.6,1.6-6.9,1.7l-8,.4-16.7.6c-6,.3-12,.6-17.9.8-5.5.2-11.2.1-16.7.7a15.75,15.75,0,0,0-4.36,1.1,7.85,7.85,0,0,0-4.37,3.87c-.58,1.24-1,2.56-1.51,3.84-.12.3-.85,2.42-1,1.2a2.33,2.33,0,0,1,.06-.79c.1-.54.24-1.07.34-1.61.25-1.26.49-2.53.74-3.8.27-1.43.87-3.15.14-4.54-1-1.95-3.92-2-5.81-2.22l-.35,0a64,64,0,0,0-14.5-.5c-1,.2-2,.3-3,.4-1.9,0-2-1.3-2.4-2.9a68.77,68.77,0,0,1-1.3-7.7c-.6-4.9-1.4-11.6.8-16.3a4.51,4.51,0,0,1,3.3-2.5,18.59,18.59,0,0,1,4.7-.1c3,.2,5.8.5,8.7.5l16.1.3c21.7.3,43.4,1.7,65.1,2.6,2.2.1,4.4,0,5.3,2.4.7,2.1.4,4.7.4,6.9,0,2.5.1,5,.2,7.5S219.21,29.18,217.41,31.18Z"/><g class="cls-3"><path class="cls-2" d="M131.92,18.77l2.79,3.47-3.82,3.08-2.76-4.2-2.67,4.44-3.82-2.94,2.67-3.26-3.7-1.44,1.79-4.26,3.12,1.56-.09-4.38,4.87-.17-.17,4.73,3.14-2.35,2.17,4.34Z"/><path class="cls-2" d="M148.21,18.77,151,22.24l-3.81,3.08-2.76-4.2-2.68,4.44-3.81-2.94,2.67-3.26-3.7-1.44,1.79-4.26,3.11,1.56-.08-4.38,4.87-.17-.18,4.73,3.15-2.35,2.17,4.34Z"/><path class="cls-2" d="M164.51,18.77l2.79,3.47-3.82,3.08-2.76-4.2-2.67,4.44-3.82-2.94,2.68-3.26-3.7-1.44L155,13.66l3.11,1.56L158,10.84l4.88-.17-.18,4.73,3.14-2.35L168,17.39Z"/><path class="cls-2" d="M180.81,18.77l2.79,3.47-3.82,3.08L177,21.12l-2.67,4.44-3.82-2.94,2.67-3.26-3.7-1.44,1.8-4.26,3.11,1.56-.09-4.38,4.87-.17L179,15.4l3.14-2.35,2.17,4.34Z"/><path class="cls-2" d="M197.11,18.77l2.79,3.47-3.82,3.08-2.76-4.2-2.67,4.44-3.82-2.94,2.67-3.26-3.7-1.44,1.79-4.26,3.12,1.56-.09-4.38,4.87-.17-.17,4.73,3.14-2.35,2.17,4.34Z"/><path class="cls-2" d="M210.4,9.16,209.4,22h-4.51l-.46-12.83Zm-.8,16.59a2.39,2.39,0,0,1-.21,1A2.61,2.61,0,0,1,208,28.11a2.58,2.58,0,0,1-2,0,2.7,2.7,0,0,1-.81-.55,2.53,2.53,0,0,1-.55-.81,2.38,2.38,0,0,1-.2-1,2.42,2.42,0,0,1,.2-1,2.61,2.61,0,0,1,.55-.83,2.7,2.7,0,0,1,.81-.55,2.46,2.46,0,0,1,2,0,2.7,2.7,0,0,1,.81.55,2.79,2.79,0,0,1,.55.83A2.42,2.42,0,0,1,209.6,25.75Z"/></g><path class="cls-1" d="M189.9,210.79c-3.4-12.6-9-29.5-23.4-33-.3-.1-.7-.1-1-.2a8.55,8.55,0,0,0,.4-3.9,32.46,32.46,0,0,0-2.07-8.45,3.14,3.14,0,0,0-.06-.65,5.68,5.68,0,0,0-.44-1.19,7.69,7.69,0,0,0-1.15-1.79,6.66,6.66,0,0,0-1.54-1.36,7.89,7.89,0,0,0-.81-.44,5.14,5.14,0,0,0-.55-.2l-.24-.06c.13,0-.08-.05-.1-.06a.83.83,0,0,0-1.11.29.73.73,0,0,0,0,.7,7.15,7.15,0,0,0-.8,0l-.3-1.3c-1.5-6.4-11-3.6-9.7,2.7.1.6.2,1.2.3,1.9-5.1-2.4-11.1,3.4-7.3,8,.2.4.4.7.6,1.1l-.3.3a27,27,0,0,0-6.4,8.9q-2.85,3.75-5.4,7.8a142.72,142.72,0,0,0-8.5,16.5c-1.91,4.46-3.67,9.68-1,13.54a19,19,0,0,0,5.28,3.74c4.84,1.89,11.11,2.18,15.91,3.12.68.13,1.37.29,2.07.46a167.58,167.58,0,0,0,18.75.48,10.5,10.5,0,0,0,1.78-1.34,107.82,107.82,0,0,0,19.6-2.1C188,223.09,191.3,216.19,189.9,210.79Z"/><path class="cls-1" d="M117.67,218.41c5.23,6.75,14,8,22,8.64a166.86,166.86,0,0,0,24.59.52,89,89,0,0,0,28-6.26,4.49,4.49,0,0,0,.53-3.75,6.72,6.72,0,0,0-1.41-2.31,2.49,2.49,0,0,0-.19-.22l-.08-.09c-.27-.3-.59-.57-.85-.89-1.65-2-5-.8-5.62,1.48a4.66,4.66,0,0,0-.11,2c-2.13.83-4.28,1.59-6.47,2.25q-3.57,1.08-7.21,1.86c-2.33.49-4.94.95-7,1.21a89.26,89.26,0,0,1-29.15-1.19c-2.71-.57-5.41-1.22-8.07-2-1.32-.4-2.64-.8-3.93-1.3a8.31,8.31,0,0,1-2.23-1.23,2.77,2.77,0,0,0-3.94.35A3.56,3.56,0,0,1,117.67,218.41Z"/><path class="cls-1" d="M191.25,215c.7.74-.05-.09,0,0Z"/><path class="cls-1" d="M142.8,155.89a9.32,9.32,0,0,0,3-2.2c10.2-3.2,19.5-10.6,22.5-20.5a14.9,14.9,0,0,0,10.1-6.8c2.7-4,2.5-8.3,3.2-12.6.2-1,.4-1.9.6-2.9,0-.2.1-.3.1-.5h-.1a27,27,0,0,0,.4-2.8,8.78,8.78,0,0,0-.1-2.8c2.2-5.9,2.1-12.1-.6-17.2a1.72,1.72,0,0,0,.6-1.5,2.3,2.3,0,0,0-1.3-2l-.3-.2-.7-.7.2-.3a6.31,6.31,0,0,1,2.3-.8c.1,0,.3-.1.4-.1h.7a4.25,4.25,0,0,1,1.1.2,4.66,4.66,0,0,1,2,1.2.67.67,0,0,0,1,0,.84.84,0,0,0,.2-.7c-.4-2.4-3.2-3.4-5.4-3.2,0-.1.1-.1.1-.2a19,19,0,0,1,3.4-4.1c.4-.3,0-.9-.5-.8-3.5.5-5.7,3.7-7.6,6.5a5.6,5.6,0,0,0-1.5-1v-.2a1.91,1.91,0,0,0-1.6-1.5V78c.3-4.4.1-8.7-2-12.7-4.6-8.7-14.5-9.7-23.2-9a58.15,58.15,0,0,0-12.4,1.9,33,33,0,0,0-8.9,2.1l-1.8.3c-2.2.4-4.3.8-6.5,1.3l-1.1.3a94.7,94.7,0,0,0-10.2,2.5,1.59,1.59,0,0,0-1.2.9c-1.9.6-3.8,1.2-5.7,2a1.1,1.1,0,0,0-.6,1c-1.5.3-3,.7-4.5,1-.3.1-.3.7.1.6h.4a4.87,4.87,0,0,0-1.1.4.1.1,0,0,0,0,.2h0a41.74,41.74,0,0,0,7.9-.2c1.6-.1,3.2-.2,4.8-.4-4,1.7-7.9,3.6-11.8,5.6a.74.74,0,0,0-.4.9v.1a.94.94,0,0,0-.5.9l-2.1,1.2c-.7.4-.3,2,.7,1.6,4.6-1.8,9.1-3.6,13.7-5.4l7.5-2.4L114.7,75a1,1,0,0,0,.5,1.3h0c-.1.1-.3.2-.4.3-4.6,4.4-5,10.1-5.3,16a27.85,27.85,0,0,0-1.3,9.1,6.6,6.6,0,0,0,.1,1.4c-.2,1.2-.4,2.5-.5,3.8-1,7.7-2.5,16-.8,23.7s6.7,14,11.5,19.9C125,157.89,133.8,160.09,142.8,155.89Z"/><path class="cls-2" d="M120,83.39a1.41,1.41,0,0,0-1.2-.8,1.55,1.55,0,0,0-1.4.5,4.51,4.51,0,0,0-1.1,2.3,10.62,10.62,0,0,0-.4,1.9,9,9,0,0,0-.2,2.3,7.85,7.85,0,0,0,.5,2.2,1.54,1.54,0,0,0,3,0l.2-.5.2-.4.3-.9a17.85,17.85,0,0,0,.2-2.3,9,9,0,0,1,.2-1.8l.1-.9v-.4A3.37,3.37,0,0,0,120,83.39Z"/><path class="cls-2" d="M191.6,205a1.1,1.1,0,0,0,0-.8,63.56,63.56,0,0,0-5.1-10.9,3.55,3.55,0,0,1-.4-.9c-3.8-7-8.9-14.5-15.3-19.7a14.31,14.31,0,0,0-1.5-1.1c-.1,0-.1-.2-.2-.1a7,7,0,0,1-1-.8,11.63,11.63,0,0,0-.4-1.8,45.9,45.9,0,0,0-3.4-7.9c-1.2-2.1-3.1-3.8-5.7-3.2a11.76,11.76,0,0,0-.7-2,26.81,26.81,0,0,0-.7-2.7c6.9-4.8,12.7-11.7,14.8-19.8a7.48,7.48,0,0,0,2.6-.1c4.5-1.3,7.4-6.5,8.8-10.6a28.64,28.64,0,0,0,1.2-13,28.17,28.17,0,0,0-.7-3.1h0a3,3,0,0,0,1.4-2.2,14.34,14.34,0,0,1,1.4-3.4,17.11,17.11,0,0,0,2.2-7.6c.1-3.8-2.3-8.6-6.2-9.7l.1-.1c.2-.2-.1,0,0,0l.2-.1a.76.76,0,0,1,.5-.2c.2,0-.3.1,0,0l.2-.1.5-.1h.8l.3.1.2.1h.1c-.2-.1.1,0,.1.1l.2.1.4.2.1.1.2.2c.1,0,.1.1.1.2h0a1.41,1.41,0,0,0,2.5-1.3,5.49,5.49,0,0,0-9.8,1.5v.2a1.53,1.53,0,0,0,.7,2h.2a7.46,7.46,0,0,1,1.2.7,11.48,11.48,0,0,1,1.4,2.7,9.26,9.26,0,0,1,.3,3.3,15.54,15.54,0,0,1-.7,3.1,3.53,3.53,0,0,0-2.6-1.5,4.38,4.38,0,0,0-2.5.8,23.92,23.92,0,0,0-2.1,1.3,22.58,22.58,0,0,0-2.9,2.5c-1.8-.6-3.7-.7-5.5-1.5a6.17,6.17,0,0,1-2.2-1.5h0a4.28,4.28,0,0,1-.6-3.1,16.61,16.61,0,0,1,1.5-3.9,1.19,1.19,0,0,0-1.9-1.4,14.36,14.36,0,0,0-3.1,4.6,6.69,6.69,0,0,0,.8,5.5,14.11,14.11,0,0,0,3.8,3.9,9.08,9.08,0,0,0,4.1,1.9,9.5,9.5,0,0,0-1,1.7c-.2.4.3.7.5.3a11.23,11.23,0,0,1,1.8-2,1.42,1.42,0,0,0,.9-.8,12.75,12.75,0,0,1,2.5-1.5,7.11,7.11,0,0,1,3.2-.7,3.22,3.22,0,0,1,2.7,2.3,20.34,20.34,0,0,1,1.1,12.2,21.72,21.72,0,0,1-5.4,10.4c-1.1,1.2-2.6,2.8-4.4,3.1-2.1.3-3.8-2-5.1-3.2a.78.78,0,0,0-1.1,0h0a.66.66,0,0,0-.2.7,9.18,9.18,0,0,0,3.4,5.6c-4.2,7.3-9.3,13.9-16.3,18.5a39.79,39.79,0,0,1-11.4,5.4,41.32,41.32,0,0,1-6.1,1.3c-1.5.2-4.8,1.1-6,0a1.21,1.21,0,0,0-1-.3c-4.4-4-8.6-7.8-11.8-13a50.18,50.18,0,0,1-6.3-19.6c-1.8-13.9-.5-28.4,2.2-42.2a1.08,1.08,0,0,0,1.4.3c8.4-3.6,17.4-5.7,25.8-9.3h0l.7-.2c1.3-.3.7-2.2-.5-2a113.34,113.34,0,0,0-22.2,5.8,7.89,7.89,0,0,1,1.4-2.3.66.66,0,0,0,.1-.6,20,20,0,0,0,2.1-1,.78.78,0,0,0,.2-1,.67.67,0,0,0-.8-.3,9.33,9.33,0,0,0-3.3,1.2.64.64,0,0,0-.6,0l-1.2.4h0l-.4.1c-4.4,1.5-8.9,2.8-13.3,4.4-1.8.6-3.6,1.3-5.3,1.9,1.3-1,2.7-2,4.1-2.9,1.9-1.2,3.9-2.5,5.9-3.6,2.2-1.1,4.4-2.3,6.5-3.6a.93.93,0,0,0,.3-1.2.87.87,0,0,0-.9-.4c-4.7,1.1-9.4,4.2-13.5,6.6A96.67,96.67,0,0,0,85.4,83c-1.2,1,.1,3.4,1.6,2.8,4.8-2,9.9-3.6,14.9-5.3,3-1.1,6-2.2,9-3.4a.37.37,0,0,0,.1.3,2.19,2.19,0,0,0,.5.3c-3.4,7-4.6,15-5.5,23-1,8.6-1.8,17.3-1,26a52.29,52.29,0,0,0,6.2,20.8c3.1,5.3,7.8,10.8,13.9,12.8a22.5,22.5,0,0,0,2.4.8,17.51,17.51,0,0,0,7.2.3l.3-.1c1-.1,1.8-.2,2.3-.2a36.06,36.06,0,0,0,6.5-1.5c0,.7.1,1.4.1,2h0c-2,0-4.6.8-5.7,2.3a3.86,3.86,0,0,0-.5,2.8c.2,1.4.4,2.8.7,4.2a22.5,22.5,0,0,0,.5,2.2.85.85,0,0,0-.7,0c-3.5,1.2-6,5-8.1,7.9a61.3,61.3,0,0,0-6.2,11.2c-3.6,8.5-5.6,17.5-7.3,26.6-.4,2.3,3,3.3,3.6,1,2.2-8.4,4.2-17,7.4-25.1A71.51,71.51,0,0,1,133,184a56.18,56.18,0,0,1,3.5-5,22.11,22.11,0,0,0,2.8-4,17.55,17.55,0,0,0,1.2,3.2,3.62,3.62,0,0,0,1.5,1.5,7.24,7.24,0,0,0,1.1,1.9c2.4,3,6.2,1.7,9.4.9a43.64,43.64,0,0,0,12.2-4.5,44.18,44.18,0,0,1,6.1,3.2,38.43,38.43,0,0,1,6.8,5.9c1.6,2.4,3.1,4.9,4.5,7.4,4.2,8.1,6.7,16.9,8.6,25.8.4,2.1,3.9,1.6,3.7-.5A53.79,53.79,0,0,0,191.6,205Zm-47.8-28.1h0c-.3-.6-.5-1-.8-1.5a2.28,2.28,0,0,1-.3-1.1,34.73,34.73,0,0,1-1.6-7.1c0-.3-.1-.7-.1-1v-.3a5.36,5.36,0,0,1,1.1-.5,14.27,14.27,0,0,1,2.2-.8,2.92,2.92,0,0,0,.2.9,7.54,7.54,0,0,0,.6,1.3.63.63,0,0,0,.6.5l-.1.2L145,169a15.51,15.51,0,0,0-.4,2.9,9.85,9.85,0,0,0,1.2,5.3A3.4,3.4,0,0,1,143.8,176.89Zm9.5-.2a28.25,28.25,0,0,1-5,.5V177a21.05,21.05,0,0,1-.2-2.5c0-.9-.2-1.7-.2-2.5v-2.3c.1-.5.1-1,.2-1.4v-.2a8.22,8.22,0,0,0,2.7.2,2.28,2.28,0,0,0,1.1-.3v1c.1.9.2,1.9.3,2.8s.3,1.9.4,2.9c.2.6.4,1.2.7,2Zm.5-12.6-.3.2a2,2,0,0,1-.8.4,5.78,5.78,0,0,1-1.4.5,4.45,4.45,0,0,1-2.3.1l.1-.1a10.92,10.92,0,0,0,1.3-1.7c.8-1,1.4-2.1,2.2-3.2s1.3-1.9,2.1-2.9l.2-.2a14.62,14.62,0,0,0,.5,2c.2.5.3.9.5,1.4a4.05,4.05,0,0,0,.5.9h0a17.53,17.53,0,0,1-2.4,2.3Zm6,10.7h0a33.82,33.82,0,0,1-3.4,1.1,7.61,7.61,0,0,0-.3-2.1l-.7-2.6c-.2-.9-.4-1.8-.6-2.6a8.33,8.33,0,0,0-.4-1.5,4.05,4.05,0,0,0,.9-.5,8,8,0,0,0,1.7-1.5,2.51,2.51,0,0,0,.4-.7,16.58,16.58,0,0,1,2.4,10.4Zm5-3a5.85,5.85,0,0,1-2.1,1.7,13.12,13.12,0,0,0-.4-5.2,14.33,14.33,0,0,0-3.5-5.6,1.43,1.43,0,0,0,.6-1.5c-.1-.4-.1-.7-.2-1.1,2.5-.3,3.5,3.4,4.2,5.1.4,1.2.8,2.4,1.2,3.7.1.9.6,2.1.2,2.9Z"/><path class="cls-2" d="M180.1,110.09c-1.1-2.4-3-6.6-6.3-5.9a5.14,5.14,0,0,0-3,2.6,23.78,23.78,0,0,0-2.3,4.1,2.68,2.68,0,0,0,1.4,3.5h0c.1,0,.2.1.3.1a3.86,3.86,0,0,0,2.1-.3,4.05,4.05,0,0,0,.9-.5c.1,0,.2-.1.3-.1v.5a2.62,2.62,0,0,1-.6,1.3,6.57,6.57,0,0,1-1.7,1.2,7.28,7.28,0,0,0-1.8,1.7,5.27,5.27,0,0,0-1.1,4.8,2.56,2.56,0,0,0,3.3,1.6h.1l.2-.1c1.1-.5.2-1.9-.7-1.8s-.5-1-.4-1.4a3.74,3.74,0,0,1,1.2-1.3c.8-.4,1.6-.5,2.4-.9a4.53,4.53,0,0,0,1.7-1.3,5,5,0,0,0,1-4.7,3.87,3.87,0,0,0-2.7-2.7,3.66,3.66,0,0,0-2.3.4l-.6.3c.2-.3.4-.7.6-1l1.1-2.1a3.81,3.81,0,0,1,.9-1.3c.5-.4,1.1,0,1.5.4s1,1.1,1.5,1.6l2.1,1.8a.48.48,0,0,0,.7,0c.3-.1.3-.3.2-.5Z"/><path class="cls-2" d="M129.1,107.39a9,9,0,0,0-2.8-2.7,7.3,7.3,0,0,0-4.1-1.2,4,4,0,0,0-2.5,1,3.87,3.87,0,0,0-1.2,1.9,7.61,7.61,0,0,0-.3,2.1,7.94,7.94,0,0,0,.6,2.2,1.43,1.43,0,0,0,1.8,1,1.5,1.5,0,0,0,1.1-1.4v-.9a.75.75,0,0,1,.1-.5v-.7a.37.37,0,0,1,.1-.3c.1-.1,0,.1,0,.1v-.1h0c.1-.3,0-.1,0,0l.1-.2v-.1l.1-.1.1-.1h.5l.3.1.7.1a7.37,7.37,0,0,1,1.4.4c.9.3,1.7.6,2.6.9a1,1,0,0,0,1.4,0h0a1.09,1.09,0,0,0,0-1.5Z"/><path class="cls-2" d="M143.7,89v-1.8a2,2,0,0,1,.1-.8,5.7,5.7,0,0,0-.1-1.3,1.63,1.63,0,0,0-1.2-1.2,1.73,1.73,0,0,0-1.7.4l-.4.4a2.38,2.38,0,0,0-.6,1.1l-.3.9a10,10,0,0,0-.4,2.4,6.52,6.52,0,0,0,.2,2.4,3.81,3.81,0,0,0,.8,1.7,6.47,6.47,0,0,0,.9.8,1.66,1.66,0,0,0,2.3-.6,4.87,4.87,0,0,0,.4-1.1,5.7,5.7,0,0,0,.1-1.3C143.8,90.19,143.7,89.69,143.7,89Z"/><path class="cls-2" d="M131.8,127.09a7.57,7.57,0,0,0-1.8-.9c-.5-.2-1-.3-1.6-.5-1.2-.3-2.4-.4-3.6-.6a1.35,1.35,0,0,0-1.3,1.4,1.23,1.23,0,0,0,.7,1.1c1.1.5,2.2,1,3.3,1.4a7.49,7.49,0,0,0,1.6.4,13.4,13.4,0,0,0,2,.1,1.32,1.32,0,0,0,1.3-1.3,1.36,1.36,0,0,0-.6-1.1Z"/><path class="cls-2" d="M161.8,84.49a1.53,1.53,0,0,0-1.7-.2,7.73,7.73,0,0,0-3.2,4.5,11.71,11.71,0,0,0-.4,2.6,5.55,5.55,0,0,0,.7,2.8,1.14,1.14,0,0,0,1.6.4,1.1,1.1,0,0,0,.6-1v-.7h0c.1-.4.1-.8.2-1.3h0v-.2a4.33,4.33,0,0,1,.1-.5c.1-.3.2-.7.3-1s.1-.3.2-.5l.1-.2h0c.2-.3.3-.7.5-1s.2-.3.3-.5l.1-.1.1-.1c.3-.4.6-.7.9-1.1A2.56,2.56,0,0,0,161.8,84.49Z"/><path class="cls-2" d="M187.3,73.09c-4.5-.1-7.6,3.6-10,6.8a1,1,0,1,0,1.6,1.2c2.3-2.7,4.9-5.8,8.7-6.3a.89.89,0,0,0,.6-1A1,1,0,0,0,187.3,73.09Z"/><path class="cls-2" d="M175.5,63.39a18.5,18.5,0,0,0-1.7-6.1,7.4,7.4,0,0,0-2-2.3c0-.1-.1-.2-.1-.3-1.6-1.5-4.6-1.3-6.6-1.4-2.4-.1-4.9-.2-7.3-.1-3.8.1-7.5.3-11.3.7h-.8c-17.3,1-34.9,5.8-49.8,14.8a1.53,1.53,0,0,0,1.6,2.6c14.1-7.1,29.2-12.1,45-13.4,3.7-.3,7.4-.4,11.1-.4,3.9,0,8.1,0,11.8,1.1,8.5,2.6,7.4,13.3,8.9,20.3.4,1.9,3.1,1,2.9-.8C176.4,73.49,176.8,68.09,175.5,63.39Z"/><path class="cls-2" d="M147.8,71.89c-2.3.7-4.6,1.5-6.8,2.4a28.18,28.18,0,0,0-7.3,3.8c-.5.4,0,1.2.6,1.1a55.41,55.41,0,0,0,6.8-2.5q3.45-1.2,6.9-2.1c1-.2,2.7-.5,2.7-1.9S148.8,71.69,147.8,71.89Z"/><path class="cls-2" d="M137,186.29a110.22,110.22,0,0,0-5.5,18.6c-.6,3.1-1,6.1-1.3,9.2-.2,1.6-.2,3.1-.3,4.7a43.49,43.49,0,0,0-.2,5.1.86.86,0,0,0,.8.8.76.76,0,0,0,.8-.6,40.5,40.5,0,0,0,1.2-5c.4-1.4.8-2.8,1.1-4.2.7-3.2,1.3-6.4,1.8-9.7a170.52,170.52,0,0,0,2-18.9C137.5,186.09,137.1,186.09,137,186.29Z"/><path class="cls-1" d="M81.42,50.16a4.5,4.5,0,0,0-.59-1.95c-.06-.39-.11-.78-.16-1.17,0-.17,0-.33-.08-.5l0-.28A5.47,5.47,0,0,0,80,44.18a3.8,3.8,0,0,0-1.61-1.49A6.87,6.87,0,0,0,75.59,42c-1-.07-2-.1-3-.11s-2,.06-3.05.15a20.64,20.64,0,0,0-3.84.53,4.23,4.23,0,0,0-1.29.65q-13-.06-26,.19a144.2,144.2,0,0,0-27.55.89,5.82,5.82,0,0,0-1,.24l-3.12-.08c-1.93,0-3.79.31-4.84,2.11C1,48.07,1.05,50,1,51.63a56.93,56.93,0,0,0,.86,11.58c.23,1.32,1.69,1.75,2.8,1.59.46-.06.92-.11,1.38-.14a12.45,12.45,0,0,0,3.18,1.7c3.18,1.14,6.81.88,10.13.83,3.62,0,7.23-.13,10.84-.25s7.21-.28,10.8-.48a6.86,6.86,0,0,0,4.46,1.39c2,0,4-.09,6-.16l4.39-.19.07.09v.13a6.48,6.48,0,0,0,1.27,3.48,2.24,2.24,0,0,0,1.63,1c0,.05.07.11.11.17a7.19,7.19,0,0,0,1,1c.17.14.35.29.51.45s.17.17.26.26l0,0s0,0,0,0a7.39,7.39,0,0,0,.91,1.3,2.54,2.54,0,0,0,.69.53A1.67,1.67,0,0,0,64,76a1.4,1.4,0,0,0,.5-1.89,1.64,1.64,0,0,0-.56-.58l-.09-.07a.64.64,0,0,1-.1-.13c-.19-.32-.34-.67-.55-1a7.66,7.66,0,0,0-1.06-1.21l-.44-.44-.18-.2-.06-.09-.15-.27-.1-.18-.08-.21-.15-.4a4.5,4.5,0,0,0-.91-1.55l-.2-.19h0l.15-.1.48-.28c1-.08,1.91-.16,2.85-.28A2.8,2.8,0,0,0,66,64.49c1.43-.16,2.86-.32,4.3-.43A20,20,0,0,1,73,64s.78.09.87.08a9.67,9.67,0,0,1,1.46.42c2.56.91,5.38-1.45,5.37-4a4.61,4.61,0,0,0,.76-2.13A35.35,35.35,0,0,0,81.42,50.16Z"/><path class="cls-2" d="M.43,60.11c.07,2.82.59,5.34,3.41,6.61,3.27,1.48,7.5,1,11,1.26,4.38.22,8.84.52,13.29.67s8.84.29,13.29.37c4.09.07,8.62-.37,12.55.44s5,4.9,7.87,7.28A11.37,11.37,0,0,0,69,79.26l.3.15a.48.48,0,0,0,.52-.15h.22a.35.35,0,0,0,.38-.37.35.35,0,0,0-.38-.37.57.57,0,0,0-.29-.3,8.55,8.55,0,0,1-4.61-4.08c-1-1.63-2.22-3.19-2.37-5.2-.08-.89-.15-.59.29-1a6.74,6.74,0,0,1,1.71-.22l3.42-.23a54.82,54.82,0,0,1,6.9.15c1.56.08,3.57.59,5-.15s1.78-2.45,2-3.93a48.67,48.67,0,0,0,.15-13.15c-.23-2.45-.15-6.75-2.75-8a8.33,8.33,0,0,0-1.93-.6,10.75,10.75,0,0,0-1.49-.15c-2.08-.15-4.23-.44-6.31-.66C61,40.36,52,40.8,43.12,41s-17.74.3-26.65.59c-2.31.08-4.61.15-6.91.3a27.46,27.46,0,0,0-5.42.37c-2.82.67-3.79,3.42-4,5.94C-.24,52.09.28,56.17.43,60.11Zm2.45-2.38C3,55.88,3,54,3,52.16c0-1.63-.23-3.56.29-5.12.67-1.78,2.31-1.71,3.94-1.78,16.11-.67,32.22-1.71,48.34-1.93l11.95-.23c2.15,0,4.23-.22,6.46-.37a13.67,13.67,0,0,1,3.49.08A3.36,3.36,0,0,1,80,44.66c1.63,3.49,1,8.47.59,12.11a51.55,51.55,0,0,1-1,5.71c-.3,1.19-.37,2.16-1.78,2.16-.75-.08-1.49-.15-2.23-.3a47.39,47.39,0,0,0-10.77.37c-2.52.37-5.34.52-5,3.71a13.42,13.42,0,0,0,3,7,16.65,16.65,0,0,1-2.74-4c-1.49-2.89-3.94-4.08-7.13-4.45-4.09-.45-8.32-.37-12.4-.52-4.38-.15-8.84-.37-13.29-.6l-12.4-.44-5.94-.3C7.11,65,5,65.16,3.7,63.82,2.36,62.33,2.8,59.59,2.88,57.73Z"/><g class="cls-3"><path class="cls-2" d="M17.14,55,19,57.31l-2.6,2.1-1.88-2.86-1.82,3-2.6-2L12,55.35l-2.52-1,1.22-2.9,2.12,1.06-.06-3L16,49.43l-.12,3.22,2.14-1.6,1.48,3Z"/><path class="cls-2" d="M28.24,55l1.9,2.36-2.6,2.1-1.88-2.86-1.82,3-2.6-2,1.82-2.22-2.52-1,1.22-2.9,2.12,1.06-.06-3,3.32-.12L27,52.65l2.14-1.6,1.48,3Z"/><path class="cls-2" d="M39.34,55l1.9,2.36-2.6,2.1-1.88-2.86-1.82,3-2.6-2,1.82-2.22-2.52-1,1.22-2.9L35,52.53l-.06-3,3.32-.12-.12,3.22,2.14-1.6,1.48,3Z"/><path class="cls-2" d="M50.44,55l1.9,2.36-2.6,2.1-1.88-2.86-1.82,3-2.6-2,1.82-2.22-2.52-1L44,51.47l2.12,1.06-.06-3,3.32-.12-.12,3.22,2.14-1.6,1.48,3Z"/><path class="cls-2" d="M61.54,55l1.9,2.36-2.6,2.1L59,56.55l-1.82,3-2.6-2,1.82-2.22-2.52-1,1.22-2.9,2.12,1.06-.06-3,3.32-.12-.12,3.22,2.14-1.6,1.48,3Z"/><path class="cls-2" d="M70.45,55.86H67.38a5,5,0,0,1,.1-1.61A3.8,3.8,0,0,1,68,53.16a3,3,0,0,1,.67-.7c.24-.17.48-.33.71-.46s.44-.26.62-.38a.94.94,0,0,0,.37-.45.93.93,0,0,0,0-.38.74.74,0,0,0-.19-.4,1.23,1.23,0,0,0-.47-.33,2.31,2.31,0,0,0-.82-.13,6,6,0,0,0-.77.06,8.6,8.6,0,0,0-.94.18c-.33.09-.65.19-1,.3a5.29,5.29,0,0,0-.86.41l-.4-3.56a8.65,8.65,0,0,1,.76-.42,6.67,6.67,0,0,1,.93-.38,10,10,0,0,1,1.11-.28,7.5,7.5,0,0,1,1.29-.1,7.27,7.27,0,0,1,2.11.3,5.15,5.15,0,0,1,1.74.91,4.28,4.28,0,0,1,1.18,1.48,4.47,4.47,0,0,1,.44,2,3.37,3.37,0,0,1-.24,1.39,2.82,2.82,0,0,1-.63.86,3.86,3.86,0,0,1-.86.56c-.31.15-.62.32-.92.5a3.9,3.9,0,0,0-.83.65A2.55,2.55,0,0,0,70.45,55.86Zm.45,2.4a1.85,1.85,0,0,1-.15.74,2.14,2.14,0,0,1-.42.61,1.94,1.94,0,0,1-.6.41,1.9,1.9,0,0,1-1.48,0,1.91,1.91,0,0,1-1-1,2,2,0,0,1-.15-.74,2.13,2.13,0,0,1,.15-.75,2,2,0,0,1,.41-.61,2.11,2.11,0,0,1,.61-.41,1.79,1.79,0,0,1,1.48,0,1.94,1.94,0,0,1,.6.41,2,2,0,0,1,.42.61A1.93,1.93,0,0,1,70.9,58.26Z"/></g><path class="cls-1" d="M31.34,161q6.94,0,13.88.17a5.54,5.54,0,0,0,1.51-.18c-1.09,2.17-2.22,4.33-3.45,6.43-.89,1.5-1.81,3-2.59,4.61a2.16,2.16,0,0,0-1.3,1h0a55.75,55.75,0,0,0-2.83,7.53c-.39.92-.72,1.86-1,2.8a36.93,36.93,0,0,0-1.61,7.94,2.05,2.05,0,0,0,1,1.83c0,.44-.09.89-.11,1.34A2.83,2.83,0,0,0,30.42,196a8.25,8.25,0,0,0,1.44,7.2,8.07,8.07,0,0,0,1.07,1.12,10.69,10.69,0,0,0,2.82,4.07,3.43,3.43,0,0,0,.77.51q.13.21.3.42c-.66,1.61-1.25,3.24-1.77,4.91a59.78,59.78,0,0,0-2.56,13.85,2.49,2.49,0,0,0,.66,1.8c0,.14,0,.28,0,.42,0,.37,0,.74,0,1.11,0,.22,0,.43,0,.65,0,1.12,0,2.24.06,3.37a3.21,3.21,0,0,0,.71,1.82c.61.35,1.23.7,1.87,1a2.77,2.77,0,0,0,.3,0l.31,0c0,.09,0,.18-.07.27a19.39,19.39,0,0,0,2.43,1c.84.29,1.7.52,2.56.73.86-2,1.7-4.08,2.55-6.13a11.34,11.34,0,0,0,.55,1.61c.61,1.41,2.47,1.82,3.8,1.54A7.07,7.07,0,0,0,51,236a3.56,3.56,0,0,0,2.92.6,7.36,7.36,0,0,0,4.46-3.75c0,.5-.09,1-.13,1.51-.2,2.55,3.69,4.34,5.34,2.21.27-.35.53-.72.79-1.08a3.14,3.14,0,0,0,5.61.59,17.09,17.09,0,0,0,.94-1.45,2.77,2.77,0,0,0,1.07.74,3.05,3.05,0,0,0,3.37-.64A14.38,14.38,0,0,0,77,232.42a7.51,7.51,0,0,0,1.63,2.51,92.93,92.93,0,0,1,15.31-2.76,3,3,0,0,0,.46-.79,3,3,0,0,0,.66.68,68.33,68.33,0,0,1,10.61,0,20.25,20.25,0,0,0,0-2.06,3.24,3.24,0,0,0,1.28-3.34c-1.34-8.73-3-17.72-6.83-25.73-.6-1.94-1.29-3.86-2-5.73A52.2,52.2,0,0,0,94.47,188q-1.09-2.5-2.28-5a1.5,1.5,0,0,0-2.19-.47c-.27-.23-.54-.45-.82-.65-.85-1.24-1.75-2.44-2.72-3.6a33.07,33.07,0,0,0-2.9-3c-.92-.85-1.77-1.9-2.73-2.69a1.09,1.09,0,0,0-.47-.38c-.24-.33-.48-.66-.73-1a28.11,28.11,0,0,1-1-4.51,47,47,0,0,0-.7-5.44c2.67.86,5.55,1.82,8,1.13a.83.83,0,0,0,.22.55,1.46,1.46,0,0,0,1.53.31c1.18-.4,1.45-1.63,1.44-2.74a.5.5,0,0,0-.11-.31,16.7,16.7,0,0,0,2-4.45c.2-.6.37-1.21.56-1.82.08.06.14.13.23.19a2.92,2.92,0,0,0,.37.17l.12.5c.16.72.33,1.44.47,2.16s.09,1.39.17,2.09a1.78,1.78,0,0,0,1.52,1.73,1.75,1.75,0,0,0,1.93-1.26s0-.07,0-.11a6.51,6.51,0,0,0,.25-2.56,17.71,17.71,0,0,1,.14-1.92,22.2,22.2,0,0,1,.7-3c.56,3.22,1.07,6.46,1.77,9.65a.52.52,0,0,0,1-.13c0-.9-.11-1.8-.19-2.69a1,1,0,0,0,.83-1c0-1.56,0-3.13,0-4.69a1.62,1.62,0,0,0,.47-1.18c0-2.2-.09-4.4-.16-6.6s-.06-4.41-.3-6.59a1.32,1.32,0,0,0-.82-1.34l0-.14c0-2.39-.34-4.82-.53-7-.37-4.31-.93-8.62-1.6-12.89q-.19-1.21-.45-2.43c.74-5.18-.38-11.54-3.72-15.37a18.65,18.65,0,0,0-4.13-6.9,12.65,12.65,0,0,0-3.77-2.58,1.18,1.18,0,0,0,.47-1.64,5,5,0,0,0-3.6-1.84,15.23,15.23,0,0,0-4.42.07l-.15,0c.26-.5.52-1,.77-1.51a10.4,10.4,0,0,0,1.27-3.09c.06-.43-.36-.91-.81-.62A9.06,9.06,0,0,0,77.14,84a27.24,27.24,0,0,0-1.86,3.07l-.18.37-.54.16c-.11-.29-.22-.59-.34-.88-.83-1.86-2-4.14-4.1-4.73a.72.72,0,0,0-.7,1.19A11.87,11.87,0,0,1,71.84,88c.07.21.12.41.18.62l-.07,0-.55-.13-.78-.24-.15,0-.36-.21a.86.86,0,0,0-.42-.12c-6-4-15.39-4.06-21.62-1.7-7.76,2.93-15.84,10.57-17.38,19A7.29,7.29,0,0,0,31,109a7.53,7.53,0,0,0,3.1,7.62v0a26.58,26.58,0,0,0,.36,5.91c-2.57,10.7-4.56,21.63-7.94,32.09C25.47,157.78,28.19,161,31.34,161Zm17.83,3.62c.28-1.17.51-2.34.72-3.53.06-.26.11-.52.17-.78a27.34,27.34,0,0,0,19.94,0,2.2,2.2,0,0,0-.22.52c-.12.47-.23.93-.32,1.4a4.64,4.64,0,0,0-1.1,2.73,24.94,24.94,0,0,0-.34,3,1.79,1.79,0,0,0,.11.69,8.1,8.1,0,0,0,.05,1.9c0,.05,0,.09,0,.13l-.09.72a2.67,2.67,0,0,0-2.3.24c-1.08.69-2.15,1.4-3.2,2.14-2.79,1-5.06,3.28-7.3,5.25-.42.36-.83.74-1.24,1.11a11.72,11.72,0,0,0-1.42-5.69A4,4,0,0,0,48,171.41a5.47,5.47,0,0,0-1.62.68c.48-1.22.93-2.45,1.34-3.69A11.11,11.11,0,0,0,49.17,164.63Z"/><path class="cls-1" d="M38.69,239.54a34.86,34.86,0,0,0,12.17,1.66c8.37-.24,16.34-3,24.3-5.33,11.07-3.24,22.23-4.93,33.34-3.47a3.22,3.22,0,0,0-3.13-2.19c-8.5.25-17,0-25.49.33s-17,.75-25.39,1.79c-2.5.3-4.28.63-6.77.8a22.5,22.5,0,0,1-3.18,0l-.34,0a3.11,3.11,0,0,0-2.38-2.22,4.46,4.46,0,0,0-4.53,1.55,4.65,4.65,0,0,0-1,3.14,6.8,6.8,0,0,1-1-1,3.11,3.11,0,0,0-4.86.62C33.14,236.78,35.64,238.51,38.69,239.54Z"/><path class="cls-2" d="M87.14,122.58a11.35,11.35,0,0,1,1.77-1.22.43.43,0,0,0,0-.74c-1.26-.94-2.91-.22-4,.68a6,6,0,0,0-2.19,3.56A3.29,3.29,0,0,0,83,127a2.19,2.19,0,0,0,2.16,1,4.19,4.19,0,0,0,1-.3l.13-.05c0,.05,0,.11,0,.12s0,.14,0,.19a1.43,1.43,0,0,1,0,.28A5.53,5.53,0,0,1,85.3,130a3,3,0,0,0-.67,2.43c.14.89,1.36.69,1.62,0,.52-1.44,2-2.28,2.31-3.82s-.48-3.47-2.34-3.34l-.87.17v-.17a.22.22,0,0,0,0-.09s.11-.34.11-.36a4.09,4.09,0,0,1,.25-.46A6.84,6.84,0,0,1,87.14,122.58Z"/><path class="cls-2" d="M52.76,135.81s0,0,0,.06l0-.05Z"/><path class="cls-2" d="M56.24,135.31a20.24,20.24,0,0,0-1.86-2A5.57,5.57,0,0,0,51.21,132a3.41,3.41,0,0,0-3.05,1.46,3,3,0,0,0-.51,1.61,2.28,2.28,0,0,0,.75,1.65,1.23,1.23,0,0,0,2.07-.76h0a1.15,1.15,0,0,0,.18-.45l.2-.21,0-.05h0l0,0,0,0h0l0,0h0l0,0,.16,0h.22l.49.15.2.1a4.12,4.12,0,0,1,.45.27l.21.15h0v0c.14.1.09.09,0,.05.1.09.31.22.37.27.22.17.44.33.68.49s.61.4.93.58a1.22,1.22,0,0,0,1.56-.31A1.21,1.21,0,0,0,56.24,135.31Z"/><path class="cls-2" d="M50.48,135.94Z"/><path class="cls-2" d="M50.91,135.21v0a.4.4,0,0,0,.12-.07h0Z"/><path class="cls-2" d="M46,127.4a6.89,6.89,0,0,0-1.14-2.82,1.65,1.65,0,0,0-1.39-1.08A1.48,1.48,0,0,0,42,124.83a10.35,10.35,0,0,0-.15,3.09,8.08,8.08,0,0,0,.4,1.83,7.57,7.57,0,0,0,.82,1.81,1.42,1.42,0,0,0,2.58-.34A8.52,8.52,0,0,0,46,127.4Z"/><path class="cls-2" d="M64.28,128.81l0-.08c0-.27,0-.53-.06-.8,0-.49-.12-1-.2-1.48a9.12,9.12,0,0,0-.77-2.44,1.31,1.31,0,0,0-1.47-.6,1.36,1.36,0,0,0-.9.93,5,5,0,0,0-.75,2.7,6.92,6.92,0,0,0,.25,1.63,4.82,4.82,0,0,0,.37,1,4.51,4.51,0,0,0,.66.85,1.74,1.74,0,0,0,2.1.27,2.19,2.19,0,0,0,.63-.62A1.75,1.75,0,0,0,64.28,128.81Z"/><path class="cls-2" d="M75.33,85.94a7.77,7.77,0,0,0-1.45-2.34A7.08,7.08,0,0,0,71.79,82a11,11,0,0,0-2.38-1,1.12,1.12,0,0,0-1.08,1.86,11.1,11.1,0,0,0,1,.84l.44.31.22.17h0c.57.46,1.11,1,1.65,1.44a6,6,0,0,1,.7.72l0,0s.07.11.1.15a3.87,3.87,0,0,1,.27.43c.16.29.36.55.5.85a.49.49,0,0,1,0,.1c0,.11.09.22.15.33a4.74,4.74,0,0,0,.4.49.9.9,0,0,0,1.39-.18,2.07,2.07,0,0,0,.34-1.33A4.5,4.5,0,0,0,75.33,85.94Z"/><path class="cls-2" d="M80.55,81a1,1,0,0,0-1.16.15,7,7,0,0,0-1.21,1.34,9.15,9.15,0,0,0-.88,1.63,13,13,0,0,0-.5,1.49,6.52,6.52,0,0,0-.17,1.87,1.08,1.08,0,0,0,.93,1.06,1.1,1.1,0,0,0,1.18-.77c0-.06.05-.11.07-.17h0c0-.11.1-.23.16-.34a8.26,8.26,0,0,0,.36-.94c.08-.25.17-.5.26-.74l.15-.37h0a.46.46,0,0,0,0-.09c.14-.3.25-.6.37-.91l.08-.21c0-.09.09-.19.13-.29.24-.53.42-1.08.64-1.62A1,1,0,0,0,80.55,81Z"/><path class="cls-2" d="M103.47,127.27a106.43,106.43,0,0,0-3.21-17.44c-1.45-5.31-3.15-11-6.2-15.62S85.89,85.69,80.2,86.5c-1.24.18-.87,2.06.29,2.11,11.38.51,14.3,13.36,16.36,22.4A134.75,134.75,0,0,1,100,143.54c-.06,3.1-.23,6.2-.51,9.28-.14,1.47-.31,2.92-.49,4.38a16.13,16.13,0,0,0-.3,4.64c.16,1,1.55,1,2,.27a11.46,11.46,0,0,0,1.2-3.81c.32-1.52.58-3,.82-4.57q.69-4.38,1-8.79A99.32,99.32,0,0,0,103.47,127.27Z"/><path class="cls-2" d="M66.7,135.53a.39.39,0,0,0,0,.78A.39.39,0,0,0,66.7,135.53Z"/><path class="cls-2" d="M69.23,132.85a.71.71,0,0,0,0,1.41A.71.71,0,0,0,69.23,132.85Z"/><path class="cls-2" d="M70.18,135.69a.55.55,0,0,0,0,1.09A.55.55,0,0,0,70.18,135.69Z"/><path class="cls-2" d="M73.49,133.15a.88.88,0,0,0,0,1.75A.88.88,0,0,0,73.49,133.15Z"/><path class="cls-2" d="M64.11,134.31a.82.82,0,0,0-.25-.24l-.09-.07a.75.75,0,0,0-.38-.1.76.76,0,0,0-.39.1.87.87,0,0,0-.27.27.76.76,0,0,0-.1.39.75.75,0,0,0,.1.38.81.81,0,0,0,.27.28.79.79,0,0,0,.77,0l.09-.07a.75.75,0,0,0,.25-.25.67.67,0,0,0,.09-.34A.7.7,0,0,0,64.11,134.31Z"/><path class="cls-2" d="M39.7,135.16a.76.76,0,0,0,0,1.52A.76.76,0,0,0,39.7,135.16Z"/><path class="cls-2" d="M41.92,136.76a.59.59,0,0,0,0,1.17A.59.59,0,0,0,41.92,136.76Z"/><path class="cls-2" d="M44.13,134.84a.61.61,0,0,0,0,1.21A.61.61,0,0,0,44.13,134.84Z"/><path class="cls-2" d="M45.07,137.37a.45.45,0,0,0,0,.89A.45.45,0,0,0,45.07,137.37Z"/><path class="cls-2" d="M38.13,137.13a.69.69,0,0,0,0,1.37A.69.69,0,0,0,38.13,137.13Z"/><path class="cls-2" d="M61.56,148.66a1.46,1.46,0,0,0-.58-.76l-.43-.3a3.47,3.47,0,0,0-.68-.31A5.85,5.85,0,0,0,59,147a14.41,14.41,0,0,0-2.17-.34,1.21,1.21,0,0,0-.86.35,1.31,1.31,0,0,0-.33.7,1.21,1.21,0,0,0,.87,1.33,13.16,13.16,0,0,1,2,.67l-.32-.14,1,.42a6.94,6.94,0,0,0,.78.22,1.28,1.28,0,0,0,1.5-.74A1.22,1.22,0,0,0,61.56,148.66Z"/><path class="cls-2" d="M107.46,219.36c-.24-1.34-.49-2.67-.76-4a106.59,106.59,0,0,0-6-21A54.3,54.3,0,0,0,95.15,184,79.58,79.58,0,0,0,87,174.88a26.17,26.17,0,0,1-4.32-5.71,17.21,17.21,0,0,1-1.55-4.12h.65c1.68,0,3.35-.08,5-.13,1.33-.05,3,.17,3.83-1.12a5,5,0,0,0,.53-1.89c.14-.83.28-1.65.39-2.48s.25-1.8.37-2.7l.06-.41c.24.6.45,1.2.64,1.82a19.42,19.42,0,0,1,.75,3.79c.11,1.32,2,2.11,2.69.73a19.15,19.15,0,0,0,1.6-5,22.52,22.52,0,0,0,.26-5.19.61.61,0,0,0-1.19-.16c-.56,1.56-1.16,3.05-1.6,4.65a.88.88,0,0,1,0,.15,12.35,12.35,0,0,0-1.78-3.42c-.64-.81-1.68-1.24-2.48-.35a3,3,0,0,0-.59,1.43c-.2.8-.43,1.6-.66,2.4-.41,1.47-.8,2.94-1.17,4.42,0,.1-.05.21-.08.31h-.68l-2.51-.09c-1.54-.06-3.06-.1-4.6-.08h-.68a1.45,1.45,0,0,0-.22-.09l-.21,0-.09,0-.27-.16s-.17-.15,0,0l-.13-.12a3.83,3.83,0,0,1-.29-.28l-.07-.08-.08-.11c-.07-.12-.14-.25-.2-.38a.05.05,0,0,1,0,0l-.07-.22a4.53,4.53,0,0,0-.15-.44l.39-1.76c.34-1.55.68-3.08.95-4.64A44.44,44.44,0,0,0,83,148.61c2-2.92,3.69-6.17,3.77-9.78a6.08,6.08,0,0,0,3.47-1.7,12.08,12.08,0,0,0,2.41-4.44c1.19-3.38,2.08-7,1.36-10.56-.57-2.88-2.59-6.47-5.73-7.06-1.93-.37-4.17.9-5.59,2.67a2.26,2.26,0,0,0-.74-.21h0l-.21,0a6,6,0,0,1-.9-.25l-.12,0h0l-.42-.22c-.26-.14-.49-.31-.73-.47l-.14-.12-.35-.32c1.38-.07,2.77-.15,4.15-.25a1.28,1.28,0,0,0,1.09-1.89,48.71,48.71,0,0,1-1.8-5.6c-.58-1.86-1.23-3.68-1.7-5.57A35.6,35.6,0,0,1,79.68,97c-.16-1.94-.29-3.88-.42-5.82-.06-.93-1.52-1.26-1.73-.23a24.53,24.53,0,0,0-.48,6,55.49,55.49,0,0,0,.49,6.43,28.78,28.78,0,0,0,1.54,6.09,27.07,27.07,0,0,0,2,3.86c-4.87.14-9.74.3-14.61.37-2.15,0-5.09.59-6.92-.77-1.63-1.21-2.36-3.4-3-5.24a1.24,1.24,0,0,0-2.23-.29,13.87,13.87,0,0,0-1.4,4.91,7.8,7.8,0,0,1-1.8-5.34c.05-1.14-1.43-1.35-2-.54a15.49,15.49,0,0,0-2.7,6.91c-.5,0-1-.11-1.5-.12-.8,0-1.6,0-2.4-.05-1.68-.06-3.37-.15-5.05-.23-.83,0-1.66-.11-2.5-.19a1.49,1.49,0,0,0-1.53-.42c-.51-.2-1-.48-1-1a14,14,0,0,1,.37-3.27,34.28,34.28,0,0,1,1.81-6.5,26.66,26.66,0,0,1,3-5.82c.2-.29.43-.56.64-.83a27.9,27.9,0,0,1,19.92-8.09c4.47,0,8.65,1.3,12.91,2.51a1,1,0,0,0,.78-1.86c-3.49-2.43-7.86-3.3-12.06-3.44A34.11,34.11,0,0,0,47.3,86a30.41,30.41,0,0,0-7.06,3.63,9.64,9.64,0,0,0-1.64,1.21,32,32,0,0,0-8.67,10.63,33.1,33.1,0,0,0-2.38,6.13c-.52,1.9-1,4.66-.3,6.56a1,1,0,0,0,1,.61A15.75,15.75,0,0,0,32.16,116c0,.36-.07.73-.11,1.1-.37,2.79-.58,5.59-.85,8.4q-.56,5.58-1.52,11.1t-2.32,10.87c-.46,1.83-1,3.66-1.46,5.48-.23.84-.47,1.67-.66,2.52a12.46,12.46,0,0,1-.77,3.1,1.38,1.38,0,0,0,.48,1.85,27,27,0,0,0,11.9,3.31,33,33,0,0,0,6.48-.23c-1.46,2.88-2.86,5.8-4.11,8.77-3.4,6.48-5.68,13.64-5.6,21a4.23,4.23,0,0,0-1.4.34,4.12,4.12,0,0,0-2.3,2.13,6.6,6.6,0,0,0-.54,3.25,11.94,11.94,0,0,0,.68,3.46,18.15,18.15,0,0,0,3.38,4.91s.08,0,.1.09l.09.12.32.35c.17.18.37.34.55.52v.05a25.72,25.72,0,0,0-1.86,6.21c-.56,2.43-1,4.89-1.41,7.35a62.24,62.24,0,0,0-1.08,14.66c.12,1.57,2.72,2.21,3,.41.67-4.78.83-9.59,1.41-14.38.3-2.41.69-4.81,1.11-7.21.26-1.52.67-3.07.89-4.63.12.16.24.32.37.47a12.82,12.82,0,0,0,2,2.08,16.13,16.13,0,0,0,2.54,1.71,9.15,9.15,0,0,0,2.17.8c.1,1.46.2,2.92.35,4.38a2.6,2.6,0,0,1,.18.68c.39,3.8,1.09,7.54,1.7,11.3l.25.82c.12.38.23.76.35,1.14h.14a1.25,1.25,0,0,0,.09-.12l.34-.5a.75.75,0,0,1,.07-.12c.15-3.22.4-6.43.65-9.64,0-.68,0-1.38,0-2.09-.15-2.2-.38-4.4-.6-6.59a75.63,75.63,0,0,0,1.87-7.87c.29-1.52.61-3,.83-4.56.1-.71.2-1.42.29-2.13s.08-1.63.2-2.44a16.19,16.19,0,0,0,3.21-8.4.63.63,0,0,0,.13-.11,11.84,11.84,0,0,0,1.17-2,16,16,0,0,0,1-2.17,13.38,13.38,0,0,0,.62-4.7,6.13,6.13,0,0,0-.33-1.94,1.74,1.74,0,0,0,.5-.44c.12-.15.22-.31.33-.46a1.83,1.83,0,0,0,.32-.14,8.19,8.19,0,0,0,1.44-1.2l.54-.45h0l.28-.22c.81-.6,1.65-1.17,2.5-1.71l.19-.11a34.16,34.16,0,0,0,.57,4.4,18,18,0,0,0,.93,4,8.92,8.92,0,0,0,2.15,3.9,7.85,7.85,0,0,0,3.33,2.6c3.41,1.38,6.11-.49,8.68-2.58a42.44,42.44,0,0,0,7.59-7.56l0,0c1.52,1.57,3.06,3.11,4.47,4.79,5,6,8,13.5,10.2,21,.42,1.47.83,3,1.23,4.43a15.65,15.65,0,0,0-1.71.31,16.09,16.09,0,0,0-4,1.69,18.14,18.14,0,0,0-3.4,2.58c-.27.25-.53.52-.78.79-.78-4.13-1.57-8.39-3.28-12.19-.35-.79-1.63-.38-1.6.43.19,4.81,1.48,9.62,2.17,14.39.11.72.2,1.44.3,2.16a2.92,2.92,0,0,0-.14.31,1.32,1.32,0,0,0,.34,1.35A89.6,89.6,0,0,0,91,231.61a1.39,1.39,0,0,0,2.72-.37,55.42,55.42,0,0,0-1.26-11.8,22.51,22.51,0,0,1,4.28-4.61c.72-.55,1.48-1.07,2.27-1.56.51-.21,1-.41,1.61-.63s1.08-.37,1.62-.55l1.47,5.55c.08.73.16,1.46.25,2.19.53,4.11,1,8.23,1.84,12.27.43,2,3.71,1.56,3.53-.48C109,227.5,108.18,223.44,107.46,219.36Zm-70-103a37,37,0,0,0,5.05-.12c.77-.07,1.53-.16,2.3-.26,1-.14,1.84-.45,2.77-.61a1,1,0,0,0,.75-1,13.25,13.25,0,0,1,1-4.09,10.09,10.09,0,0,0,4.1,5.54,1.16,1.16,0,0,0,1.74-1,12.25,12.25,0,0,1,.18-3.32,10.94,10.94,0,0,0,1.82,2.78c1.82,2,4.24,2.23,6.77,2.19q5.88-.09,11.77-.32a1.47,1.47,0,0,0,.06.14,18,18,0,0,0,.22,3.36,13.35,13.35,0,0,0,.93,3.22,10.28,10.28,0,0,0,1.57,2.46,5.26,5.26,0,0,0,1.18,1,3.21,3.21,0,0,0,1.6.44c.83.09,1-1,.61-1.46a8.85,8.85,0,0,0-.77-1c-.3-.28-.59-.58-.87-.89a8.12,8.12,0,0,1-1.29-2,17.13,17.13,0,0,1-1-2.44,8.65,8.65,0,0,0,1.9,1.08,6.1,6.1,0,0,0,1,.31l.42.07a4.16,4.16,0,0,0,0,1.11c.06.47.62.83,1,.42,1.53-1.63,3.85-6.17,6.62-4.1,2.54,1.9,2.58,5.57,1.94,8.36s-1.57,6-3.51,8.24c-.73.84-1.3,1.37-2.45,1.2a3.17,3.17,0,0,1-1.32-.56c-.44-.31-.66-.71-1.21-.86a.82.82,0,0,0-.82.21c-.89,1-.16,2.46.72,3.24a3.68,3.68,0,0,0,1.09.67l0,.14a28.69,28.69,0,0,1-2,8.52,20.09,20.09,0,0,1-2.87,4.37.86.86,0,0,0-.9.67c0,.15-.07.3-.11.45-.47.5-1,1-1.46,1.42s-.82.73-1.25,1.08-.94.63-1.39,1a24.87,24.87,0,0,1-3.74,2.33c-.32.16-.66.29-1,.43-.65.18-1.29.37-1.93.53a28,28,0,0,1-4.9.83,40.75,40.75,0,0,1-5.18.16c-1.39-.06-2.79-.31-4.18-.36a10.22,10.22,0,0,0,0-2.46c-.2-1.27-.5-3.44-2-3.87a2.48,2.48,0,0,0-2.63,1.19,20.4,20.4,0,0,0-1.31,2.34l-2.13-1.47-.27-.28c-4.4-4.79-6.37-11.7-6.94-18.05-.63-7-.56-14.16-1.47-21.15Zm4.72,43.13a32.84,32.84,0,0,1-5.34.26,42.19,42.19,0,0,1-9.52-1.52c.19-.46.41-.9.61-1.38.39-1,.73-1.92,1-2.91.55-1.81,1-3.63,1.48-5.48.77-3.25,1.42-6.53,2-9.82l.11-.08c-.2.16,0,0,0,0a1.71,1.71,0,0,0,.23-.13h0a2.22,2.22,0,0,1,.37-.09h.25l.21.05C35,145,37.23,151.23,41.48,156.5A27.26,27.26,0,0,0,44,159.23C43.41,159.35,42.8,159.46,42.19,159.54Zm3.19,49.56a12.42,12.42,0,0,1-1.61.2,19,19,0,0,1-9.57-3.5,10.09,10.09,0,0,1-2.26-2.69c-.67-1.08-1.59-2.58-1.57-3.87a4.14,4.14,0,0,1,.46-2A6,6,0,0,1,32,196a3,3,0,0,1,1.38-.86,1.14,1.14,0,0,1,.32-.07c0,.68.07,1.35.12,2-.08-.12-.16-.24-.23-.37a.77.77,0,0,0-1.42.39c.06,3.11,2.28,5.63,4.84,7.16A14.58,14.58,0,0,0,41.82,206a8.62,8.62,0,0,0,5.29-.44A2.52,2.52,0,0,1,45.38,209.1ZM47.09,202c-.2.63-.37,1.26-.54,1.89-.15-.07-.29-.16-.44-.22a9.1,9.1,0,0,0-.35-1.68,11.32,11.32,0,0,0,1.66-.95Q47.24,201.51,47.09,202Zm7.3-17.81a16.08,16.08,0,0,1-.49,2.37,5.77,5.77,0,0,1-.29.79,13.83,13.83,0,0,0-.71-3.63,1.22,1.22,0,0,0-2.34.65,15.49,15.49,0,0,1-.74,9.15,18,18,0,0,1-5,6.92,1,1,0,0,0-1.12.39,4.6,4.6,0,0,0-.6,2l-.11,0a17.67,17.67,0,0,1-4.16-1.25,11.62,11.62,0,0,1-2-1.22c-.16-1.94-.34-3.88-.6-5.81a38.59,38.59,0,0,1-.42-6.26A26.85,26.85,0,0,1,37,181.8c.55-1.92,1.23-3.81,2-5.67.25-.63.47-1.27.71-1.91,2-3.45,3.81-7,5.62-10.58q1.64-3.21,3.31-6.41a5.53,5.53,0,0,1,.78-1.41c.62-.63.59.4.65.91a15.84,15.84,0,0,1,.09,2.38c-.55,1.8-1,3.63-1.66,5.4-.41,1.14-.84,2.29-1.31,3.41s-.88,2-1.22,3l-.46.27c-2.61,1.58-5,4-5.75,7-.15.59.67,1.19,1.11.65a23.06,23.06,0,0,1,5-5A11.78,11.78,0,0,1,49,172.31a2.27,2.27,0,0,1,1.56-.11,1.71,1.71,0,0,1,.58.51,8.47,8.47,0,0,0-1.21.59,15.34,15.34,0,0,0-3.51,3,24,24,0,0,0-2.6,3.87.41.41,0,0,0,.64.5c.93-.87,1.88-1.7,2.84-2.54a18.39,18.39,0,0,1,2.89-2.23,8.41,8.41,0,0,1,1.51-.73,2.86,2.86,0,0,1,.85-.21c.22,0,.11,0,.23,0h0l.06,0v0l.13.13s0,0,.05.05a.2.2,0,0,0,0,.08,2,2,0,0,1,.19.42,4.31,4.31,0,0,1,.15.71,6.19,6.19,0,0,0-3.61,1.68,16.54,16.54,0,0,0-3.64,4.52c-.36.66.43,1.66,1.12,1.13s1.5-1.08,2.2-1.69,1.41-1.16,2.14-1.72a8.62,8.62,0,0,1,.8-.54,2.67,2.67,0,0,1,.41-.21l.25-.08.12,0c.23,0,.06,0,.28.05a3.31,3.31,0,0,0,.45.12l0,0a.47.47,0,0,1,.09.06.73.73,0,0,1,.13.2A8,8,0,0,1,54.39,184.18Zm8.84-14.65a28.79,28.79,0,0,0-3.1,1.4l0,0c-.12.06-.25.1-.36.16v.06c-.74.42-1.47.85-2.18,1.32l-1.25.85c-.34.22-.73.46-1.08.72a3,3,0,0,0-.57-.84,2.57,2.57,0,0,0-1.55-.8c.28-1.36-1.25-2.58-2.57-2.78a6.45,6.45,0,0,0-.76,0,27.27,27.27,0,0,0,1.58-4.18c.19-.63.37-1.28.53-1.93a18.67,18.67,0,0,0,4.38.92,26.78,26.78,0,0,0,5.73.16c1.16-.1,2.4-.25,3.66-.47l.09.67c.14,1.15.3,2.3.51,3.44,0,.2.08.39.11.59h0A10.43,10.43,0,0,0,63.23,169.53Zm20.22,7.81c-2.26,1.89-4.37,3.95-6.64,5.83-1.7,1.41-3.83,3.65-6.21,3l0,0L70.3,186h0l0,0c-.21-.16-.42-.3-.64-.45l-.21-.16a.27.27,0,0,1-.08-.07l-.39-.35c-.15-.14-.29-.3-.43-.45s-.11-.14-.17-.2l0,0h0l-.58-.87c-.15-.49-.32-1-.47-1.45a22.45,22.45,0,0,1-.85-3.82,16.36,16.36,0,0,1,.52-6.33,27.56,27.56,0,0,0,.94,2.92,1.54,1.54,0,0,0,1.68,1.09,1.52,1.52,0,0,0,1.32-1.49,28.49,28.49,0,0,0-.3-3.58c-.14-.93-.35-1.85-.54-2.76A8.44,8.44,0,0,0,71,167c.1-.08.2-.14.3-.23a11.93,11.93,0,0,0,1.36-1.48c.86-1.06,1.69-2.15,2.46-3.27.14-.22.27-.44.4-.66,0,.19-.09.37-.15.55-.4,1.37-.12,2.53,1.42,2.92a5.49,5.49,0,0,0,1.41.14c-.28,3.16,1.3,6.53,3.1,9a37.16,37.16,0,0,0,2.61,3.12A1.11,1.11,0,0,0,83.45,177.34Z"/><path class="cls-2" d="M57.58,193.63a.76.76,0,0,0-1.31-.77A43.67,43.67,0,0,0,51.82,202a25.22,25.22,0,0,0-1.38,4.89,16.69,16.69,0,0,0,.31,5.5A49.92,49.92,0,0,1,52,223.69c-.07,1.94-.34,3.85-.47,5.77s-.56,4-.64,6c0,.94,1.24,1,1.54.21.68-1.8,1-3.73,1.54-5.6a37.64,37.64,0,0,0,.91-5.37,31.94,31.94,0,0,0-.65-11.07c-.79-3.4-2-6.9-1.37-10.42S55.88,196.66,57.58,193.63Z"/><path class="cls-1" d="M305.67,46.73c-.06-1.67,0-3.56-.89-5-1.06-1.8-2.91-2.15-4.84-2.11l-3.12.08a5.82,5.82,0,0,0-1-.24c-1.55-.2-3.1-.36-4.65-.51a8.33,8.33,0,0,0-2.53-.4l-3.46-.23-6.92-.44c-4.53-.27-9.07-.57-13.61-.72s-9.08-.29-13.62-.39q-3.47-.07-6.93-.08c-1.16,0-2.32,0-3.47,0s-2.33.37-3.47.43a1.35,1.35,0,0,0-.29,0C236,37.06,235,37,234.12,37s-2,0-3.05.1a7.13,7.13,0,0,0-2.83.68,3.78,3.78,0,0,0-1.6,1.49,5.43,5.43,0,0,0-.54,2.08l0,.28c0,.17-.06.33-.08.5-.06.39-.1.78-.16,1.17a4.46,4.46,0,0,0-.59,1.95,35.35,35.35,0,0,0,0,8.16,4.57,4.57,0,0,0,.76,2.12c0,2.58,2.81,4.94,5.37,4a10.54,10.54,0,0,1,1.46-.41c.08,0,.85-.09.87-.09a24,24,0,0,1,2.68.09c1.44.12,2.87.28,4.3.44A2.79,2.79,0,0,0,243.32,62c.94.12,1.89.2,2.84.28l.49.28.15.1h0l-.2.18a4.54,4.54,0,0,0-.91,1.56l-.15.4-.09.21a1.46,1.46,0,0,0-.09.18l-.15.27-.06.09-.18.2c-.14.15-.29.29-.44.43a7.67,7.67,0,0,0-1.06,1.22c-.21.31-.36.66-.55,1l-.1.13-.09.06a1.76,1.76,0,0,0-.56.59,1.4,1.4,0,0,0,.5,1.89,1.67,1.67,0,0,0,1.61,0,2.54,2.54,0,0,0,.69-.53,7.39,7.39,0,0,0,.91-1.3l0,0,0,0,.25-.26c.17-.16.34-.31.52-.45a6.62,6.62,0,0,0,1-1,1.88,1.88,0,0,0,.12-.18,2.22,2.22,0,0,0,1.63-1,6.54,6.54,0,0,0,1.27-3.49s0-.08,0-.12l.08-.09c1.46.07,2.93.13,4.39.18,2,.08,4,.17,6.05.17a6.81,6.81,0,0,0,4.45-1.39q5.4.3,10.8.48c3.62.12,7.23.21,10.85.25,3.31,0,6.95.31,10.13-.83a12.62,12.62,0,0,0,3.18-1.7c.46,0,.92.08,1.38.14,1.11.16,2.57-.27,2.79-1.59A55.54,55.54,0,0,0,305.67,46.73Z"/><path class="cls-2" d="M307.1,42.86c-.22-2.52-1.18-5.27-4-5.94a27.56,27.56,0,0,0-5.43-.37c-2.3-.15-4.6-.22-6.9-.3-8.91-.29-17.75-.44-26.66-.59s-17.89-.59-26.73.07c-2.07.23-4.23.52-6.31.67a10.6,10.6,0,0,0-1.48.15,8.18,8.18,0,0,0-1.93.6c-2.6,1.26-2.53,5.56-2.75,8a48.67,48.67,0,0,0,.15,13.15c.22,1.48.52,3.19,2,3.93s3.49.22,5.05.15a55,55,0,0,1,6.91-.15l3.41.22a6.64,6.64,0,0,1,1.71.23c.45.37.37.07.3,1-.15,2-1.41,3.57-2.38,5.2a8.53,8.53,0,0,1-4.6,4.08.62.62,0,0,0-.3.3.37.37,0,0,0,0,.74h.22a.48.48,0,0,0,.52.15l.3-.15a11.35,11.35,0,0,0,7.2-2.52c2.82-2.38,3.94-6.46,7.87-7.28s8.47-.37,12.55-.44c4.46-.08,8.84-.23,13.29-.37s8.91-.45,13.29-.67c3.49-.23,7.73.22,11-1.27,2.82-1.26,3.34-3.78,3.42-6.6C307,50.88,307.48,46.8,307.1,42.86Zm-3.56,15.67c-1.26,1.34-3.41,1.19-5.12,1.26l-5.94.3-12.4.44c-4.46.23-8.91.45-13.29.6-4.09.15-8.32.07-12.4.52-3.2.37-5.65,1.56-7.13,4.45a16.4,16.4,0,0,1-2.75,4,13.26,13.26,0,0,0,3-7c.3-3.19-2.52-3.34-5-3.71a47.3,47.3,0,0,0-10.76-.37c-.75.15-1.49.22-2.23.3-1.41,0-1.49-1-1.78-2.16a49.35,49.35,0,0,1-1-5.71c-.44-3.64-1-8.62.6-12.11a3.33,3.33,0,0,1,2.45-1.85,13.67,13.67,0,0,1,3.49-.08c2.22.15,4.3.37,6.46.37l11.95.23c16.11.22,32.22,1.26,48.34,1.93,1.63.07,3.26,0,3.93,1.78.52,1.56.3,3.49.3,5.12,0,1.86.07,3.71.15,5.57S304.88,57,303.54,58.53Z"/><g class="cls-3"><path class="cls-2" d="M238.15,49.83l1.9,2.36-2.6,2.1-1.88-2.86-1.82,3-2.6-2L233,50.23l-2.52-1,1.22-2.9,2.12,1.06-.06-3,3.32-.12-.12,3.22,2.14-1.6,1.48,3Z"/><path class="cls-2" d="M249.25,49.83l1.9,2.36-2.6,2.1-1.88-2.86-1.82,3-2.6-2,1.82-2.22-2.52-1,1.22-2.9,2.12,1.06-.06-3,3.32-.12L248,47.53l2.14-1.6,1.48,3Z"/><path class="cls-2" d="M260.35,49.83l1.9,2.36-2.6,2.1-1.88-2.86-1.82,3-2.6-2,1.82-2.22-2.52-1,1.22-2.9L256,47.41l-.06-3,3.32-.12-.12,3.22,2.14-1.6,1.48,3Z"/><path class="cls-2" d="M271.45,49.83l1.9,2.36-2.6,2.1-1.88-2.86-1.82,3-2.6-2,1.82-2.22-2.52-1,1.22-2.9,2.12,1.06-.06-3,3.32-.12-.12,3.22,2.14-1.6,1.48,3Z"/><path class="cls-2" d="M282.55,49.83l1.9,2.36-2.6,2.1L280,51.43l-1.82,3-2.6-2,1.82-2.22-2.52-1,1.22-2.9,2.12,1.06-.06-3,3.32-.12-.12,3.22,2.14-1.6,1.48,3Z"/><path class="cls-2" d="M291.29,43l-.71,9.11h-3.2L287.05,43Zm-.57,11.77a1.67,1.67,0,0,1-.15.71,1.82,1.82,0,0,1-1,1,1.82,1.82,0,0,1-.7.14,1.87,1.87,0,0,1-.71-.14,1.92,1.92,0,0,1-.57-.39,1.74,1.74,0,0,1-.39-.58,1.67,1.67,0,0,1-.14-.71,1.73,1.73,0,0,1,.14-.71,1.65,1.65,0,0,1,.39-.58,1.78,1.78,0,0,1,.57-.4,1.87,1.87,0,0,1,.71-.14,1.82,1.82,0,0,1,.7.14,1.94,1.94,0,0,1,.58.4,2,2,0,0,1,.39.58A1.74,1.74,0,0,1,290.72,54.75Z"/><path class="cls-2" d="M298.1,52.57h-3a5.17,5.17,0,0,1,.11-1.59,3.52,3.52,0,0,1,.46-1.07,2.9,2.9,0,0,1,.66-.69,6.3,6.3,0,0,1,.7-.45c.23-.13.44-.26.61-.38A1,1,0,0,0,298,48a.79.79,0,0,0,0-.38.77.77,0,0,0-.18-.39,1.12,1.12,0,0,0-.47-.32,2,2,0,0,0-.8-.13,5.87,5.87,0,0,0-.77.06,6.68,6.68,0,0,0-.92.17c-.33.09-.64.18-1,.3a5.46,5.46,0,0,0-.84.4l-.4-3.51c.22-.13.47-.27.75-.41a6.53,6.53,0,0,1,.92-.38,7.89,7.89,0,0,1,1.09-.27A7.24,7.24,0,0,1,296.7,43a6.82,6.82,0,0,1,2.09.31,5.15,5.15,0,0,1,1.71.89,4.39,4.39,0,0,1,1.17,1.46,4.5,4.5,0,0,1,.43,2,3.11,3.11,0,0,1-.25,1.37,2.57,2.57,0,0,1-.61.85,4,4,0,0,1-.85.55c-.31.15-.61.31-.91.49a4.13,4.13,0,0,0-.81.65A2.47,2.47,0,0,0,298.1,52.57Zm.45,2.36a1.81,1.81,0,0,1-.15.74,2.08,2.08,0,0,1-.41.59,1.94,1.94,0,0,1-.6.41,1.75,1.75,0,0,1-.72.14,1.81,1.81,0,0,1-.74-.14,2,2,0,0,1-1-1,2,2,0,0,1-.14-.74,2,2,0,0,1,.14-.73,2,2,0,0,1,.41-.61,1.87,1.87,0,0,1,.59-.4,1.82,1.82,0,0,1,.74-.16,1.76,1.76,0,0,1,.72.16,1.91,1.91,0,0,1,.6.4,2.18,2.18,0,0,1,.41.61A1.83,1.83,0,0,1,298.55,54.93Z"/></g><path class="cls-1" d="M286.75,179.13c1.07-1.39-1-3.36-2.39-2.39-.32.22-.64.44-1,.65A3.14,3.14,0,0,0,283,176a2.9,2.9,0,0,0-1.78-1.36c.45-4.66.67-9.34.74-14a1.65,1.65,0,0,0,.35-.81c.19-1.36.39-2.71.58-4.06a2.73,2.73,0,0,0-1.08-2.81,3.11,3.11,0,0,0-2.67-1.88,16.33,16.33,0,0,0-6.14.2l-.09,0c-2.67-.75-5.2.1-7.62,1.21-.85.16-1.69.33-2.53.51a3.1,3.1,0,0,0-2.14,3.77,2.84,2.84,0,0,0,.8,1.33c-1,8-1.78,16-2.65,24a2.45,2.45,0,0,0-1.54-.56,5.2,5.2,0,0,0-1.39.16,8.91,8.91,0,0,1-1.79-.07c2.92-3.94,6.15-8,4.06-13.16-.28-.68-1.49-.93-1.66,0a6.69,6.69,0,0,1-.3,1.13,1.1,1.1,0,0,0-.71.35,16.21,16.21,0,0,0-2.16,3.54l-.87,1.74c-.24.48-.58,1-.79,1.55a44.3,44.3,0,0,0-4.34,5.69,15.54,15.54,0,0,0-2,5.67l-.18-.44,0-.06h0c-.12-.26-.22-.52-.33-.79a2.38,2.38,0,0,0-.64-.83c-1.24-2.63-2.55-5.24-4-7.79a3.29,3.29,0,0,0-4.54-1.09,15.45,15.45,0,0,0-2.86-3.35c-.89-.87-1.94-1.59-2.78-2.51l-.13-.23a10.19,10.19,0,0,1-.35-1.23,17.94,17.94,0,0,0,6.14,1,16.28,16.28,0,0,0,10.22-4.05,22.7,22.7,0,0,0,6-8.79,19.21,19.21,0,0,0,3.74-6.53,41.57,41.57,0,0,0,2-6.56,43.07,43.07,0,0,0,.86-6,4.45,4.45,0,0,0,2.15-3.61c.3-3.59.55-7.22.65-10.83a19,19,0,0,0,0-5.59,4.47,4.47,0,0,0-1.23-3,3,3,0,0,0-.43-.35q0-.66-.15-1.32c0-1.24-.07-2.48-.2-3.72a5.51,5.51,0,0,0,.89-2.48c.32-2.82-.82-5.51-2.28-7.87a13.32,13.32,0,0,0-1.14-4.51c-1.63-6.93-8.41-11.87-15.14-13.79-7.33-2.09-15.42-.93-22.41,1.86a31.6,31.6,0,0,0-10.85,6.09,15.74,15.74,0,0,0-9.26,9.68h0a1.84,1.84,0,0,0-.57-.05h-.16a3,3,0,0,0-.5.07.67.67,0,0,0-.58-.28h-5.2a.76.76,0,0,0-.38,1.41,5.44,5.44,0,0,0-2.37.55.43.43,0,0,0,.1.78,9.13,9.13,0,0,0,2.55-.1c.87-.06,1.75-.11,2.63-.11a12.79,12.79,0,0,1,1.51.06,6.74,6.74,0,0,0-4.24,2,8.45,8.45,0,0,0-2.89,4.25,2.38,2.38,0,0,0-.32,1.39.73.73,0,0,0,.21.82A8,8,0,0,0,187.2,113c-.11.33.34.45.52.22a20,20,0,0,1,2.09-2.49,12.64,12.64,0,0,1,2.71-1.94,5.29,5.29,0,0,1,.54-.25,30.08,30.08,0,0,0-2.35,6c-.17.64-.33,1.28-.49,1.92-.07.33-.15.65-.21,1s-.1.62-.14.93c0,.54-.06.66-.07.35a6,6,0,0,0,.24,3.15,1.29,1.29,0,0,0,.13.31,1,1,0,0,0,0,.38l0,1.13a9.08,9.08,0,0,0,1.2,4.9,4.93,4.93,0,0,0,5.43,2.32,2.9,2.9,0,0,0,2.14-2.13,25.4,25.4,0,0,0,1.55,3.67,18.5,18.5,0,0,0,3.81,4.68c.23.21.44.42.66.64a6.14,6.14,0,0,0,.51.51l.22.23.18.21.15.21.32.48c.25.39.47.78.68,1.19s.28.57.42.86c0,0,.29.72.34.86.3.81.56,1.63.82,2.46.52,1.65,1,3.31,1.62,4.93a35.73,35.73,0,0,0,14,17.53,2.17,2.17,0,0,0-.15.35,11.82,11.82,0,0,0-.75,3.94,9.21,9.21,0,0,0,.19,1.82,10.33,10.33,0,0,0-6.31,3.7h0c-6.54,3.28-9.94,10.18-10.76,17.19-1,8.55,1.61,17.33,3.74,25.54,1.21,4.68,2.5,9.35,3.9,14a.84.84,0,0,0,.06.14,48,48,0,0,1,12,.89,107.56,107.56,0,0,0,14.39,2.06c6.62,0,12.86-1.35,17-6.88.23-.68.47-1.35.7-2,1.11-3.34,2.14-6.69,3.07-10.08s2.05-6.86,1.42-10.32a1.45,1.45,0,0,0-1.57-1.06c0-.25.05-.5.06-.74s.05-.31.07-.47a35.09,35.09,0,0,0,.27-3.56,8.59,8.59,0,0,0-.13-1.45.86.86,0,0,1,0-.16,18.23,18.23,0,0,0,4.94-.33,14.17,14.17,0,0,0,5.39-1.27,2.17,2.17,0,0,0,.82-.62c1.19-.46,2.39-.92,3.59-1.35,2-.74,4.42-1.59,4.41-4.2a2.8,2.8,0,0,0-1.24-2.27,8.08,8.08,0,0,0,1.35-1.14c.52-.56,1-1.19,1.49-1.73l.35-.35c.13-.11.12-.1,0,0l.5-.39a2.83,2.83,0,0,0,.81-2l-.05.08a2.46,2.46,0,0,0-.52-1.48c.09-.08.19-.15.27-.23A36.54,36.54,0,0,0,286.75,179.13Z"/><path class="cls-2" d="M207.25,129a2.05,2.05,0,0,0-2,0c-.65.31-.9.32-1.46-.22a5.75,5.75,0,0,1-1.3-4.22c0-.06,0-.83.11-.87s.69.75.75.83c.48.65.91,1.33,1.33,2s1.74.68,1.87-.24a15.94,15.94,0,0,0-4.9-13.51,1,1,0,0,0-1.37,1.37,16.75,16.75,0,0,1,4,8.58,2.31,2.31,0,0,0-2.15-.8c-1.81.45-1.68,3.32-1.49,4.71.24,1.83,1,3.85,2.76,4.73a3,3,0,0,0,2.4.2l.1.33a5.14,5.14,0,0,0,.63,1.49,1.08,1.08,0,0,0,2-.54C208.66,131.77,208.3,129.63,207.25,129Z"/><path class="cls-2" d="M194.58,101.35a8.85,8.85,0,0,0-5.54,3.72,13.48,13.48,0,0,0-1.8,3.42,21.36,21.36,0,0,0-.87,4,.89.89,0,0,0,1.72.47c.38-1.13.78-2.25,1.15-3.38a16.9,16.9,0,0,1,1.31-3.21,7.24,7.24,0,0,1,4.4-3.62C195.85,102.49,195.45,101.21,194.58,101.35Z"/><path class="cls-2" d="M235.77,186.5a2,2,0,0,0-.92-.78.39.39,0,0,0-.49.1,1.65,1.65,0,0,0-.88,0,1.51,1.51,0,0,0-.83.47,1.59,1.59,0,0,0-.41,1.12,1.82,1.82,0,0,0,.47,1.19,1.84,1.84,0,0,0,2,.6,1.93,1.93,0,0,0,.91-.71,1.85,1.85,0,0,0,.32-.9A1.78,1.78,0,0,0,235.77,186.5Zm-.57.9c0-.08,0,0,0,0a.83.83,0,0,1,0,.15v0h0l0,.06a.21.21,0,0,0,0,.06h0l0,0h0l0,0-.12.06-.08,0-.16,0h-.21l-.35,0c.23,0,.05,0,0,0l-.15,0-.14,0-.1-.06-.06,0,0,0-.06,0-.06-.06,0-.06,0-.05,0-.07a.19.19,0,0,1,0-.08v0h0v-.11a.09.09,0,0,1,0,0,.31.31,0,0,1,0-.08h0l.05-.09h0l.09-.1h0l.09-.06,0,0h0s0,0,0,0l.19,0h.35l.1,0h0a.48.48,0,0,0,.27-.15l.07,0,.18.11,0,0,.08.07.06.07c-.05-.06,0,0,0,0l.09.15c0-.07,0,.06,0,.09a.53.53,0,0,1,0,.12.35.35,0,0,0,0,.06v.18Z"/><path class="cls-2" d="M234.41,192.26l0,0h0Z"/><path class="cls-2" d="M235.29,190.59a1.66,1.66,0,0,0-.52-.29.76.76,0,0,0-.61,0,.2.2,0,0,0-.08.08.36.36,0,0,0-.26-.13,1.73,1.73,0,0,0-1.59.81,1.55,1.55,0,0,0,.32,1.89,2.15,2.15,0,0,0,2.17.38,1.85,1.85,0,0,0,1-1.6A1.48,1.48,0,0,0,235.29,190.59Zm-.7,1.2s0,.05,0,.06a.7.7,0,0,1,0,.14.64.64,0,0,0,0,.07h0l-.05.11,0,0h0v0h0s0,0,0,0,0,.06-.06.06l0,0h0l-.05,0h0l-.11,0h-.24l-.12,0-.16,0h0l-.06,0a1,1,0,0,1-.17-.1l-.05,0h0l-.09-.09a.05.05,0,0,1,0,0l0-.05h0a.65.65,0,0,0,0-.13v-.05a.37.37,0,0,1,0-.11h0a.29.29,0,0,1,0-.09c0-.05,0-.1,0-.14l0-.07,0-.06h0l.12-.12,0,0,.06,0,.15-.08h0l.06,0,.19,0a.31.31,0,0,0,.19-.13l0,0,.15.09.05,0h0l.07,0h0s0,.05,0,0v0h0a.49.49,0,0,1,0,.07,1.56,1.56,0,0,0,.06.15h0a.26.26,0,0,1,0,.08s0,.09,0,.13h0v.12A.66.66,0,0,1,234.59,191.79Z"/><polygon class="cls-2" points="233.31 192.18 233.31 192.18 233.31 192.18 233.31 192.18"/><path class="cls-2" d="M234.24,192.39h0Z"/><g class="cls-4"><path class="cls-2" d="M238.13,119.49a2.67,2.67,0,0,0-.74-.3,6.65,6.65,0,0,0-.78-.1c-.47,0-1-.08-1.43-.1l-1.39,0a3.84,3.84,0,0,0-1.62.09,1.11,1.11,0,0,0-.8,1,1.14,1.14,0,0,0,.8,1,3.18,3.18,0,0,0,1.38.1q-.26,1-.42,2.13a21.45,21.45,0,0,0-.25,2.4,6.15,6.15,0,0,0,.12,1.7l-.58.14c-.33.09-.27.65.09.61.72-.08,1.45-.11,2.18-.14s1.46,0,2.19,0a.25.25,0,0,0,.07-.49l-.32-.09a4.51,4.51,0,0,0,.09-.53s0-.17.08-.55c0-.16,0-.31,0-.48,0-.72,0-1.43-.07-2.15-.05-.89-.08-1.8-.17-2.69a7.64,7.64,0,0,0,.82-.1,2.83,2.83,0,0,0,.74-.31A.69.69,0,0,0,238.13,119.49Z"/><path class="cls-2" d="M236.74,126.84l0,.11a.13.13,0,0,0,0-.06C236.76,126.7,236.76,126.68,236.74,126.84Z"/><path class="cls-2" d="M236.72,127h0Z"/></g><path class="cls-2" d="M232.17,121.14a3.18,3.18,0,0,0,1.38.1c-.1.42-.19.83-.27,1.26a9.5,9.5,0,0,1,1.28-.3,14,14,0,0,1,1.83-.15h.25c0-.32,0-.64-.07-1a7.64,7.64,0,0,0,.82-.1,2.83,2.83,0,0,0,.74-.31.69.69,0,0,0,0-1.19,2.67,2.67,0,0,0-.74-.3,6.65,6.65,0,0,0-.78-.1c-.47,0-1-.08-1.43-.1l-1.39,0a3.84,3.84,0,0,0-1.62.09,1.11,1.11,0,0,0-.8,1A1.14,1.14,0,0,0,232.17,121.14Z"/><path class="cls-2" d="M263.55,171a.5.5,0,0,0-.19-.19.51.51,0,0,0-.53,0,1.24,1.24,0,0,0-.21.18l-.06,0,0,0h0a.49.49,0,0,0-.13.2.54.54,0,0,0-.06.25v.09a.54.54,0,0,0,.08.3l0,.08.07.09a.24.24,0,0,0,.15.09.2.2,0,0,0,.11,0,.33.33,0,0,0,.17,0l.11,0,.14-.05h0l0,0,0,0a.69.69,0,0,0,.24-.24.87.87,0,0,0,.09-.36v-.07a.76.76,0,0,0,0-.15A.48.48,0,0,0,263.55,171Z"/><path class="cls-2" d="M270.5,156.67a1.18,1.18,0,0,0-.58-.49l-.08,0,0,0h-.06l-.19,0h0l-.1,0h-.13a1.19,1.19,0,0,0-.32,0l-.11,0a2.42,2.42,0,0,0-.47.21,2.14,2.14,0,0,0-.79,1.12,3,3,0,0,0-.18.89,3.2,3.2,0,0,0,.09,1,2,2,0,0,0,.48.91,1.63,1.63,0,0,0,.66.38,1.4,1.4,0,0,0,1.08-.14,2.24,2.24,0,0,0,.92-1.63A3.62,3.62,0,0,0,270.5,156.67Zm-.29,1.58c0,.13,0,.27,0,.4a.9.9,0,0,1-.18.44l-.16.16a.83.83,0,0,1-.42.18h-.25a.66.66,0,0,1-.33-.12.73.73,0,0,1-.27-.22.69.69,0,0,1-.15-.31.74.74,0,0,1,0-.36v-.17a1.16,1.16,0,0,1,0-.18c0-.11.05-.21.08-.32a.31.31,0,0,1,0-.08l0,0,.12-.22.05-.07a.52.52,0,0,1,.24-.2.61.61,0,0,1,.29-.11h.22l.22.06a.64.64,0,0,1,.25.18.4.4,0,0,1,.13.16.64.64,0,0,1,.11.3V158a.47.47,0,0,0,0,.17.22.22,0,0,1,0,.08A.09.09,0,0,1,270.21,158.25Z"/><path class="cls-2" d="M269.8,162.09a1.1,1.1,0,0,0-.57-.49l-.09,0h-.09l-.2,0,.1,0-.1,0-.1,0h-.12a1.88,1.88,0,0,0-.33,0l-.1,0a2,2,0,0,0-.47.21,2.15,2.15,0,0,0-.8,1.12,3.05,3.05,0,0,0-.17.9,3.23,3.23,0,0,0,.08,1,1.89,1.89,0,0,0,.49.91,1.51,1.51,0,0,0,.66.38,1.41,1.41,0,0,0,1.08-.14,2.25,2.25,0,0,0,.91-1.64A3.5,3.5,0,0,0,269.8,162.09Zm-.29,1.58c0,.13,0,.26,0,.4a1,1,0,0,1-.18.43l-.17.17a.8.8,0,0,1-.42.18h-.24a.66.66,0,0,1-.34-.12.68.68,0,0,1-.26-.22,1,1,0,0,1-.19-.66,1.09,1.09,0,0,1,0-.18l0-.18c0-.1.05-.21.08-.31l0-.09,0,0a2.53,2.53,0,0,1,.13-.22l.05-.06a.66.66,0,0,1,.23-.21.64.64,0,0,1,.3-.11h.22l.21.06a.56.56,0,0,1,.26.17.55.55,0,0,1,.13.17.61.61,0,0,1,.11.29v.22c0,.06,0,.11,0,.17v.14Z"/><path class="cls-2" d="M243.12,150a2.73,2.73,0,0,0-1.44-.3,11.61,11.61,0,0,0-1.18,0,10.18,10.18,0,0,0-2.58.37.8.8,0,0,0-.58.76.79.79,0,0,0,.58.75,9.57,9.57,0,0,0,2.62.13,12.84,12.84,0,0,0,1.39-.15,2.34,2.34,0,0,0,1.33-.48A.69.69,0,0,0,243.12,150Z"/><path class="cls-2" d="M288.67,178.37c-.11-2.11-2.42-3.81-4.13-2.66a2.94,2.94,0,0,0-2-2.88c.07-.62.25-1.21.3-1.85s.11-1.37.17-2l.32-4.1c.21-2.64.4-5.28.64-7.92a10.62,10.62,0,0,0-.41-5.28,4.72,4.72,0,0,0-4.37-2.75,49.45,49.45,0,0,0-7.59.48c-2.57.28-5.12.68-7.66,1.12s-3.24,2.25-3.63,4.44c-.48,2.63-.9,5.28-1.28,7.93-.18,1.24-.32,2.49-.48,3.73a2.47,2.47,0,0,0-.49-.36,2.13,2.13,0,0,0-1.64-.17,2.76,2.76,0,0,0-1.2.85,8.28,8.28,0,0,0-1.43,2.43,5.58,5.58,0,0,0-.2.78,14.72,14.72,0,0,1-1.54,3c-2.21,2.87-5.94,4.82-7.29,8.27-.28-.49-.56-1-.86-1.43a21,21,0,0,0-6.27-6.34c0-.38.07-.75.11-1.13,0-.16,0-.33.05-.49a17.3,17.3,0,0,0,3.27-.63c4.16-1.23,7.76-4.26,10.48-7.55a36.05,36.05,0,0,0,6.19-11.18c.35-1,.66-2,1-3l0,0a44.65,44.65,0,0,0,2.32-9.91,66.61,66.61,0,0,0,.78-8.36c2.11-.89,3.86-2.71,3.61-5.13a5,5,0,0,0-3.67-4.44c.29-4.13-1.27-8.23-.84-12.35a43.94,43.94,0,0,0,.6-4.71,16.41,16.41,0,0,0-2-6.62l-1.84-4c-.91-2-1.81-3.95-2.79-5.89-2.23-4.46-5-8.95-9.44-11.26-5.37-2.81-11.86-1.79-17.82-.69A48.18,48.18,0,0,0,217,79.08a39.43,39.43,0,0,0-10.55,7.36,47.39,47.39,0,0,0-8.93,10.4,7.25,7.25,0,0,0-8.66,3.25,1.69,1.69,0,0,0-.1,1.84c.73.86,2-.1,2.91-.82a6.55,6.55,0,0,1,8.33.27c1.8,1.67,2.95,4.56,5.41,4.68,1.6.08,3-1.16,4.61-1.26,1.82-.11,3.33,1.31,4.71,2.28a1.49,1.49,0,0,0,.66.31c1.15.14.5-2,.3-2.52a8.2,8.2,0,0,0-2.38-3.1,4.53,4.53,0,0,0-2.85-1.25,4.88,4.88,0,0,0-2.64,1,2.74,2.74,0,0,1-2.5.61,5,5,0,0,1-2.23-1.91,14.83,14.83,0,0,0-2.45-3.08,34.29,34.29,0,0,1,7.87-7.62,21.72,21.72,0,0,0-4.79,8c2-1.65,3.32-3.9,5-5.88a25.35,25.35,0,0,1,17.75-9,48.61,48.61,0,0,0-19.85,16.75c6.17-6,12.56-12,20.51-15.26s18-2.9,24.15,3c4.28,4.11,6.09,10.19,6.67,16.1s.12,11.88.67,17.79l-3.63,0c.59-.25.51-1.2,0-1.6a2.9,2.9,0,0,0-1.87-.35l-2.7.13c-.61,0-1.37.15-1.56.74-.29.87.95,1.4,1.87,1.43L250.2,124a4,4,0,0,0-5.47.44,11.1,11.1,0,0,0-10.21-2.82,6.56,6.56,0,0,0-4.7,3.58,5.38,5.38,0,0,0,2.74,6.44,11.94,11.94,0,0,0,4.56,1c2.6.22,5.34.41,7.72-.66,2.6-1.16,4.45-3.68,7.14-4.62a1.46,1.46,0,0,1,1-.09c1,.34.51,1.83-.18,2.6a21.58,21.58,0,0,1-7.36,5.4,4.31,4.31,0,0,1-1.68.47,9.24,9.24,0,0,1-2.07-.4c-3.66-.74-6.85,2.47-8.92,5.58-.62.92-1.21,2.17-.56,3.08a1.94,1.94,0,0,0,2.23.49,5.58,5.58,0,0,0,1.94-1.48,1.88,1.88,0,0,0,3.1,1.45c.31-.35.52-.84,1-1,.94-.31,1.7,1.22,2.66,1,.62-.15.86-1,1.46-1.18,1-.39,1.84,1.17,2.94,1.21s1.6-1.15,2.55-1.43c1.1-.33,2.4.63,3.38,0s.61-2.19,0-3.21a16.69,16.69,0,0,0-4.11-4.51,13.87,13.87,0,0,0,5.11-3.39c.82.1,1.64.22,2.47.3.54,0,.84-.06.87.57a8.94,8.94,0,0,1-.16,1.44c-.25,2.18-.62,4.35-1.08,6.5-.23,1.12-.48,2.23-.72,3.35s-.3,2.22-.62,3.24-.62,2-.92,3a44.4,44.4,0,0,1-3.07,7.2c-1.83,3.35-4.23,6.95-7.45,9.12-7.25,4.9-16.34,1.24-22.13-4.17a46.78,46.78,0,0,1-4.25-4.54,71.8,71.8,0,0,1-4.52-8.13,51.07,51.07,0,0,1-2-5.2c-.41-1.25-.71-2.54-1.1-3.8a6.29,6.29,0,0,0,1.19-.78,6,6,0,0,0,2.21-4.11.35.35,0,0,0,0-.25c-.12-.18-.41-.06-.58.07a12.48,12.48,0,0,1-4.24,2.36,4.19,4.19,0,0,1-1.53.17c-1.18-.14-2.34-1.5-3.15-2.28a18.26,18.26,0,0,1-4.76-8.61,34.21,34.21,0,0,1-.78-11.23,21.29,21.29,0,0,1,1-5.37c.21-.59.65-2.13,1.31-2.44,1-.49,2.06.84,2.68,1.49a16.61,16.61,0,0,1,3.07,5c.72,1.69,1,3.6,1.81,5.21a.56.56,0,0,0,.53.29,3.41,3.41,0,0,0,1.64.76A4.6,4.6,0,0,0,214,119.7l4.68,1.79q2.67,1,5.32,2.07c.89.35,1.77.72,2.65,1.06a4.5,4.5,0,0,0,2.74.52.68.68,0,0,0,.4-1,4,4,0,0,0-2.12-1.43c-.9-.38-1.81-.73-2.72-1.08-1.77-.68-3.56-1.35-5.34-2-1.48-.54-3-1.05-4.46-1.56a10.18,10.18,0,0,0,1-3.19,12.89,12.89,0,0,0,.21-2.7,5.82,5.82,0,0,0-.57-2.87c-.61-.91-2.39-1.16-2.32.37.05,1.3,0,2.65-.05,4a10.44,10.44,0,0,1-.7,3.5.3.3,0,0,1,0,.08,26.09,26.09,0,0,0-3.39-1.07,36,36,0,0,0-1.81-3.42,39.45,39.45,0,0,0-2.65-3.78,7.53,7.53,0,0,0-3.11-2.79c-2.94-1-4.85,2.69-5.62,4.9a22.56,22.56,0,0,0-1.06,6.79c-.45,3.68.41,7.36-.15,11,0,.18-.09.4-.27.43a.47.47,0,0,1-.26-.05c-2.83-1.34-2.71-4.6-2.63-7.3a.94.94,0,0,0-1.58-.66c-.08.07-.14.14-.21.21.1-.5.21-1,.25-1.29.15-1.37.35-2.71.63-4.06a16.09,16.09,0,0,1,3.21-7.11,1.1,1.1,0,0,0-1.55-1.56,15,15,0,0,0-4.72,9.12,31.54,31.54,0,0,0-.52,5.39c0,1.44.31,3.19,2.06,3.31l.14,0a11.08,11.08,0,0,0,1.95,5.3,9.79,9.79,0,0,0,2.94,2.83,6.64,6.64,0,0,0,3.51,1,17.57,17.57,0,0,0,2.59,3.57,11.89,11.89,0,0,0,4.65,3.28,39.23,39.23,0,0,0,2.79,6.3,46.7,46.7,0,0,0,2.69,5.89A47.58,47.58,0,0,0,218.34,164a30.15,30.15,0,0,0,4.44,3.84c0,.16-.07.31-.09.47-.08.73-.14,1.46-.22,2.19-.05.49-.11,1-.15,1.53a1.33,1.33,0,0,0-.34.1,30,30,0,0,0-4.52,2.46c-.69.48-1.37,1-2,1.51-.34.27-.68.54-1,.83,0,.1.06.21.1.31s-.16.2-.24.3.07.21.11.32,0,.07,0,.11a13.36,13.36,0,0,0-2,1,14.66,14.66,0,0,0-3.91,3.37,21.12,21.12,0,0,0-4.36,11.11,56.5,56.5,0,0,0,.33,13.44,101.82,101.82,0,0,0,2.45,13.06,72.21,72.21,0,0,0,5.43,14.41c.77,1.55,3.29.47,2.78-1.18-2.41-7.82-4.92-15.69-6.26-23.78a71.94,71.94,0,0,1-1.07-12.08,23.71,23.71,0,0,1,2.24-11,16.35,16.35,0,0,1,3.2-4.37,12.93,12.93,0,0,1,2-1.57l.17-.1c.57,1.33,1.15,2.65,1.72,4l1.39,2.46a42,42,0,0,0,4.44,7,.33.33,0,0,0,0,.1c.1.89,1.32,1.43,1.83.49a11.21,11.21,0,0,0,.87-3c.23-1,.45-2,.65-3s.38-2,.58-3c.12-.63.2-1.33.37-2l.8.07c.52,0,1.05.1,1.57.19,1.16.2,2.32.51,3.46.81a1.13,1.13,0,0,0,1.23-.43l1.78-1.1c.31-.2.74-.55,1.13-.75l.19.2.64.66,1.09,1.13,2.37,2.45,2.38,2.45a19.52,19.52,0,0,0,2.6,2.2c.17.24.36.46.53.69a16.11,16.11,0,0,1,.78,2.84,23.93,23.93,0,0,1-.05,3.17c0,.65-.13,1.28-.21,1.92-.72,3.19-1.46,6.4-2.41,9.53,0,.14-.09.28-.13.43l-.23.57c-.5-2.3-1-4.6-1.29-6.95-.42-3.37-.62-6.79-.9-10.18a1.09,1.09,0,0,0-2.17,0,40.21,40.21,0,0,0,.5,10.73,45.34,45.34,0,0,0,2.52,9.66c-.76,1.84-1.53,3.67-2.33,5.49q-1.92,4.41-3.94,8.78c-.48-.62-1-1.21-1.46-1.78-1-1.34-2-2.73-3-4.15s-1.61-2.64-2.34-4c-1.18-2.6-2.37-5.19-3.36-7.85-1.49-4-2.34-8.17-3.71-12.19a1,1,0,0,0-2,.27c-.26,4.44,1,9.08,2.33,13.27a40.71,40.71,0,0,0,4.72,10.13c.41.79.84,1.58,1.27,2.34a37.73,37.73,0,0,0,2.94,4.46,13.06,13.06,0,0,0,2.86,3.08l-.8,1.65a1.19,1.19,0,0,0,2.05,1.19,82.8,82.8,0,0,0,7.57-13.86c1-2.4,1.89-4.83,2.68-7.31a23.36,23.36,0,0,0,1.5-7.2c0-.16.07-.31.1-.47l.19.14a16.84,16.84,0,0,0,2.06,1.28,30.08,30.08,0,0,0,4.36,1.8,22.12,22.12,0,0,0,4.49.93,7.15,7.15,0,0,0,2.76-.17c-.2.83-.36,1.67-.55,2.5-.47,2.05-.92,4.09-1.47,6.12-1.12,4.1-2.89,8.06-3.78,12.21a1.12,1.12,0,0,0,2,.86c2.41-3.57,3.56-8.14,4.53-12.3a59.39,59.39,0,0,0,1.17-6.34c.12-1.06.26-2.14.28-3.21a5.58,5.58,0,0,0-.15-1.83,2.66,2.66,0,0,0-.64-1.55,6.43,6.43,0,0,0-2-1.9.78.78,0,0,1,0-.16c.05-.61.06-1.22.08-1.83,0-.3,0-.65,0-1a7.81,7.81,0,0,0,3.2.52,24.2,24.2,0,0,0,4.08-.39,24.69,24.69,0,0,0,7.57-2.67,21.75,21.75,0,0,0,3.29-2.21,5.93,5.93,0,0,0,2.37-3.1,2.63,2.63,0,0,0-1.48-3,10.65,10.65,0,0,0,4.19-5.77.59.59,0,0,0-.07-.44C287,182.6,288.8,180.85,288.67,178.37Zm-70.85-97a44.89,44.89,0,0,0-7.59,3.36A29.07,29.07,0,0,1,217.36,80a21.54,21.54,0,0,1,5.86-1.66A42.93,42.93,0,0,0,217.82,81.34Zm7.91-1.93c.92-.38,1.86-.71,2.81-1a17.58,17.58,0,0,1,2.27.47A48.92,48.92,0,0,0,225.73,79.41Zm8.81-.61h-1A15.55,15.55,0,0,0,231,77.72a21,21,0,0,1,12.16.38,13.76,13.76,0,0,1,6.35,4.83A28.65,28.65,0,0,0,234.54,78.8Zm9.09,49.05a4.94,4.94,0,0,1-2.63,2.23,10.49,10.49,0,0,1-7.3.3c-1.91-.76-3.67-3-2.55-5.07a5.75,5.75,0,0,1,3.11-2.36,7.54,7.54,0,0,1,4.4-.43.34.34,0,0,0,.32-.06,7.06,7.06,0,0,1,1.12.18,5.16,5.16,0,0,1,3.06,1.94A3.17,3.17,0,0,1,243.63,127.85Zm2.31.55a19.66,19.66,0,0,1-2,1.53,6.08,6.08,0,0,0,.49-.62,4.85,4.85,0,0,0,.76-3,3.5,3.5,0,0,0,.5-.52l.25-.27.15-.15,0,0,.05,0a3,3,0,0,1,1.5-.58,2.43,2.43,0,0,1,.86.07,1,1,0,0,1,.56.26,2.5,2.5,0,0,1,.28.67A34.42,34.42,0,0,0,245.94,128.4ZM252,142a.44.44,0,0,0,.24.19l-.09,0h0l-.08-.05,0,0c-.81-1-2.13-1.71-3.26-.73-.36.3-.51,1-.9,1.23l-.08,0-.06,0-.05,0a.92.92,0,0,1-.24-.28c-.18-.27-.3-.57-.48-.84a1.82,1.82,0,0,0-1.6-.91c-.71.06-1.05.74-1.45,1.24s-.85,1.19-1.49,1l-.05,0a3.66,3.66,0,0,0-.86-1,1.07,1.07,0,0,0-1.34-.3,2.61,2.61,0,0,0-.87,1.1c-.14.27-.34.71-.64.78h0a.5.5,0,0,1-.34-.07c-.37-.23-.5-.74-.71-1.1a1.67,1.67,0,0,0-1.13-.94c-.6,0-1,.47-1.34.86a9.36,9.36,0,0,0-.82.94c-.09.06-.18.09-.24.05s.18-1.09.23-1.25a7.09,7.09,0,0,1,2.05-2.48,24.77,24.77,0,0,1,2.38-2c1.1-.84,2-1.53,3.46-1a6.61,6.61,0,0,0,1.51.45.38.38,0,0,0,.34.22,9.92,9.92,0,0,1,4.91,1.38A10.56,10.56,0,0,1,252,142Zm5.67-11.44h-.32c-.24,0-1.89-.35-2-.18a4.94,4.94,0,0,0,.59-2.76,3.48,3.48,0,0,0-2-3c0-.25,0-.51,0-.76s0-.61,0-.92c.26-.13.53-.24.79-.34a7.82,7.82,0,0,1,3.75-.54c.4,0,.81,0,1.21,0a4.94,4.94,0,0,1,1.61.35,3.53,3.53,0,0,1,.6.36,4.67,4.67,0,0,1,1.73,1.43,3.17,3.17,0,0,1,.47,3.27,5.39,5.39,0,0,1-2.91,2.37A8.73,8.73,0,0,1,257.65,130.59Zm-29.4,49.71a8.66,8.66,0,0,0-.89-.07,3.2,3.2,0,0,0-1.22.32,1.3,1.3,0,0,0-.93,1.21,11,11,0,0,1-.58,2.93c-.24,1-.48,2-.71,3s-.43,2-.61,3l0,.14c-.9-1.74-1.73-3.51-2.65-5.23a66,66,0,0,1-3.31-6.69.52.52,0,0,0,.11-.1.66.66,0,0,0,0-.92c.52-.35,1-.69,1.54-1.06,1-.73,2-1.48,3-2.23l.73.59,0,0a1,1,0,0,0,.73.56c1.37,1.11,2.75,2.22,4.11,3.34L229,180.4Zm1.41-3.72a37.2,37.2,0,0,0-4.36-2.71c.06-.39.1-.78.14-1.17.08-.73.06-1.47.07-2.2,0-.13,0-.26,0-.39.29.56.59,1.11.94,1.65a35.05,35.05,0,0,0,2.22,3.06,27.2,27.2,0,0,0,2.28,2.63c.3.31.62.61.95.89C231.18,177.73,230.43,177.14,229.66,176.58Zm30.83,1.32c.15-1.22.31-2.44.44-3.67.27-2.36.5-4.73.75-7.09s.47-4.73.74-7.08c.13-1.14.25-2.28.38-3.42a10.35,10.35,0,0,1,.45-2.95l.21.07.63.29-.2-.08a4.39,4.39,0,0,1,.53.27,18.68,18.68,0,0,0-.39,2.67c-.15,1.22-.31,2.43-.49,3.65-.36,2.48-.68,5-.93,7.46-.08.76,1.1.88,1.3.18a55,55,0,0,0,1.53-7.41c.16-1.2.32-2.4.45-3.6a16,16,0,0,0,.21-2.7,61.57,61.57,0,0,0,6.66-.47,52.22,52.22,0,0,0,7.39-1,.58.58,0,0,0-.16-1.13,51.5,51.5,0,0,0-7.52.67,57.51,57.51,0,0,0-6.52.94.83.83,0,0,0,0-.15.64.64,0,0,0-.47-.42,1.62,1.62,0,0,0-.19-.17,4.19,4.19,0,0,0-.42-.24c.37-.12.75-.2,1.07-.27,1.18-.26,2.36-.47,3.55-.65a63.05,63.05,0,0,1,7.13-.71c1.9-.08,3.89-.31,5,1.55a8.74,8.74,0,0,1,.85,4.73c-.17,2.54-.51,5.08-.77,7.61l-.43,4.1c-.06.61-.13,1.22-.19,1.83s0,1.28,0,1.92a12.1,12.1,0,0,0-3.08.89c-3.72,1.43-7.37,3-11.15,4.29-1.35.45-2.73.84-4.13,1.18l0-.12c.11-.57.24-1.14.33-1.71s.16-1.11.23-1.67a4.27,4.27,0,0,0,.08-.94l0-.9a.68.68,0,0,0-1.33-.18,9.41,9.41,0,0,0-.43,1.72c-.08.58-.16,1.16-.22,1.74s-.08,1.12-.12,1.67c0,.25,0,.49,0,.73l-.83.17h-.06A13.07,13.07,0,0,0,260.49,177.9Zm25.95.87a4.56,4.56,0,0,1-2.38,2.43,59.81,59.81,0,0,1-7,3.6,57.25,57.25,0,0,1-7.32,2.58c-1.31.37-2.63.7-3.95,1.06-1,.27-2.11.38-3.1.76-.33.13-1.28.44-1.37.84s.33.77.78.73c6.93-.52,14.69-2.22,20.59-6.07a.8.8,0,0,1,1,1.26c-1.92,1.83-4.74,2.78-7.1,3.93a70.7,70.7,0,0,1-8.7,3.58,14.25,14.25,0,0,0-2.63,1c-.68.37-1.92,1.46-.34,1.3A37.67,37.67,0,0,0,278,192.12a2.41,2.41,0,0,1,1.15-.35.78.78,0,0,1,.78.76,1.09,1.09,0,0,1-.41.63,22.35,22.35,0,0,1-13,5.88c-1.45.14-2.92.14-4.35.41s-2.07.73-2.42,2.27c-.14.6-.28,1.19-.38,1.79s-.24,1.34-.33,2a13.1,13.1,0,0,0-.05,2l-.19-.05c-1.27-.28-2.55-.57-3.8-1a31.8,31.8,0,0,1-3.65-1.44c-.58-.26-1.16-.51-1.73-.79l0,0a25.14,25.14,0,0,0-.06-6.19,37.15,37.15,0,0,0-.72-4.45c0-.15,0-.31-.07-.47-.2-1.22-.61-2.41-.93-3.61-.56-2.14-1.66-4.37-.91-6.61a11,11,0,0,1,3.23-4.17,27.26,27.26,0,0,0,3.89-3.93,11,11,0,0,0,1.67-5,2.21,2.21,0,0,1,.06-.34c.17-.3.36-.58.56-.87,0,0,0,0,.05,0,.88-.26,1.3,1.05,1.43,1.64a10.37,10.37,0,0,1,.2,1.36l0,.37c-.08.79-.14,1.58-.2,2.36,0,.14-.06.28-.11.42a12.46,12.46,0,0,1-2.92,4c-1,1.11-2.25,2.06-3.22,3.24-.63.76.22,2.21,1.15,1.5.45-.35.89-.73,1.32-1.13,1.8.64,4,.38,5.82.17a35.91,35.91,0,0,0,6.08-1.28c4.15-1.25,8.13-3,12.16-4.58a19.21,19.21,0,0,1,2.63-1c.61-.14,1.39-.29,1.36.48-.09,1.78-2.75,3.24-4.05,4-3.56,2.12-7.37,3-11.33,4a33.94,33.94,0,0,0-3.63.61.57.57,0,0,0,0,1.1,12.83,12.83,0,0,0,3.71.1,22.42,22.42,0,0,0,10.42-2.73c2.58-1.27,6.34-3.3,7.2-6.35C285.65,176.1,286.75,177.59,286.44,178.77Zm-28.74,1c-.52,0-1.05.05-1.57.09a13.33,13.33,0,0,0,1.48-2.58A10.34,10.34,0,0,0,257.7,179.81Z"/><path class="cls-5" d="M261.05,118.51a1,1,0,0,0-1.83,0c-.6,2.88-.6,5.89-.92,8.8a34.48,34.48,0,0,0-.32,8.84,1.23,1.23,0,0,0,2.22.29,23.08,23.08,0,0,0,1.45-9A35,35,0,0,0,261.05,118.51Z"/><path class="cls-2" d="M271.36,141.86a.65.65,0,0,0-.64.64c0,.95.06,1.9.09,2.85a.55.55,0,1,0,1.09,0c0-.95.1-1.9.1-2.85A.66.66,0,0,0,271.36,141.86Z"/><path class="cls-2" d="M277.05,141.89a.65.65,0,0,0-.73.53c-.15.94-.25,1.89-.36,2.83a.54.54,0,0,0,.45.62.55.55,0,0,0,.63-.45c.18-.93.39-1.86.54-2.8A.65.65,0,0,0,277.05,141.89Z"/><path class="cls-2" d="M267.06,144.81,267,144a4.08,4.08,0,0,0-.22-.9.69.69,0,0,0-.77-.5.7.7,0,0,0-.61.69,4.73,4.73,0,0,0,.05.92c0,.26.09.52.13.77l.28,1.54a.72.72,0,0,0,1.41-.19Z"/></g></g></svg>