<svg xmlns="http://www.w3.org/2000/svg" xmlns:xlink="http://www.w3.org/1999/xlink" viewBox="0 0 252.05 196.16"><defs><style>.cls-1{fill:url(#linear-gradient);}</style><linearGradient id="linear-gradient" x1="-91.74" y1="237.61" x2="311.02" y2="-27.77" gradientUnits="userSpaceOnUse"><stop offset="0.21" stop-color="#388ce7"/><stop offset="0.87" stop-color="#3bdea8"/></linearGradient></defs><g id="Layer_2" data-name="Layer 2"><g id="Layer_1-2" data-name="Layer 1"><path class="cls-1" d="M134.55.74C96.62,3.61,59.47,15.25,26.27,31.19,14.7,36.74,3.89,45.19.78,56.72a18.2,18.2,0,0,0,.5,12c3.85,8.86,15.28,12.63,25.34,15.48,17.37,4.93,34.21,16.63,19.1,32.85C37.4,126,25.78,131.87,16.26,139.76S-1,159.17,2.15,170.71c7.67,28.22,54.51,26,78.45,24.87,50.94-2.46,108.65-12.39,149.4-40.49,8.11-5.59,15.8-12.18,19.7-20.71s3.19-19.39-4-26.25c-5-4.74-12.11-6.92-18.63-9.7s-13.19-7-14.95-13.25c-2.29-8.18,4.78-15.9,12.48-20.43,10.67-6.28,23.62-10.25,26.3-23,2.36-11.21-4.27-20.52-15.05-25.7C205.9,1.67,167.38-1.74,134.55.74Z"/></g></g></svg>