<?xml version="1.0" encoding="UTF-8" standalone="no"?>
<!-- Created with Inkscape (http://www.inkscape.org/) -->

<svg
   width="750"
   height="750"
   viewBox="0 0 198.4375 198.43751"
   version="1.1"
   id="svg5"
   inkscape:version="1.1.1 (3bf5ae0, 2021-09-20)"
   sodipodi:docname="cat.svg"
   xmlns:inkscape="http://www.inkscape.org/namespaces/inkscape"
   xmlns:sodipodi="http://sodipodi.sourceforge.net/DTD/sodipodi-0.dtd"
   xmlns="http://www.w3.org/2000/svg"
   xmlns:svg="http://www.w3.org/2000/svg">
  <sodipodi:namedview
     id="namedview7"
     pagecolor="#ffffff"
     bordercolor="#666666"
     borderopacity="1.0"
     inkscape:pageshadow="2"
     inkscape:pageopacity="0.0"
     inkscape:pagecheckerboard="0"
     inkscape:document-units="mm"
     showgrid="false"
     units="px"
     width="750px"
     inkscape:zoom="0.48551487"
     inkscape:cx="396.48631"
     inkscape:cy="396.48631"
     inkscape:window-width="1366"
     inkscape:window-height="700"
     inkscape:window-x="0"
     inkscape:window-y="0"
     inkscape:window-maximized="1"
     inkscape:current-layer="layer1" />
  <defs
     id="defs2" />
  <g
     inkscape:label="Layer 1"
     inkscape:groupmode="layer"
     id="layer1">
    <g
       style="fill:none"
       id="g2310"
       transform="matrix(0.26458333,0,0,0.26458333,-10.220523,-8.493472)">
      <path
         fill-rule="evenodd"
         clip-rule="evenodd"
         d="m 448.159,109 c 175.34,0 212.256,242.997 212.973,244.997 0.739,2.06 1.436,4.18 2.109,6.238 1.367,4.18 3.127,8.204 4.495,12.356 0.837,2.533 2.375,4.631 3.405,7.023 2,4.57 4.45,8.931 7.314,13.017 1.182,1.618 2.112,3.406 2.756,5.303 0.452,1.452 1.951,1.84 2.598,3.121 1.047,2.074 2.443,3.969 3.652,5.961 0.275,0.7 0.907,1.198 1.653,1.302 l -0.236,1.977 c 0.438,0.713 0.587,-0.25 1.045,-0.081 0.573,0.772 1.39,1.457 1.473,2.632 0.076,1.104 1.365,1.208 1.806,2.171 0.967,2.091 3.656,3.157 3.617,5.9 1.933,1.214 2.884,3.298 4.343,4.933 0.75,0.753 1.206,1.744 1.293,2.797 l 0.013,0.243 c -0.011,1.047 2.01,0.812 1.466,2.24 3.094,2.322 3.897,6.115 5.531,9.258 2.62,5.042 5.639,9.914 7.419,15.436 0.891,2.762 2.619,5.375 3.579,8.172 2.161,6.287 4.755,12.437 6.159,18.985 0.579,2.704 1.762,5.281 2.316,7.993 l 0.639,3.134 c 0.952,4.704 1.854,9.42 2.453,14.187 0.307,1.075 0.307,2.215 -10e-4,3.29 -0.516,1.224 0.854,2.008 0.965,3.236 0.137,1.456 -0.445,2.836 -0.026,4.382 0.231,0.852 0,2.22 0.266,3.209 0.861,3.214 -0.23,6.529 0.707,9.721 0.148,1.234 0.018,2.485 -0.38,3.663 -0.648,3.93 0.538,7.943 -0.645,11.78 -0.554,1.893 -0.66,3.886 -0.311,5.823 l 0.146,0.747 c 0.105,0.553 0.174,1.092 -0.098,1.464 -1.078,1.474 -0.8,3.212 -1.015,4.824 l -0.041,0.267 c -0.31,1.805 0.01,3.697 -0.535,5.536 -0.745,1.8 -1.162,3.718 -1.234,5.664 0.275,3.3 -0.836,6.262 -1.517,9.326 -0.339,1.53 -0.058,3.35 -1.743,4.489 -0.857,0.579 1.165,1.703 -0.061,2.551 l -0.144,0.09 c -0.9,0.508 -0.861,1.327 -0.607,2.309 0.232,0.897 -1.336,1.517 -0.887,2.435 0.448,0.918 0.651,2.255 0.127,2.424 -1.31,0.43 0.022,1.854 -1.078,2.124 -0.108,0.059 -0.183,0.164 -0.202,0.286 -0.375,3.447 -2.595,6.276 -3.144,9.721 -0.415,2.057 -1.217,4.018 -2.361,5.778 -0.948,1.699 -1.754,3.473 -2.409,5.305 -1.231,3.081 -3.338,5.654 -4.524,8.719 -0.323,0.83 -2.472,0.552 -1.379,2.255 -1.254,0.443 -0.873,1.742 -1.377,2.553 -0.556,0.613 -1.203,1.137 -1.918,1.553 -0.463,1.824 -1.351,3.515 -2.59,4.933 -2.166,3.168 -4.53,6.195 -7.079,9.065 l -2.105,2.357 c -2.814,3.143 -5.719,6.218 -9.427,8.385 -0.953,0.557 -0.519,1.613 -1.304,2.186 -4.546,3.356 -8.734,7.163 -13.906,9.707 -2.165,1.066 -4.021,2.958 -6.234,4.067 -4.193,2.105 -8.087,4.726 -12.573,6.365 l -0.798,0.279 c -2.857,0.95 -5.669,2.391 -8.569,3.437 -5.957,2.34 -12.175,3.956 -18.52,4.812 l -3.913,0.434 c -3.479,0.384 -6.963,0.738 -10.477,0.835 -1.663,0.045 -3.258,-0.482 -4.781,-0.292 -1.483,0.187 -2.988,0.066 -4.422,-0.356 -1.132,-0.317 -2.09,0.657 -3.31,0.134 -0.936,-0.586 -2.096,-0.674 -3.105,-0.246 l -0.2,0.092 c -0.578,0.335 -1.716,-0.284 -2.597,-0.483 -1.285,-0.179 -2.548,-0.491 -3.767,-0.931 -0.946,-0.437 -2.151,0.967 -2.809,-0.526 -1.196,0.928 -82.43,-18.376 -157.051,20.824 -6.077,4.026 -13.188,5.794 -19.681,8.921 -3.019,1.457 -6.412,2.122 -9.661,3.117 l -0.694,0.218 c -5.736,1.854 -11.618,3.119 -17.492,4.441 -5.396,1.168 -10.864,1.981 -16.368,2.432 -3.957,0.358 -7.932,0.524 -11.879,0.955 -1.601,0.174 -3.17,-0.954 -4.736,0.015 -3.52,-0.958 -7.214,0.205 -10.724,-0.877 -2.334,0.69 -4.527,-0.166 -6.672,-0.798 -1.638,-0.486 -3.181,0.522 -4.835,-0.193 -1.506,-0.785 -3.193,-1.16 -4.89,-1.086 -2.818,0.432 -5.271,-0.602 -7.837,-1.148 -5.964,-1.27 -11.907,-2.643 -17.828,-4.119 -1.939,-0.484 -4.117,-0.298 -5.778,-1.78 -1.458,-1.302 -3.758,-0.486 -5.19,-2.023 -0.522,-0.559 -1.189,0.525 -1.976,0.102 -1.536,-0.825 -3.509,-0.281 -4.944,-1.768 -1.063,-1.101 -3.069,-0.356 -4.245,-1.686 l -0.155,-0.194 c -0.695,-0.965 -2.527,1.309 -3.069,-0.839 -2.19,-0.168 -4.005,-1.362 -5.955,-2.18 -1.615,-0.675 -3.522,-0.294 -4.98,-1.7 -1.242,-1.199 -3.589,-0.317 -4.665,-2.114 -2.633,-0.022 -4.574,-1.992 -7.083,-2.51 -1.904,-0.5 -3.733,-1.252 -5.437,-2.237 -2.702,-1.39 -5.445,-2.699 -8.209,-3.94 -0.991,-0.461 -1.956,-0.976 -2.891,-1.544 -0.524,-0.306 -0.651,-0.985 -1.4,-1.15 -4.739,-1.05 -8.724,-3.812 -12.772,-6.228 -2.309,-1.193 -4.517,-2.568 -6.605,-4.112 l -0.692,-0.521 c -0.611,-0.525 -1.88,-0.784 -2.417,-1.515 -1.498,-2.034 -3.738,-3.029 -5.77,-4.251 l -0.336,-0.206 c -1.145,-0.674 -2.185,-1.511 -3.089,-2.484 -0.171,-0.186 -0.24,-0.588 -0.422,-0.633 -3.372,-0.833 -5.385,-3.618 -7.963,-5.565 -2.218,-1.673 -4.157,-3.713 -6.341,-5.418 l -0.832,-0.623 c -5.11,-3.655 -61.032,-65.19 -67.369,-75.809 l -1.814,-3.039 c -1.81,-3.045 -3.6,-6.112 -5.248,-9.24 l -1.404,-2.662 c -1.401,-2.669 -2.78,-5.356 -4,-8.09 l -1.6312,-3.65 c -3.255,-7.303 -6.4401,-14.643 -9.1548,-22.183 -2.4207,-6.727 -4.4248,-13.565 -6.448,-20.408 -1.2959,-4.394 -2.3909,-8.808 -3.316,-13.285 -1.4779,-7.154 -2.7959,-14.338 -3.9537,-21.55 -1.0799,-6.791 -0.6805,-13.682 -2.1226,-20.396 0.9448,-4.123 -0.7923,-8.308 0.2863,-12.426 -0.8001,-2.034 -0.0965,-4.144 -0.0213,-6.149 0.0771,-2.069 -0.3871,-4.237 0.4393,-6.334 0.3786,-0.953 -0.4966,-2.098 -0.0224,-3.261 0.5205,-0.968 0.5806,-2.118 0.1638,-3.135 1.4051,-0.646 -0.2697,-1.64 0.3138,-2.56 0.6291,-0.999 0.907,-2.178 0.7898,-3.352 -0.4092,-2.627 1.1043,-5.053 0.8386,-7.427 -0.2771,-2.427 0.9217,-4.485 0.918,-6.661 l -0.0155,-0.409 c -0.2069,-2.856 1.8348,-5.007 1.9029,-7.709 0.0064,-0.236 0.5653,-0.454 0.8716,-0.689 -0.0982,-0.608 -0.7704,-0.47 -1.2472,-0.943 0.7612,-0.661 1.4272,-1.423 1.9791,-2.266 0.4177,-1.156 0.7144,-2.351 0.8852,-3.568 l -1.9354,-2.497 c 0.7142,-1.428 0.4652,-2.727 1.4188,-3.847 0.415,-0.49 0.1836,-1.985 0.2348,-3.018 0.0676,-1.356 1.8105,-2.164 1.39,-3.235 -0.3243,-1.232 -0.2192,-2.538 0.298,-3.702 2.4935,-10.993 5.0334,-21.975 7.6197,-32.947 0.272,-1.176 0.0353,-2.655 1.4826,-3.344 -1.5815,-1.633 0.902,-2.203 0.9406,-3.497 0.2016,-1.21 0.6678,-2.36 1.3654,-3.37 0.9878,-1.888 1.0786,-4.233 1.6412,-6.361 0.1482,-1.505 0.7182,-2.937 1.6446,-4.134 0.9634,-0.997 0.8246,-2.735 1.55,-4.136 1.025,-1.692 1.819,-3.513 2.362,-5.416 0.163,-1.366 0.708,-2.66 1.572,-3.733 0.768,-0.847 0.137,-2.601 1.629,-3.24 0.418,-2.458 1.886,-4.433 2.973,-6.587 l 0.199,-0.406 c 2.669,-5.543 5.67,-10.921 8.985,-16.106 2.754,-4.363 5.434,-8.772 8.23,-13.108 0.91,-1.4 1.877,-2.794 2.877,-4.123 3.475,-4.887 7.218,-9.578 11.212,-14.052 3.653,-3.871 7.135,-7.916 10.97,-11.638 2.039,-1.98 3.707,-4.411 5.687,-6.514 4.665,-4.965 9.455,-9.795 14.493,-14.379 4.255,-4.203 8.908,-7.985 13.894,-11.292 1.356,-0.825 2.47,-2.033 3.779,-2.946 1.588,-0.875 3.112,-1.861 4.561,-2.952 1.685,-1.585 3.753,-2.593 5.455,-4.061 1.321,-1.139 3.435,-0.489 4.381,-2.539 0.689,-1.491 3.269,-0.944 4.137,-2.686 2.382,-0.08 3.494,-2.386 5.657,-3.144 l 0.288,-0.089 c 2.279,-0.622 4.224,-2.461 6.314,-3.765 2.017,-1.428 4.126,-2.72 6.316,-3.866 4.11,-1.851 7.657,-4.671 11.675,-6.583 3.83,-1.82 7.277,-4.485 11.455,-5.499 0.987,-0.239 0.803,-1.11 1.482,-1.481 0.707,-0.389 1.481,-0.131 2.119,-0.579 C 255.169,169.859 272.819,109 448.159,109 Z"
         fill="#ffffff"
         id="path2292" />
      <path
         fill-rule="evenodd"
         clip-rule="evenodd"
         d="m 250.374,239.449 c -5.865,3.309 -14.453,-0.912 -15.416,-7.577 3.741,-0.2 7.739,-0.492 10.697,-2.791 2.957,-2.3 3.992,-7.392 1.028,-9.683 -24.134,-2.964 -47.612,-11.163 -68.343,-23.87 14.156,-4.265 26.336,-13.262 39.633,-19.727 13.296,-6.465 29.378,-10.288 42.639,-3.751 13.021,6.419 28.011,-1.769 41.599,-6.88 23.627,-8.887 50.721,-8.142 73.824,2.03 16.856,7.422 45.418,-4.624 63.627,-7.387 29.743,-4.513 58.779,16.333 88.645,12.723 -3.204,2.119 -6.408,4.237 -9.612,6.356 3.156,-0.288 6.328,-0.405 9.496,-0.349 -24.786,11.861 -49.572,23.721 -74.358,35.582 6.279,2.54 12.558,5.08 18.837,7.62 -1.476,4.732 -6.767,7.928 -11.643,7.032 3.923,3.122 7.846,6.244 11.769,9.366 -4.187,2.974 -9.487,4.341 -14.591,3.762 5.436,3.509 9.921,8.474 12.863,14.236 12.948,-4.314 27.131,-4.845 40.365,-1.512 -11.957,1.568 -23.914,3.136 -35.871,4.703 1.806,4.916 3.611,9.833 5.417,14.749 15.62,-3.575 32.221,-2.762 47.417,2.321 -15.069,0.384 -30.138,0.767 -45.207,1.151 -0.352,19.992 -10.305,40.38 -27.781,50.096 -17.477,9.715 -52.399,18.354 -63.966,-9.934 -8.856,5.812 -8.229,19.783 -1.915,28.288 6.314,8.505 16.345,13.212 25.417,18.68 30.136,18.162 52.865,48.238 62.111,82.187 9.245,33.949 4.905,71.398 -11.86,102.332 22.603,3.514 43.606,16.377 57.009,34.914 28.861,-13.429 44.846,-44.071 66.954,-66.974 25.148,-26.054 59.864,-42.661 95.931,-45.891 21.339,-1.911 45.675,2.204 58.122,19.641 16.179,22.666 1.262,57.907 -24.563,68.327 -20.471,8.259 -43.561,4.105 -65.581,5.665 -44.279,3.138 -83.153,29.248 -119.665,54.495 -1.489,8.174 1.5,17.024 7.64,22.622 13.06,-13.5 29.535,-23.67 47.456,-29.297 6.624,-2.079 16.553,-1.537 17.289,5.367 0.279,2.613 -1.096,5.091 -2.487,7.321 -11.948,19.154 -28.795,35.224 -48.492,46.254 -10.396,5.823 -22.014,10.336 -33.911,9.669 -11.898,-0.666 -24.013,-7.533 -28.054,-18.743 -1.873,-5.195 -2.076,-11.208 -5.622,-15.44 -6,-7.161 -17.524,-5.017 -25.934,-0.95 -8.41,4.068 -17.375,9.598 -26.399,7.185 -22.56,-6.034 -46.039,-8.621 -69.372,-7.645 -29.714,1.244 -59.991,8.161 -88.78,0.699 -9.617,-2.493 -20.379,-6.424 -28.899,-1.313 -16.79,10.072 -5.465,42.315 -22.69,51.624 -6.102,3.297 -13.579,2.081 -20.31,0.41 -29.746,-7.383 -57.647,-22.085 -80.554,-42.446 -2.208,-1.962 -4.483,-4.166 -5.101,-7.055 -1.857,-8.663 10.931,-12.267 19.644,-10.663 14.801,2.724 28.957,8.894 41.029,17.882 4.231,3.151 10.67,-0.525 12.462,-5.487 1.793,-4.961 0.56,-10.425 -0.14,-15.654 -4.419,-33.028 16.301,-67.753 47.467,-79.547 -18.869,-27.536 -26.044,-62.816 -19.429,-95.534 6.615,-32.718 26.932,-62.44 55.016,-80.482 11.219,-7.208 24.109,-13.103 31.259,-24.359 7.15,-11.255 4.012,-30.139 -9.068,-32.734 -12.324,13.347 -32.369,18.993 -49.847,14.038 -17.479,-4.954 -31.58,-20.278 -35.068,-38.106 -11.601,3.917 -23.201,7.835 -34.802,11.753 10.297,-7.935 22.49,-13.391 35.269,-15.781 1.226,-5.314 2.452,-10.627 3.679,-15.941 -22.136,-1.428 -44.584,2.215 -65.131,10.57 12.644,-9.518 28.732,-14.354 44.528,-13.387 16.067,0.984 32.4,-6.877 41.653,-20.049 -5.789,-2.035 -10.992,-5.709 -14.847,-10.485 5.905,-3.205 13.056,-4.035 19.537,-2.269 z M 363.93,587.955 c -1.054,1.026 -2.188,2.244 -2.113,3.713 0.074,1.468 2.277,2.565 3.037,1.306 4.149,-6.872 11.363,-11.813 19.269,-13.197 7.907,-1.384 16.37,0.813 22.606,5.867 2.176,1.763 4.118,3.871 6.604,5.16 0.894,0.464 2.426,0.477 2.463,-0.531 0.012,-0.33 -0.177,-0.631 -0.363,-0.905 -4.478,-6.6 -11.174,-11.667 -18.742,-14.182 -6.635,-2.204 -14.323,-2.343 -20.256,1.354 -2.155,1.342 -3.993,3.128 -5.812,4.899 -2.231,2.172 -4.462,4.344 -6.693,6.516 z m -32.174,-12.009 c -8.59,-1.135 -17.838,1.747 -23.558,8.255 -1.008,1.147 -1.925,2.438 -2.272,3.925 -0.346,1.488 -0.02,3.209 1.132,4.211 4.425,-6.874 12.288,-11.407 20.453,-11.793 8.166,-0.385 16.421,3.388 21.473,9.815 0.79,1.005 1.544,2.104 2.665,2.718 1.122,0.614 2.754,0.535 3.436,-0.546 0.816,-1.291 -0.17,-2.942 -1.176,-4.091 -5.707,-6.519 -13.564,-11.358 -22.153,-12.494 z m 60.589,-8.794 c -0.133,1.453 1.786,2.356 3.165,1.881 1.379,-0.476 2.293,-1.746 3.216,-2.875 7.679,-9.391 22.301,-12.221 32.929,-6.372 1.394,-1.177 1.474,-3.435 0.541,-5.003 -0.933,-1.569 -2.636,-2.531 -4.374,-3.087 -3.765,-1.203 -7.853,-0.793 -11.726,-0.009 -9.169,1.855 -18.43,6.201 -23.25,14.218 -0.233,0.387 -0.459,0.797 -0.501,1.247 z m -36.044,30.47 c -3.768,0.262 -7.456,1.259 -10.984,2.609 -4.875,1.866 -9.675,4.584 -12.529,8.955 4.185,1.185 8.197,-1.935 12.02,-4.01 8.576,-4.654 19.7,-4.173 27.843,1.204 2.554,1.687 5.836,3.866 8.327,2.086 -5.827,-7.305 -15.355,-11.492 -24.677,-10.844 z m 15.48,-2.356 c 2.858,-1.489 5.143,-3.908 7.978,-5.441 3.904,-2.112 8.768,-2.356 12.864,-0.645 2.224,0.929 4.193,2.382 6.385,3.386 2.191,1.003 4.802,1.524 6.985,0.503 0.242,-0.114 0.493,-0.263 0.595,-0.51 0.166,-0.402 -0.129,-0.835 -0.415,-1.162 -4.886,-5.577 -12.541,-8.599 -19.919,-7.862 -7.378,0.736 -14.285,5.212 -17.972,11.644 0.77,1.014 2.371,0.675 3.499,0.087 z m -57.238,0.266 c 1.531,-0.871 2.729,-2.216 4.129,-3.285 2.8,-2.138 6.447,-3.123 9.946,-2.716 3.9,0.452 7.416,2.516 10.641,4.755 0.943,0.655 1.906,1.343 3.024,1.603 1.119,0.26 2.451,-0.022 3.083,-0.98 0.626,-0.948 0.375,-2.27 -0.295,-3.187 -0.67,-0.917 -1.675,-1.52 -2.655,-2.095 -3.986,-2.338 -8.198,-4.675 -12.813,-4.913 -5.769,-0.298 -11.13,2.709 -16.119,5.62 -2.024,1.181 -4.347,2.969 -3.919,5.272 1.385,1.089 3.447,0.797 4.978,-0.074 z m 25.979,-22.361 c 1.042,1.348 3.081,-0.097 4.23,-1.353 3.542,-3.869 8.647,-6.265 13.886,-6.517 5.24,-0.251 10.55,1.644 14.446,5.157 0.983,0.886 2.019,1.932 3.342,1.968 1.322,0.036 2.514,-1.81 1.465,-2.616 -5.617,-4.315 -12.151,-7.841 -19.219,-8.307 -7.067,-0.466 -14.684,2.705 -17.956,8.986 -0.438,0.842 -0.774,1.932 -0.194,2.682 z m 62.487,-1.181 c 0.933,-0.394 1.616,-1.197 2.33,-1.915 5.438,-5.47 14.65,-6.693 21.326,-2.831 1.67,0.966 4.182,2.032 5.152,0.364 0.809,-1.39 -0.633,-3.008 -2.009,-3.842 -8.98,-5.445 -21.781,-3.371 -28.582,4.631 -0.693,0.815 -1.357,1.933 -0.881,2.891 0.45,0.907 1.731,1.096 2.664,0.702 z m 4.964,0.514 c -0.386,0.323 -0.771,0.684 -0.933,1.16 -0.454,1.33 1.162,2.574 2.562,2.463 1.401,-0.112 2.591,-1.012 3.862,-1.611 3.098,-1.461 6.821,-1.113 9.966,0.245 1.244,0.537 2.449,1.231 3.789,1.433 1.34,0.202 2.903,-0.243 3.514,-1.453 -5.329,-6.605 -16.247,-7.678 -22.76,-2.237 z m -84.259,-2.535 c 0.796,0.374 1.881,0.302 2.392,-0.412 0.696,-0.972 -0.049,-2.294 -0.788,-3.233 -2.501,-3.18 -5.191,-6.311 -8.629,-8.444 -3.438,-2.133 -7.768,-3.159 -11.596,-1.852 -0.39,1.414 1.37,2.375 2.755,2.858 5.333,1.859 10.174,5.112 13.909,9.349 0.581,0.659 1.162,1.361 1.957,1.734 z m 47.129,3.549 c -6.294,-4.014 -14.885,-4.084 -21.244,-0.174 -1.105,0.679 -2.24,1.634 -2.326,2.929 -0.086,1.294 1.672,2.496 2.544,1.535 3.512,-3.872 9.931,-4.676 14.29,-1.789 2.14,1.418 5.213,1.224 7.159,-0.45 0.919,-0.096 0.355,-1.554 -0.423,-2.051 z m 45.782,21.718 c -8.942,-0.604 -17.264,4.658 -23.755,10.839 0.473,1.092 2.085,0.802 3.177,0.33 7.392,-3.199 14.784,-6.398 22.176,-9.598 0.555,-0.735 -0.678,-1.509 -1.598,-1.571 z m -85.11,3.983 c 1.1,0.623 2.177,1.471 3.441,1.472 1.265,10e-4 2.518,-1.521 1.716,-2.498 -2.525,-3.079 -6.494,-4.92 -10.475,-4.859 -3.982,0.061 -7.892,2.022 -10.322,5.177 0.3,1.146 1.703,1.674 2.875,1.503 1.172,-0.171 2.205,-0.832 3.293,-1.303 3.007,-1.303 6.621,-1.109 9.472,0.508 z m 44.345,-0.841 c -0.101,0.881 0.897,1.554 1.782,1.506 0.885,-0.048 1.662,-0.566 2.438,-0.993 3.258,-1.795 7.269,-2.163 10.799,-0.991 2.262,0.751 5.084,1.979 6.716,0.243 0.144,-0.992 -0.852,-1.741 -1.737,-2.212 -3.17,-1.686 -6.66,-2.959 -10.251,-2.925 -3.591,0.033 -7.296,1.539 -9.347,4.488 -0.186,0.268 -0.363,0.559 -0.4,0.884 z m -6.675,-38.639 c 3.697,1.324 7.14,3.352 10.089,5.944 1.216,1.068 2.38,2.252 3.855,2.919 1.475,0.666 3.39,0.683 4.545,-0.451 -2.555,-1.96 -4.653,-4.51 -6.085,-7.394 -0.771,-1.553 -2.826,-1.838 -4.558,-1.922 -2.532,-0.124 -5.063,-0.248 -7.595,-0.372 -0.267,0.36 -0.362,0.842 -0.251,1.276 z m -33.02,8.89 c 1.307,-1.221 2.272,-2.76 3.479,-4.079 1.873,-2.046 4.34,-3.542 7.019,-4.256 1.157,-0.309 2.677,-0.901 2.502,-2.084 -3.275,-0.569 -7.013,-1.028 -9.596,1.064 -3.617,2.931 -6.486,6.78 -8.26,11.085 1.746,0.386 3.549,-0.51 4.856,-1.73 z m -29.115,-1.483 c 2.347,1.53 4.695,3.059 7.042,4.588 0.994,0.648 2.262,1.311 3.293,0.724 0.957,-0.544 1.103,-1.946 0.604,-2.927 -0.498,-0.981 -1.449,-1.638 -2.362,-2.253 -1.911,-1.287 -3.822,-2.573 -5.733,-3.86 -1.601,-1.078 -4.208,-1.937 -5.078,-0.215 -0.751,1.484 0.84,3.035 2.234,3.943 z m 49.423,18.386 c 0.898,0.891 2.156,1.855 3.298,1.308 0.52,-0.249 0.855,-0.761 1.163,-1.248 1.018,-1.609 2.036,-3.217 3.053,-4.825 -2.664,-2.963 -7.894,-3.042 -10.647,-0.162 -0.211,0.222 -0.417,0.475 -0.455,0.779 -0.06,0.481 0.312,0.897 0.656,1.239 0.977,0.97 1.955,1.939 2.932,2.909 z m -41.076,22.998 c 1.909,0.67 4.162,0.868 5.845,-0.253 -2.534,-2.915 -5.505,-5.451 -8.782,-7.496 -0.93,-0.58 -1.978,-1.14 -3.063,-0.986 -1.085,0.155 -2.045,1.388 -1.52,2.35 1.613,2.951 4.346,5.272 7.52,6.385 z M 420.129,585.1 c 0.902,-1.09 1.804,-2.18 2.706,-3.27 0.311,-0.376 0.639,-0.8 0.62,-1.287 -0.025,-0.618 -0.591,-1.062 -1.13,-1.366 -1.875,-1.054 -4.088,-1.494 -6.224,-1.237 -0.816,0.098 -1.667,0.321 -2.241,0.909 -0.574,0.589 -0.74,1.635 -0.162,2.221 1.309,1.326 2.619,2.653 3.929,3.98 0.428,0.433 0.97,0.904 1.565,0.774 0.394,-0.085 0.68,-0.414 0.937,-0.724 z m -94.135,-23.55 c 0.809,0.871 1.826,1.763 3.011,1.665 2.54,-0.21 3.36,-4.595 5.898,-4.355 0.681,-1.123 -1.178,-2.022 -2.492,-2.043 -3.4,-0.054 -6.8,-0.107 -10.199,-0.161 1.109,1.741 2.377,3.381 3.782,4.894 z m 20.997,47.785 c 7.072,-0.031 14.144,-0.061 21.217,-0.092 -0.62,-1.398 -2.279,-1.966 -3.777,-2.276 -4.907,-1.017 -10.053,-0.862 -14.891,0.449 -1.083,0.294 -2.319,0.821 -2.549,1.919 z m 43.667,-7.442 c -2.34,0.106 -4.68,0.212 -7.02,0.317 -0.755,0.035 -1.725,0.254 -1.818,1.004 -0.041,0.335 0.127,0.657 0.29,0.953 0.619,1.124 1.277,2.292 2.347,3 1.07,0.707 2.68,0.777 3.512,-0.199 0.638,-0.748 0.688,-1.915 1.449,-2.538 0.49,-0.402 1.17,-0.481 1.712,-0.809 0.543,-0.329 0.888,-1.18 0.385,-1.566 -0.236,-0.181 -0.56,-0.175 -0.857,-0.162 z m -60.588,3.914 c 0.625,-0.975 0.034,-2.356 -0.94,-2.983 -0.974,-0.628 -2.192,-0.704 -3.349,-0.761 -1.278,-0.063 -2.961,0.172 -3.191,1.431 -0.109,0.6 0.197,1.189 0.492,1.722 0.867,1.566 2.143,3.361 3.924,3.184 1.381,-0.137 2.315,-1.424 3.064,-2.593 z m 92.435,-14.032 c 1.05,0.087 1.991,-0.625 2.728,-1.378 2.247,-2.298 3.677,-5.38 3.978,-8.58 -0.743,-0.475 -1.653,0.262 -2.223,0.936 -1.913,2.263 -3.826,4.525 -5.74,6.788 -0.68,0.804 0.207,2.147 1.257,2.234 z M 305.454,575.746 c 1.067,1.336 3.125,1.754 4.629,0.941 0.77,-0.416 1.419,-1.242 1.266,-2.104 -0.136,-0.767 -0.834,-1.287 -1.478,-1.726 -0.931,-0.634 -1.861,-1.269 -2.792,-1.903 -0.284,-0.194 -0.611,-0.397 -0.947,-0.327 -0.233,0.047 -0.419,0.218 -0.575,0.397 -1.124,1.287 -1.17,3.387 -0.103,4.722 z m 82.638,-14.094 c 1.117,0.938 2.773,-0.031 3.882,-0.979 1.203,-1.028 2.406,-2.056 3.61,-3.084 -0.681,-0.651 -1.77,-0.504 -2.692,-0.313 -2.679,0.553 -5.358,1.107 -8.037,1.661 1.079,0.905 2.158,1.81 3.237,2.715 z m 42.07,-13.142 c 0.674,0.84 2.094,0.659 2.867,-0.091 0.774,-0.75 1.059,-1.859 1.281,-2.913 0.053,-0.253 0.103,-0.527 -0.003,-0.763 -0.271,-0.601 -1.162,-0.42 -1.758,-0.142 -1.606,0.749 -3.497,2.528 -2.387,3.909 z"
         fill="#ffffff"
         id="path2294" />
      <path
         fill-rule="evenodd"
         clip-rule="evenodd"
         d="m 220.215,458.638 c 6.615,-32.718 29.233,-60.107 57.317,-78.149 -14.2,19.465 -57.774,51.385 -43.768,86.947 22.387,56.845 109.479,65.786 106.449,66.403 -51.511,10.503 -124.924,-50.841 -119.998,-75.201 z"
         fill="#e7eaee"
         id="path2296" />
      <path
         fill-rule="evenodd"
         clip-rule="evenodd"
         d="m 384.982,174.714 c -3.584,0.435 -6.741,3.305 -7.515,6.831 29.008,-15.597 64.045,-19.606 95.826,-10.967 0.027,16.028 -11.216,31.444 -26.486,36.315 l -33.104,10.561 c 8.733,0.969 17.706,-0.312 25.819,-3.685 2.883,4.542 7.631,7.86 12.888,9.003 l -10.176,2.232 c 1.5,4.571 4.563,8.614 8.559,11.294 -3.391,-1.161 -7.163,-1.173 -10.561,-0.033 l 2.278,8.274 c -15.004,-2.082 -31.037,-0.039 -43.675,8.313 -12.638,8.352 -21.124,23.705 -18.847,38.681 2.665,-16.283 13.824,-30.932 28.813,-37.827 14.989,-6.896 33.373,-5.836 47.471,2.735 l -9.563,7.083 c 3.673,1.461 8.025,1.088 11.395,-0.977 7.361,3.257 5.323,16.724 -2.672,17.657 l 10.576,0.736 c 1.833,17.982 -9.276,36.527 -25.996,43.396 -16.72,6.869 -37.658,1.49 -48.996,-12.588 -14.074,7.187 -13.087,28.97 -3.057,41.182 7.002,8.525 16.645,14.063 26.304,19.61 4.177,2.399 8.358,4.8 12.329,7.446 21.095,14.051 36.82,35.962 43.379,60.446 -11.455,7.67 -21.645,17.226 -30.034,28.165 12.412,-0.578 24.567,-5.642 33.72,-14.045 l 1.954,18.905 c -10.048,3.095 -19.077,9.411 -25.429,17.79 8.956,0.912 18.191,-1.18 25.879,-5.862 -2.754,21.754 -7.724,43.226 -14.808,63.977 l -23.096,-0.189 c 5.479,-15.143 11.03,-31.436 6.993,-47.025 -4.037,-15.59 -22.144,-28.459 -36.396,-20.96 16.391,-13.212 28.803,-31.297 35.236,-51.342 l -41.276,53.278 -31.674,0.269 c -0.996,-14.924 -1.954,-30.219 2.289,-44.562 4.242,-14.342 14.835,-27.769 29.43,-31.039 1.583,-0.355 3.269,-0.644 4.977,-0.936 7.133,-1.222 14.655,-2.511 16.749,-8.957 -23.659,-1.377 -47.375,13.769 -56.077,35.813 -6.201,15.707 -5.109,33.216 -3.921,50.062 -21.872,-3.155 -44.268,-2.648 -65.975,1.493 -3.768,-12.845 -7.676,-25.978 -15.581,-36.782 -7.904,-10.803 -20.737,-18.997 -34.057,-17.663 21.451,3.188 32.077,27.025 40.166,47.147 8.089,20.122 22.773,43.106 44.369,41.115 6.15,-0.567 8.108,9.535 3.394,13.526 -4.714,3.991 -11.717,3.231 -17.751,1.911 -31.08,-6.802 -60.097,-22.761 -82.486,-45.365 -4.359,-4.402 -8.574,-9.218 -10.589,-15.076 -2.485,-7.228 -1.327,-15.21 0.81,-22.548 10.917,-37.489 44.514,-63.176 76.443,-85.651 17.178,-12.092 16.562,-42.058 -1.098,-53.433 -13.073,11.879 -30.504,20.186 -48.062,18.248 -17.557,-1.938 -34.174,-16.314 -34.74,-33.969 5.514,-0.486 10.919,-2.179 15.725,-4.925 -4.717,-1.677 -10.034,-1.605 -14.705,0.198 -1.27,-4.758 -0.343,-10.057 2.468,-14.1 l 10.011,-1.07 c -2.013,-2.275 -4.82,-3.834 -7.815,-4.339 7.225,-12.038 23.992,-15.333 37.43,-11.265 13.437,4.068 24.32,13.759 34.731,23.178 -10.856,-23.803 -40.294,-31.475 -65.997,-36.353 l 11.215,-6.645 c -6.481,-1.766 -13.632,-0.936 -19.537,2.269 3.855,4.776 9.058,8.45 14.847,10.485 -9.253,13.172 -25.586,21.033 -41.653,20.049 -15.796,-0.967 -31.884,3.869 -44.528,13.387 20.547,-8.355 42.995,-11.998 65.131,-10.57 l -3.679,15.941 c -12.779,2.39 -24.972,7.846 -35.269,15.781 l 34.802,-11.753 c 3.488,17.828 17.589,33.152 35.068,38.106 17.478,4.955 37.523,-0.691 49.847,-14.038 13.08,2.595 16.218,21.479 9.068,32.734 -5.661,8.913 -14.921,14.464 -24.101,19.968 -2.414,1.447 -4.822,2.89 -7.158,4.391 -28.084,18.042 -48.401,47.764 -55.016,80.482 -6.615,32.718 0.56,67.998 19.429,95.534 -31.166,11.794 -51.886,46.519 -47.467,79.547 0.101,0.756 0.213,1.518 0.326,2.282 0.667,4.517 1.348,9.128 -0.186,13.372 -1.792,4.962 -8.231,8.638 -12.462,5.487 -12.072,-8.988 -26.228,-15.158 -41.029,-17.882 -8.713,-1.604 -21.501,2 -19.644,10.663 0.618,2.889 2.893,5.093 5.101,7.055 22.907,20.361 50.808,35.063 80.554,42.446 6.731,1.671 14.208,2.887 20.31,-0.41 8.686,-4.695 10.112,-15.221 11.545,-25.796 1.408,-10.394 2.822,-20.835 11.145,-25.828 7.516,-4.509 16.777,-1.981 25.457,0.389 l 0.005,0.001 c 1.158,0.316 2.306,0.63 3.437,0.923 20.642,5.35 42.047,3.309 63.462,1.266 8.454,-0.806 16.908,-1.613 25.318,-1.965 23.333,-0.976 46.812,1.611 69.372,7.645 7.857,2.101 15.669,-1.819 23.109,-5.553 1.105,-0.555 2.202,-1.105 3.29,-1.632 8.41,-4.067 19.934,-6.211 25.934,0.95 2.373,2.831 3.249,6.459 4.129,10.106 v 10e-4 h 10e-4 v 10e-4 10e-4 10e-4 0.001 h 10e-4 v 10e-4 10e-4 10e-4 10e-4 h 0.001 v 0.001 10e-4 10e-4 10e-4 c 0.435,1.8 0.871,3.605 1.49,5.321 4.041,11.21 16.156,18.077 28.054,18.743 11.897,0.667 23.515,-3.846 33.911,-9.669 19.697,-11.03 36.544,-27.1 48.492,-46.254 1.391,-2.23 2.766,-4.708 2.487,-7.321 -0.736,-6.904 -10.665,-7.446 -17.289,-5.367 -17.921,5.627 -34.396,15.797 -47.456,29.297 -6.14,-5.598 -9.129,-14.448 -7.64,-22.622 36.512,-25.247 75.386,-51.357 119.665,-54.495 6.943,-0.492 13.991,-0.415 21.031,-0.34 15.288,0.166 30.533,0.33 44.55,-5.325 25.825,-10.42 40.742,-45.661 24.563,-68.327 -12.447,-17.437 -36.783,-21.552 -58.122,-19.641 -36.067,3.23 -70.783,19.837 -95.931,45.891 -6.988,7.239 -13.364,15.251 -19.728,23.248 -13.771,17.306 -27.487,34.542 -47.226,43.726 -13.403,-18.537 -34.406,-31.4 -57.009,-34.914 16.765,-30.934 21.105,-68.383 11.86,-102.332 -9.246,-33.949 -31.975,-64.025 -62.111,-82.187 -1.642,-0.99 -3.315,-1.954 -4.992,-2.921 l -10e-4,-10e-4 c -7.589,-4.374 -15.253,-8.793 -20.424,-15.758 -6.314,-8.505 -6.941,-22.476 1.915,-28.288 11.776,16.159 36.489,19.649 53.966,9.934 17.476,-9.716 27.429,-30.104 27.781,-50.096 l 45.207,-1.151 c -15.196,-5.083 -31.797,-5.896 -47.417,-2.321 l -5.417,-14.749 35.871,-4.703 c -13.234,-3.333 -27.417,-2.802 -40.365,1.512 -2.942,-5.762 -7.427,-10.727 -12.863,-14.236 5.104,0.579 10.404,-0.788 14.591,-3.762 l -11.769,-9.366 c 4.876,0.896 10.167,-2.3 11.643,-7.032 l -18.837,-7.62 74.358,-35.582 c -3.168,-0.056 -6.34,0.061 -9.496,0.349 l 9.612,-6.356 c -14.675,1.774 -29.15,-2.357 -43.607,-6.483 -14.965,-4.27 -29.91,-8.535 -45.038,-6.24 -5.944,0.902 -11.925,2.792 -17.872,4.673 -12.273,3.879 -24.401,7.714 -35.755,2.714 -23.103,-10.172 -50.197,-10.917 -73.824,-2.03 -2.089,0.786 -4.212,1.645 -6.355,2.512 -11.796,4.772 -24.225,9.8 -35.244,4.368 -13.261,-6.537 -29.343,-2.714 -42.639,3.751 -4.668,2.269 -9.198,4.851 -13.724,7.43 -8.368,4.768 -16.722,9.529 -25.909,12.297 20.731,12.707 44.209,20.906 68.343,23.87 2.964,2.291 1.929,7.383 -1.028,9.683 -2.958,2.299 -6.956,2.591 -10.697,2.791 0.963,6.665 9.551,10.886 15.416,7.577 -2.465,0.458 -2.649,-3.546 -1.625,-5.834 l 6.39,-14.28 c 4.963,1.822 11.139,-1.102 12.875,-6.095 -12.289,1.479 -25.04,2.918 -36.813,-0.905 -11.772,-3.823 -22.291,-14.489 -21.739,-26.855 26.217,-15.189 61.411,-13.132 85.68,5.007 -1.874,-5.468 -6.48,-9.924 -12.008,-11.615 6.383,-6.284 14.856,-10.408 23.739,-11.554 -5.277,4.175 -7.696,11.64 -5.87,18.117 l 23.695,-21.793 c -3.887,6.968 -6.064,14.882 -6.288,22.858 8.787,-5.743 15.788,-14.179 19.813,-23.875 l 10.54,1.48 c -6.453,5.452 -10.048,14.116 -9.351,22.535 8.032,-4.993 14.258,-12.825 17.313,-21.775 9.898,1.599 19.51,4.95 28.257,9.849 z m 291.161,385.792 c -5.3,-0.175 -10.603,-0.351 -15.875,-0.201 -39.24,1.114 -75.722,20.226 -108.098,42.426 l -0.335,0.23 -0.365,0.251 -0.639,0.439 -0.025,0.017 c -6.144,4.226 -12.348,8.493 -19.362,10.985 l -8.239,-24.014 c -0.443,-1.288 -0.715,-3.059 0.483,-3.707 12.599,-6.813 24.104,-15.645 33.941,-26.056 6.554,-6.937 12.367,-14.559 18.174,-22.173 8.223,-10.782 16.432,-21.547 26.712,-30.32 16.416,-14.009 37.082,-22.028 57.818,-28.008 15.346,-4.426 31.427,-7.898 47.212,-5.467 15.785,2.431 31.327,11.852 37.115,26.737 4.598,11.823 2.348,25.769 -4.735,36.292 -7.084,10.524 -18.584,17.685 -30.908,20.69 -10.718,2.612 -21.787,2.246 -32.874,1.879 z m -451.504,50.871 c 0.83,1.974 1.353,4.608 -0.303,5.964 -2.134,1.747 -5.16,-0.505 -6.953,-2.599 l -15.28,-17.856 c -3.658,9.509 -5.336,19.775 -4.897,29.954 0.088,2.04 0.254,4.111 0.421,6.188 v 10e-4 10e-4 10e-4 h 10e-4 v 0.001 10e-4 10e-4 10e-4 10e-4 0.001 c 0.639,7.951 1.286,16.008 -2.397,22.903 -1.615,3.024 -4.363,5.8 -7.785,6.022 -1.939,0.126 -3.827,-0.583 -5.617,-1.34 -4.906,-2.075 -9.74,-4.625 -14.572,-7.174 -12.44,-6.561 -24.869,-13.117 -38.49,-11.553 -1.86,0.214 -4.177,1.131 -4.104,3.002 0.032,0.838 0.579,1.558 1.11,2.207 19.639,23.984 50.349,35.614 80.078,44.396 4.862,1.436 9.986,2.834 14.937,1.744 4.951,-1.091 9.547,-5.555 8.949,-10.589 -1.582,-13.32 2.591,-27.225 11.247,-37.472 3.455,-4.091 7.824,-7.731 13.066,-8.821 6.44,-1.337 12.734,1.316 18.933,3.929 h 10e-4 c 1.592,0.672 3.178,1.34 4.758,1.938 12.117,4.581 25.736,5.08 38.156,1.4 -4.856,-0.063 -7.188,-5.885 -8.194,-10.636 -6.52,-30.777 -9.987,-62.2 -10.332,-93.658 -0.037,-3.421 -2.437,-6.445 -5.331,-8.269 -2.45,-1.543 -5.244,-2.402 -8.022,-3.256 -0.503,-0.155 -1.006,-0.309 -1.507,-0.468 -10.115,-3.205 -19.646,-8.242 -27.992,-14.795 -1.052,-0.825 -2.087,-1.676 -3.124,-2.528 -3.194,-2.625 -6.391,-5.253 -10.058,-7.134 -4.856,-2.492 -10.866,-3.508 -15.733,-1.037 -1.086,2.587 0.877,5.593 3.389,6.842 1.903,0.946 4.035,1.203 6.161,1.459 0.682,0.082 1.363,0.164 2.035,0.268 3.199,0.498 6.313,1.539 9.167,3.068 2.997,1.605 5.837,5.844 3.165,7.948 -1.096,0.863 -2.631,0.802 -4.022,0.7 l -15.69,-1.153 c 3.825,10.406 8.701,20.425 14.531,29.856 0.523,0.846 1.222,1.787 2.217,1.796 15.371,0.139 32.536,2.291 42.277,14.182 1.846,2.254 3.361,5.511 1.778,7.957 -8.929,-10.781 -22.896,-17.202 -36.893,-16.961 -13.997,0.242 -27.734,7.141 -36.285,18.225 7.548,5.052 13.548,12.384 17.007,20.782 1.044,2.536 0.852,6.684 -1.89,6.627 l -16.47,-20.166 c -0.736,-0.901 -1.621,-1.879 -2.784,-1.915 -0.932,-0.028 -1.754,0.568 -2.494,1.137 -1.602,1.231 -3.265,2.536 -4.101,4.375 -0.836,1.84 -0.525,4.371 1.217,5.394 7.425,4.361 13.383,11.17 16.719,19.108 z m 187.77,31.558 c 10.576,-8.822 14.026,-23.35 16.867,-36.828 l 10.407,-49.386 c 0.112,-0.528 0.239,-1.087 0.619,-1.47 0.501,-0.506 1.287,-0.561 1.998,-0.582 18.972,-0.574 39.17,1.234 54.45,12.492 -6.235,3.092 -11.685,7.751 -15.708,13.43 -1.129,1.593 -2.072,3.989 -0.619,5.293 0.545,0.489 1.304,0.662 2.035,0.714 3.642,0.259 6.969,-2.016 9.631,-4.516 0.574,-0.539 1.138,-1.096 1.702,-1.654 2.052,-2.031 4.114,-4.07 6.719,-5.263 3.32,-1.52 7.932,-1.094 9.765,2.065 -5.922,3.017 -10.802,8.035 -13.651,14.039 -0.742,1.563 -1.355,3.37 -0.754,4.992 0.601,1.623 2.965,2.575 4.127,1.292 l 11.441,-12.63 c 0.553,-0.611 1.322,-1.281 2.096,-0.999 0.418,0.153 0.691,0.548 0.93,0.923 6.063,9.514 8.473,20.592 10.894,31.718 1.417,6.515 2.838,13.046 4.998,19.29 1.73,5.002 5.072,10.621 10.365,10.625 2.925,0.002 5.513,-1.798 7.828,-3.585 2.475,-1.911 4.938,-3.915 7.413,-5.929 11.635,-9.468 23.534,-19.152 38.188,-20.312 2.31,-0.182 5.273,0.327 5.815,2.58 0.315,1.308 -0.389,2.625 -1.091,3.773 -10.892,17.828 -27.229,31.885 -45.277,42.407 -9.241,5.388 -19.373,10.014 -30.069,10.097 -10.696,0.083 -22.022,-5.386 -26.064,-15.289 -0.824,-2.02 -1.329,-4.153 -1.832,-6.283 l -0.001,-10e-4 c -0.582,-2.464 -1.165,-4.926 -2.241,-7.208 -2.773,-5.883 -8.92,-10.023 -15.413,-10.383 -6.183,-0.342 -11.869,2.412 -17.543,5.16 -1.993,0.966 -3.985,1.93 -5.996,2.76 -13.352,5.507 -29.052,5.009 -42.029,-1.332 z m -70.602,-106.32 c -3.982,3.397 -9.337,4.753 -14.557,5.136 -9.404,0.69 -19,-1.511 -27.163,-6.231 l 3.368,12.749 c 0.145,0.549 0.318,1.141 0.774,1.479 0.396,0.295 0.921,0.331 1.414,0.357 l 48.396,2.544 c 7.056,0.37 14.121,0.741 21.183,0.537 19.809,-0.572 39.471,-5.744 56.998,-14.992 1.012,-0.533 2.042,-1.101 2.77,-1.982 0.868,-1.051 1.211,-2.427 1.501,-3.759 2.455,-11.26 2.88,-22.96 1.247,-34.368 -0.4,-2.802 -0.959,-5.676 -2.534,-8.028 -1.576,-2.352 -4.409,-4.071 -7.19,-3.541 -28.479,5.423 -57.551,3.748 -86.621,2.073 h -10e-4 -10e-4 -0.001 -10e-4 -0.001 -10e-4 -10e-4 c -10.957,-0.632 -21.914,-1.263 -32.838,-1.514 -1.951,-0.045 -4.002,-0.055 -5.716,0.879 -1.713,0.933 -2.892,3.148 -2.012,4.889 4.981,9.856 15.274,16.145 25.946,18.982 0.767,0.204 1.551,0.404 2.345,0.606 6.904,1.756 14.507,3.689 17.013,10.115 1.902,4.876 -0.336,10.671 -4.317,14.069 z m 77.648,83.531 c -1.952,7.752 -6.056,15.793 -13.502,18.7 -2.605,1.017 -5.426,1.32 -8.21,1.579 -25.817,2.403 -51.91,1.824 -77.595,-1.721 -1.529,-0.211 -3.141,-0.468 -4.333,-1.45 -1.452,-1.194 -1.944,-3.172 -2.325,-5.013 -1.166,-5.644 -2.069,-11.343 -2.707,-17.07 -0.112,-1.015 0.169,-2.462 1.187,-2.383 16.435,1.279 32.918,1.95 49.403,2.013 11.371,0.043 22.833,-0.213 33.94,-2.656 11.106,-2.442 21.935,-7.216 30.054,-15.178 -2.308,4.847 -3.302,10.142 -4.297,15.446 v 10e-4 h -10e-4 v 10e-4 0.001 10e-4 h -0.001 v 10e-4 10e-4 10e-4 h -10e-4 v 0.001 c -0.485,2.59 -0.971,5.182 -1.612,7.725 z M 363.93,587.955 c -1.054,1.026 -2.188,2.244 -2.113,3.713 0.074,1.468 2.277,2.565 3.037,1.306 4.149,-6.872 11.363,-11.813 19.269,-13.197 7.907,-1.384 16.37,0.813 22.606,5.867 0.648,0.525 1.275,1.08 1.902,1.636 1.478,1.31 2.956,2.619 4.702,3.524 0.894,0.464 2.426,0.477 2.463,-0.531 0.012,-0.33 -0.177,-0.631 -0.363,-0.905 -4.478,-6.6 -11.174,-11.667 -18.742,-14.182 -6.635,-2.204 -14.323,-2.343 -20.256,1.354 -2.155,1.342 -3.993,3.128 -5.812,4.899 z m -55.732,-3.754 c 5.72,-6.508 14.968,-9.39 23.558,-8.255 8.589,1.136 16.446,5.975 22.153,12.494 1.006,1.149 1.992,2.8 1.176,4.091 -0.682,1.081 -2.314,1.16 -3.436,0.546 -0.978,-0.536 -1.676,-1.44 -2.363,-2.33 l -0.004,-0.005 c -0.06,-0.078 -0.121,-0.156 -0.181,-0.233 -0.039,-0.05 -0.078,-0.1 -0.117,-0.15 -5.052,-6.427 -13.307,-10.2 -21.473,-9.815 -8.165,0.386 -16.028,4.919 -20.453,11.793 -1.152,-1.002 -1.478,-2.723 -1.132,-4.211 0.347,-1.487 1.264,-2.778 2.272,-3.925 z m 84.147,-17.049 c -0.133,1.453 1.786,2.356 3.165,1.881 1.241,-0.428 2.106,-1.5 2.939,-2.533 0.093,-0.115 0.185,-0.229 0.277,-0.342 7.679,-9.391 22.301,-12.221 32.929,-6.372 1.394,-1.177 1.474,-3.435 0.541,-5.003 -0.933,-1.569 -2.636,-2.531 -4.374,-3.087 -3.765,-1.203 -7.853,-0.793 -11.726,-0.009 -9.169,1.855 -18.43,6.201 -23.25,14.218 -0.233,0.387 -0.459,0.797 -0.501,1.247 z m -47.028,33.079 c 3.528,-1.35 7.216,-2.347 10.984,-2.609 9.322,-0.648 18.85,3.539 24.677,10.844 -2.482,1.775 -5.751,-0.385 -8.303,-2.069 l -0.025,-0.017 c -8.142,-5.377 -19.266,-5.858 -27.842,-1.204 -0.669,0.363 -1.344,0.758 -2.025,1.157 -3.208,1.878 -6.542,3.831 -9.995,2.853 2.854,-4.371 7.654,-7.089 12.529,-8.955 z m 26.464,-4.965 c 1.462,-0.762 2.774,-1.767 4.086,-2.772 1.253,-0.96 2.507,-1.92 3.892,-2.669 3.904,-2.112 8.768,-2.356 12.864,-0.645 1.195,0.499 2.316,1.15 3.438,1.8 l 0.001,10e-4 c 0.966,0.56 1.932,1.121 2.946,1.585 2.191,1.003 4.802,1.524 6.985,0.503 0.242,-0.114 0.493,-0.263 0.595,-0.51 0.166,-0.402 -0.129,-0.835 -0.415,-1.162 -4.886,-5.577 -12.541,-8.599 -19.919,-7.862 -7.378,0.736 -14.285,5.212 -17.972,11.644 0.77,1.014 2.371,0.675 3.499,0.087 z m -54.613,-1.752 c -0.832,0.736 -1.663,1.471 -2.625,2.018 -1.531,0.871 -3.593,1.163 -4.978,0.074 -0.428,-2.303 1.895,-4.091 3.919,-5.272 4.989,-2.911 10.35,-5.918 16.119,-5.62 4.615,0.238 8.827,2.575 12.813,4.913 0.98,0.575 1.985,1.178 2.655,2.095 0.67,0.917 0.921,2.239 0.295,3.187 -0.632,0.958 -1.964,1.24 -3.083,0.98 -1.077,-0.25 -2.009,-0.898 -2.918,-1.53 l -0.106,-0.073 c -3.225,-2.239 -6.741,-4.303 -10.641,-4.755 -3.499,-0.407 -7.146,0.578 -9.946,2.716 -0.517,0.395 -1.006,0.828 -1.495,1.26 l -0.001,0.001 -10e-4,10e-4 h -0.001 v 10e-4 h -10e-4 v 10e-4 h -10e-4 l -0.001,10e-4 -10e-4,0.001 h -0.001 v 10e-4 z m 23.354,-20.343 c 1.042,1.348 3.081,-0.097 4.23,-1.353 3.542,-3.869 8.647,-6.265 13.886,-6.517 5.24,-0.251 10.55,1.644 14.446,5.157 0.08,0.071 0.159,0.144 0.239,0.217 0.913,0.831 1.887,1.718 3.103,1.751 1.322,0.036 2.514,-1.81 1.465,-2.616 -5.617,-4.315 -12.151,-7.841 -19.219,-8.307 -7.067,-0.466 -14.684,2.705 -17.956,8.986 -0.438,0.842 -0.774,1.932 -0.194,2.682 z m 64.501,-2.773 c -0.606,0.624 -1.219,1.256 -2.014,1.592 -0.933,0.394 -2.214,0.205 -2.664,-0.702 -0.476,-0.958 0.188,-2.076 0.881,-2.891 6.801,-8.002 19.602,-10.076 28.582,-4.631 1.376,0.834 2.818,2.452 2.009,3.842 -0.97,1.668 -3.482,0.602 -5.152,-0.364 -6.676,-3.862 -15.888,-2.639 -21.326,2.831 -0.106,0.106 -0.211,0.214 -0.316,0.323 z m 2.95,2.106 c -0.386,0.323 -0.771,0.684 -0.933,1.16 -0.454,1.33 1.162,2.574 2.562,2.463 1.014,-0.081 1.918,-0.575 2.821,-1.068 0.345,-0.189 0.69,-0.377 1.041,-0.543 3.098,-1.461 6.821,-1.113 9.966,0.245 0.093,0.04 0.186,0.082 0.279,0.124 0.204,0.091 0.407,0.186 0.611,0.28 0.939,0.438 1.88,0.876 2.899,1.029 1.34,0.202 2.903,-0.243 3.514,-1.453 -5.329,-6.605 -16.247,-7.678 -22.76,-2.237 z m -81.867,-2.947 c -0.511,0.714 -1.596,0.785 -2.392,0.412 -0.739,-0.346 -1.293,-0.977 -1.833,-1.594 l -0.124,-0.14 c -3.735,-4.236 -8.576,-7.49 -13.909,-9.349 -1.385,-0.483 -3.145,-1.444 -2.755,-2.858 3.828,-1.307 8.158,-0.281 11.596,1.852 3.438,2.133 6.128,5.264 8.629,8.444 0.739,0.939 1.484,2.261 0.788,3.233 z m 44.736,3.961 c -6.293,-4.014 -14.884,-4.084 -21.243,-0.174 -1.105,0.679 -2.24,1.634 -2.326,2.929 -0.086,1.294 1.672,2.496 2.544,1.535 3.512,-3.872 9.931,-4.676 14.29,-1.789 2.14,1.418 5.213,1.224 7.159,-0.45 0.919,-0.096 0.355,-1.554 -0.424,-2.051 z m 22.028,32.557 c 6.491,-6.181 14.812,-11.443 23.755,-10.839 0.92,0.062 2.153,0.836 1.598,1.571 l -22.176,9.598 c -1.092,0.472 -2.704,0.762 -3.177,-0.33 z m -61.355,-6.856 c 0.218,0.123 0.436,0.256 0.654,0.389 0.881,0.537 1.774,1.082 2.787,1.083 1.265,10e-4 2.518,-1.521 1.716,-2.498 -2.525,-3.079 -6.494,-4.92 -10.475,-4.859 -3.982,0.061 -7.892,2.022 -10.322,5.177 0.3,1.146 1.703,1.674 2.875,1.503 0.845,-0.123 1.618,-0.501 2.39,-0.879 0.3,-0.146 0.599,-0.292 0.903,-0.424 3.007,-1.303 6.621,-1.109 9.472,0.508 z m 46.127,0.665 c -0.885,0.048 -1.883,-0.625 -1.782,-1.506 0.037,-0.325 0.214,-0.616 0.4,-0.884 2.051,-2.949 5.756,-4.455 9.347,-4.488 3.591,-0.033 7.081,1.239 10.251,2.925 0.885,0.471 1.88,1.22 1.737,2.212 -1.469,1.563 -3.902,0.724 -6.023,-0.007 -0.236,-0.081 -0.467,-0.161 -0.693,-0.236 -3.53,-1.172 -7.541,-0.804 -10.799,0.991 -0.112,0.061 -0.224,0.125 -0.337,0.189 -0.666,0.378 -1.344,0.763 -2.101,0.804 z m -8.457,-40.145 c 3.697,1.324 7.14,3.352 10.089,5.944 0.205,0.18 0.409,0.364 0.612,0.547 l 10e-4,10e-4 h 10e-4 v 10e-4 c 1.005,0.905 2.016,1.816 3.241,2.37 1.475,0.666 3.39,0.683 4.545,-0.451 -2.555,-1.96 -4.653,-4.51 -6.085,-7.394 -0.771,-1.553 -2.826,-1.838 -4.558,-1.922 l -7.595,-0.372 c -0.267,0.36 -0.362,0.842 -0.251,1.276 z m -30.951,6.517 c -0.651,0.828 -1.301,1.655 -2.069,2.373 -1.307,1.22 -3.11,2.116 -4.856,1.73 1.774,-4.305 4.643,-8.154 8.26,-11.085 2.583,-2.092 6.321,-1.633 9.596,-1.064 0.175,1.183 -1.345,1.775 -2.502,2.084 -2.679,0.714 -5.146,2.21 -7.019,4.256 -0.497,0.544 -0.954,1.125 -1.41,1.706 z m -31.184,0.89 7.042,4.588 c 0.994,0.648 2.262,1.311 3.293,0.724 0.957,-0.544 1.103,-1.946 0.604,-2.927 -0.498,-0.981 -1.449,-1.638 -2.362,-2.253 l -5.733,-3.86 c -1.601,-1.078 -4.208,-1.937 -5.078,-0.215 -0.751,1.484 0.84,3.035 2.234,3.943 z m 52.721,19.694 c -1.142,0.547 -2.4,-0.417 -3.298,-1.308 l -2.932,-2.909 c -0.344,-0.342 -0.716,-0.758 -0.656,-1.239 0.038,-0.304 0.244,-0.557 0.455,-0.779 2.753,-2.88 7.983,-2.801 10.647,0.162 l -3.053,4.825 c -0.308,0.487 -0.643,0.999 -1.163,1.248 z m -44.374,21.69 c 1.909,0.67 4.162,0.868 5.845,-0.253 -2.534,-2.915 -5.505,-5.451 -8.782,-7.496 -0.93,-0.58 -1.978,-1.14 -3.063,-0.986 -1.085,0.155 -2.045,1.388 -1.52,2.35 1.613,2.951 4.346,5.272 7.52,6.385 z m 107.438,-26.7 -2.706,3.27 c -0.257,0.31 -0.543,0.639 -0.937,0.724 -0.595,0.13 -1.137,-0.341 -1.565,-0.774 l -3.929,-3.98 c -0.578,-0.586 -0.412,-1.632 0.162,-2.221 0.574,-0.588 1.425,-0.811 2.241,-0.909 2.136,-0.257 4.349,0.183 6.224,1.237 0.539,0.304 1.105,0.748 1.13,1.366 0.019,0.487 -0.309,0.911 -0.62,1.287 z m -96.841,-20.28 c 0.809,0.871 1.826,1.763 3.011,1.665 1.227,-0.102 2.053,-1.178 2.865,-2.236 0.868,-1.132 1.721,-2.243 3.033,-2.119 0.681,-1.123 -1.178,-2.022 -2.492,-2.043 l -10.199,-0.161 c 1.109,1.741 2.377,3.381 3.782,4.894 z m 42.214,47.693 -21.217,0.092 c 0.23,-1.098 1.466,-1.625 2.549,-1.919 4.838,-1.311 9.984,-1.466 14.891,-0.449 1.498,0.31 3.157,0.878 3.777,2.276 z m 22.45,-7.35 -7.02,0.317 c -0.755,0.035 -1.725,0.254 -1.818,1.004 -0.041,0.335 0.127,0.657 0.29,0.953 0.619,1.124 1.277,2.292 2.347,3 1.069,0.707 2.68,0.777 3.512,-0.199 0.286,-0.336 0.454,-0.756 0.621,-1.173 0.205,-0.513 0.409,-1.022 0.828,-1.365 0.278,-0.228 0.617,-0.352 0.957,-0.477 0.26,-0.095 0.52,-0.19 0.755,-0.332 0.543,-0.329 0.888,-1.18 0.385,-1.566 -0.236,-0.181 -0.56,-0.175 -0.857,-0.162 z m -61.528,0.931 c 0.974,0.627 1.565,2.008 0.94,2.983 -0.749,1.169 -1.683,2.456 -3.064,2.593 -1.781,0.177 -3.057,-1.618 -3.924,-3.184 -0.295,-0.533 -0.601,-1.122 -0.492,-1.722 0.23,-1.259 1.913,-1.494 3.191,-1.431 1.157,0.057 2.375,0.133 3.349,0.761 z m 93.375,-11.049 c 1.05,0.087 1.991,-0.625 2.728,-1.378 2.247,-2.298 3.677,-5.38 3.978,-8.58 -0.743,-0.475 -1.653,0.262 -2.223,0.936 l -5.74,6.788 c -0.68,0.804 0.207,2.147 1.257,2.234 z M 310.083,576.687 c -1.504,0.813 -3.562,0.395 -4.629,-0.941 -1.067,-1.335 -1.021,-3.435 0.103,-4.722 0.156,-0.179 0.342,-0.35 0.575,-0.397 0.337,-0.07 0.663,0.133 0.947,0.327 l 2.792,1.903 c 0.644,0.439 1.342,0.959 1.478,1.726 0.153,0.862 -0.496,1.688 -1.266,2.104 z m 78.009,-15.035 c 1.117,0.938 2.773,-0.031 3.882,-0.979 l 3.61,-3.084 c -0.681,-0.651 -1.77,-0.504 -2.692,-0.313 l -8.037,1.661 z M 225.611,490.963 c -0.821,-0.73 -1.031,-1.923 -1.055,-3.02 -0.028,-1.24 0.117,-2.482 0.43,-3.682 l 5.327,6.935 c 0.317,0.414 0.578,1.126 0.109,1.353 -0.666,-0.447 -1.485,-0.573 -2.299,-0.699 -0.92,-0.143 -1.834,-0.284 -2.512,-0.887 z m 204.551,57.547 c 0.674,0.84 2.094,0.659 2.867,-0.091 0.774,-0.75 1.059,-1.859 1.281,-2.913 0.053,-0.253 0.103,-0.527 -0.003,-0.763 -0.271,-0.601 -1.162,-0.42 -1.758,-0.142 -1.606,0.749 -3.497,2.528 -2.387,3.909 z M 369.879,241.894 c 0.652,-1.629 2.169,-2.728 3.664,-3.646 4.51,-2.771 9.519,-4.727 14.713,-5.747 1.243,-0.244 2.723,-0.363 3.586,0.564 0.971,1.043 0.485,2.848 -0.592,3.78 -0.96,0.831 -2.223,1.172 -3.458,1.505 -0.152,0.041 -0.303,0.082 -0.452,0.123 -4.154,1.15 -8.062,3.181 -11.39,5.92 -1.28,1.053 -2.797,2.293 -4.393,1.849 -1.69,-0.47 -2.33,-2.72 -1.678,-4.348 z m -93.428,0.38 c -1.205,-0.653 -2.02,-2.282 -1.269,-3.43 0.436,-0.667 1.25,-0.971 2.023,-1.168 6.262,-1.589 12.745,1.217 18.41,4.325 1.275,0.699 2.587,1.461 3.391,2.673 0.804,1.213 0.921,3.009 -0.128,4.016 -1.755,1.687 -4.538,-0.048 -6.52,-1.462 -3.47,-2.475 -7.64,-3.959 -11.894,-4.232 -0.189,-0.012 -0.38,-0.022 -0.572,-0.032 v -0.001 c -1.191,-0.063 -2.402,-0.127 -3.441,-0.689 z m 65.647,89.782 -4.119,-11.748 c -3.666,2.646 -6.407,6.549 -7.651,10.896 -1.125,-0.915 -1.167,-2.463 -1.208,-3.983 -0.012,-0.454 -0.024,-0.906 -0.065,-1.337 -0.243,-2.561 -1.852,-4.953 -4.132,-6.143 -2.281,-1.191 -5.162,-1.145 -7.403,0.119 0.595,1.301 1.995,1.714 3.436,2.139 0.958,0.282 1.933,0.57 2.702,1.126 1.626,1.175 2.091,3.39 2.116,5.396 0.007,0.502 -0.006,1.008 -0.019,1.515 v 10e-4 c -0.039,1.515 -0.077,3.033 0.396,4.459 0.153,0.461 0.369,0.92 0.742,1.23 1.057,0.879 2.657,0.149 3.727,-0.714 2.417,-1.949 4.318,-4.533 5.459,-7.42 1.006,1.005 1.378,2.417 1.747,3.818 0.108,0.411 0.216,0.822 0.34,1.22 0.545,1.757 1.85,3.636 3.688,3.55 1.225,-0.056 2.212,-0.978 3.079,-1.845 l 4.984,-4.978 c 0.6,-0.6 1.252,-1.363 1.058,-2.19 -0.185,-0.793 -1.126,-1.218 -1.933,-1.104 -0.807,0.114 -1.497,0.622 -2.128,1.137 -1.77,1.444 -3.387,3.075 -4.816,4.856 z m -11.383,-47.124 c 0.265,-2.153 0.412,-4.661 -1.17,-6.146 -2.952,-2.771 -5.537,-5.931 -7.667,-9.374 -0.929,-1.501 -1.802,-3.255 -1.359,-4.964 0.669,-2.581 3.807,-3.515 6.454,-3.837 4.235,-0.516 8.522,-0.603 12.774,-0.261 1.828,0.147 3.765,0.422 5.163,1.607 1.398,1.185 1.903,3.589 0.553,4.829 -6.616,6.082 -10.49,15.041 -10.39,24.028 2.453,1.592 4.947,3.204 7.742,4.065 2.795,0.862 5.98,0.89 8.502,-0.593 1.061,-0.624 1.952,-1.478 2.844,-2.334 0.616,-0.591 1.233,-1.183 1.908,-1.701 1.652,-1.267 4.018,-2.052 5.788,-0.956 l -6.736,6.201 c -2.684,2.472 -6.017,5.13 -9.57,4.298 -1.176,-0.276 -2.209,-0.912 -3.246,-1.551 -0.617,-0.38 -1.235,-0.761 -1.886,-1.067 -3.479,-1.637 -7.561,-1.025 -11.32,-0.218 -0.226,0.048 -0.452,0.097 -0.68,0.147 l -0.008,10e-4 c -3.548,0.769 -7.219,1.565 -10.701,0.609 -3.708,-1.017 -6.96,-4.871 -5.8,-8.536 2.334,3.416 6.399,5.581 10.536,5.613 1.589,0.012 3.227,-0.292 4.543,-1.182 2.694,-1.821 3.327,-5.45 3.726,-8.678 z"
         fill="#00160a"
         id="path2298" />
    </g>
  </g>
</svg>
