<svg width="750" height="750" viewBox="0 0 750 750" fill="none" xmlns="http://www.w3.org/2000/svg">
<path fill-rule="evenodd" clip-rule="evenodd" d="M448.159 109C623.499 109 660.415 351.997 661.132 353.997C661.871 356.057 662.568 358.177 663.241 360.235C664.608 364.415 666.368 368.439 667.736 372.591C668.573 375.124 670.111 377.222 671.141 379.614C673.141 384.184 675.591 388.545 678.455 392.631C679.637 394.249 680.567 396.037 681.211 397.934C681.663 399.386 683.162 399.774 683.809 401.055C684.856 403.129 686.252 405.024 687.461 407.016C687.736 407.716 688.368 408.214 689.114 408.318L688.878 410.295C689.316 411.008 689.465 410.045 689.923 410.214C690.496 410.986 691.313 411.671 691.396 412.846C691.472 413.95 692.761 414.054 693.202 415.017C694.169 417.108 696.858 418.174 696.819 420.917C698.752 422.131 699.703 424.215 701.162 425.85C701.912 426.603 702.368 427.594 702.455 428.647L702.468 428.89C702.457 429.937 704.478 429.702 703.934 431.13C707.028 433.452 707.831 437.245 709.465 440.388C712.085 445.43 715.104 450.302 716.884 455.824C717.775 458.586 719.503 461.199 720.463 463.996C722.624 470.283 725.218 476.433 726.622 482.981C727.201 485.685 728.384 488.262 728.938 490.974L729.577 494.108C730.529 498.812 731.431 503.528 732.03 508.295C732.337 509.37 732.337 510.51 732.029 511.585C731.513 512.809 732.883 513.593 732.994 514.821C733.131 516.277 732.549 517.657 732.968 519.203C733.199 520.055 732.968 521.423 733.234 522.412C734.095 525.626 733.004 528.941 733.941 532.133C734.089 533.367 733.959 534.618 733.561 535.796C732.913 539.726 734.099 543.739 732.916 547.576C732.362 549.469 732.256 551.462 732.605 553.399L732.751 554.146C732.856 554.699 732.925 555.238 732.653 555.61C731.575 557.084 731.853 558.822 731.638 560.434L731.597 560.701C731.287 562.506 731.607 564.398 731.062 566.237C730.317 568.037 729.9 569.955 729.828 571.901C730.103 575.201 728.992 578.163 728.311 581.227C727.972 582.757 728.253 584.577 726.568 585.716C725.711 586.295 727.733 587.419 726.507 588.267L726.363 588.357C725.463 588.865 725.502 589.684 725.756 590.666C725.988 591.563 724.42 592.183 724.869 593.101C725.317 594.019 725.52 595.356 724.996 595.525C723.686 595.955 725.018 597.379 723.918 597.649C723.81 597.708 723.735 597.813 723.716 597.935C723.341 601.382 721.121 604.211 720.572 607.656C720.157 609.713 719.355 611.674 718.211 613.434C717.263 615.133 716.457 616.907 715.802 618.739C714.571 621.82 712.464 624.393 711.278 627.458C710.955 628.288 708.806 628.01 709.899 629.713C708.645 630.156 709.026 631.455 708.522 632.266C707.966 632.879 707.319 633.403 706.604 633.819C706.141 635.643 705.253 637.334 704.014 638.752C701.848 641.92 699.484 644.947 696.935 647.817L694.83 650.174C692.016 653.317 689.111 656.392 685.403 658.559C684.45 659.116 684.884 660.172 684.099 660.745C679.553 664.101 675.365 667.908 670.193 670.452C668.028 671.518 666.172 673.41 663.959 674.519C659.766 676.624 655.872 679.245 651.386 680.884L650.588 681.163C647.731 682.113 644.919 683.554 642.019 684.6C636.062 686.94 629.844 688.556 623.499 689.412L619.586 689.846C616.107 690.23 612.623 690.584 609.109 690.681C607.446 690.726 605.851 690.199 604.328 690.389C602.845 690.576 601.34 690.455 599.906 690.033C598.774 689.716 597.816 690.69 596.596 690.167C595.66 689.581 594.5 689.493 593.491 689.921L593.291 690.013C592.713 690.348 591.575 689.729 590.694 689.53C589.409 689.351 588.146 689.039 586.927 688.599C585.981 688.162 584.776 689.566 584.118 688.073C582.922 689.001 501.688 669.697 427.067 708.897C420.99 712.923 413.879 714.691 407.386 717.818C404.367 719.275 400.974 719.94 397.725 720.935L397.031 721.153C391.295 723.007 385.413 724.272 379.539 725.594C374.143 726.762 368.675 727.575 363.171 728.026C359.214 728.384 355.239 728.55 351.292 728.981C349.691 729.155 348.122 728.027 346.556 728.996C343.036 728.038 339.342 729.201 335.832 728.119C333.498 728.809 331.305 727.953 329.16 727.321C327.522 726.835 325.979 727.843 324.325 727.128C322.819 726.343 321.132 725.968 319.435 726.042C316.617 726.474 314.164 725.44 311.598 724.894C305.634 723.624 299.691 722.251 293.77 720.775C291.831 720.291 289.653 720.477 287.992 718.995C286.534 717.693 284.234 718.509 282.802 716.972C282.28 716.413 281.613 717.497 280.826 717.074C279.29 716.249 277.317 716.793 275.882 715.306C274.819 714.205 272.813 714.95 271.637 713.62L271.482 713.426C270.787 712.461 268.955 714.735 268.413 712.587C266.223 712.419 264.408 711.225 262.458 710.407C260.843 709.732 258.936 710.113 257.478 708.707C256.236 707.508 253.889 708.39 252.813 706.593C250.18 706.571 248.239 704.601 245.73 704.083C243.826 703.583 241.997 702.831 240.293 701.846C237.591 700.456 234.848 699.147 232.084 697.906C231.093 697.445 230.128 696.93 229.193 696.362C228.669 696.056 228.542 695.377 227.793 695.212C223.054 694.162 219.069 691.4 215.021 688.984C212.712 687.791 210.504 686.416 208.416 684.872L207.724 684.351C207.113 683.826 205.844 683.567 205.307 682.836C203.809 680.802 201.569 679.807 199.537 678.585L199.201 678.379C198.056 677.705 197.016 676.868 196.112 675.895C195.941 675.709 195.872 675.307 195.69 675.262C192.318 674.429 190.305 671.644 187.727 669.697C185.509 668.024 183.57 665.984 181.386 664.279L180.554 663.656C175.444 660.001 119.522 598.466 113.185 587.847L111.371 584.808C109.561 581.763 107.771 578.696 106.123 575.568L104.719 572.906C103.318 570.237 101.939 567.55 100.719 564.816L99.0878 561.166C95.8328 553.863 92.6477 546.523 89.933 538.983C87.5123 532.256 85.5082 525.418 83.485 518.575C82.1891 514.181 81.0941 509.767 80.169 505.29C78.6911 498.136 77.3731 490.952 76.2153 483.74C75.1354 476.949 75.5348 470.058 74.0927 463.344C75.0375 459.221 73.3004 455.036 74.379 450.918C73.5789 448.884 74.2825 446.774 74.3577 444.769C74.4348 442.7 73.9706 440.532 74.797 438.435C75.1756 437.482 74.3004 436.337 74.7746 435.174C75.2951 434.206 75.3552 433.056 74.9384 432.039C76.3435 431.393 74.6687 430.399 75.2522 429.479C75.8813 428.48 76.1592 427.301 76.042 426.127C75.6328 423.5 77.1463 421.074 76.8806 418.7C76.6035 416.273 77.8023 414.215 77.7986 412.039L77.7831 411.63C77.5762 408.774 79.6179 406.623 79.686 403.921C79.6924 403.685 80.2513 403.467 80.5576 403.232C80.4594 402.624 79.7872 402.762 79.3104 402.289C80.0716 401.628 80.7376 400.866 81.2895 400.023C81.7072 398.867 82.0039 397.672 82.1747 396.455L80.2393 393.958C80.9535 392.53 80.7045 391.231 81.6581 390.111C82.0731 389.621 81.8417 388.126 81.8929 387.093C81.9605 385.737 83.7034 384.929 83.2829 383.858C82.9586 382.626 83.0637 381.32 83.5809 380.156C86.0744 369.163 88.6143 358.181 91.2006 347.209C91.4726 346.033 91.2359 344.554 92.6832 343.865C91.1017 342.232 93.5852 341.662 93.6238 340.368C93.8254 339.158 94.2916 338.008 94.9892 336.998C95.977 335.11 96.0678 332.765 96.6304 330.637C96.7786 329.132 97.3486 327.7 98.275 326.503C99.2384 325.506 99.0996 323.768 99.825 322.367C100.85 320.675 101.644 318.854 102.187 316.951C102.35 315.585 102.895 314.291 103.759 313.218C104.527 312.371 103.896 310.617 105.388 309.978C105.806 307.52 107.274 305.545 108.361 303.391L108.56 302.985C111.229 297.442 114.23 292.064 117.545 286.879C120.299 282.516 122.979 278.107 125.775 273.771C126.685 272.371 127.652 270.977 128.652 269.648C132.127 264.761 135.87 260.07 139.864 255.596C143.517 251.725 146.999 247.68 150.834 243.958C152.873 241.978 154.541 239.547 156.521 237.444C161.186 232.479 165.976 227.649 171.014 223.065C175.269 218.862 179.922 215.08 184.908 211.773C186.264 210.948 187.378 209.74 188.687 208.827C190.275 207.952 191.799 206.966 193.248 205.875C194.933 204.29 197.001 203.282 198.703 201.814C200.024 200.675 202.138 201.325 203.084 199.275C203.773 197.784 206.353 198.331 207.221 196.589C209.603 196.509 210.715 194.203 212.878 193.445L213.166 193.356C215.445 192.734 217.39 190.895 219.48 189.591C221.497 188.163 223.606 186.871 225.796 185.725C229.906 183.874 233.453 181.054 237.471 179.142C241.301 177.322 244.748 174.657 248.926 173.643C249.913 173.404 249.729 172.533 250.408 172.162C251.115 171.773 251.889 172.031 252.527 171.583C255.169 169.859 272.819 109 448.159 109Z" fill="white"/>
<path fill-rule="evenodd" clip-rule="evenodd" d="M250.374 239.449C244.509 242.758 235.921 238.537 234.958 231.872C238.699 231.672 242.697 231.38 245.655 229.081C248.612 226.781 249.647 221.689 246.683 219.398C222.549 216.434 199.071 208.235 178.34 195.528C192.496 191.263 204.676 182.266 217.973 175.801C231.269 169.336 247.351 165.513 260.612 172.05C273.633 178.469 288.623 170.281 302.211 165.17C325.838 156.283 352.932 157.028 376.035 167.2C392.891 174.622 421.453 162.576 439.662 159.813C469.405 155.3 498.441 176.146 528.307 172.536C525.103 174.655 521.899 176.773 518.695 178.892C521.851 178.604 525.023 178.487 528.191 178.543C503.405 190.404 478.619 202.264 453.833 214.125C460.112 216.665 466.391 219.205 472.67 221.745C471.194 226.477 465.903 229.673 461.027 228.777C464.95 231.899 468.873 235.021 472.796 238.143C468.609 241.117 463.309 242.484 458.205 241.905C463.641 245.414 468.126 250.379 471.068 256.141C484.016 251.827 498.199 251.296 511.433 254.629C499.476 256.197 487.519 257.765 475.562 259.332C477.368 264.248 479.173 269.165 480.979 274.081C496.599 270.506 513.2 271.319 528.396 276.402C513.327 276.786 498.258 277.169 483.189 277.553C482.837 297.545 472.884 317.933 455.408 327.649C437.931 337.364 403.009 346.003 391.442 317.715C382.586 323.527 383.213 337.498 389.527 346.003C395.841 354.508 405.872 359.215 414.944 364.683C445.08 382.845 467.809 412.921 477.055 446.87C486.3 480.819 481.96 518.268 465.195 549.202C487.798 552.716 508.801 565.579 522.204 584.116C551.065 570.687 567.05 540.045 589.158 517.142C614.306 491.088 649.022 474.481 685.089 471.251C706.428 469.34 730.764 473.455 743.211 490.892C759.39 513.558 744.473 548.799 718.648 559.219C698.177 567.478 675.087 563.324 653.067 564.884C608.788 568.022 569.914 594.132 533.402 619.379C531.913 627.553 534.902 636.403 541.042 642.001C554.102 628.501 570.577 618.331 588.498 612.704C595.122 610.625 605.051 611.167 605.787 618.071C606.066 620.684 604.691 623.162 603.3 625.392C591.352 644.546 574.505 660.616 554.808 671.646C544.412 677.469 532.794 681.982 520.897 681.315C508.999 680.649 496.884 673.782 492.843 662.572C490.97 657.377 490.767 651.364 487.221 647.132C481.221 639.971 469.697 642.115 461.287 646.182C452.877 650.25 443.912 655.78 434.888 653.367C412.328 647.333 388.849 644.746 365.516 645.722C335.802 646.966 305.525 653.883 276.736 646.421C267.119 643.928 256.357 639.997 247.837 645.108C231.047 655.18 242.372 687.423 225.147 696.732C219.045 700.029 211.568 698.813 204.837 697.142C175.091 689.759 147.19 675.057 124.283 654.696C122.075 652.734 119.8 650.53 119.182 647.641C117.325 638.978 130.113 635.374 138.826 636.978C153.627 639.702 167.783 645.872 179.855 654.86C184.086 658.011 190.525 654.335 192.317 649.373C194.11 644.412 192.877 638.948 192.177 633.719C187.758 600.691 208.478 565.966 239.644 554.172C220.775 526.636 213.6 491.356 220.215 458.638C226.83 425.92 247.147 396.198 275.231 378.156C286.45 370.948 299.34 365.053 306.49 353.797C313.64 342.542 310.502 323.658 297.422 321.063C285.098 334.41 265.053 340.056 247.575 335.101C230.096 330.147 215.995 314.823 212.507 296.995C200.906 300.912 189.306 304.83 177.705 308.748C188.002 300.813 200.195 295.357 212.974 292.967C214.2 287.653 215.426 282.34 216.653 277.026C194.517 275.598 172.069 279.241 151.522 287.596C164.166 278.078 180.254 273.242 196.05 274.209C212.117 275.193 228.45 267.332 237.703 254.16C231.914 252.125 226.711 248.451 222.856 243.675C228.761 240.47 235.912 239.64 242.393 241.406L250.374 239.449ZM363.93 587.955C362.876 588.981 361.742 590.199 361.817 591.668C361.891 593.136 364.094 594.233 364.854 592.974C369.003 586.102 376.217 581.161 384.123 579.777C392.03 578.393 400.493 580.59 406.729 585.644C408.905 587.407 410.847 589.515 413.333 590.804C414.227 591.268 415.759 591.281 415.796 590.273C415.808 589.943 415.619 589.642 415.433 589.368C410.955 582.768 404.259 577.701 396.691 575.186C390.056 572.982 382.368 572.843 376.435 576.54C374.28 577.882 372.442 579.668 370.623 581.439C368.392 583.611 366.161 585.783 363.93 587.955ZM331.756 575.946C323.166 574.811 313.918 577.693 308.198 584.201C307.19 585.348 306.273 586.639 305.926 588.126C305.58 589.614 305.906 591.335 307.058 592.337C311.483 585.463 319.346 580.93 327.511 580.544C335.677 580.159 343.932 583.932 348.984 590.359C349.774 591.364 350.528 592.463 351.649 593.077C352.771 593.691 354.403 593.612 355.085 592.531C355.901 591.24 354.915 589.589 353.909 588.44C348.202 581.921 340.345 577.082 331.756 575.946ZM392.345 567.152C392.212 568.605 394.131 569.508 395.51 569.033C396.889 568.557 397.803 567.287 398.726 566.158C406.405 556.767 421.027 553.937 431.655 559.786C433.049 558.609 433.129 556.351 432.196 554.783C431.263 553.214 429.56 552.252 427.822 551.696C424.057 550.493 419.969 550.903 416.096 551.687C406.927 553.542 397.666 557.888 392.846 565.905C392.613 566.292 392.387 566.702 392.345 567.152ZM356.301 597.622C352.533 597.884 348.845 598.881 345.317 600.231C340.442 602.097 335.642 604.815 332.788 609.186C336.973 610.371 340.985 607.251 344.808 605.176C353.384 600.522 364.508 601.003 372.651 606.38C375.205 608.067 378.487 610.246 380.978 608.466C375.151 601.161 365.623 596.974 356.301 597.622ZM371.781 595.266C374.639 593.777 376.924 591.358 379.759 589.825C383.663 587.713 388.527 587.469 392.623 589.18C394.847 590.109 396.816 591.562 399.008 592.566C401.199 593.569 403.81 594.09 405.993 593.069C406.235 592.955 406.486 592.806 406.588 592.559C406.754 592.157 406.459 591.724 406.173 591.397C401.287 585.82 393.632 582.798 386.254 583.535C378.876 584.271 371.969 588.747 368.282 595.179C369.052 596.193 370.653 595.854 371.781 595.266ZM314.543 595.532C316.074 594.661 317.272 593.316 318.672 592.247C321.472 590.109 325.119 589.124 328.618 589.531C332.518 589.983 336.034 592.047 339.259 594.286C340.202 594.941 341.165 595.629 342.283 595.889C343.402 596.149 344.734 595.867 345.366 594.909C345.992 593.961 345.741 592.639 345.071 591.722C344.401 590.805 343.396 590.202 342.416 589.627C338.43 587.289 334.218 584.952 329.603 584.714C323.834 584.416 318.473 587.423 313.484 590.334C311.46 591.515 309.137 593.303 309.565 595.606C310.95 596.695 313.012 596.403 314.543 595.532ZM340.522 573.171C341.564 574.519 343.603 573.074 344.752 571.818C348.294 567.949 353.399 565.553 358.638 565.301C363.878 565.05 369.188 566.945 373.084 570.458C374.067 571.344 375.103 572.39 376.426 572.426C377.748 572.462 378.94 570.616 377.891 569.81C372.274 565.495 365.74 561.969 358.672 561.503C351.605 561.037 343.988 564.208 340.716 570.489C340.278 571.331 339.942 572.421 340.522 573.171ZM403.009 571.99C403.942 571.596 404.625 570.793 405.339 570.075C410.777 564.605 419.989 563.382 426.665 567.244C428.335 568.21 430.847 569.276 431.817 567.608C432.626 566.218 431.184 564.6 429.808 563.766C420.828 558.321 408.027 560.395 401.226 568.397C400.533 569.212 399.869 570.33 400.345 571.288C400.795 572.195 402.076 572.384 403.009 571.99ZM407.973 572.504C407.587 572.827 407.202 573.188 407.04 573.664C406.586 574.994 408.202 576.238 409.602 576.127C411.003 576.015 412.193 575.115 413.464 574.516C416.562 573.055 420.285 573.403 423.43 574.761C424.674 575.298 425.879 575.992 427.219 576.194C428.559 576.396 430.122 575.951 430.733 574.741C425.404 568.136 414.486 567.063 407.973 572.504ZM323.714 569.969C324.51 570.343 325.595 570.271 326.106 569.557C326.802 568.585 326.057 567.263 325.318 566.324C322.817 563.144 320.127 560.013 316.689 557.88C313.251 555.747 308.921 554.721 305.093 556.028C304.703 557.442 306.463 558.403 307.848 558.886C313.181 560.745 318.022 563.998 321.757 568.235C322.338 568.894 322.919 569.596 323.714 569.969ZM370.843 573.518C364.549 569.504 355.958 569.434 349.599 573.344C348.494 574.023 347.359 574.978 347.273 576.273C347.187 577.567 348.945 578.769 349.817 577.808C353.329 573.936 359.748 573.132 364.107 576.019C366.247 577.437 369.32 577.243 371.266 575.569C372.185 575.473 371.621 574.015 370.843 573.518ZM416.625 595.236C407.683 594.632 399.361 599.894 392.87 606.075C393.343 607.167 394.955 606.877 396.047 606.405C403.439 603.206 410.831 600.007 418.223 596.807C418.778 596.072 417.545 595.298 416.625 595.236ZM331.515 599.219C332.615 599.842 333.692 600.69 334.956 600.691C336.221 600.692 337.474 599.17 336.672 598.193C334.147 595.114 330.178 593.273 326.197 593.334C322.215 593.395 318.305 595.356 315.875 598.511C316.175 599.657 317.578 600.185 318.75 600.014C319.922 599.843 320.955 599.182 322.043 598.711C325.05 597.408 328.664 597.602 331.515 599.219ZM375.86 598.378C375.759 599.259 376.757 599.932 377.642 599.884C378.527 599.836 379.304 599.318 380.08 598.891C383.338 597.096 387.349 596.728 390.879 597.9C393.141 598.651 395.963 599.879 397.595 598.143C397.739 597.151 396.743 596.402 395.858 595.931C392.688 594.245 389.198 592.972 385.607 593.006C382.016 593.039 378.311 594.545 376.26 597.494C376.074 597.762 375.897 598.053 375.86 598.378ZM369.185 559.739C372.882 561.063 376.325 563.091 379.274 565.683C380.49 566.751 381.654 567.935 383.129 568.602C384.604 569.268 386.519 569.285 387.674 568.151C385.119 566.191 383.021 563.641 381.589 560.757C380.818 559.204 378.763 558.919 377.031 558.835C374.499 558.711 371.968 558.587 369.436 558.463C369.169 558.823 369.074 559.305 369.185 559.739ZM336.165 568.629C337.472 567.408 338.437 565.869 339.644 564.55C341.517 562.504 343.984 561.008 346.663 560.294C347.82 559.985 349.34 559.393 349.165 558.21C345.89 557.641 342.152 557.182 339.569 559.274C335.952 562.205 333.083 566.054 331.309 570.359C333.055 570.745 334.858 569.849 336.165 568.629ZM307.05 567.146C309.397 568.676 311.745 570.205 314.092 571.734C315.086 572.382 316.354 573.045 317.385 572.458C318.342 571.914 318.488 570.512 317.989 569.531C317.491 568.55 316.54 567.893 315.627 567.278C313.716 565.991 311.805 564.705 309.894 563.418C308.293 562.34 305.686 561.481 304.816 563.203C304.065 564.687 305.656 566.238 307.05 567.146ZM356.473 585.532C357.371 586.423 358.629 587.387 359.771 586.84C360.291 586.591 360.626 586.079 360.934 585.592C361.952 583.983 362.97 582.375 363.987 580.767C361.323 577.804 356.093 577.725 353.34 580.605C353.129 580.827 352.923 581.08 352.885 581.384C352.825 581.865 353.197 582.281 353.541 582.623C354.518 583.593 355.496 584.562 356.473 585.532ZM315.397 608.53C317.306 609.2 319.559 609.398 321.242 608.277C318.708 605.362 315.737 602.826 312.46 600.781C311.53 600.201 310.482 599.641 309.397 599.795C308.312 599.95 307.352 601.183 307.877 602.145C309.49 605.096 312.223 607.417 315.397 608.53ZM420.129 585.1C421.031 584.01 421.933 582.92 422.835 581.83C423.146 581.454 423.474 581.03 423.455 580.543C423.43 579.925 422.864 579.481 422.325 579.177C420.45 578.123 418.237 577.683 416.101 577.94C415.285 578.038 414.434 578.261 413.86 578.849C413.286 579.438 413.12 580.484 413.698 581.07C415.007 582.396 416.317 583.723 417.627 585.05C418.055 585.483 418.597 585.954 419.192 585.824C419.586 585.739 419.872 585.41 420.129 585.1ZM325.994 561.55C326.803 562.421 327.82 563.313 329.005 563.215C331.545 563.005 332.365 558.62 334.903 558.86C335.584 557.737 333.725 556.838 332.411 556.817C329.011 556.763 325.611 556.71 322.212 556.656C323.321 558.397 324.589 560.037 325.994 561.55ZM346.991 609.335C354.063 609.304 361.135 609.274 368.208 609.243C367.588 607.845 365.929 607.277 364.431 606.967C359.524 605.95 354.378 606.105 349.54 607.416C348.457 607.71 347.221 608.237 346.991 609.335ZM390.658 601.893C388.318 601.999 385.978 602.105 383.638 602.21C382.883 602.245 381.913 602.464 381.82 603.214C381.779 603.549 381.947 603.871 382.11 604.167C382.729 605.291 383.387 606.459 384.457 607.167C385.527 607.874 387.137 607.944 387.969 606.968C388.607 606.22 388.657 605.053 389.418 604.43C389.908 604.028 390.588 603.949 391.13 603.621C391.673 603.292 392.018 602.441 391.515 602.055C391.279 601.874 390.955 601.88 390.658 601.893ZM330.07 605.807C330.695 604.832 330.104 603.451 329.13 602.824C328.156 602.196 326.938 602.12 325.781 602.063C324.503 602 322.82 602.235 322.59 603.494C322.481 604.094 322.787 604.683 323.082 605.216C323.949 606.782 325.225 608.577 327.006 608.4C328.387 608.263 329.321 606.976 330.07 605.807ZM422.505 591.775C423.555 591.862 424.496 591.15 425.233 590.397C427.48 588.099 428.91 585.017 429.211 581.817C428.468 581.342 427.558 582.079 426.988 582.753C425.075 585.016 423.162 587.278 421.248 589.541C420.568 590.345 421.455 591.688 422.505 591.775ZM305.454 575.746C306.521 577.082 308.579 577.5 310.083 576.687C310.853 576.271 311.502 575.445 311.349 574.583C311.213 573.816 310.515 573.296 309.871 572.857C308.94 572.223 308.01 571.588 307.079 570.954C306.795 570.76 306.468 570.557 306.132 570.627C305.899 570.674 305.713 570.845 305.557 571.024C304.433 572.311 304.387 574.411 305.454 575.746ZM388.092 561.652C389.209 562.59 390.865 561.621 391.974 560.673C393.177 559.645 394.38 558.617 395.584 557.589C394.903 556.938 393.814 557.085 392.892 557.276C390.213 557.829 387.534 558.383 384.855 558.937C385.934 559.842 387.013 560.747 388.092 561.652ZM430.162 548.51C430.836 549.35 432.256 549.169 433.029 548.419C433.803 547.669 434.088 546.56 434.31 545.506C434.363 545.253 434.413 544.979 434.307 544.743C434.036 544.142 433.145 544.323 432.549 544.601C430.943 545.35 429.052 547.129 430.162 548.51Z" fill="white"/>
<path fill-rule="evenodd" clip-rule="evenodd" d="M220.215 458.638C226.83 425.92 249.448 398.531 277.532 380.489C263.332 399.954 219.758 431.874 233.764 467.436C256.151 524.281 343.243 533.222 340.213 533.839C288.702 544.342 215.289 482.998 220.215 458.638Z" fill="#E7EAEE"/>
<path fill-rule="evenodd" clip-rule="evenodd" d="M384.982 174.714C381.398 175.149 378.241 178.019 377.467 181.545C406.475 165.948 441.512 161.939 473.293 170.578C473.32 186.606 462.077 202.022 446.807 206.893L413.703 217.454C422.436 218.423 431.409 217.142 439.522 213.769C442.405 218.311 447.153 221.629 452.41 222.772L442.234 225.004C443.734 229.575 446.797 233.618 450.793 236.298C447.402 235.137 443.63 235.125 440.232 236.265L442.51 244.539C427.506 242.457 411.473 244.5 398.835 252.852C386.197 261.204 377.711 276.557 379.988 291.533C382.653 275.25 393.812 260.601 408.801 253.706C423.79 246.81 442.174 247.87 456.272 256.441L446.709 263.524C450.382 264.985 454.734 264.612 458.104 262.547C465.465 265.804 463.427 279.271 455.432 280.204L466.008 280.94C467.841 298.922 456.732 317.467 440.012 324.336C423.292 331.205 402.354 325.826 391.016 311.748C376.942 318.935 377.929 340.718 387.959 352.93C394.961 361.455 404.604 366.993 414.263 372.54C418.44 374.939 422.621 377.34 426.592 379.986C447.687 394.037 463.412 415.948 469.971 440.432C458.516 448.102 448.326 457.658 439.937 468.597C452.349 468.019 464.504 462.955 473.657 454.552L475.611 473.457C465.563 476.552 456.534 482.868 450.182 491.247C459.138 492.159 468.373 490.067 476.061 485.385C473.307 507.139 468.337 528.611 461.253 549.362L438.157 549.173C443.636 534.03 449.187 517.737 445.15 502.148C441.113 486.558 423.006 473.689 408.754 481.188C425.145 467.976 437.557 449.891 443.99 429.846L402.714 483.124L371.04 483.393C370.044 468.469 369.086 453.174 373.329 438.831C377.571 424.489 388.164 411.062 402.759 407.792C404.342 407.437 406.028 407.148 407.736 406.856C414.869 405.634 422.391 404.345 424.485 397.899C400.826 396.522 377.11 411.668 368.408 433.712C362.207 449.419 363.299 466.928 364.487 483.774C342.615 480.619 320.219 481.126 298.512 485.267C294.744 472.422 290.836 459.289 282.931 448.485C275.027 437.682 262.194 429.488 248.874 430.822C270.325 434.01 280.951 457.847 289.04 477.969C297.129 498.091 311.813 521.075 333.409 519.084C339.559 518.517 341.517 528.619 336.803 532.61C332.089 536.601 325.086 535.841 319.052 534.521C287.972 527.719 258.955 511.76 236.566 489.156C232.207 484.754 227.992 479.938 225.977 474.08C223.492 466.852 224.65 458.87 226.787 451.532C237.704 414.043 271.301 388.356 303.23 365.881C320.408 353.789 319.792 323.823 302.132 312.448C289.059 324.327 271.628 332.634 254.07 330.696C236.513 328.758 219.896 314.382 219.33 296.727C224.844 296.241 230.249 294.548 235.055 291.802C230.338 290.125 225.021 290.197 220.35 292C219.08 287.242 220.007 281.943 222.818 277.9L232.829 276.83C230.816 274.555 228.009 272.996 225.014 272.491C232.239 260.453 249.006 257.158 262.444 261.226C275.881 265.294 286.764 274.985 297.175 284.404C286.319 260.601 256.881 252.929 231.178 248.051L242.393 241.406C235.912 239.64 228.761 240.47 222.856 243.675C226.711 248.451 231.914 252.125 237.703 254.16C228.45 267.332 212.117 275.193 196.05 274.209C180.254 273.242 164.166 278.078 151.522 287.596C172.069 279.241 194.517 275.598 216.653 277.026L212.974 292.967C200.195 295.357 188.002 300.813 177.705 308.748L212.507 296.995C215.995 314.823 230.096 330.147 247.575 335.101C265.053 340.056 285.098 334.41 297.422 321.063C310.502 323.658 313.64 342.542 306.49 353.797C300.829 362.71 291.569 368.261 282.389 373.765C279.975 375.212 277.567 376.655 275.231 378.156C247.147 396.198 226.83 425.92 220.215 458.638C213.6 491.356 220.775 526.636 239.644 554.172C208.478 565.966 187.758 600.691 192.177 633.719C192.278 634.475 192.39 635.237 192.503 636.001C193.17 640.518 193.851 645.129 192.317 649.373C190.525 654.335 184.086 658.011 179.855 654.86C167.783 645.872 153.627 639.702 138.826 636.978C130.113 635.374 117.325 638.978 119.182 647.641C119.8 650.53 122.075 652.734 124.283 654.696C147.19 675.057 175.091 689.759 204.837 697.142C211.568 698.813 219.045 700.029 225.147 696.732C233.833 692.037 235.259 681.511 236.692 670.936C238.1 660.542 239.514 650.101 247.837 645.108C255.353 640.599 264.614 643.127 273.294 645.497L273.299 645.498C274.457 645.814 275.605 646.128 276.736 646.421C297.378 651.771 318.783 649.73 340.198 647.687C348.652 646.881 357.106 646.074 365.516 645.722C388.849 644.746 412.328 647.333 434.888 653.367C442.745 655.468 450.557 651.548 457.997 647.814C459.102 647.259 460.199 646.709 461.287 646.182C469.697 642.115 481.221 639.971 487.221 647.132C489.594 649.963 490.47 653.591 491.35 657.238V657.239H491.351V657.24V657.241V657.242V657.243H491.352V657.244V657.245V657.246V657.247H491.353V657.248V657.249V657.25V657.251C491.788 659.051 492.224 660.856 492.843 662.572C496.884 673.782 508.999 680.649 520.897 681.315C532.794 681.982 544.412 677.469 554.808 671.646C574.505 660.616 591.352 644.546 603.3 625.392C604.691 623.162 606.066 620.684 605.787 618.071C605.051 611.167 595.122 610.625 588.498 612.704C570.577 618.331 554.102 628.501 541.042 642.001C534.902 636.403 531.913 627.553 533.402 619.379C569.914 594.132 608.788 568.022 653.067 564.884C660.01 564.392 667.058 564.469 674.098 564.544C689.386 564.71 704.631 564.874 718.648 559.219C744.473 548.799 759.39 513.558 743.211 490.892C730.764 473.455 706.428 469.34 685.089 471.251C649.022 474.481 614.306 491.088 589.158 517.142C582.17 524.381 575.794 532.393 569.43 540.39C555.659 557.696 541.943 574.932 522.204 584.116C508.801 565.579 487.798 552.716 465.195 549.202C481.96 518.268 486.3 480.819 477.055 446.87C467.809 412.921 445.08 382.845 414.944 364.683C413.302 363.693 411.629 362.729 409.952 361.762L409.951 361.761C402.362 357.387 394.698 352.968 389.527 346.003C383.213 337.498 382.586 323.527 391.442 317.715C403.218 333.874 427.931 337.364 445.408 327.649C462.884 317.933 472.837 297.545 473.189 277.553L518.396 276.402C503.2 271.319 486.599 270.506 470.979 274.081L465.562 259.332L501.433 254.629C488.199 251.296 474.016 251.827 461.068 256.141C458.126 250.379 453.641 245.414 448.205 241.905C453.309 242.484 458.609 241.117 462.796 238.143L451.027 228.777C455.903 229.673 461.194 226.477 462.67 221.745L443.833 214.125L518.191 178.543C515.023 178.487 511.851 178.604 508.695 178.892L518.307 172.536C503.632 174.31 489.157 170.179 474.7 166.053C459.735 161.783 444.79 157.518 429.662 159.813C423.718 160.715 417.737 162.605 411.79 164.486C399.517 168.365 387.389 172.2 376.035 167.2C352.932 157.028 325.838 156.283 302.211 165.17C300.122 165.956 297.999 166.815 295.856 167.682C284.06 172.454 271.631 177.482 260.612 172.05C247.351 165.513 231.269 169.336 217.973 175.801C213.305 178.07 208.775 180.652 204.249 183.231C195.881 187.999 187.527 192.76 178.34 195.528C199.071 208.235 222.549 216.434 246.683 219.398C249.647 221.689 248.612 226.781 245.655 229.081C242.697 231.38 238.699 231.672 234.958 231.872C235.921 238.537 244.509 242.758 250.374 239.449C247.909 239.907 247.725 235.903 248.749 233.615L255.139 219.335C260.102 221.157 266.278 218.233 268.014 213.24C255.725 214.719 242.974 216.158 231.201 212.335C219.429 208.512 208.91 197.846 209.462 185.48C235.679 170.291 270.873 172.348 295.142 190.487C293.268 185.019 288.662 180.563 283.134 178.872C289.517 172.588 297.99 168.464 306.873 167.318C301.596 171.493 299.177 178.958 301.003 185.435L324.698 163.642C320.811 170.61 318.634 178.524 318.41 186.5C327.197 180.757 334.198 172.321 338.223 162.625L348.763 164.105C342.31 169.557 338.715 178.221 339.412 186.64C347.444 181.647 353.67 173.815 356.725 164.865C366.623 166.464 376.235 169.815 384.982 174.714ZM676.143 560.506C670.843 560.331 665.54 560.155 660.268 560.305C621.028 561.419 584.546 580.531 552.17 602.731L551.835 602.961L551.47 603.212L550.831 603.651L550.806 603.668C544.662 607.894 538.458 612.161 531.444 614.653L523.205 590.639C522.762 589.351 522.49 587.58 523.688 586.932C536.287 580.119 547.792 571.287 557.629 560.876C564.183 553.939 569.996 546.317 575.803 538.703C584.026 527.921 592.235 517.156 602.515 508.383C618.931 494.374 639.597 486.355 660.333 480.375C675.679 475.949 691.76 472.477 707.545 474.908C723.33 477.339 738.872 486.76 744.66 501.645C749.258 513.468 747.008 527.414 739.925 537.937C732.841 548.461 721.341 555.622 709.017 558.627C698.299 561.239 687.23 560.873 676.143 560.506ZM224.639 611.377C225.469 613.351 225.992 615.985 224.336 617.341C222.202 619.088 219.176 616.836 217.383 614.742L202.103 596.886C198.445 606.395 196.767 616.661 197.206 626.84C197.294 628.88 197.46 630.951 197.627 633.028V633.029V633.03V633.031H197.628V633.032V633.033V633.034V633.035V633.036V633.037C198.267 640.988 198.914 649.045 195.231 655.94C193.616 658.964 190.868 661.74 187.446 661.962C185.507 662.088 183.619 661.379 181.829 660.622C176.923 658.547 172.089 655.997 167.257 653.448C154.817 646.887 142.388 640.331 128.767 641.895C126.907 642.109 124.59 643.026 124.663 644.897C124.695 645.735 125.242 646.455 125.773 647.104C145.412 671.088 176.122 682.718 205.851 691.5C210.713 692.936 215.837 694.334 220.788 693.244C225.739 692.153 230.335 687.689 229.737 682.655C228.155 669.335 232.328 655.43 240.984 645.183C244.439 641.092 248.808 637.452 254.05 636.362C260.49 635.025 266.784 637.678 272.983 640.291H272.984C274.576 640.963 276.162 641.631 277.742 642.229C289.859 646.81 303.478 647.309 315.898 643.629C311.042 643.566 308.71 637.744 307.704 632.993C301.184 602.216 297.717 570.793 297.372 539.335C297.335 535.914 294.935 532.89 292.041 531.066C289.591 529.523 286.797 528.664 284.019 527.81C283.516 527.655 283.013 527.501 282.512 527.342C272.397 524.137 262.866 519.1 254.52 512.547C253.468 511.722 252.433 510.871 251.396 510.019C248.202 507.394 245.005 504.766 241.338 502.885C236.482 500.393 230.472 499.377 225.605 501.848C224.519 504.435 226.482 507.441 228.994 508.69C230.897 509.636 233.029 509.893 235.155 510.149C235.837 510.231 236.518 510.313 237.19 510.417C240.389 510.915 243.503 511.956 246.357 513.485C249.354 515.09 252.194 519.329 249.522 521.433C248.426 522.296 246.891 522.235 245.5 522.133L229.81 520.98C233.635 531.386 238.511 541.405 244.341 550.836C244.864 551.682 245.563 552.623 246.558 552.632C261.929 552.771 279.094 554.923 288.835 566.814C290.681 569.068 292.196 572.325 290.613 574.771C281.684 563.99 267.717 557.569 253.72 557.81C239.723 558.052 225.986 564.951 217.435 576.035C224.983 581.087 230.983 588.419 234.442 596.817C235.486 599.353 235.294 603.501 232.552 603.444L216.082 583.278C215.346 582.377 214.461 581.399 213.298 581.363C212.366 581.335 211.544 581.931 210.804 582.5C209.202 583.731 207.539 585.036 206.703 586.875C205.867 588.715 206.178 591.246 207.92 592.269C215.345 596.63 221.303 603.439 224.639 611.377ZM412.409 642.935C422.985 634.113 426.435 619.585 429.276 606.107L439.683 556.721C439.795 556.193 439.922 555.634 440.302 555.251C440.803 554.745 441.589 554.69 442.3 554.669C461.272 554.095 481.47 555.903 496.75 567.161C490.515 570.253 485.065 574.912 481.042 580.591C479.913 582.184 478.97 584.58 480.423 585.884C480.968 586.373 481.727 586.546 482.458 586.598C486.1 586.857 489.427 584.582 492.089 582.082C492.663 581.543 493.227 580.986 493.791 580.428C495.843 578.397 497.905 576.358 500.51 575.165C503.83 573.645 508.442 574.071 510.275 577.23C504.353 580.247 499.473 585.265 496.624 591.269C495.882 592.832 495.269 594.639 495.87 596.261C496.471 597.884 498.835 598.836 499.997 597.553L511.438 584.923C511.991 584.312 512.76 583.642 513.534 583.924C513.952 584.077 514.225 584.472 514.464 584.847C520.527 594.361 522.937 605.439 525.358 616.565C526.775 623.08 528.196 629.611 530.356 635.855C532.086 640.857 535.428 646.476 540.721 646.48C543.646 646.482 546.234 644.682 548.549 642.895C551.024 640.984 553.487 638.98 555.962 636.966C567.597 627.498 579.496 617.814 594.15 616.654C596.46 616.472 599.423 616.981 599.965 619.234C600.28 620.542 599.576 621.859 598.874 623.007C587.982 640.835 571.645 654.892 553.597 665.414C544.356 670.802 534.224 675.428 523.528 675.511C512.832 675.594 501.506 670.125 497.464 660.222C496.64 658.202 496.135 656.069 495.632 653.939L495.631 653.938C495.049 651.474 494.466 649.012 493.39 646.73C490.617 640.847 484.47 636.707 477.977 636.347C471.794 636.005 466.108 638.759 460.434 641.507C458.441 642.473 456.449 643.437 454.438 644.267C441.086 649.774 425.386 649.276 412.409 642.935ZM341.807 536.615C337.825 540.012 332.47 541.368 327.25 541.751C317.846 542.441 308.25 540.24 300.087 535.52L303.455 548.269C303.6 548.818 303.773 549.41 304.229 549.748C304.625 550.043 305.15 550.079 305.643 550.105L354.039 552.649C361.095 553.019 368.16 553.39 375.222 553.186C395.031 552.614 414.693 547.442 432.22 538.194C433.232 537.661 434.262 537.093 434.99 536.212C435.858 535.161 436.201 533.785 436.491 532.453C438.946 521.193 439.371 509.493 437.738 498.085C437.338 495.283 436.779 492.409 435.204 490.057C433.628 487.705 430.795 485.986 428.014 486.516C399.535 491.939 370.463 490.264 341.393 488.589H341.392H341.391H341.39H341.389H341.388H341.387H341.386C330.429 487.957 319.472 487.326 308.548 487.075C306.597 487.03 304.546 487.02 302.832 487.954C301.119 488.887 299.94 491.102 300.82 492.843C305.801 502.699 316.094 508.988 326.766 511.825C327.533 512.029 328.317 512.229 329.111 512.431C336.015 514.187 343.618 516.12 346.124 522.546C348.026 527.422 345.788 533.217 341.807 536.615ZM419.455 620.146C417.503 627.898 413.399 635.939 405.953 638.846C403.348 639.863 400.527 640.166 397.743 640.425C371.926 642.828 345.833 642.249 320.148 638.704C318.619 638.493 317.007 638.236 315.815 637.254C314.363 636.06 313.871 634.082 313.49 632.241C312.324 626.597 311.421 620.898 310.783 615.171C310.671 614.156 310.952 612.709 311.97 612.788C328.405 614.067 344.888 614.738 361.373 614.801C372.744 614.844 384.206 614.588 395.313 612.145C406.419 609.703 417.248 604.929 425.367 596.967C423.059 601.814 422.065 607.109 421.07 612.413V612.414H421.069V612.415V612.416V612.417H421.068V612.418V612.419V612.42H421.067V612.421C420.582 615.011 420.096 617.603 419.455 620.146ZM363.93 587.955C362.876 588.981 361.742 590.199 361.817 591.668C361.891 593.136 364.094 594.233 364.854 592.974C369.003 586.102 376.217 581.161 384.123 579.777C392.03 578.393 400.493 580.59 406.729 585.644C407.377 586.169 408.004 586.724 408.631 587.28C410.109 588.59 411.587 589.899 413.333 590.804C414.227 591.268 415.759 591.281 415.796 590.273C415.808 589.943 415.619 589.642 415.433 589.368C410.955 582.768 404.259 577.701 396.691 575.186C390.056 572.982 382.368 572.843 376.435 576.54C374.28 577.882 372.442 579.668 370.623 581.439L363.93 587.955ZM308.198 584.201C313.918 577.693 323.166 574.811 331.756 575.946C340.345 577.082 348.202 581.921 353.909 588.44C354.915 589.589 355.901 591.24 355.085 592.531C354.403 593.612 352.771 593.691 351.649 593.077C350.671 592.541 349.973 591.637 349.286 590.747L349.282 590.742C349.222 590.664 349.161 590.586 349.101 590.509C349.062 590.459 349.023 590.409 348.984 590.359C343.932 583.932 335.677 580.159 327.511 580.544C319.346 580.93 311.483 585.463 307.058 592.337C305.906 591.335 305.58 589.614 305.926 588.126C306.273 586.639 307.19 585.348 308.198 584.201ZM392.345 567.152C392.212 568.605 394.131 569.508 395.51 569.033C396.751 568.605 397.616 567.533 398.449 566.5C398.542 566.385 398.634 566.271 398.726 566.158C406.405 556.767 421.027 553.937 431.655 559.786C433.049 558.609 433.129 556.351 432.196 554.783C431.263 553.214 429.56 552.252 427.822 551.696C424.057 550.493 419.969 550.903 416.096 551.687C406.927 553.542 397.666 557.888 392.846 565.905C392.613 566.292 392.387 566.702 392.345 567.152ZM345.317 600.231C348.845 598.881 352.533 597.884 356.301 597.622C365.623 596.974 375.151 601.161 380.978 608.466C378.496 610.241 375.227 608.081 372.675 606.397L372.65 606.38C364.508 601.003 353.384 600.522 344.808 605.176C344.139 605.539 343.464 605.934 342.783 606.333C339.575 608.211 336.241 610.164 332.788 609.186C335.642 604.815 340.442 602.097 345.317 600.231ZM371.781 595.266C373.243 594.504 374.555 593.499 375.867 592.494C377.12 591.534 378.374 590.574 379.759 589.825C383.663 587.713 388.527 587.469 392.623 589.18C393.818 589.679 394.939 590.33 396.061 590.98L396.062 590.981C397.028 591.541 397.994 592.102 399.008 592.566C401.199 593.569 403.81 594.09 405.993 593.069C406.235 592.955 406.486 592.806 406.588 592.559C406.754 592.157 406.459 591.724 406.173 591.397C401.287 585.82 393.632 582.798 386.254 583.535C378.876 584.271 371.969 588.747 368.282 595.179C369.052 596.193 370.653 595.854 371.781 595.266ZM317.168 593.514C316.336 594.25 315.505 594.985 314.543 595.532C313.012 596.403 310.95 596.695 309.565 595.606C309.137 593.303 311.46 591.515 313.484 590.334C318.473 587.423 323.834 584.416 329.603 584.714C334.218 584.952 338.43 587.289 342.416 589.627C343.396 590.202 344.401 590.805 345.071 591.722C345.741 592.639 345.992 593.961 345.366 594.909C344.734 595.867 343.402 596.149 342.283 595.889C341.206 595.639 340.274 594.991 339.365 594.359L339.259 594.286C336.034 592.047 332.518 589.983 328.618 589.531C325.119 589.124 321.472 590.109 318.672 592.247C318.155 592.642 317.666 593.075 317.177 593.507L317.176 593.508L317.175 593.509H317.174V593.51H317.173V593.511H317.172L317.171 593.512L317.17 593.513H317.169V593.514H317.168ZM340.522 573.171C341.564 574.519 343.603 573.074 344.752 571.818C348.294 567.949 353.399 565.553 358.638 565.301C363.878 565.05 369.188 566.945 373.084 570.458C373.164 570.529 373.243 570.602 373.323 570.675C374.236 571.506 375.21 572.393 376.426 572.426C377.748 572.462 378.94 570.616 377.891 569.81C372.274 565.495 365.74 561.969 358.672 561.503C351.605 561.037 343.988 564.208 340.716 570.489C340.278 571.331 339.942 572.421 340.522 573.171ZM405.023 570.398C404.417 571.022 403.804 571.654 403.009 571.99C402.076 572.384 400.795 572.195 400.345 571.288C399.869 570.33 400.533 569.212 401.226 568.397C408.027 560.395 420.828 558.321 429.808 563.766C431.184 564.6 432.626 566.218 431.817 567.608C430.847 569.276 428.335 568.21 426.665 567.244C419.989 563.382 410.777 564.605 405.339 570.075C405.233 570.181 405.128 570.289 405.023 570.398ZM407.973 572.504C407.587 572.827 407.202 573.188 407.04 573.664C406.586 574.994 408.202 576.238 409.602 576.127C410.616 576.046 411.52 575.552 412.423 575.059C412.768 574.87 413.113 574.682 413.464 574.516C416.562 573.055 420.285 573.403 423.43 574.761C423.523 574.801 423.616 574.843 423.709 574.885C423.913 574.976 424.116 575.071 424.32 575.165C425.259 575.603 426.2 576.041 427.219 576.194C428.559 576.396 430.122 575.951 430.733 574.741C425.404 568.136 414.486 567.063 407.973 572.504ZM326.106 569.557C325.595 570.271 324.51 570.342 323.714 569.969C322.975 569.623 322.421 568.992 321.881 568.375L321.757 568.235C318.022 563.999 313.181 560.745 307.848 558.886C306.463 558.403 304.703 557.442 305.093 556.028C308.921 554.721 313.251 555.747 316.689 557.88C320.127 560.013 322.817 563.144 325.318 566.324C326.057 567.263 326.802 568.585 326.106 569.557ZM370.842 573.518C364.549 569.504 355.958 569.434 349.599 573.344C348.494 574.023 347.359 574.978 347.273 576.273C347.187 577.567 348.945 578.769 349.817 577.808C353.329 573.936 359.748 573.132 364.107 576.019C366.247 577.437 369.32 577.243 371.266 575.569C372.185 575.473 371.621 574.015 370.842 573.518ZM392.87 606.075C399.361 599.894 407.682 594.632 416.625 595.236C417.545 595.298 418.778 596.072 418.223 596.807L396.047 606.405C394.955 606.877 393.343 607.167 392.87 606.075ZM331.515 599.219C331.733 599.342 331.951 599.475 332.169 599.608C333.05 600.145 333.943 600.69 334.956 600.691C336.221 600.692 337.474 599.17 336.672 598.193C334.147 595.114 330.178 593.273 326.197 593.334C322.215 593.395 318.305 595.356 315.875 598.511C316.175 599.657 317.578 600.185 318.75 600.014C319.595 599.891 320.368 599.513 321.14 599.135C321.44 598.989 321.739 598.843 322.043 598.711C325.05 597.408 328.664 597.602 331.515 599.219ZM377.642 599.884C376.757 599.932 375.759 599.259 375.86 598.378C375.897 598.053 376.074 597.762 376.26 597.494C378.311 594.545 382.016 593.039 385.607 593.006C389.198 592.973 392.688 594.245 395.858 595.931C396.743 596.402 397.738 597.151 397.595 598.143C396.126 599.706 393.693 598.867 391.572 598.136C391.336 598.055 391.105 597.975 390.879 597.9C387.349 596.728 383.338 597.096 380.08 598.891C379.968 598.952 379.856 599.016 379.743 599.08C379.077 599.458 378.399 599.843 377.642 599.884ZM369.185 559.739C372.882 561.063 376.325 563.091 379.274 565.683C379.479 565.863 379.683 566.047 379.886 566.23L379.887 566.231H379.888V566.232C380.893 567.137 381.904 568.048 383.129 568.602C384.604 569.268 386.519 569.285 387.674 568.151C385.119 566.191 383.021 563.641 381.589 560.757C380.818 559.204 378.763 558.919 377.031 558.835L369.436 558.463C369.169 558.823 369.074 559.305 369.185 559.739ZM338.234 566.256C337.583 567.084 336.933 567.911 336.165 568.629C334.858 569.849 333.055 570.745 331.309 570.359C333.083 566.054 335.952 562.205 339.569 559.274C342.152 557.182 345.89 557.641 349.165 558.21C349.34 559.393 347.82 559.985 346.663 560.294C343.984 561.008 341.517 562.504 339.644 564.55C339.147 565.094 338.69 565.675 338.234 566.256ZM307.05 567.146L314.092 571.734C315.086 572.382 316.354 573.045 317.385 572.458C318.342 571.914 318.488 570.512 317.989 569.531C317.491 568.55 316.54 567.893 315.627 567.278L309.894 563.418C308.293 562.34 305.686 561.481 304.816 563.203C304.065 564.687 305.656 566.238 307.05 567.146ZM359.771 586.84C358.629 587.387 357.371 586.423 356.473 585.532L353.541 582.623C353.197 582.281 352.825 581.865 352.885 581.384C352.923 581.08 353.129 580.827 353.34 580.605C356.093 577.725 361.323 577.804 363.987 580.767L360.934 585.592C360.626 586.079 360.291 586.591 359.771 586.84ZM315.397 608.53C317.306 609.2 319.559 609.398 321.242 608.277C318.708 605.362 315.737 602.826 312.46 600.781C311.53 600.201 310.482 599.641 309.397 599.795C308.312 599.95 307.352 601.183 307.877 602.145C309.49 605.096 312.223 607.417 315.397 608.53ZM422.835 581.83L420.129 585.1C419.872 585.41 419.586 585.739 419.192 585.824C418.597 585.954 418.055 585.483 417.627 585.05L413.698 581.07C413.12 580.484 413.286 579.438 413.86 578.849C414.434 578.261 415.285 578.038 416.101 577.94C418.237 577.683 420.45 578.123 422.325 579.177C422.864 579.481 423.43 579.925 423.455 580.543C423.474 581.03 423.146 581.454 422.835 581.83ZM325.994 561.55C326.803 562.421 327.82 563.313 329.005 563.215C330.232 563.113 331.058 562.037 331.87 560.979C332.738 559.847 333.591 558.736 334.903 558.86C335.584 557.737 333.725 556.838 332.411 556.817L322.212 556.656C323.321 558.397 324.589 560.037 325.994 561.55ZM368.208 609.243L346.991 609.335C347.221 608.237 348.457 607.71 349.54 607.416C354.378 606.105 359.524 605.95 364.431 606.967C365.929 607.277 367.588 607.845 368.208 609.243ZM390.658 601.893L383.638 602.21C382.883 602.245 381.913 602.464 381.82 603.214C381.779 603.549 381.947 603.871 382.11 604.167C382.729 605.291 383.387 606.459 384.457 607.167C385.526 607.874 387.137 607.944 387.969 606.968C388.255 606.632 388.423 606.212 388.59 605.795C388.795 605.282 388.999 604.773 389.418 604.43C389.696 604.202 390.035 604.078 390.375 603.953C390.635 603.858 390.895 603.763 391.13 603.621C391.673 603.292 392.018 602.441 391.515 602.055C391.279 601.874 390.955 601.88 390.658 601.893ZM329.13 602.824C330.104 603.451 330.695 604.832 330.07 605.807C329.321 606.976 328.387 608.263 327.006 608.4C325.225 608.577 323.949 606.782 323.082 605.216C322.787 604.683 322.481 604.094 322.59 603.494C322.82 602.235 324.503 602 325.781 602.063C326.938 602.12 328.156 602.196 329.13 602.824ZM422.505 591.775C423.555 591.862 424.496 591.15 425.233 590.397C427.48 588.099 428.91 585.017 429.211 581.817C428.468 581.342 427.558 582.079 426.988 582.753L421.248 589.541C420.568 590.345 421.455 591.688 422.505 591.775ZM310.083 576.687C308.579 577.5 306.521 577.082 305.454 575.746C304.387 574.411 304.433 572.311 305.557 571.024C305.713 570.845 305.899 570.674 306.132 570.627C306.469 570.557 306.795 570.76 307.079 570.954L309.871 572.857C310.515 573.296 311.213 573.816 311.349 574.583C311.502 575.445 310.853 576.271 310.083 576.687ZM388.092 561.652C389.209 562.59 390.865 561.621 391.974 560.673L395.584 557.589C394.903 556.938 393.814 557.085 392.892 557.276L384.855 558.937L388.092 561.652ZM225.611 490.963C224.79 490.233 224.58 489.04 224.556 487.943C224.528 486.703 224.673 485.461 224.986 484.261L230.313 491.196C230.63 491.61 230.891 492.322 230.422 492.549C229.756 492.102 228.937 491.976 228.123 491.85C227.203 491.707 226.289 491.566 225.611 490.963ZM430.162 548.51C430.836 549.35 432.256 549.169 433.029 548.419C433.803 547.669 434.088 546.56 434.31 545.506C434.363 545.253 434.413 544.979 434.307 544.743C434.036 544.142 433.145 544.323 432.549 544.601C430.943 545.35 429.052 547.129 430.162 548.51ZM369.879 241.894C370.531 240.265 372.048 239.166 373.543 238.248C378.053 235.477 383.062 233.521 388.256 232.501C389.499 232.257 390.979 232.138 391.842 233.065C392.813 234.108 392.327 235.913 391.25 236.845C390.29 237.676 389.027 238.017 387.792 238.35C387.64 238.391 387.489 238.432 387.34 238.473C383.186 239.623 379.278 241.654 375.95 244.393C374.67 245.446 373.153 246.686 371.557 246.242C369.867 245.772 369.227 243.522 369.879 241.894ZM276.451 242.274C275.246 241.621 274.431 239.992 275.182 238.844C275.618 238.177 276.432 237.873 277.205 237.676C283.467 236.087 289.95 238.893 295.615 242.001C296.89 242.7 298.202 243.462 299.006 244.674C299.81 245.887 299.927 247.683 298.878 248.69C297.123 250.377 294.34 248.642 292.358 247.228C288.888 244.753 284.718 243.269 280.464 242.996C280.275 242.984 280.084 242.974 279.892 242.964V242.963C278.701 242.9 277.49 242.836 276.451 242.274ZM342.098 332.056L337.979 320.308C334.313 322.954 331.572 326.857 330.328 331.204C329.203 330.289 329.161 328.741 329.12 327.221C329.108 326.767 329.096 326.315 329.055 325.884C328.812 323.323 327.203 320.931 324.923 319.741C322.642 318.55 319.761 318.596 317.52 319.86C318.115 321.161 319.515 321.574 320.956 321.999C321.914 322.281 322.889 322.569 323.658 323.125C325.284 324.3 325.749 326.515 325.774 328.521C325.781 329.023 325.768 329.529 325.755 330.036V330.037C325.716 331.552 325.678 333.07 326.151 334.496C326.304 334.957 326.52 335.416 326.893 335.726C327.95 336.605 329.55 335.875 330.62 335.012C333.037 333.063 334.938 330.479 336.079 327.592C337.085 328.597 337.457 330.009 337.826 331.41C337.934 331.821 338.042 332.232 338.166 332.63C338.711 334.387 340.016 336.266 341.854 336.18C343.079 336.124 344.066 335.202 344.933 334.335L349.917 329.357C350.517 328.757 351.169 327.994 350.975 327.167C350.79 326.374 349.849 325.949 349.042 326.063C348.235 326.177 347.545 326.685 346.914 327.2C345.144 328.644 343.527 330.275 342.098 332.056ZM330.715 284.932C330.98 282.779 331.127 280.271 329.545 278.786C326.593 276.015 324.008 272.855 321.878 269.412C320.949 267.911 320.076 266.157 320.519 264.448C321.188 261.867 324.326 260.933 326.973 260.611C331.208 260.095 335.495 260.008 339.747 260.35C341.575 260.497 343.512 260.772 344.91 261.957C346.308 263.142 346.813 265.546 345.463 266.786C338.847 272.868 334.973 281.827 335.073 290.814C337.526 292.406 340.02 294.018 342.815 294.879C345.61 295.741 348.795 295.769 351.317 294.286C352.378 293.662 353.269 292.808 354.161 291.952C354.777 291.361 355.394 290.769 356.069 290.251C357.721 288.984 360.087 288.199 361.857 289.295L355.121 295.496C352.437 297.968 349.104 300.626 345.551 299.794C344.375 299.518 343.342 298.882 342.305 298.243C341.688 297.863 341.07 297.482 340.419 297.176C336.94 295.539 332.858 296.151 329.099 296.958C328.873 297.006 328.647 297.055 328.419 297.105L328.411 297.106C324.863 297.875 321.192 298.671 317.71 297.715C314.002 296.698 310.75 292.844 311.91 289.179C314.244 292.595 318.309 294.76 322.446 294.792C324.035 294.804 325.673 294.5 326.989 293.61C329.683 291.789 330.316 288.16 330.715 284.932Z" fill="#00160A"/>
</svg>
