<svg width="720" height="720" viewBox="0 0 720 720" fill="none" xmlns="http://www.w3.org/2000/svg">
<path d="M462.615 482.998C494.812 486.924 522.436 506.78 545.17 509.5C570.435 512.523 608.646 495.922 647.611 515.46C657.64 520.49 665.875 526.533 662.807 534.044C657.46 547.134 646.207 552.262 621.557 555.819L618.927 556.183C599.871 558.717 579.391 559.33 527.471 559.673L509.73 559.808C446.44 560.359 409.84 563.322 362.445 567.108L357.614 567.5C270.336 574.682 200.669 573.531 148.613 565.57L147.04 565.327C104.983 558.739 79.6969 547.842 67.3537 535.478C60.0873 528.2 55.9017 521.414 55.6856 514.16C55.4696 506.907 66.1866 498.933 72.2883 495.922C89.2854 487.536 94.8314 484.495 127.508 480.201C141.577 478.352 162.656 478.499 187.021 477.677C274.426 474.726 409.454 476.516 462.615 482.998Z" fill="white"/>
<path fill-rule="evenodd" clip-rule="evenodd" d="M488.151 498.818C438.603 610.966 259.295 607.353 134.531 530.809C110.703 516.19 28.7971 447.288 109.412 407.054C190.026 366.819 164.205 305.019 229.264 231.31C304.502 146.067 444.614 102.347 543.153 217.037C793.605 508.537 504.835 461.053 488.151 498.818Z" fill="#69CB3A"/>
<path fill-rule="evenodd" clip-rule="evenodd" d="M156.917 201.436C152.451 194.258 147.974 191.503 143.571 193.886C139.843 195.903 139.223 201.29 141.206 209.908L140.018 210.548C138.385 211.429 137.774 213.467 138.655 215.1C138.731 215.241 138.818 215.378 138.913 215.506L139.55 216.359C148.849 228.694 156.218 233.746 161.966 230.968C166.799 228.632 167.615 218.687 165.128 200.688C164.955 199.427 163.831 198.532 162.58 198.622L162.423 198.639C162.139 198.678 161.864 198.768 161.612 198.904L156.917 201.436ZM143.732 207.975L154.1 202.367L154.075 202.328C150.51 196.799 147.489 195.04 144.942 196.419L144.824 196.487C142.942 197.635 142.421 201.244 143.62 207.411L143.732 207.975ZM162.368 201.768L141.385 213.083C141.151 213.209 141.064 213.5 141.19 213.733C141.201 213.753 141.213 213.773 141.227 213.792L141.845 214.618C150.344 225.893 156.737 230.296 160.713 228.375C163.734 226.915 164.527 218.048 162.425 202.187L162.368 201.768ZM158.081 219.91C158.574 219.393 158.878 218.693 158.878 217.922C158.878 216.331 157.589 215.042 155.998 215.042C154.407 215.042 153.118 216.331 153.118 217.922C153.118 219.512 154.407 220.802 155.998 220.802C156.123 220.802 156.246 220.794 156.367 220.779L158.004 223.783L158.064 223.878C158.341 224.271 158.874 224.403 159.307 224.167C159.773 223.914 159.944 223.33 159.691 222.865L158.081 219.91Z" fill="#69CB3A"/>
<path fill-rule="evenodd" clip-rule="evenodd" d="M462.615 482.998C494.812 486.924 522.436 506.78 545.17 509.5C570.435 512.523 608.646 495.922 647.611 515.46C657.64 520.49 665.875 526.533 662.807 534.044C657.46 547.134 646.207 552.262 621.557 555.819L618.927 556.183C599.871 558.717 579.391 559.33 527.471 559.673L509.73 559.808C446.44 560.359 409.84 563.322 362.445 567.108L357.614 567.5C270.336 574.682 200.669 573.531 148.613 565.57L147.04 565.327C104.983 558.739 79.6969 547.842 67.3537 535.478C60.0873 528.2 55.9017 521.414 55.6856 514.16C55.4696 506.907 66.1866 498.933 72.2883 495.922C89.2854 487.536 94.8314 484.495 127.508 480.201C141.577 478.352 162.656 478.499 187.021 477.677C274.426 474.726 409.454 476.516 462.615 482.998ZM126.786 486.276L124.646 486.561C94.1941 490.69 74.7281 498.203 65.5069 505.693L64.9313 506.174C57.8507 512.276 57.1888 519.135 67.3666 529.276C78.4952 540.363 106.879 552.872 147.805 559.248C199.041 567.231 267.925 569.55 354.432 562.607L363.5 561.876C413.443 557.95 451.761 555.86 522.678 555.362L542.254 555.216C584.475 554.834 602.42 554.078 619.743 551.671L621.391 551.433C697.889 536.47 642.691 509.622 611.023 509.5C583.901 509.395 551.326 517.024 542.254 514.169C513.662 505.169 498.98 491.389 462.615 486.98L452.04 485.713L443.013 485.287C295.067 478.414 189.63 478.063 126.786 486.276Z" fill="black"/>
<path d="M222.604 138.603C222.079 138.586 221.553 138.587 221.028 138.605C208.081 139.049 197.919 149.801 198.153 162.713L198.164 163.105L198.323 167.943C198.777 182.475 199.028 196.949 199.073 211.366L199.151 255.725C199.169 271.691 199.159 286.099 199.112 300.21L199.048 315.175C198.796 362.817 198.118 396.254 196.858 410.808L196.615 413.53C195.094 431.318 194.78 456.866 195.681 490.116C195.692 490.501 195.711 490.885 195.74 491.268C196.736 504.749 208.364 514.903 221.815 514.127L222.223 514.1L226.694 513.776C268.479 510.794 310.264 509.303 352.05 509.303C392.95 509.303 434.164 510.732 475.691 513.588C476.892 513.67 478.098 513.678 479.3 513.61C495.045 512.719 507.123 499.36 506.49 483.656L506.467 483.179L506.152 477.516C503.365 426.496 501.921 375.478 501.822 324.459L501.816 318.79C501.816 281.605 503.558 230.607 507.039 165.772C507.078 165.046 507.086 164.319 507.064 163.591C506.626 149.517 494.976 138.433 480.949 138.641L480.524 138.652L459.292 139.295C411.057 140.718 375.935 141.461 353.903 141.525L350.126 141.529L346.241 141.52C323.75 141.423 288.933 140.652 241.769 139.206L222.604 138.603Z" fill="white"/>
<path fill-rule="evenodd" clip-rule="evenodd" d="M478.876 137.28C477.175 138.212 474.934 138.868 472.152 139.246C479.313 139.881 484.942 139.733 489.041 138.8L488.154 138.691C485.269 138.326 482.175 137.856 478.876 137.28Z" fill="white"/>
<path fill-rule="evenodd" clip-rule="evenodd" d="M209.57 480.593L209.77 480.601C211.008 480.687 211.88 481.653 211.766 482.72C211.636 483.942 210.331 485.126 208.906 485.224C207.774 485.302 206.987 484.43 207.113 483.078C207.244 481.66 208.356 480.599 209.57 480.593Z" fill="white"/>
<path fill-rule="evenodd" clip-rule="evenodd" d="M232.235 499.136L232.434 499.144C233.671 499.229 234.544 500.196 234.431 501.263C234.3 502.484 232.996 503.668 231.571 503.766C230.438 503.844 229.652 502.973 229.778 501.621C229.909 500.202 231.021 499.141 232.235 499.136Z" fill="white"/>
<path fill-rule="evenodd" clip-rule="evenodd" d="M352.297 497.917C303.134 508.768 395.444 506.85 431.455 504.474C451.053 503.18 466.702 512.97 475.688 513.588C476.889 513.67 478.095 513.678 479.297 513.61C495.042 512.719 507.12 499.36 506.487 483.656L506.464 483.179L506.149 477.516C503.362 426.497 501.918 375.478 501.819 324.459L501.813 318.79C501.813 281.605 503.555 230.607 507.036 165.772C507.075 165.046 507.084 164.319 507.061 163.592C506.623 149.517 479.655 469.809 352.297 497.917Z" fill="white"/>
<path d="M498.115 484.801L498.289 484.808C499.185 484.88 499.918 485.813 499.813 486.952C499.695 488.213 498.608 489.347 497.522 489.433C496.76 489.493 496.116 488.673 496.229 487.264C496.346 485.822 497.248 484.823 498.115 484.801Z" fill="white"/>
<path fill-rule="evenodd" clip-rule="evenodd" d="M497.806 493.028C494.606 493.28 492.357 490.418 492.636 486.974C492.906 483.626 495.455 480.969 498.518 481.211C501.529 481.449 503.689 484.197 503.402 487.286C503.126 490.252 500.683 492.8 497.806 493.028ZM498.289 484.808L498.115 484.801C497.249 484.824 496.346 485.823 496.229 487.265C496.116 488.673 496.76 489.493 497.522 489.433C498.608 489.347 499.695 488.213 499.813 486.953C499.918 485.813 499.185 484.88 498.289 484.808Z" fill="white"/>
<path d="M467.665 159.382C479.043 159.382 488.267 168.606 488.267 179.985C488.267 180.41 488.255 180.836 488.228 181.261L487.925 186.308C487.372 195.887 486.819 207.261 486.269 220.428L486.185 222.536C484.84 257.957 484.797 341.755 486.057 473.929C486.166 485.307 477.03 494.618 465.653 494.727C465.376 494.729 465.098 494.727 464.821 494.718L238.796 487.744C228.331 487.422 219.771 479.3 218.901 468.866L218.71 466.51C215.733 428.989 215.555 381.08 218.178 322.781L218.562 314.422C219.901 283.743 220.007 239.063 218.878 180.38C218.661 169.123 227.516 159.801 238.725 159.396L239.278 159.383L467.665 159.382Z" fill="white"/>
<path fill-rule="evenodd" clip-rule="evenodd" d="M315.699 402.338C325.684 402.759 335.939 400.988 344.832 396.643C355.969 391.201 364.349 382.071 368.988 368.979C375.099 351.736 372.854 333.091 364.07 316.681C356.253 302.074 343.961 290.958 332.631 288.21C332.631 288.21 364.07 332.435 359.567 356.612C352.68 393.577 315.699 402.338 315.699 402.338Z" fill="white"/>
<path fill-rule="evenodd" clip-rule="evenodd" d="M322.959 350.4C327.819 352.416 329.303 356.161 327.41 361.636L327.302 361.942C314.995 395.731 300.484 396.039 312.902 361.942C314.406 357.812 314.033 354.643 311.782 352.436C315.759 351.629 319.485 350.95 322.959 350.4Z" fill="white"/>
<path fill-rule="evenodd" clip-rule="evenodd" d="M245.887 310.902C249.07 301.443 253.719 294.331 262.409 288.708L263.513 288.008C265.388 286.831 267.699 285.499 269.578 286.409C271.967 287.566 275.425 291.78 273.321 293.435C271.894 294.558 266.021 295.751 261.594 299.629C256.367 304.208 252.606 311.586 252.606 313.393C252.606 319.287 244.006 316.489 245.887 310.902Z" fill="white"/>
<path fill-rule="evenodd" clip-rule="evenodd" d="M236.038 176.067C225.107 206.079 225.182 212.034 224.527 206.861C222.405 190.131 220.805 179.138 223.326 172.459C226.517 164.005 234.515 162.342 236.576 163.323C240.931 165.398 236.038 176.067 236.038 176.067Z" fill="white"/>
<path fill-rule="evenodd" clip-rule="evenodd" d="M415.868 330.303L412.232 330.192C407.917 330.083 404.808 330.108 402.199 330.312C400.104 330.476 398.54 330.761 397.655 331.042L397.479 331.1L397.462 331.183C397.364 331.672 397.294 332.327 397.263 333.119L397.255 333.421C397.196 335.797 397.483 338.972 398.054 342.516C398.522 345.423 399.16 348.443 399.828 350.988L399.995 351.613C400.253 352.563 400.502 353.389 400.721 354.032L400.8 354.26L400.895 354.297C402.235 354.773 404.898 354.829 410.034 354.45L413.523 354.178C415.873 354.005 417.585 353.931 419.275 353.952L435.669 354.295C437.963 354.338 440.034 354.372 442.065 354.398L445.747 354.44C454.944 354.975 465.052 354.573 466.308 352.284C470.144 345.302 471.952 330.923 470.144 330.827C466.89 330.654 462.952 330.449 461.081 330.474L456.762 330.553L452.844 330.584C451.056 330.594 449.191 330.6 447.188 330.602L424.72 330.55C423.26 330.54 421.829 330.504 419.251 330.42L415.868 330.303Z" fill="white"/>
<path fill-rule="evenodd" clip-rule="evenodd" d="M243.591 134.108L222.764 133.455C222.125 133.434 221.485 133.435 220.845 133.457C204.926 134.004 192.463 147.354 193.011 163.274L193.169 168.104C193.356 174.068 193.64 180.023 193.923 185.968C194.405 196.063 194.885 206.13 194.885 216.17L194.951 252.579C195.016 303.354 194.862 386.977 192.607 411.197L192.437 413.098C190.971 430.26 189.654 454.405 190.407 485.533L190.528 490.255C190.54 490.72 190.563 491.184 190.598 491.647C191.814 508.101 206.137 520.453 222.591 519.237L227.055 518.913L227.795 518.86C227.944 519.109 228.094 519.359 228.244 519.604C228.967 520.799 229.643 521.913 229.799 522.461C230.196 523.841 230.237 525.405 230.008 528.942L229.777 532.258L229.714 533.335C229.376 539.946 230.14 543.878 233.365 546.84C237.512 550.648 241.906 550.244 250.908 549.416L251.312 549.379L253.629 549.154C256.308 548.896 259.319 549.105 261.372 549.247H261.373C261.964 549.289 262.475 549.324 262.876 549.341L263.633 549.379C268.799 549.585 269.619 547.885 270.071 543.682C270.321 541.366 269.996 539.544 268.635 534.842L267.617 531.376L267.279 530.171C265.69 524.297 265.835 521.365 267.905 519.946C268.408 519.603 270.507 518.979 272.927 518.259C275.417 517.517 278.248 516.676 280.031 515.933C304.036 514.947 328.041 514.453 352.046 514.453C377.268 514.453 402.61 514.998 428.073 516.088C427.904 516.363 427.873 516.76 428.053 517.315C428.254 517.941 429.02 518.374 430 518.928C432.595 520.396 436.686 522.709 435.735 531.693L435.738 532.062C435.881 539.144 440.175 543.298 447.08 544.708C451.697 545.651 456.95 545.367 462.67 544.374C465.502 543.884 467.326 542.113 468.197 539.414C468.678 537.923 468.85 536.584 468.963 533.919C468.963 533.919 467.703 520.068 474.708 518.683C474.916 518.697 475.124 518.712 475.334 518.726C476.144 518.782 476.957 518.809 477.769 518.806C477.879 518.832 477.989 518.86 478.1 518.889C478.436 518.98 478.757 518.929 479.045 518.778C479.225 518.771 479.406 518.762 479.586 518.752C498.33 517.691 512.665 501.636 511.605 482.893L511.29 477.234C508.405 424.42 506.963 371.604 506.963 318.79C506.963 282.824 508.599 233.84 511.869 171.838L512.177 166.048C512.224 165.176 512.234 164.304 512.207 163.431C511.677 146.372 497.418 132.973 480.359 133.503L469.547 133.835C415.969 135.46 377.417 136.306 353.892 136.375L350.126 136.378C328.162 136.362 292.649 135.605 243.591 134.108ZM467.677 518.215C455.772 517.446 443.894 516.796 432.041 516.262C437.716 519.017 439.74 524.16 439.852 531.274L439.855 531.693C439.855 536.296 443.436 539.301 448.252 540.284C448.756 540.387 449.273 540.499 449.802 540.614C453.129 541.335 456.932 542.161 461.15 541.469L461.79 541.36C464.707 540.284 464.707 529.804 464.707 529.804C464.739 528.951 464.769 528.395 464.819 527.719L464.883 526.959C465.247 523.144 466.044 520.294 467.677 518.215ZM234.75 521.041C234.471 520.065 234.071 519.202 233.556 518.461C243.661 517.778 253.767 517.181 263.872 516.673C262.293 518.431 262.145 520.808 262.087 523.647C262.037 526.093 262.531 528.695 263.571 532.36L263.633 532.579L264.585 535.818C265.75 539.818 266.1 541.491 266.002 542.893L265.981 543.131C265.84 544.432 264.17 545.9 261.347 545.736L260.842 545.71C259.631 545.526 247.706 545.736 247.706 545.736C242.2 546.293 239.549 545.526 236.848 543.046C235.034 541.38 234.548 538.423 234.905 532.763L235.128 529.586C235.408 525.432 235.384 523.487 234.861 521.45L234.75 521.041ZM221.022 138.605C221.548 138.586 222.073 138.585 222.599 138.603L241.763 139.206C288.928 140.651 323.746 141.422 346.237 141.519L350.122 141.529L353.897 141.525C375.93 141.461 411.053 140.718 459.288 139.295L480.519 138.652L480.945 138.641C494.971 138.433 506.622 149.517 507.06 163.592C507.082 164.318 507.074 165.046 507.035 165.772C503.554 230.606 501.812 281.604 501.812 318.79L501.817 324.459C501.917 375.478 503.361 426.496 506.148 477.515L506.463 483.178L506.486 483.655C507.119 499.359 495.04 512.718 479.296 513.609C478.093 513.677 476.888 513.67 475.687 513.587C434.159 510.731 392.945 509.303 352.046 509.303C310.259 509.303 268.474 510.794 226.688 513.775L222.218 514.1L221.81 514.127C208.359 514.902 196.73 504.748 195.735 491.267C195.706 490.884 195.687 490.5 195.676 490.115C194.775 456.866 195.089 431.317 196.609 413.529L196.853 410.808C198.112 396.253 198.791 362.816 199.043 315.174L199.107 300.21C199.153 286.099 199.164 271.69 199.145 255.725L199.068 211.366C199.023 196.949 198.772 182.475 198.317 167.942L198.159 163.105L198.148 162.713C197.914 149.801 208.076 139.049 221.022 138.605ZM488.262 179.983C488.262 168.605 479.038 159.381 467.66 159.381L239.272 159.382L238.72 159.394C227.511 159.799 218.656 169.122 218.872 180.379C220.001 239.061 219.896 283.741 218.557 314.42L218.173 322.78C215.55 381.077 215.728 428.987 218.704 466.508L218.896 468.864C219.766 479.298 228.326 487.42 238.791 487.742L464.816 494.716C465.093 494.724 465.371 494.727 465.647 494.724C477.025 494.616 486.16 485.305 486.052 473.927C484.792 341.753 484.834 257.956 486.18 222.535L486.264 220.426C486.814 207.259 487.367 195.886 487.92 186.307L488.223 181.259C488.249 180.835 488.262 180.409 488.262 179.983ZM239.47 164.531H467.66C476.194 164.531 483.111 171.449 483.111 179.983C483.111 180.302 483.102 180.622 483.082 180.941C482.542 189.629 482.006 199.999 481.469 212.057L481.118 220.211C479.757 252.751 479.625 330.676 480.719 454.108L480.902 473.976C480.983 482.509 474.132 489.493 465.598 489.574C465.391 489.576 465.183 489.574 464.975 489.567L238.95 482.595L238.609 482.58C230.916 482.175 224.672 476.147 224.029 468.436C220.857 430.429 220.645 381.329 223.402 321.168L223.66 315.6C224.96 286.652 225.145 245.139 224.218 191.028L224.022 180.28C223.858 171.749 230.641 164.698 239.173 164.534C239.272 164.532 239.371 164.531 239.47 164.531ZM231.576 148.736C231.902 152.238 229.364 155.048 225.945 154.812C222.819 154.596 220.069 152.1 219.748 149.094L219.729 148.874C219.53 145.882 221.822 143.339 224.896 143.013L225.129 142.993C228.407 142.767 231.262 145.359 231.576 148.736ZM225.528 146.585L225.329 146.593C224.092 146.678 223.219 147.645 223.333 148.712C223.463 149.933 224.768 151.117 226.192 151.215C227.325 151.293 228.112 150.422 227.986 149.07C227.854 147.651 226.743 146.59 225.528 146.585ZM207.301 176.046C203.736 176.361 201.334 172.932 201.631 168.821C201.922 164.79 204.689 161.551 208.117 161.854L208.338 161.879C211.486 162.288 213.661 165.385 213.483 168.856L213.467 169.099C213.173 172.647 210.512 175.76 207.301 176.046ZM207.853 165.449L207.677 165.441C206.584 165.454 205.382 166.931 205.227 169.08C205.072 171.225 205.995 172.542 206.982 172.454C208.321 172.335 209.716 170.703 209.873 168.801C210.022 167 209.008 165.553 207.853 165.449ZM474.179 148.736C473.853 152.238 476.391 155.048 479.81 154.812C482.936 154.596 485.686 152.1 486.007 149.094L486.026 148.874C486.225 145.882 483.933 143.339 480.858 143.013L480.626 142.993C477.348 142.767 474.493 145.359 474.179 148.736ZM480.227 146.585L480.425 146.593C481.663 146.678 482.535 147.645 482.422 148.712C482.292 149.933 480.987 151.117 479.562 151.215C478.43 151.293 477.643 150.422 477.769 149.07C477.901 147.651 479.012 146.59 480.227 146.585ZM493.376 170.152C491.462 167.31 492.628 163.707 495.823 162.238C498.904 160.821 502.575 161.998 504.02 164.95L504.118 165.161C505.373 167.987 504.317 171.244 501.627 172.567L501.427 172.661C498.663 173.886 495.126 172.753 493.376 170.152ZM500.802 166.576L500.709 166.399C500.098 165.35 498.623 164.918 497.329 165.513C496.095 166.081 495.734 167.198 496.367 168.14C497.165 169.325 498.843 169.862 499.965 169.364C500.946 168.93 501.347 167.691 500.802 166.576ZM204.755 478.724C202.255 481.197 202.392 484.98 205.163 486.997C207.696 488.842 211.408 488.697 213.586 486.601L213.741 486.444C215.817 484.28 215.696 480.86 213.549 478.634L213.385 478.468C211.018 476.188 207.165 476.338 204.755 478.724ZM210.77 480.964L210.918 481.097C211.811 481.958 211.858 483.26 211.085 484.004C210.2 484.855 208.439 484.924 207.284 484.084C206.368 483.415 206.324 482.242 207.29 481.286C208.303 480.285 209.836 480.187 210.77 480.964ZM227.824 505.54C225.054 503.522 224.917 499.738 227.416 497.265C229.828 494.88 233.68 494.73 236.047 497.01L236.212 497.175C238.358 499.401 238.479 502.823 236.403 504.987L236.248 505.142C234.069 507.24 230.358 507.385 227.824 505.54ZM233.58 499.638L233.432 499.505C232.499 498.728 230.965 498.826 229.953 499.829C228.987 500.784 229.029 501.957 229.947 502.625C231.101 503.466 232.863 503.397 233.747 502.545C234.52 501.801 234.472 500.499 233.58 499.638ZM481.451 498.462C478.58 501.357 478.503 505.615 481.561 507.805C484.361 509.811 488.554 509.415 491.062 506.946C493.662 504.387 493.736 500.27 491.178 497.765C488.59 495.232 484.248 495.641 481.451 498.462ZM488.542 500.238L488.689 500.374C489.75 501.413 489.717 503.212 488.533 504.377C487.258 505.632 485.014 505.844 483.661 504.873C482.563 504.088 482.594 502.43 484.011 501.001C485.449 499.55 487.45 499.316 488.542 500.238ZM497.802 493.027C494.603 493.279 492.353 490.418 492.632 486.973C492.903 483.626 495.451 480.968 498.514 481.21C501.525 481.448 503.685 484.196 503.398 487.285C503.123 490.252 500.679 492.799 497.802 493.027ZM498.285 484.807L498.112 484.801C497.245 484.823 496.342 485.822 496.225 487.264C496.112 488.672 496.756 489.492 497.518 489.433C498.604 489.346 499.692 488.212 499.809 486.952C499.914 485.812 499.181 484.879 498.285 484.807Z" fill="black"/>
<path fill-rule="evenodd" clip-rule="evenodd" d="M227.422 497.265C224.922 499.738 225.06 503.521 227.829 505.539C230.363 507.384 234.074 507.239 236.252 505.142L236.409 504.986C238.483 502.823 238.363 499.401 236.217 497.175L236.053 497.01C233.685 494.73 229.833 494.879 227.422 497.265ZM233.437 499.505L233.586 499.638C234.478 500.499 234.525 501.801 233.753 502.545C232.867 503.397 231.107 503.466 229.952 502.625C229.034 501.957 228.992 500.784 229.958 499.828C230.97 498.826 232.504 498.728 233.437 499.505Z" fill="black"/>
<path d="M488.545 500.239L488.691 500.375C489.751 501.413 489.719 503.212 488.535 504.378C487.259 505.633 485.017 505.845 483.662 504.875C482.566 504.089 482.596 502.431 484.012 501.001C485.452 499.551 487.451 499.317 488.545 500.239Z" fill="white"/>
<path fill-rule="evenodd" clip-rule="evenodd" d="M261.199 279.161C260.01 279.574 258.937 280.134 257.612 280.95L256.594 281.589L256.09 281.91C248.408 286.869 243.28 293.035 239.631 301.385L239.436 301.837L239.29 301.793C238.321 301.509 237.444 301.37 236.505 301.447C234.504 301.613 232.64 302.812 231.974 305.047C230.933 308.537 231.362 312.528 232.713 316.613L232.966 317.361C234.284 321.148 235.743 323.718 238.168 324.469C241.391 325.467 252.529 321.052 256.413 317.045C259.183 314.188 258.074 310.692 255.437 308.675L255.195 308.496L254.941 308.32L254.651 308.133L254.845 307.787C254.979 307.549 255.12 307.308 255.267 307.064C256.843 304.453 258.812 301.984 260.806 300.236C261.575 299.563 262.463 298.946 263.476 298.371C265.043 297.48 271.293 295.026 272.346 294.198C275.725 291.541 275.334 287.691 273.196 284.355C271.868 282.28 269.778 280.335 267.758 279.357C265.636 278.33 263.416 278.391 261.199 279.161ZM265.737 283.529C268.125 284.686 271.583 288.9 269.48 290.555C268.053 291.677 262.18 292.871 257.753 296.749C252.525 301.328 248.764 308.706 248.764 310.513L249.36 310.736C252.62 311.991 253.861 313.018 253.085 313.819C249.628 317.384 240.234 320.256 239.539 320.041C238.854 319.829 234.8 311.789 236.416 306.371C236.632 305.647 238.508 306.197 242.045 308.022C245.228 298.563 249.878 291.451 258.568 285.828L259.672 285.128C261.547 283.951 263.857 282.619 265.737 283.529Z" fill="black"/>
<path fill-rule="evenodd" clip-rule="evenodd" d="M268.23 385.832C249.149 364.979 248.044 329.406 268.658 306.499C281.464 292.266 311.566 283.099 332.629 288.21C343.959 290.958 356.25 302.074 364.068 316.681C372.852 333.091 375.095 351.736 368.986 368.979C364.347 382.071 355.966 391.201 344.829 396.643C335.937 400.988 325.682 402.759 315.697 402.338C297.677 401.58 275.27 393.527 268.23 385.832ZM359.527 319.111C352.347 305.697 341.159 295.579 331.414 293.214L330.835 293.079C311.621 288.721 283.905 297.253 272.486 309.943C253.688 330.835 254.7 363.416 272.029 382.355C278.01 388.892 299.141 396.486 315.913 397.192C325.095 397.579 334.508 395.953 342.568 392.016C352.516 387.154 359.952 379.054 364.131 367.259C369.727 351.467 367.661 334.309 359.527 319.111ZM349.605 368.459C361.003 348.45 345.552 305.246 323.973 301.64C303.687 298.252 295.997 303.173 287.249 310.758L285.558 312.243C268.436 327.38 268.436 359.9 285.163 374.987C289.367 378.779 307.861 388.506 322.053 385.53C331.462 383.557 344.558 377.32 349.605 368.459ZM301.977 307.285C303.051 306.899 304.184 306.582 305.391 306.335C305.228 306.71 305.09 307.108 304.975 307.528C304.336 309.881 304.401 311.893 305.091 316.791L305.563 320.037C305.603 320.323 305.639 320.585 305.674 320.854L305.778 321.679C306.512 327.881 305.846 331.115 303.074 332.9C300.536 334.532 298.04 335.148 292.341 335.811L290.207 336.053C287.577 336.357 286.196 336.566 284.535 336.941L283.783 337.092C281.481 337.577 279.571 338.178 278.088 338.934C279.066 330.075 282.693 321.65 288.969 316.101C294.889 310.867 297.875 308.756 301.977 307.285ZM323.124 306.721C322.291 306.581 321.479 306.457 320.689 306.346C320.855 306.765 320.996 307.21 321.111 307.681C321.593 309.646 321.675 311.389 321.559 315.364L321.503 317.077C321.443 318.727 321.413 319.709 321.406 320.652L321.405 321.783C321.454 326.81 322.241 330.151 324.174 332.414L324.389 332.655L324.475 332.691C324.595 332.739 324.745 332.794 324.927 332.855L325.117 332.916C325.559 333.057 326.115 333.215 326.826 333.402L328.015 333.705L333.092 334.948C334.088 335.196 334.975 335.422 335.825 335.646L337.221 336.023C341.418 337.179 344.634 338.305 346.975 339.561C343.48 323.916 333.859 308.514 323.124 306.721ZM347.537 351.069C347.826 350.884 348.1 350.696 348.359 350.506C348.485 356.342 347.507 361.738 345.13 365.91C341.718 371.901 332.239 377.605 322.984 380.02C323.218 379.43 323.407 378.789 323.554 378.101C324.003 375.988 324.075 373.569 323.899 370.142L323.787 368.299L323.619 365.873C323.302 361.029 323.378 359.001 323.801 358.515C325.701 356.331 328.333 355.495 335.033 354.534L336.586 354.313C342.187 353.495 344.813 352.804 347.537 351.069ZM308.17 377.512C308.241 378.381 308.53 379.268 308.998 380.105C306.623 379.603 304.151 378.882 301.633 377.96C295.999 375.898 290.537 372.898 288.613 371.163C282.504 365.653 278.987 357.336 278.064 348.578C279.646 349.307 281.739 349.923 284.337 350.539L284.738 350.632C285.786 350.876 286.859 351.102 288.125 351.352L291.742 352.055C299.839 353.718 304.02 355.647 305.93 358.223L306.122 358.491C307.388 360.337 307.737 362.425 307.839 367.849L307.897 371.711C307.942 374.024 308.013 375.558 308.17 377.512ZM314.261 306.554L314.494 306.574C316.68 306.835 317.142 308.862 316.884 316.51L316.797 319.16C316.776 319.96 316.767 320.604 316.767 321.309C316.77 326.104 317.344 329.829 318.886 332.811C318.599 332.659 318.269 332.572 317.921 332.572L317.57 332.576L317.483 332.579L317.444 332.563C316.852 332.343 316.205 332.413 315.683 332.72L315.629 332.753L315.448 332.783C310.956 333.531 306.49 336.215 304.097 339.77C301.529 343.583 301.656 347.745 304.586 351.31C301.798 349.838 298.099 348.658 293.217 347.627L291.642 347.31C290.715 347.131 289.559 346.909 289.559 346.909L288.628 346.726C287.728 346.546 286.931 346.377 286.166 346.204L285.786 346.117C283.461 345.577 281.625 345.024 280.342 344.445L280.137 344.351C279.743 344.163 279.429 343.982 279.206 343.821L279.176 343.798L279.233 343.739C279.392 343.582 279.632 343.403 279.961 343.213C281.086 342.563 282.941 341.968 285.485 341.477L286.128 341.339C287.26 341.106 288.368 340.94 290.1 340.733L292.91 340.413C299.302 339.668 302.261 338.933 305.582 336.797C310.423 333.682 311.347 328.81 310.326 320.685L310.214 319.828C310.156 319.407 310.094 318.969 310.011 318.41L309.692 316.214C309.119 312.132 309.036 310.38 309.412 308.881L309.448 308.744C309.908 307.055 311.079 306.355 314.261 306.554ZM309.474 355.225C309.534 355.303 309.595 355.382 309.653 355.461C311.843 358.415 312.345 361.023 312.473 367.683L312.524 371.202C312.562 373.404 312.62 374.855 312.745 376.535L312.791 377.138C312.887 378.329 314.919 380.222 317.163 379.794C318.912 379.46 319.589 376.595 319.26 370.219L319.215 369.42L318.959 365.678C318.554 359.552 318.682 357.517 320.081 355.742C316.728 357.003 312.83 356.943 309.474 355.225ZM325.488 351.873C327.567 351.087 330.213 350.555 333.887 350.017L335.88 349.731C340.534 349.051 342.786 348.495 344.692 347.376L345.046 347.159C347.203 345.785 347.411 345.511 346.451 344.737L346.141 344.496C344.443 343.218 341.167 341.943 336.45 340.619L335.453 340.345C334.377 340.054 333.271 339.77 331.968 339.446L326.547 338.116C325.523 337.858 324.704 337.643 324.038 337.446C328.227 341.876 328.92 346.863 326.041 351.123L325.878 351.357C325.753 351.533 325.623 351.705 325.488 351.873ZM316.274 336.822L316.567 336.781L316.775 336.906C323.513 341.002 325.012 345.466 322.521 348.968C320.042 352.452 314.599 353.656 310.693 351.181C306.165 348.312 305.413 345.192 307.514 342.071C309.29 339.435 312.838 337.35 316.274 336.822Z" fill="black"/>
<path d="M384.204 325.619C384.394 324.923 384.579 324.726 384.579 324.72C385.236 324.245 386.605 323.761 388.877 323.44C391.077 323.128 393.766 323.011 396.728 323.006C399.678 323 402.815 323.103 405.905 323.209C406.086 323.216 406.267 323.222 406.448 323.228C409.33 323.328 412.167 323.427 414.676 323.43C417.634 323.433 420.64 323.443 423.667 323.454C431.067 323.479 438.598 323.505 445.882 323.43C446.2 323.426 446.659 323.416 447.232 323.405C449.555 323.356 453.754 323.268 458.035 323.406C460.7 323.491 463.316 323.663 465.46 323.973C466.532 324.129 467.434 324.311 468.139 324.516C468.886 324.734 469.223 324.924 469.315 324.994C469.479 325.118 469.819 325.501 470.182 326.403C470.532 327.27 470.825 328.424 471.027 329.819C471.432 332.608 471.437 336.066 471.038 339.474C470.637 342.897 469.85 346.089 468.783 348.398C467.627 350.897 466.564 351.51 466.059 351.565C453.243 352.958 431.587 352.482 414.344 352.105C412.411 352.063 410.534 352.022 408.73 351.984C406.566 351.94 404.303 352.084 402.133 352.253C401.607 352.294 401.087 352.336 400.576 352.378C398.934 352.51 397.363 352.638 395.845 352.702C393.858 352.786 392.128 352.751 390.685 352.51C389.415 352.297 388.513 351.948 387.884 351.501C387.814 351.348 387.722 351.125 387.61 350.823C387.335 350.081 387.007 349.029 386.657 347.742C385.957 345.174 385.211 341.81 384.658 338.378C384.102 334.927 383.76 331.514 383.827 328.811C383.86 327.453 383.995 326.383 384.204 325.619ZM387.991 351.709C387.991 351.71 387.983 351.698 387.968 351.67C387.983 351.693 387.991 351.708 387.991 351.709Z" stroke="black"/>
<mask id="path-24-inside-1_23_39" fill="white">
<path fill-rule="evenodd" clip-rule="evenodd" d="M414.624 321.353C417.596 321.356 420.609 321.367 423.641 321.377C429.875 321.399 436.188 321.42 442.37 321.381L445.801 321.353C446.096 321.351 446.532 321.341 447.084 321.329C452.243 321.221 467.47 320.899 470.818 323.44C476.296 327.598 474.115 353.774 466.283 354.624C453.286 356.036 431.443 355.556 414.248 355.179C412.308 355.136 410.426 355.094 408.624 355.058C406.12 355.006 403.425 355.224 400.765 355.44C394.798 355.924 389.002 356.393 385.92 353.774C384.329 352.422 378.203 326.696 382.974 323.163C386.62 320.463 397.075 320.826 406.468 321.153C408.8 321.233 411.067 321.312 413.148 321.342L413.152 321.339L413.154 321.342C413.656 321.349 414.146 321.352 414.624 321.353ZM408.343 326.369C408.85 326.387 409.313 326.401 409.74 326.415C410.087 328.548 410.126 332.295 409.877 337.817L409.694 341.808C409.531 345.538 409.472 348.076 409.579 349.928L408.367 349.903C406.678 349.881 404.965 349.956 402.615 350.128L399.127 350.401C393.991 350.779 391.327 350.724 389.987 350.247L389.892 350.211L389.813 349.983C389.594 349.339 389.346 348.514 389.087 347.564L388.92 346.938C388.253 344.393 387.614 341.374 387.146 338.467C386.575 334.922 386.288 331.748 386.347 329.372L386.356 329.07C386.387 328.278 386.457 327.623 386.555 327.134L386.572 327.051L386.747 326.992C387.632 326.712 389.197 326.426 391.292 326.263C393.9 326.059 397.009 326.033 401.324 326.143L404.961 326.254L408.343 326.369ZM424.761 350.246L414.804 350.037C414.75 349.454 414.712 348.735 414.698 347.905L414.696 347.726C414.679 346.422 414.705 345.176 414.796 342.987L415.086 336.549C415.262 332.127 415.268 328.916 414.975 326.504L436.281 326.553C437.422 326.552 438.518 326.549 439.581 326.546C439.255 332.954 439.774 344.162 440.44 350.422C438.643 350.419 436.776 350.409 434.84 350.39L431.157 350.349C429.127 350.322 427.055 350.289 424.761 350.246ZM445.672 350.405C453.587 350.339 459.941 350.082 464.867 349.593L465.328 349.545L465.39 349.48C465.652 349.183 465.96 348.705 466.273 348.063L466.392 347.816C467.316 345.815 468.048 342.901 468.426 339.673C468.8 336.48 468.796 333.245 468.425 330.688C468.253 329.509 468.012 328.541 467.739 327.864L467.663 327.682L467.605 327.562L467.399 327.497C466.847 327.334 466.091 327.178 465.166 327.039C463.34 326.768 460.99 326.586 458.24 326.489C455.684 326.4 453.085 326.387 450.174 326.425L445.854 326.504L444.627 326.513C444.587 327.209 444.557 328.038 444.546 328.966L444.543 329.268C444.523 331.778 444.612 334.941 444.791 338.443L444.827 339.148C444.975 341.895 445.171 344.734 445.379 347.23L445.506 348.684C445.562 349.306 445.618 349.883 445.672 350.405ZM422.99 335.203L423.459 335.876C423.996 336.632 424.502 337.301 424.985 337.891C424.337 339.303 423.997 340.887 423.89 342.927C423.852 343.67 424.422 344.302 425.164 344.342C425.905 344.38 426.539 343.81 426.577 343.068C426.639 341.893 426.783 340.923 427.039 340.063C428.528 341.366 429.832 341.849 431.202 341.874H431.467C432.21 341.874 432.812 341.272 432.812 340.529C432.812 339.832 432.283 339.26 431.604 339.191L431.467 339.184H431.241C430.363 339.164 429.479 338.794 428.273 337.578C428.665 337.03 429.139 336.485 429.704 335.904L431.147 334.477C431.675 333.954 431.678 333.102 431.156 332.575C430.632 332.047 429.78 332.043 429.253 332.566L428.044 333.756C427.458 334.343 426.942 334.908 426.492 335.473L426.003 334.81C425.75 334.46 425.486 334.084 425.208 333.68C424.787 333.067 423.95 332.912 423.337 333.332C422.725 333.753 422.569 334.591 422.99 335.203ZM459.725 333.922L459.738 333.101C459.744 332.358 459.147 331.751 458.404 331.744C457.661 331.739 457.054 332.336 457.048 333.079C457.041 333.896 457.02 334.628 456.985 335.283C456.296 335.066 455.553 334.887 454.738 334.728L453.072 334.417C452.342 334.279 451.637 334.758 451.499 335.487C451.361 336.218 451.84 336.922 452.569 337.06L454.564 337.437C455.358 337.602 456.054 337.789 456.687 338.025C456.367 339.707 455.841 340.507 455.124 341.015L454.937 341.142L454.826 341.224C454.303 341.66 454.184 342.431 454.574 343.009C454.99 343.625 455.826 343.788 456.441 343.372L456.661 343.224C457.783 342.437 458.593 341.307 459.099 339.394C459.792 339.964 460.454 340.688 461.162 341.628C461.609 342.221 462.453 342.34 463.046 341.893C463.639 341.445 463.758 340.602 463.311 340.009C462.082 338.377 460.914 337.253 459.587 336.445C459.657 335.686 459.703 334.848 459.725 333.922Z"/>
</mask>
<path fill-rule="evenodd" clip-rule="evenodd" d="M414.624 321.353C417.596 321.356 420.609 321.367 423.641 321.377C429.875 321.399 436.188 321.42 442.37 321.381L445.801 321.353C446.096 321.351 446.532 321.341 447.084 321.329C452.243 321.221 467.47 320.899 470.818 323.44C476.296 327.598 474.115 353.774 466.283 354.624C453.286 356.036 431.443 355.556 414.248 355.179C412.308 355.136 410.426 355.094 408.624 355.058C406.12 355.006 403.425 355.224 400.765 355.44C394.798 355.924 389.002 356.393 385.92 353.774C384.329 352.422 378.203 326.696 382.974 323.163C386.62 320.463 397.075 320.826 406.468 321.153C408.8 321.233 411.067 321.312 413.148 321.342L413.152 321.339L413.154 321.342C413.656 321.349 414.146 321.352 414.624 321.353ZM408.343 326.369C408.85 326.387 409.313 326.401 409.74 326.415C410.087 328.548 410.126 332.295 409.877 337.817L409.694 341.808C409.531 345.538 409.472 348.076 409.579 349.928L408.367 349.903C406.678 349.881 404.965 349.956 402.615 350.128L399.127 350.401C393.991 350.779 391.327 350.724 389.987 350.247L389.892 350.211L389.813 349.983C389.594 349.339 389.346 348.514 389.087 347.564L388.92 346.938C388.253 344.393 387.614 341.374 387.146 338.467C386.575 334.922 386.288 331.748 386.347 329.372L386.356 329.07C386.387 328.278 386.457 327.623 386.555 327.134L386.572 327.051L386.747 326.992C387.632 326.712 389.197 326.426 391.292 326.263C393.9 326.059 397.009 326.033 401.324 326.143L404.961 326.254L408.343 326.369ZM424.761 350.246L414.804 350.037C414.75 349.454 414.712 348.735 414.698 347.905L414.696 347.726C414.679 346.422 414.705 345.176 414.796 342.987L415.086 336.549C415.262 332.127 415.268 328.916 414.975 326.504L436.281 326.553C437.422 326.552 438.518 326.549 439.581 326.546C439.255 332.954 439.774 344.162 440.44 350.422C438.643 350.419 436.776 350.409 434.84 350.39L431.157 350.349C429.127 350.322 427.055 350.289 424.761 350.246ZM445.672 350.405C453.587 350.339 459.941 350.082 464.867 349.593L465.328 349.545L465.39 349.48C465.652 349.183 465.96 348.705 466.273 348.063L466.392 347.816C467.316 345.815 468.048 342.901 468.426 339.673C468.8 336.48 468.796 333.245 468.425 330.688C468.253 329.509 468.012 328.541 467.739 327.864L467.663 327.682L467.605 327.562L467.399 327.497C466.847 327.334 466.091 327.178 465.166 327.039C463.34 326.768 460.99 326.586 458.24 326.489C455.684 326.4 453.085 326.387 450.174 326.425L445.854 326.504L444.627 326.513C444.587 327.209 444.557 328.038 444.546 328.966L444.543 329.268C444.523 331.778 444.612 334.941 444.791 338.443L444.827 339.148C444.975 341.895 445.171 344.734 445.379 347.23L445.506 348.684C445.562 349.306 445.618 349.883 445.672 350.405ZM422.99 335.203L423.459 335.876C423.996 336.632 424.502 337.301 424.985 337.891C424.337 339.303 423.997 340.887 423.89 342.927C423.852 343.67 424.422 344.302 425.164 344.342C425.905 344.38 426.539 343.81 426.577 343.068C426.639 341.893 426.783 340.923 427.039 340.063C428.528 341.366 429.832 341.849 431.202 341.874H431.467C432.21 341.874 432.812 341.272 432.812 340.529C432.812 339.832 432.283 339.26 431.604 339.191L431.467 339.184H431.241C430.363 339.164 429.479 338.794 428.273 337.578C428.665 337.03 429.139 336.485 429.704 335.904L431.147 334.477C431.675 333.954 431.678 333.102 431.156 332.575C430.632 332.047 429.78 332.043 429.253 332.566L428.044 333.756C427.458 334.343 426.942 334.908 426.492 335.473L426.003 334.81C425.75 334.46 425.486 334.084 425.208 333.68C424.787 333.067 423.95 332.912 423.337 333.332C422.725 333.753 422.569 334.591 422.99 335.203ZM459.725 333.922L459.738 333.101C459.744 332.358 459.147 331.751 458.404 331.744C457.661 331.739 457.054 332.336 457.048 333.079C457.041 333.896 457.02 334.628 456.985 335.283C456.296 335.066 455.553 334.887 454.738 334.728L453.072 334.417C452.342 334.279 451.637 334.758 451.499 335.487C451.361 336.218 451.84 336.922 452.569 337.06L454.564 337.437C455.358 337.602 456.054 337.789 456.687 338.025C456.367 339.707 455.841 340.507 455.124 341.015L454.937 341.142L454.826 341.224C454.303 341.66 454.184 342.431 454.574 343.009C454.99 343.625 455.826 343.788 456.441 343.372L456.661 343.224C457.783 342.437 458.593 341.307 459.099 339.394C459.792 339.964 460.454 340.688 461.162 341.628C461.609 342.221 462.453 342.34 463.046 341.893C463.639 341.445 463.758 340.602 463.311 340.009C462.082 338.377 460.914 337.253 459.587 336.445C459.657 335.686 459.703 334.848 459.725 333.922Z" stroke="black" stroke-width="2" mask="url(#path-24-inside-1_23_39)"/>
<path fill-rule="evenodd" clip-rule="evenodd" d="M401.032 333.808L400.821 334.602C400.575 335.494 400.328 336.296 400.077 337.016C401.167 338.12 402.03 339.494 402.827 341.374C403.117 342.059 402.799 342.848 402.115 343.139C401.431 343.429 400.64 343.109 400.351 342.426C399.891 341.342 399.424 340.48 398.889 339.76C397.936 341.493 396.876 342.393 395.597 342.885L395.348 342.977C394.65 343.23 393.878 342.87 393.624 342.172C393.386 341.517 393.687 340.798 394.302 340.502L394.428 340.448L394.64 340.371C395.459 340.052 396.163 339.402 396.88 337.846C396.323 337.465 395.693 337.116 394.963 336.764L393.119 335.915C392.444 335.604 392.149 334.805 392.46 334.13C392.771 333.455 393.57 333.161 394.245 333.472L395.788 334.176C396.539 334.528 397.217 334.882 397.832 335.259C398.024 334.631 398.222 333.927 398.427 333.136C398.612 332.416 399.346 331.983 400.065 332.169C400.784 332.354 401.217 333.089 401.032 333.808Z" fill="#69CB3A"/>
</svg>
