<?xml version="1.0" encoding="UTF-8" standalone="no"?>
<!-- Created with Inkscape (http://www.inkscape.org/) -->

<svg
   width="750"
   height="750"
   viewBox="0 0 198.4375 198.43751"
   version="1.1"
   id="svg5"
   inkscape:version="1.1.1 (3bf5ae0, 2021-09-20)"
   sodipodi:docname="Locked.svg"
   xmlns:inkscape="http://www.inkscape.org/namespaces/inkscape"
   xmlns:sodipodi="http://sodipodi.sourceforge.net/DTD/sodipodi-0.dtd"
   xmlns="http://www.w3.org/2000/svg"
   xmlns:svg="http://www.w3.org/2000/svg">
  <sodipodi:namedview
     id="namedview7"
     pagecolor="#ffffff"
     bordercolor="#666666"
     borderopacity="1.0"
     inkscape:pageshadow="2"
     inkscape:pageopacity="0.0"
     inkscape:pagecheckerboard="0"
     inkscape:document-units="mm"
     showgrid="false"
     units="px"
     width="750px"
     inkscape:zoom="0.48551487"
     inkscape:cx="396.48631"
     inkscape:cy="396.48631"
     inkscape:window-width="1366"
     inkscape:window-height="700"
     inkscape:window-x="0"
     inkscape:window-y="0"
     inkscape:window-maximized="1"
     inkscape:current-layer="layer1" />
  <defs
     id="defs2" />
  <g
     inkscape:label="Layer 1"
     inkscape:groupmode="layer"
     id="layer1">
    <path
       d="m 124.17485,131.80969 c 8.51879,1.03876 15.82764,6.29232 21.84268,7.01199 6.6847,0.79984 16.79469,-3.59251 27.10418,1.57692 2.65351,1.33085 4.83235,2.92973 4.02061,4.91701 -1.41473,3.4634 -4.39209,4.82018 -10.91406,5.76131 l -0.69586,0.0963 c -5.0419,0.67046 -10.46057,0.83265 -24.19773,0.9234 l -4.69397,0.0357 c -16.74548,0.14578 -26.42923,0.92974 -38.969161,1.93146 l -1.278202,0.10371 c -23.092304,1.90024 -41.52503,1.59571 -55.29818,-0.51064 l -0.41619,-0.0643 c -11.127581,-1.74307 -17.817862,-4.62624 -21.083666,-7.89754 -1.922569,-1.92564 -3.030009,-3.7211 -3.087185,-5.64039 -0.05715,-1.91902 2.778389,-4.02881 4.392797,-4.82547 4.49715,-2.2188 5.964529,-3.0234 14.610213,-4.15952 3.722422,-0.48921 9.299574,-0.45032 15.746147,-0.6678 23.125906,-0.78079 58.852067,-0.30719 72.917577,1.40784 z"
       fill="#ffffff"
       id="path2454"
       style="stroke-width:0.264583" />
    <path
       fill-rule="evenodd"
       clip-rule="evenodd"
       d="M 130.93125,135.9954 C 117.82168,165.66789 70.379769,164.71195 37.369294,144.45969 31.064803,140.59174 9.3938669,122.36142 30.723226,111.71618 52.052346,101.07067 45.22054,84.719417 62.434067,65.217244 82.340787,42.663368 119.41209,31.095784 145.48386,61.440846 211.74929,138.56689 135.34556,126.00341 130.93125,135.9954 Z"
       fill="#69cb3a"
       id="path2456"
       style="stroke-width:0.264583" />
    <path
       fill-rule="evenodd"
       clip-rule="evenodd"
       d="m 43.292257,57.313082 c -1.181629,-1.899179 -2.366169,-2.628106 -3.531129,-1.997604 -0.986367,0.533664 -1.150409,1.958975 -0.62574,4.239154 l -0.314325,0.169333 c -0.432065,0.233098 -0.593725,0.772319 -0.360627,1.204384 0.02011,0.03731 0.04313,0.07355 0.06826,0.10742 l 0.16854,0.22569 c 2.46036,3.263635 4.410075,4.60031 5.9309,3.865298 1.278731,-0.618067 1.494631,-3.249348 0.836612,-8.011583 -0.04577,-0.33364 -0.343164,-0.570442 -0.674158,-0.54663 l -0.04154,0.0045 c -0.07514,0.01032 -0.147903,0.03413 -0.214578,0.07012 z m -3.488532,1.73011 2.7432,-1.483783 -0.0066,-0.01032 c -0.94324,-1.462881 -1.742546,-1.928283 -2.41644,-1.563423 l -0.03122,0.01799 c -0.497945,0.303742 -0.635793,1.258623 -0.318558,2.890308 z m 4.930775,-1.642268 -5.551752,2.99376 c -0.06191,0.03334 -0.08493,0.110331 -0.05159,0.171979 0.0029,0.0053 0.0061,0.01058 0.0098,0.01561 l 0.163513,0.218545 c 2.248693,2.983177 3.940175,4.148138 4.992158,3.639873 0.799306,-0.386291 1.009121,-2.732352 0.452967,-6.928908 z m -1.134268,4.80007 c 0.130439,-0.136789 0.210873,-0.321998 0.210873,-0.525991 0,-0.420952 -0.341048,-0.762 -0.762,-0.762 -0.420952,0 -0.762,0.341048 -0.762,0.762 0,0.420687 0.341048,0.762 0.762,0.762 0.03307,0 0.06562,-0.0021 0.09763,-0.0061 l 0.433123,0.794809 0.01588,0.02513 c 0.07329,0.103981 0.214312,0.138906 0.328877,0.07646 0.123296,-0.06694 0.168539,-0.221457 0.1016,-0.344488 z"
       fill="#69cb3a"
       id="path2458"
       style="stroke-width:0.264583" />
    <path
       fill-rule="evenodd"
       clip-rule="evenodd"
       d="m 124.17485,131.80969 c 8.51879,1.03876 15.82764,6.29232 21.84268,7.01199 6.6847,0.79984 16.79469,-3.59251 27.10418,1.57692 2.65351,1.33085 4.83235,2.92973 4.02061,4.91701 -1.41473,3.4634 -4.39209,4.82018 -10.91406,5.76131 l -0.69586,0.0963 c -5.0419,0.67046 -10.46057,0.83265 -24.19773,0.9234 l -4.69397,0.0357 c -16.74548,0.14578 -26.42923,0.92974 -38.969161,1.93146 l -1.278202,0.10371 c -23.092304,1.90024 -41.52503,1.59571 -55.29818,-0.51064 l -0.41619,-0.0643 c -11.127581,-1.74307 -17.817862,-4.62624 -21.083666,-7.89754 -1.922569,-1.92564 -3.030009,-3.7211 -3.087185,-5.64039 -0.05715,-1.91902 2.778389,-4.02881 4.392797,-4.82547 4.49715,-2.2188 5.964529,-3.0234 14.610213,-4.15952 3.722422,-0.48921 9.299574,-0.45032 15.746147,-0.6678 23.125906,-0.78079 58.852067,-0.30719 72.917577,1.40784 z m -88.854754,0.86731 -0.566208,0.0754 c -8.057065,1.09247 -13.207444,3.08028 -15.64722,5.06201 l -0.152294,0.12727 c -1.873409,1.61448 -2.048537,3.42926 0.64434,6.1124 2.944442,2.93344 10.454322,6.24311 21.282659,7.93009 13.556192,2.11217 31.78175,2.72574 54.67006,0.88874 l 2.399242,-0.19341 c 13.214085,-1.03876 23.352385,-1.59174 42.115845,-1.7235 l 5.17948,-0.0386 c 11.17098,-0.10107 15.91892,-0.30109 20.5023,-0.93795 l 0.43603,-0.063 c 20.2401,-3.95896 5.63563,-11.06249 -2.7432,-11.09477 -7.17602,-0.0278 -15.79483,1.99073 -18.19513,1.23534 -7.56496,-2.38125 -11.44958,-6.02721 -21.07115,-7.19376 l -2.79797,-0.33522 -2.38839,-0.11272 C 79.844444,130.59684 51.947571,130.50397 35.320096,132.677 Z"
       fill="#000000"
       id="path2460"
       style="stroke-width:0.264583" />
    <path
       d="m 60.671942,40.688518 c -0.138906,-0.0045 -0.278077,-0.0042 -0.416983,5.29e-4 -3.425561,0.117475 -6.114257,2.962275 -6.052344,6.378575 l 0.0029,0.103716 0.04207,1.280054 c 0.120121,3.844925 0.186531,7.674505 0.198438,11.489002 l 0.02064,11.736652 c 0.0048,4.224338 0.0021,8.036454 -0.01032,11.76999 l -0.01693,3.959489 C 54.372743,100.0118 54.19335,108.85868 53.859975,112.70942 l -0.06429,0.7202 c -0.402432,4.70641 -0.485511,11.46598 -0.247121,20.26338 0.0029,0.10186 0.0079,0.20346 0.01561,0.3048 0.263525,3.56685 3.3401,6.25342 6.899011,6.04811 l 0.10795,-0.007 1.182952,-0.0857 c 11.055614,-0.78899 22.111229,-1.18348 33.167108,-1.18348 10.821455,0 21.725995,0.37809 32.713345,1.13374 0.31777,0.0217 0.63686,0.0238 0.95488,0.006 4.16587,-0.23575 7.36151,-3.77031 7.19403,-7.92533 l -0.006,-0.12621 -0.0833,-1.49833 c -0.7374,-13.49904 -1.11946,-26.99756 -1.14565,-40.496333 l -0.002,-1.499923 c 0,-9.838531 0.46091,-23.331752 1.38192,-40.486012 0.0103,-0.192087 0.0124,-0.384439 0.007,-0.577056 -0.11589,-3.723746 -3.19829,-6.656388 -6.9096,-6.601354 l -0.11245,0.0029 -5.61763,0.170127 c -12.76218,0.376502 -22.05487,0.573088 -27.884172,0.590021 l -0.999332,0.0011 -1.027906,-0.0024 C 87.433487,41.434643 78.22149,41.230649 65.742681,40.848061 Z"
       fill="#ffffff"
       id="path2462"
       style="stroke-width:0.264583" />
    <path
       fill-rule="evenodd"
       clip-rule="evenodd"
       d="m 128.47724,40.338474 c -0.45006,0.246592 -1.04299,0.420158 -1.77906,0.520171 1.89468,0.16801 3.38402,0.128852 4.46855,-0.118004 l -0.23468,-0.02884 c -0.76333,-0.09657 -1.58195,-0.220927 -2.45481,-0.373327 z"
       fill="#ffffff"
       id="path2464"
       style="stroke-width:0.264583" />
    <path
       fill-rule="evenodd"
       clip-rule="evenodd"
       d="m 57.223363,131.17337 0.05292,0.002 c 0.327555,0.0228 0.558271,0.27834 0.528109,0.56065 -0.0344,0.32332 -0.379677,0.63659 -0.756709,0.66252 -0.299508,0.0206 -0.507735,-0.21008 -0.474397,-0.5678 0.03466,-0.37518 0.328877,-0.6559 0.650081,-0.65749 z"
       fill="#ffffff"
       id="path2466"
       style="stroke-width:0.264583" />
    <path
       fill-rule="evenodd"
       clip-rule="evenodd"
       d="m 63.220144,136.07954 0.05265,0.002 c 0.32729,0.0225 0.558271,0.27834 0.528373,0.56065 -0.03466,0.32305 -0.379677,0.63632 -0.756708,0.66225 -0.299773,0.0206 -0.507736,-0.20981 -0.474398,-0.56753 0.03466,-0.37544 0.328877,-0.65617 0.650081,-0.65749 z"
       fill="#ffffff"
       id="path2468"
       style="stroke-width:0.264583" />
    <path
       fill-rule="evenodd"
       clip-rule="evenodd"
       d="m 94.986548,135.75701 c -13.007711,2.871 11.415972,2.36353 20.943882,1.73488 5.18531,-0.34238 9.32577,2.2479 11.70332,2.41141 0.31776,0.0217 0.63685,0.0238 0.95488,0.006 4.16587,-0.23575 7.3615,-3.77031 7.19402,-7.92533 l -0.006,-0.12621 -0.0833,-1.49833 c -0.73739,-13.49878 -1.11945,-26.99756 -1.14564,-40.496333 l -0.002,-1.499923 c 0,-9.838531 0.4609,-23.331752 1.38192,-40.486012 0.0103,-0.192087 0.0127,-0.384439 0.007,-0.576792 -0.11589,-3.72401 -7.25117,81.01991 -40.947972,88.45682 z"
       fill="#ffffff"
       id="path2470"
       style="stroke-width:0.264583" />
    <path
       d="m 133.56756,132.28674 0.046,0.002 c 0.23706,0.019 0.431,0.26591 0.40322,0.56727 -0.0312,0.33364 -0.31882,0.63367 -0.60616,0.65643 -0.20161,0.0159 -0.372,-0.20109 -0.3421,-0.57388 0.031,-0.38153 0.26961,-0.64585 0.499,-0.65167 z"
       fill="#ffffff"
       id="path2472"
       style="stroke-width:0.264583" />
    <path
       fill-rule="evenodd"
       clip-rule="evenodd"
       d="m 133.4858,134.46346 c -0.84666,0.0667 -1.44171,-0.69056 -1.36789,-1.60178 0.0714,-0.88583 0.74586,-1.58883 1.55628,-1.5248 0.79666,0.063 1.36816,0.79005 1.29222,1.60735 -0.073,0.78475 -0.7194,1.45891 -1.48061,1.51923 z m 0.1278,-2.17487 -0.046,-0.002 c -0.22913,0.006 -0.46805,0.2704 -0.499,0.65193 -0.0299,0.37253 0.14049,0.58949 0.3421,0.57362 0.28734,-0.0228 0.57494,-0.32279 0.60616,-0.65617 0.0278,-0.30162 -0.16616,-0.54848 -0.40322,-0.56753 z"
       fill="#ffffff"
       id="path2474"
       style="stroke-width:0.264583" />
    <path
       d="m 125.511,46.186295 c 3.01043,0 5.45094,2.440516 5.45094,5.45121 0,0.112448 -0.003,0.22516 -0.0103,0.337608 l -0.0802,1.335352 c -0.14632,2.534444 -0.29263,5.543815 -0.43815,9.027584 l -0.0222,0.557741 c -0.35586,9.371806 -0.36724,31.54336 -0.0339,66.5144 0.0288,3.01043 -2.38839,5.47396 -5.39855,5.5028 -0.0733,5.3e-4 -0.14685,0 -0.22014,-0.002 l -59.802445,-1.8452 c -2.768864,-0.0852 -5.033698,-2.23415 -5.263885,-4.99481 l -0.05054,-0.62336 c -0.787664,-9.92743 -0.83476,-22.60335 -0.140758,-38.028294 l 0.1016,-2.211652 c 0.354277,-8.117152 0.382323,-19.938735 0.08361,-35.465279 -0.05741,-2.978414 2.285471,-5.44486 5.251186,-5.552016 l 0.146314,-0.0034 z"
       fill="#ffffff"
       id="path2476"
       style="stroke-width:0.264583" />
    <path
       fill-rule="evenodd"
       clip-rule="evenodd"
       d="m 85.303327,110.4684 c 2.641865,0.11139 5.355167,-0.35719 7.708106,-1.5068 2.946665,-1.43986 5.163873,-3.85551 6.391275,-7.31943 1.616872,-4.562214 1.022882,-9.49537 -1.301221,-13.837182 -2.068248,-3.864769 -5.320506,-6.805877 -8.318235,-7.532952 0,0 8.318235,11.701198 7.126817,18.098029 C 95.087883,108.15039 85.303327,110.4684 85.303327,110.4684 Z"
       fill="#ffffff"
       id="path2478"
       style="stroke-width:0.264583" />
    <path
       fill-rule="evenodd"
       clip-rule="evenodd"
       d="m 87.224202,96.726473 c 1.285875,0.5334 1.678517,1.524265 1.17766,2.972858 l -0.02857,0.08096 c -3.256227,8.940009 -7.095595,9.021499 -3.81,0 0.397934,-1.092729 0.299244,-1.931194 -0.296333,-2.515129 1.052248,-0.213519 2.038085,-0.393171 2.957248,-0.538692 z"
       fill="#ffffff"
       id="path2480"
       style="stroke-width:0.264583" />
    <path
       fill-rule="evenodd"
       clip-rule="evenodd"
       d="m 66.832236,86.275961 c 0.842168,-2.502694 2.072216,-4.384411 4.371445,-5.872163 l 0.2921,-0.185208 c 0.496094,-0.311415 1.107546,-0.66384 1.604698,-0.423069 0.63209,0.306123 1.547019,1.421077 0.990336,1.858963 -0.377561,0.297127 -1.931459,0.612775 -3.102769,1.638829 -1.382977,1.211527 -2.378075,3.163623 -2.378075,3.641725 0,1.559454 -2.275417,0.81915 -1.777735,-0.659077 z"
       fill="#ffffff"
       id="path2482"
       style="stroke-width:0.264583" />
    <path
       fill-rule="evenodd"
       clip-rule="evenodd"
       d="m 64.226354,50.600867 c -2.89216,7.940675 -2.872316,9.516269 -3.045618,8.14758 -0.561446,-4.42648 -0.98478,-7.335044 -0.317765,-9.102196 0.844285,-2.236788 2.960423,-2.67679 3.505729,-2.417233 1.152261,0.54901 -0.142346,3.371849 -0.142346,3.371849 z"
       fill="#ffffff"
       id="path2484"
       style="stroke-width:0.264583" />
    <path
       fill-rule="evenodd"
       clip-rule="evenodd"
       d="m 111.80637,91.409142 -0.96202,-0.02937 c -1.14168,-0.02884 -1.96427,-0.02223 -2.65456,0.03175 -0.55431,0.04339 -0.96812,0.118798 -1.20227,0.193146 l -0.0466,0.01535 -0.005,0.02196 c -0.0259,0.129382 -0.0444,0.302684 -0.0526,0.512234 l -0.002,0.0799 c -0.0156,0.62865 0.0603,1.468702 0.2114,2.406385 0.12382,0.769144 0.29263,1.568186 0.46937,2.24155 l 0.0442,0.165365 c 0.0683,0.251354 0.13415,0.4699 0.19209,0.640027 l 0.0209,0.06033 0.0251,0.0098 c 0.35454,0.125942 1.05913,0.140759 2.41803,0.04048 l 0.92313,-0.07197 c 0.62177,-0.04577 1.07473,-0.06535 1.52188,-0.0598 l 4.33758,0.09075 c 0.60695,0.01138 1.15491,0.02037 1.69227,0.02725 l 0.9742,0.01111 c 2.43337,0.141552 5.10778,0.03519 5.4401,-0.570442 1.01494,-1.847321 1.49331,-5.651764 1.01494,-5.677164 -0.86095,-0.04577 -1.90288,-0.100013 -2.39792,-0.0934 l -1.14273,0.0209 -1.03664,0.0082 c -0.47308,0.0026 -0.96653,0.0042 -1.49649,0.0048 l -5.94465,-0.01376 c -0.3863,-0.0026 -0.76491,-0.01217 -1.44701,-0.0344 z"
       fill="#ffffff"
       id="path2486"
       style="stroke-width:0.264583" />
    <path
       fill-rule="evenodd"
       clip-rule="evenodd"
       d="m 66.224752,39.499216 -5.510477,-0.172773 c -0.169069,-0.0056 -0.338402,-0.0053 -0.507735,5.29e-4 -4.211902,0.144727 -7.509404,3.676914 -7.364413,7.889081 l 0.04181,1.277937 c 0.04948,1.577975 0.124618,3.153569 0.199495,4.726517 0.12753,2.670969 0.25453,5.334529 0.25453,7.990946 l 0.01746,9.633214 c 0.0172,13.434219 -0.02355,35.559473 -0.620183,41.967683 l -0.04498,0.50297 c -0.38788,4.54078 -0.736336,10.92914 -0.537105,19.16509 l 0.03202,1.24936 c 0.0032,0.12304 0.0093,0.2458 0.01852,0.3683 0.321733,4.35346 4.11136,7.62159 8.464814,7.29986 l 1.1811,-0.0857 0.195792,-0.014 c 0.03942,0.0659 0.07911,0.13203 0.118798,0.19685 0.191294,0.31618 0.370152,0.61092 0.411427,0.75592 0.10504,0.36512 0.115887,0.77893 0.0553,1.71476 l -0.06112,0.87736 -0.01667,0.28495 c -0.08943,1.74917 0.112713,2.78951 0.965994,3.5732 1.097227,1.00754 2.259806,0.90064 4.641585,0.68157 l 0.106892,-0.01 0.61304,-0.0595 c 0.708818,-0.0683 1.505479,-0.013 2.048668,0.0246 h 2.65e-4 c 0.156369,0.0111 0.291571,0.0204 0.397669,0.0249 l 0.200289,0.01 c 1.366838,0.0545 1.583796,-0.39529 1.703388,-1.50733 0.06615,-0.61278 -0.01984,-1.09485 -0.379942,-2.33892 l -0.269346,-0.91704 -0.08943,-0.31883 c -0.420423,-1.55416 -0.382058,-2.32992 0.165629,-2.70536 0.133086,-0.0908 0.688446,-0.25585 1.328738,-0.44635 0.658812,-0.19632 1.407848,-0.41884 1.8796,-0.61542 6.351323,-0.26088 12.702645,-0.39159 19.053968,-0.39159 6.673328,0 13.378398,0.1442 20.115478,0.4326 -0.0447,0.0728 -0.0529,0.1778 -0.005,0.32464 0.0532,0.16563 0.25585,0.28019 0.51515,0.42677 0.68659,0.38841 1.769,1.00039 1.51738,3.37741 l 8e-4,0.0976 c 0.0378,1.87378 1.17395,2.97286 3.0009,3.34592 1.22158,0.2495 2.61144,0.17436 4.12485,-0.0884 0.7493,-0.12965 1.2319,-0.59822 1.46236,-1.31233 0.12726,-0.3945 0.17277,-0.74877 0.20267,-1.45389 0,0 -0.33338,-3.66474 1.52003,-4.03119 0.055,0.004 0.11006,0.008 0.16563,0.0114 0.21431,0.0148 0.42942,0.022 0.64426,0.0212 0.0291,0.007 0.0582,0.0143 0.0876,0.022 0.0889,0.0241 0.17384,0.0106 0.25004,-0.0294 0.0476,-0.002 0.0955,-0.004 0.14314,-0.007 4.95935,-0.28073 8.75215,-4.52861 8.47169,-9.4877 l -0.0833,-1.49727 c -0.76333,-13.97371 -1.14486,-27.94794 -1.14486,-41.921646 0,-9.516004 0.43286,-22.476354 1.29804,-38.881049 l 0.0815,-1.531938 c 0.0124,-0.230717 0.0151,-0.461433 0.008,-0.692414 -0.14023,-4.513528 -3.91293,-8.05868 -8.42645,-7.91845 l -2.86068,0.08784 c -14.17584,0.429948 -24.37606,0.653786 -30.600387,0.672042 l -0.996421,7.94e-4 c -5.811743,-0.004 -15.207891,-0.204242 -28.18782,-0.600323 z M 125.51417,141.12752 c -3.14986,-0.20346 -6.29258,-0.37544 -9.42869,-0.51673 1.50151,0.72893 2.03703,2.08968 2.06666,3.97193 l 7.9e-4,0.11086 c 0,1.21788 0.94748,2.01295 2.22171,2.27303 0.13335,0.0273 0.27014,0.0569 0.41011,0.0873 0.88026,0.19076 1.88647,0.40931 3.00249,0.22622 l 0.16933,-0.0288 c 0.77179,-0.2847 0.77179,-3.05753 0.77179,-3.05753 0.008,-0.22569 0.0164,-0.3728 0.0296,-0.55166 l 0.0169,-0.20108 c 0.0963,-1.00938 0.30718,-1.76345 0.73924,-2.31352 z m -61.628599,0.74772 c -0.07382,-0.25824 -0.179652,-0.48657 -0.315912,-0.68263 2.673614,-0.18071 5.347493,-0.33866 8.021108,-0.47307 -0.417777,0.46513 -0.456936,1.09405 -0.472281,1.8452 -0.01323,0.64717 0.117475,1.33562 0.392641,2.30532 l 0.0164,0.0579 0.251884,0.85699 c 0.308239,1.05833 0.400843,1.50098 0.374914,1.87192 l -0.0056,0.063 c -0.03731,0.34423 -0.47916,0.73263 -1.226079,0.68924 l -0.133615,-0.007 c -0.32041,-0.0487 -3.475566,0.007 -3.475566,0.007 -1.456796,0.14738 -2.158207,-0.0556 -2.872846,-0.71173 -0.479954,-0.44079 -0.608542,-1.22317 -0.514086,-2.72071 l 0.059,-0.84058 c 0.07408,-1.09908 0.06773,-1.61369 -0.07064,-2.15265 z m -3.6322,-101.186193 c 0.139171,-0.005 0.278077,-0.0053 0.417248,-5.29e-4 l 5.070475,0.159543 c 12.479073,0.382323 21.691335,0.586317 27.642079,0.611982 l 1.027906,0.0026 0.998802,-0.0011 c 5.829569,-0.01693 15.122529,-0.213519 27.884699,-0.590021 l 5.61737,-0.170127 0.11271,-0.0029 c 3.71105,-0.05503 6.79371,2.877608 6.9096,6.601618 0.006,0.192088 0.004,0.384705 -0.007,0.576792 -0.92101,17.153996 -1.38192,30.647216 -1.38192,40.486012 l 10e-4,1.499923 c 0.0265,13.49877 0.40851,26.99729 1.14591,40.49606 l 0.0833,1.49834 0.006,0.1262 c 0.16748,4.15502 -3.02842,7.68959 -7.19402,7.92533 -0.3183,0.018 -0.63712,0.0161 -0.95489,-0.006 -10.98761,-0.75565 -21.89215,-1.13347 -32.713343,-1.13347 -11.056143,0 -22.111758,0.39449 -33.167637,1.18321 l -1.182687,0.086 -0.10795,0.007 c -3.558911,0.20505 -6.63575,-2.48153 -6.899011,-6.04838 -0.0077,-0.10133 -0.0127,-0.20293 -0.01561,-0.3048 -0.23839,-8.79713 -0.15531,-15.55697 0.246856,-20.26338 l 0.06456,-0.71993 c 0.33311,-3.85101 0.512762,-12.69788 0.579437,-25.303156 l 0.01693,-3.959225 c 0.01217,-3.733536 0.01508,-7.545917 0.01006,-11.76999 L 54.443875,59.939997 C 54.431965,56.1255 54.365555,52.29592 54.245173,48.450731 l -0.0418,-1.27979 -0.0029,-0.103716 c -0.06191,-3.4163 2.626783,-6.2611 6.052079,-6.378575 z m 70.707249,10.947929 c 0,-3.010429 -2.44052,-5.450946 -5.45095,-5.450946 l -60.427653,2.65e-4 -0.14605,0.0032 c -2.965715,0.107156 -5.3086,2.573866 -5.25145,5.552281 0.298714,15.526279 0.270933,27.347862 -0.08334,35.465014 l -0.1016,2.211917 c -0.694002,15.424413 -0.646906,28.100593 0.140494,38.028023 l 0.0508,0.62336 c 0.230187,2.76067 2.495021,4.90961 5.263885,4.99481 l 59.802444,1.8452 c 0.0733,0.002 0.14684,0.003 0.21987,0.002 3.01043,-0.0286 5.4274,-2.49211 5.39882,-5.50254 -0.33337,-34.971034 -0.32226,-57.142323 0.0339,-66.514129 l 0.0222,-0.558007 c 0.14552,-3.483768 0.29184,-6.492875 0.43815,-9.027318 l 0.0802,-1.335617 c 0.007,-0.112183 0.0103,-0.224896 0.0103,-0.337608 z M 65.134404,47.548634 h 60.375266 c 2.25796,0 4.08808,1.830388 4.08808,4.088342 0,0.0844 -0.002,0.169069 -0.008,0.253471 -0.14288,2.2987 -0.28469,5.042429 -0.42677,8.232775 l -0.0929,2.157412 c -0.3601,8.609542 -0.39503,29.227198 -0.10557,61.885246 l 0.0484,5.25674 c 0.0214,2.25769 -1.79123,4.10554 -4.04919,4.12697 -0.0548,5.3e-4 -0.1098,0 -0.16483,-0.002 l -59.802449,-1.84467 -0.09022,-0.004 c -2.035439,-0.10716 -3.687498,-1.70207 -3.857625,-3.74227 -0.839258,-10.05602 -0.89535,-23.04706 -0.165894,-38.964657 l 0.06826,-1.4732 C 61.2953,79.859815 61.344248,68.876167 61.098979,54.559299 l -0.05186,-2.843742 c -0.04339,-2.25716 1.751277,-4.122737 4.008702,-4.166129 0.02619,-5.29e-4 0.05239,-7.94e-4 0.07858,-7.94e-4 z m -2.08862,-4.179094 c 0.08625,0.926571 -0.585259,1.67005 -1.489869,1.607609 -0.827088,-0.05715 -1.554692,-0.71755 -1.639623,-1.512888 l -0.005,-0.05821 c -0.05265,-0.791633 0.553773,-1.464469 1.367102,-1.550723 l 0.06165,-0.0053 c 0.867304,-0.0598 1.622689,0.626005 1.705769,1.519502 z m -1.6002,-0.569118 -0.05265,0.0021 c -0.327289,0.02249 -0.55827,0.278342 -0.528108,0.560652 0.0344,0.323057 0.379677,0.636323 0.756444,0.662253 0.299773,0.02064 0.508,-0.209815 0.474662,-0.567532 -0.03493,-0.375443 -0.328877,-0.656166 -0.650345,-0.657489 z m -4.822561,7.794889 c -0.943239,0.08334 -1.578769,-0.823912 -1.500187,-1.911614 0.07699,-1.066536 0.809096,-1.923521 1.716087,-1.843352 l 0.05847,0.0066 c 0.832908,0.108215 1.408377,0.927629 1.361281,1.845998 l -0.0042,0.06429 c -0.07779,0.938741 -0.781844,1.762389 -1.631421,1.83806 z m 0.14605,-2.803789 -0.04657,-0.0021 c -0.28919,0.0034 -0.607219,0.394229 -0.64823,0.962819 -0.04101,0.567531 0.2032,0.915987 0.464344,0.892704 0.354277,-0.03149 0.723371,-0.463286 0.764911,-0.966523 0.03942,-0.476515 -0.228865,-0.859367 -0.534459,-0.886883 z M 127.23449,43.36954 c -0.0862,0.926571 0.58526,1.67005 1.48987,1.607609 0.82709,-0.05715 1.55469,-0.71755 1.63962,-1.512888 l 0.005,-0.05821 c 0.0526,-0.791633 -0.55377,-1.464469 -1.36736,-1.550723 l -0.0614,-0.0053 c -0.8673,-0.0598 -1.62269,0.626005 -1.70577,1.519502 z m 1.6002,-0.569118 0.0524,0.0021 c 0.32755,0.02249 0.55827,0.278342 0.52837,0.560652 -0.0344,0.323057 -0.37967,0.636323 -0.7567,0.662253 -0.29951,0.02064 -0.50774,-0.209815 -0.4744,-0.567532 0.0349,-0.375443 0.32887,-0.656166 0.65034,-0.657489 z m 3.47901,6.235435 c -0.50641,-0.751946 -0.19791,-1.705239 0.64743,-2.093912 0.81519,-0.374915 1.78647,-0.0635 2.16879,0.71755 l 0.0259,0.05583 c 0.33206,0.747712 0.0527,1.60946 -0.65907,1.959504 l -0.0529,0.02487 c -0.73131,0.324114 -1.66714,0.02434 -2.13016,-0.66384 z m 1.9648,-0.94615 -0.0246,-0.04683 c -0.16166,-0.277548 -0.55192,-0.391848 -0.89429,-0.234421 -0.3265,0.150283 -0.42201,0.445823 -0.25453,0.69506 0.21114,0.313532 0.65511,0.455613 0.95197,0.32385 0.25956,-0.114829 0.36565,-0.442648 0.22146,-0.737658 z M 55.949394,130.67886 c -0.661458,0.65432 -0.62521,1.65524 0.10795,2.1889 0.67019,0.48816 1.652323,0.44979 2.228585,-0.10477 l 0.04101,-0.0415 c 0.549275,-0.57256 0.51726,-1.47744 -0.0508,-2.0664 l -0.04339,-0.0439 c -0.626269,-0.60325 -1.645708,-0.56356 -2.283354,0.0677 z m 1.591469,0.59267 0.03916,0.0352 c 0.236273,0.22781 0.248708,0.57229 0.04419,0.76914 -0.234157,0.22516 -0.700088,0.24342 -1.005682,0.0212 -0.242358,-0.17701 -0.254,-0.48736 0.0016,-0.7403 0.268023,-0.26485 0.673629,-0.29078 0.92075,-0.0852 z m 4.512204,6.5024 c -0.732896,-0.53393 -0.769144,-1.53511 -0.10795,-2.18943 0.638175,-0.63103 1.65735,-0.67071 2.283619,-0.0675 l 0.04366,0.0436 c 0.567796,0.58896 0.59981,1.49437 0.05054,2.06693 l -0.04101,0.041 c -0.576527,0.55509 -1.558396,0.59346 -2.22885,0.1053 z m 1.522942,-1.56157 -0.03916,-0.0352 c -0.246856,-0.20558 -0.652727,-0.17965 -0.920485,0.0857 -0.255588,0.25267 -0.244475,0.56303 -0.0016,0.73977 0.305329,0.22252 0.771525,0.20426 1.005417,-0.0212 0.204523,-0.19685 0.191823,-0.54133 -0.04418,-0.76914 z m 65.582531,-0.31115 c -0.75962,0.76597 -0.77999,1.89256 0.0291,2.472 0.74083,0.53076 1.85023,0.42598 2.5138,-0.22727 0.68792,-0.67707 0.7075,-1.76636 0.0307,-2.42914 -0.68475,-0.67019 -1.83357,-0.56198 -2.57361,0.18441 z m 1.87616,0.4699 0.0389,0.036 c 0.28072,0.27491 0.27199,0.75089 -0.0413,1.05913 -0.33734,0.33205 -0.93107,0.38814 -1.28905,0.13123 -0.29051,-0.20769 -0.28231,-0.64637 0.0926,-1.02446 0.38047,-0.38391 0.9099,-0.44583 1.19882,-0.20188 z m 2.45005,-1.90791 c -0.84641,0.0667 -1.44172,-0.6903 -1.3679,-1.60179 0.0717,-0.88556 0.74586,-1.58882 1.55628,-1.52479 0.79666,0.063 1.36816,0.79004 1.29222,1.60734 -0.0728,0.78502 -0.7194,1.45891 -1.4806,1.51924 z m 0.12779,-2.17488 -0.0458,-0.002 c -0.2294,0.006 -0.46832,0.27014 -0.49927,0.65167 -0.0299,0.37253 0.14049,0.58949 0.3421,0.57388 0.28734,-0.023 0.57521,-0.32306 0.60616,-0.65643 0.0278,-0.30163 -0.16615,-0.54849 -0.40322,-0.56754 z"
       fill="#000000"
       id="path2488"
       style="stroke-width:0.264583" />
    <path
       fill-rule="evenodd"
       clip-rule="evenodd"
       d="m 61.946704,135.5845 c -0.661458,0.65432 -0.624945,1.65524 0.107686,2.18917 0.670454,0.48815 1.652323,0.44979 2.228585,-0.10504 l 0.04154,-0.0413 c 0.548746,-0.57229 0.516996,-1.4777 -0.0508,-2.06666 l -0.04339,-0.0436 c -0.626533,-0.60325 -1.645708,-0.56383 -2.283619,0.0675 z m 1.591469,0.59267 0.03942,0.0352 c 0.236008,0.22781 0.248444,0.57229 0.04418,0.76914 -0.23442,0.22543 -0.700087,0.24369 -1.005681,0.0212 -0.242887,-0.17674 -0.254,-0.4871 0.0016,-0.74004 0.267758,-0.26511 0.673629,-0.29104 0.920485,-0.0855 z"
       fill="#000000"
       id="path2490"
       style="stroke-width:0.264583" />
    <path
       d="m 131.0355,136.37137 0.0386,0.036 c 0.28045,0.27464 0.27199,0.75062 -0.0413,1.05913 -0.33761,0.33205 -0.9308,0.38814 -1.28931,0.13149 -0.28999,-0.20796 -0.28205,-0.64664 0.0926,-1.02499 0.381,-0.38365 0.9099,-0.44556 1.19936,-0.20162 z"
       fill="#ffffff"
       id="path2492"
       style="stroke-width:0.264583" />
    <path
       fill-rule="evenodd"
       clip-rule="evenodd"
       d="m 70.883536,77.877821 c -0.31459,0.109273 -0.598488,0.25744 -0.949061,0.47334 l -0.269346,0.169069 -0.13335,0.08493 c -2.032529,1.312069 -3.389312,2.943489 -4.354777,5.15276 l -0.05159,0.119592 -0.03863,-0.01164 c -0.256381,-0.07514 -0.48842,-0.111919 -0.736864,-0.09155 -0.529431,0.04392 -1.022615,0.361157 -1.198827,0.9525 -0.275432,0.923396 -0.161925,1.979348 0.195527,3.060171 l 0.06694,0.197908 c 0.348721,1.001978 0.734748,1.681957 1.376363,1.880659 0.852752,0.264054 3.799681,-0.904081 4.827323,-1.964267 0.732896,-0.755914 0.439473,-1.680898 -0.258234,-2.214562 l -0.06403,-0.04736 -0.0672,-0.04657 -0.07673,-0.04948 0.05133,-0.09155 c 0.03545,-0.06297 0.07276,-0.126736 0.111654,-0.191294 0.416984,-0.690827 0.937948,-1.344083 1.465527,-1.806575 0.203465,-0.178065 0.438415,-0.341313 0.706438,-0.493448 0.414602,-0.235744 2.068248,-0.885031 2.346854,-1.104106 0.894027,-0.702998 0.790575,-1.721644 0.224896,-2.604294 -0.351367,-0.54901 -0.904346,-1.063625 -1.438804,-1.322387 -0.561446,-0.271727 -1.148821,-0.255588 -1.735402,-0.05186 z m 1.200679,1.1557 c 0.631825,0.306123 1.546754,1.421077 0.990335,1.858963 -0.37756,0.296862 -1.931458,0.612775 -3.102769,1.638829 -1.383241,1.211527 -2.378339,3.163623 -2.378339,3.641725 l 0.157691,0.059 c 0.862542,0.332052 1.19089,0.603779 0.985573,0.81571 -0.914664,0.94324 -3.40016,1.703123 -3.584045,1.646238 -0.18124,-0.05609 -1.253861,-2.183342 -0.826294,-3.616854 0.05715,-0.191559 0.553508,-0.04604 1.489339,0.436827 0.842169,-2.502694 2.072482,-4.384411 4.371711,-5.872163 l 0.2921,-0.185208 c 0.496094,-0.311415 1.107281,-0.66384 1.604698,-0.423069 z"
       fill="#000000"
       id="path2494"
       style="stroke-width:0.264583" />
    <path
       fill-rule="evenodd"
       clip-rule="evenodd"
       d="m 72.743821,106.10119 c -5.048515,-5.51736 -5.340879,-14.929379 0.113242,-20.99019 3.388254,-3.765814 11.352741,-6.19125 16.92566,-4.838964 2.997729,0.727075 6.249723,3.668183 8.318235,7.532952 2.324102,4.341812 2.917562,9.274968 1.301221,13.837182 -1.227402,3.46392 -3.444875,5.87957 -6.39154,7.31943 -2.352675,1.14961 -5.065977,1.61819 -7.707841,1.5068 -4.767792,-0.20055 -10.69631,-2.33124 -12.558977,-4.36721 z M 96.899485,88.447925 c -1.899708,-3.54912 -4.859866,-6.226175 -7.438231,-6.851914 l -0.153194,-0.03572 c -5.083704,-1.153054 -12.416895,1.104371 -15.438172,4.461933 -4.973638,5.527675 -4.70588,14.148066 -0.120915,19.159006 1.582473,1.72958 7.173383,3.73883 11.610975,3.92563 2.429404,0.10239 4.919927,-0.32782 7.052468,-1.36949 2.632075,-1.2864 4.599517,-3.42953 5.705211,-6.55029 1.480608,-4.178297 0.933979,-8.718018 -1.218142,-12.739155 z m -2.625196,13.056655 c 3.015721,-5.294044 -1.072356,-16.725103 -6.7818,-17.67919 -5.367337,-0.896408 -7.401983,0.405606 -9.716558,2.412471 l -0.44741,0.392906 c -4.530196,4.004998 -4.530196,12.609248 -0.104511,16.601013 1.112309,1.0033 6.005513,3.57691 9.760479,2.78951 2.489465,-0.52203 5.954448,-2.17223 7.2898,-4.51671 z M 81.672715,85.318963 c 0.284162,-0.102129 0.583935,-0.186002 0.903287,-0.251354 -0.04313,0.09922 -0.07964,0.204523 -0.110067,0.315648 -0.169068,0.622564 -0.15187,1.154906 0.03069,2.450835 l 0.124883,0.858837 c 0.01058,0.07567 0.02011,0.144992 0.02937,0.216165 l 0.02752,0.218281 c 0.194204,1.640946 0.01799,2.496609 -0.715434,2.96889 -0.671512,0.4318 -1.331912,0.594783 -2.839772,0.770202 l -0.564621,0.06403 c -0.695854,0.08043 -1.061244,0.135731 -1.500717,0.23495 l -0.198967,0.03995 c -0.60907,0.128323 -1.114425,0.287338 -1.506802,0.487363 0.258763,-2.343944 1.218407,-4.573059 2.878932,-6.041232 1.566333,-1.384829 2.356379,-1.943364 3.4417,-2.332566 z m 5.595143,-0.149225 c -0.220398,-0.03704 -0.435239,-0.06985 -0.64426,-0.09922 0.04392,0.110861 0.08123,0.2286 0.111654,0.353219 0.127529,0.519906 0.149225,0.981075 0.118533,2.032794 l -0.01482,0.453231 c -0.01588,0.436562 -0.02381,0.696383 -0.02567,0.945885 l -2.65e-4,0.299244 c 0.01296,1.33006 0.221192,2.214033 0.732632,2.812785 l 0.05689,0.06377 0.02275,0.0095 c 0.03175,0.0127 0.07144,0.02725 0.119592,0.04339 l 0.05027,0.01614 c 0.116946,0.03731 0.264054,0.07911 0.452173,0.128588 l 0.314589,0.08017 1.34329,0.328878 c 0.263525,0.06562 0.49821,0.125412 0.723106,0.184679 l 0.369358,0.09975 c 1.110457,0.305858 1.961357,0.603779 2.580746,0.936095 -0.924719,-4.139406 -3.470275,-8.214518 -6.310577,-8.688916 z m 6.459273,11.733741 c 0.07646,-0.04895 0.14896,-0.09869 0.217488,-0.14896 0.03334,1.544108 -0.225425,2.9718 -0.85434,4.075641 -0.902758,1.58512 -3.410744,3.0943 -5.859462,3.73327 0.06191,-0.1561 0.111918,-0.3257 0.150812,-0.50773 0.118798,-0.55907 0.137848,-1.1991 0.09128,-2.10582 l -0.02963,-0.48763 -0.04445,-0.64188 c -0.08387,-1.281641 -0.06377,-1.818216 0.04815,-1.946803 0.502708,-0.57785 1.199092,-0.799042 2.9718,-1.053306 l 0.410898,-0.05847 c 1.481931,-0.216429 2.176727,-0.399257 2.897452,-0.858309 z m -10.415852,6.996381 c 0.01879,0.22992 0.09525,0.4646 0.219075,0.68606 -0.628385,-0.13282 -1.282435,-0.32358 -1.948656,-0.56753 -1.490663,-0.54557 -2.935817,-1.33932 -3.444875,-1.79837 -1.61634,-1.45786 -2.546879,-3.658397 -2.79109,-5.975618 0.418571,0.192882 0.972344,0.355865 1.659732,0.518848 l 0.106098,0.02461 c 0.277283,0.06456 0.561181,0.124355 0.896143,0.1905 l 0.956998,0.186003 c 2.142331,0.440002 3.248554,0.950383 3.753908,1.63195 l 0.0508,0.07091 c 0.334963,0.488421 0.427303,1.040871 0.45429,2.475977 l 0.01535,1.02182 c 0.01191,0.61198 0.03069,1.01785 0.07223,1.53485 z m 1.611577,-18.774308 0.06165,0.0053 c 0.578379,0.06906 0.700617,0.605367 0.632354,2.6289 l -0.02302,0.701146 c -0.0056,0.211667 -0.0079,0.382058 -0.0079,0.568589 7.94e-4,1.268678 0.152665,2.25425 0.560652,3.043238 -0.07594,-0.04022 -0.163248,-0.06323 -0.255323,-0.06323 l -0.09287,0.0011 -0.02302,7.94e-4 -0.01032,-0.0042 c -0.156633,-0.05821 -0.327819,-0.03969 -0.465931,0.04154 l -0.01429,0.0087 -0.04789,0.0079 c -1.188509,0.197908 -2.370138,0.90805 -3.003286,1.848643 -0.67945,1.008857 -0.645848,2.110052 0.129381,3.053292 -0.737658,-0.389467 -1.716352,-0.701675 -3.008047,-0.97446 l -0.416719,-0.08387 C 78.693008,95.861574 78.38715,95.802836 78.38715,95.802836 l -0.246327,-0.04842 c -0.238125,-0.04763 -0.448998,-0.09234 -0.651404,-0.138113 l -0.100542,-0.02302 c -0.615156,-0.142875 -1.100931,-0.28919 -1.440392,-0.442384 l -0.05424,-0.02487 c -0.104246,-0.04974 -0.187325,-0.09763 -0.246327,-0.14023 l -0.0079,-0.0061 0.01508,-0.01561 c 0.04207,-0.04154 0.105569,-0.0889 0.192617,-0.139171 0.297656,-0.171979 0.788458,-0.329407 1.461558,-0.459317 l 0.170127,-0.03651 c 0.299509,-0.06165 0.592667,-0.105569 1.050925,-0.160338 l 0.743479,-0.08467 c 1.691217,-0.197114 2.474119,-0.391583 3.3528,-0.956733 1.280848,-0.824177 1.525323,-2.113227 1.255184,-4.262967 l -0.02963,-0.226747 c -0.01534,-0.11139 -0.03175,-0.227278 -0.05371,-0.37518 l -0.0844,-0.581025 c -0.151606,-1.080029 -0.173567,-1.543579 -0.07408,-1.940189 l 0.0095,-0.03625 c 0.121708,-0.446881 0.431535,-0.63209 1.273439,-0.579438 z m -1.26656,12.877536 c 0.01588,0.02064 0.03201,0.04154 0.04736,0.06244 0.579438,0.78158 0.712259,1.471613 0.746125,3.233742 l 0.01349,0.93107 c 0.01005,0.58261 0.0254,0.96652 0.05847,1.41102 l 0.01217,0.15954 c 0.0254,0.31512 0.563033,0.81598 1.156758,0.70274 0.462756,-0.0884 0.641879,-0.84641 0.554831,-2.53339 l -0.01191,-0.2114 -0.06773,-0.99007 c -0.107157,-1.620841 -0.07329,-2.159268 0.296862,-2.628904 -0.887148,0.33364 -1.918494,0.317765 -2.806435,-0.136789 z m 4.237037,-0.886884 c 0.550069,-0.207962 1.250156,-0.34872 2.222236,-0.491066 l 0.527314,-0.07567 c 1.231371,-0.179917 1.827213,-0.327025 2.331508,-0.623094 l 0.09366,-0.05741 c 0.570706,-0.363538 0.62574,-0.436034 0.37174,-0.640821 l -0.08202,-0.06377 C 92.90851,94.826236 92.041735,94.488892 90.793696,94.138584 l -0.26379,-0.0725 c -0.284692,-0.07699 -0.577321,-0.152136 -0.922073,-0.237861 l -1.434306,-0.351895 c -0.270933,-0.06826 -0.487627,-0.125148 -0.66384,-0.177271 1.10834,1.172104 1.291696,2.491581 0.529961,3.618706 l -0.04313,0.06191 c -0.03307,0.04657 -0.06747,0.09207 -0.103188,0.136525 z m -2.437871,-3.982243 0.07752,-0.01085 0.05503,0.03307 c 1.782762,1.083733 2.179373,2.264833 1.520295,3.191404 -0.655902,0.921808 -2.096029,1.240366 -3.129491,0.585523 -1.198033,-0.75909 -1.397,-1.58459 -0.841111,-2.410354 0.4699,-0.697442 1.408642,-1.249098 2.31775,-1.388798 z"
       fill="#000000"
       id="path2496"
       style="stroke-width:0.264583" />
    <path
       d="m 103.42861,90.169834 c 0.0503,-0.18415 0.0992,-0.236273 0.0992,-0.237861 0.17383,-0.125677 0.53604,-0.253735 1.13718,-0.338666 0.58208,-0.08255 1.29354,-0.113507 2.07724,-0.11483 0.78052,-0.0016 1.61052,0.02567 2.42808,0.05371 0.0479,0.0019 0.0958,0.0034 0.14367,0.005 0.76253,0.02646 1.51315,0.05265 2.17699,0.05345 0.78264,7.93e-4 1.57798,0.0034 2.37887,0.0063 1.95792,0.0066 3.95049,0.01349 5.87772,-0.0063 0.0841,-0.0011 0.20558,-0.0037 0.35719,-0.0066 0.61462,-0.01296 1.72561,-0.03625 2.85829,2.65e-4 0.70511,0.02249 1.39726,0.068 1.96453,0.150018 0.28363,0.04127 0.52229,0.08943 0.70882,0.143669 0.19764,0.05768 0.28681,0.10795 0.31115,0.126471 0.0434,0.03281 0.13335,0.134144 0.22939,0.372798 0.0926,0.229394 0.17013,0.534723 0.22358,0.903817 0.10715,0.737923 0.10848,1.652852 0.003,2.554552 -0.1061,0.905668 -0.31433,1.750218 -0.59664,2.361141 -0.30586,0.661194 -0.58711,0.823384 -0.72072,0.837936 -3.3909,0.368564 -9.12072,0.242623 -13.68293,0.142875 -0.51144,-0.01111 -1.00806,-0.02196 -1.48537,-0.03202 -0.57256,-0.01164 -1.17131,0.02646 -1.74546,0.07117 -0.13917,0.01085 -0.27675,0.02196 -0.41195,0.03307 -0.43445,0.03493 -0.85011,0.06879 -1.25175,0.08572 -0.52572,0.02223 -0.98345,0.01297 -1.36525,-0.0508 -0.33602,-0.05636 -0.57467,-0.148696 -0.7411,-0.266965 -0.0185,-0.04048 -0.0429,-0.09948 -0.0725,-0.179387 -0.0728,-0.196321 -0.15954,-0.474663 -0.25215,-0.815181 -0.18521,-0.67945 -0.38259,-1.569509 -0.5289,-2.477559 -0.14711,-0.913077 -0.2376,-1.8161 -0.21987,-2.531268 0.009,-0.359305 0.0444,-0.642409 0.0998,-0.84455 z m 1.00198,6.902979 c 0,2.64e-4 -0.002,-0.0029 -0.006,-0.01032 0.004,0.0061 0.006,0.01005 0.006,0.01032 z"
       stroke="#000000"
       id="path2498"
       style="fill:none;stroke-width:0.264583" />
    <path
       fill-rule="evenodd"
       clip-rule="evenodd"
       d="m 111.47723,89.041121 c 0.78634,7.94e-4 1.58353,0.0037 2.38575,0.0063 1.64941,0.0058 3.31973,0.01138 4.95538,0.0011 l 0.90779,-0.0074 c 0.078,-5.29e-4 0.19341,-0.0032 0.33946,-0.0063 1.36498,-0.02858 5.39379,-0.113771 6.27962,0.558536 1.44939,1.100137 0.87233,8.02587 -1.19989,8.250766 -3.43879,0.373592 -9.21808,0.246592 -13.76759,0.146844 -0.51329,-0.01138 -1.01124,-0.02249 -1.48802,-0.03202 -0.66251,-0.01376 -1.37557,0.04392 -2.07936,0.101071 -1.57877,0.128058 -3.11229,0.252148 -3.92774,-0.440796 -0.42095,-0.357716 -2.04179,-7.164387 -0.77946,-8.09916 0.96467,-0.714375 3.73089,-0.618331 6.21612,-0.531813 0.61701,0.02117 1.21682,0.04207 1.76742,0.05001 l 0.001,-7.94e-4 5.3e-4,7.94e-4 c 0.13282,0.0019 0.26246,0.0026 0.38893,0.0029 z m -1.66184,1.32715 c 0.13414,0.0048 0.25664,0.0085 0.36962,0.01217 0.0918,0.564356 0.10213,1.55575 0.0362,3.016779 l -0.0484,1.055952 c -0.0431,0.986896 -0.0587,1.658408 -0.0304,2.148417 l -0.32067,-0.0066 c -0.44689,-0.0058 -0.90012,0.01402 -1.52189,0.05953 l -0.92286,0.07223 c -1.3589,0.100012 -2.06375,0.08546 -2.4183,-0.04075 l -0.0251,-0.0095 -0.0209,-0.06033 c -0.058,-0.170392 -0.12356,-0.388673 -0.19209,-0.640027 l -0.0442,-0.165629 c -0.17647,-0.673365 -0.34554,-1.472142 -0.46937,-2.241286 -0.15107,-0.937948 -0.22701,-1.777735 -0.2114,-2.406385 l 0.002,-0.0799 c 0.008,-0.20955 0.0267,-0.382852 0.0526,-0.512234 l 0.004,-0.02196 0.0463,-0.01561 c 0.23416,-0.07408 0.64823,-0.149755 1.20253,-0.192882 0.69004,-0.05398 1.51263,-0.06085 2.6543,-0.03175 l 0.96229,0.02937 z m 4.34392,6.317456 -2.63445,-0.0553 c -0.0143,-0.154252 -0.0243,-0.344487 -0.0281,-0.564091 l -5.3e-4,-0.04736 c -0.004,-0.345016 0.002,-0.674687 0.0265,-1.25386 l 0.0767,-1.703388 c 0.0466,-1.169987 0.0482,-2.019564 -0.0294,-2.657739 l 5.63721,0.01296 c 0.30189,-2.64e-4 0.59188,-0.0011 0.87313,-0.0019 -0.0863,1.69545 0.0511,4.6609 0.22728,6.317192 -0.47546,-7.94e-4 -0.96944,-0.0034 -1.48167,-0.0085 l -0.97446,-0.01085 c -0.53711,-0.0071 -1.08532,-0.01588 -1.69228,-0.02725 z m 5.53271,0.04207 c 2.09417,-0.01746 3.77534,-0.08546 5.07867,-0.214842 l 0.12198,-0.0127 0.0164,-0.0172 c 0.0693,-0.07858 0.15081,-0.205052 0.23363,-0.374914 l 0.0315,-0.06535 c 0.24448,-0.529431 0.43815,-1.300427 0.53817,-2.154502 0.099,-0.844815 0.0979,-1.700742 -2.7e-4,-2.377281 -0.0455,-0.311944 -0.10927,-0.568061 -0.1815,-0.747184 l -0.0201,-0.04815 -0.0153,-0.03175 -0.0545,-0.0172 c -0.14605,-0.04313 -0.34608,-0.0844 -0.59082,-0.121179 -0.48313,-0.0717 -1.1049,-0.119856 -1.8325,-0.145521 -0.67628,-0.02355 -1.36393,-0.02699 -2.13413,-0.01693 l -1.143,0.0209 -0.32464,0.0024 c -0.0106,0.18415 -0.0185,0.40349 -0.0214,0.649023 l -8e-4,0.0799 c -0.005,0.664104 0.0183,1.500981 0.0656,2.427552 l 0.01,0.186532 c 0.0392,0.72681 0.091,1.477962 0.14605,2.138362 l 0.0336,0.384704 c 0.0148,0.164571 0.0296,0.317236 0.0439,0.455348 z m -6.00128,-4.022196 0.12409,0.178065 c 0.14208,0.200025 0.27596,0.377031 0.40375,0.533135 -0.17145,0.373592 -0.26141,0.792692 -0.28972,1.332442 -0.0101,0.196585 0.14076,0.363802 0.33708,0.374385 0.19606,0.01005 0.3638,-0.140758 0.37386,-0.337079 0.0164,-0.310885 0.0545,-0.567531 0.12223,-0.795073 0.39397,0.344752 0.73899,0.472546 1.10147,0.479161 h 0.0701 c 0.19659,0 0.35586,-0.15928 0.35586,-0.355865 0,-0.184414 -0.13996,-0.335756 -0.31961,-0.354012 l -0.0362,-0.0019 h -0.0598 c -0.2323,-0.0053 -0.46619,-0.103188 -0.78528,-0.424921 0.10372,-0.144992 0.22913,-0.28919 0.37862,-0.442913 l 0.38179,-0.37756 c 0.1397,-0.138377 0.1405,-0.363802 0.002,-0.503238 -0.13864,-0.1397 -0.36406,-0.140758 -0.5035,-0.0024 l -0.31988,0.314854 c -0.15504,0.155311 -0.29157,0.3048 -0.41063,0.45429 l -0.12938,-0.175419 c -0.0669,-0.0926 -0.13679,-0.192087 -0.21035,-0.298979 -0.11139,-0.16219 -0.33284,-0.2032 -0.49503,-0.09207 -0.16193,0.111389 -0.2032,0.33311 -0.0918,0.495035 z m 9.71947,-0.338931 0.003,-0.217223 c 0.002,-0.196585 -0.15637,-0.357187 -0.35296,-0.359039 -0.19658,-0.0013 -0.35719,0.156633 -0.35877,0.353218 -0.002,0.216165 -0.007,0.40984 -0.0167,0.583142 -0.1823,-0.05741 -0.37889,-0.104775 -0.59452,-0.146844 l -0.4408,-0.08228 c -0.19314,-0.03651 -0.37967,0.09022 -0.41619,0.283104 -0.0365,0.19341 0.0902,0.379677 0.28311,0.41619 l 0.52784,0.09975 c 0.21008,0.04366 0.39423,0.09313 0.56171,0.155575 -0.0847,0.44503 -0.22384,0.656696 -0.41354,0.791105 l -0.0495,0.0336 -0.0294,0.02169 c -0.13838,0.115359 -0.16986,0.319353 -0.0667,0.472282 0.11006,0.162983 0.33126,0.20611 0.49397,0.09604 l 0.0582,-0.03916 c 0.29686,-0.208227 0.51118,-0.507206 0.64506,-1.013354 0.18335,0.150813 0.35851,0.342371 0.54583,0.591079 0.11827,0.156898 0.34158,0.188383 0.49848,0.07012 0.15689,-0.118534 0.18838,-0.341577 0.0701,-0.498475 -0.32517,-0.4318 -0.6342,-0.729192 -0.98531,-0.942975 0.0185,-0.200819 0.0307,-0.42254 0.0365,-0.667544 z"
       stroke="#000000"
       stroke-width="0.529167"
       mask="url(#path-24-inside-1_23_39)"
       id="path2503"
       style="fill:none" />
    <path
       fill-rule="evenodd"
       clip-rule="evenodd"
       d="m 107.88102,92.336507 -0.0558,0.210079 c -0.0651,0.236008 -0.13044,0.448204 -0.19685,0.638704 0.2884,0.2921 0.51673,0.655637 0.7276,1.153054 0.0767,0.18124 -0.007,0.389996 -0.18838,0.46699 -0.18097,0.07673 -0.39026,-0.0079 -0.46672,-0.188648 -0.12171,-0.286809 -0.24527,-0.51488 -0.38683,-0.705379 -0.25214,0.458522 -0.5326,0.696647 -0.871,0.826822 l -0.0659,0.02434 c -0.18467,0.06694 -0.38893,-0.02831 -0.45614,-0.21299 -0.063,-0.173302 0.0167,-0.363537 0.17939,-0.441854 l 0.0333,-0.01429 0.0561,-0.02037 c 0.21669,-0.0844 0.40296,-0.256381 0.59267,-0.668073 -0.14738,-0.100806 -0.31406,-0.193146 -0.50721,-0.286279 l -0.48789,-0.224631 c -0.1786,-0.08229 -0.25665,-0.293688 -0.17436,-0.472282 0.0823,-0.178593 0.29369,-0.256381 0.47228,-0.174095 l 0.40825,0.186266 c 0.1987,0.09313 0.37809,0.186796 0.54081,0.286544 0.0508,-0.166158 0.10319,-0.352425 0.15743,-0.56171 0.0489,-0.1905 0.24315,-0.305065 0.43338,-0.255853 0.19024,0.04895 0.3048,0.243417 0.25586,0.433653 z"
       fill="#69cb3a"
       id="path2505"
       style="stroke-width:0.264583" />
  </g>
</svg>
