<svg width="127" height="77" viewBox="0 0 127 77" fill="none" xmlns="http://www.w3.org/2000/svg">
<path fill-rule="evenodd" clip-rule="evenodd" d="M35.3596 16.1125C46.2224 -3.33315 85.5332 -2.70677 112.886 10.5655C118.11 13.1003 136.067 25.0474 118.393 32.0236C100.719 39 106.38 49.7157 92.117 62.4964C75.6223 77.2768 44.9047 84.8576 23.3013 64.9711C-31.607 14.4271 31.7019 22.6606 35.3596 16.1125Z" fill="#69CB3A"/>
<mask id="path-2-outside-1_23_81" maskUnits="userSpaceOnUse" x="0" y="0" width="127" height="59" fill="black">
<rect fill="white" width="127" height="59"/>
<path d="M25.3077 31.7756L20.5343 31.4846V41.5248C20.5343 42.8344 20.7302 43.7802 21.1218 44.3623C21.5624 44.9443 22.3458 45.2353 23.4718 45.2353C24.6468 45.2353 25.5281 45.2839 26.1155 45.3809C26.752 45.4294 27.4129 45.6476 28.0984 46.0357C29.2244 46.6662 29.7874 48.2911 29.7874 50.9103C29.7874 53.966 29.102 55.8334 27.7312 56.5124C26.9968 56.852 26.3359 57.0702 25.7484 57.1672C25.2098 57.2157 24.402 57.24 23.3249 57.24C18.2333 57.24 14.3656 56.1002 11.7218 53.8205C9.0781 51.5408 7.75623 47.6848 7.75623 42.2524V31.4846C6.82602 31.6301 5.82238 31.7028 4.7453 31.7028C3.66822 31.7028 2.76249 31.2905 2.02812 30.466C1.34271 29.6414 1 28.2348 1 26.2462C1 24.2575 1.1224 22.8267 1.36719 21.9536C1.61198 21.032 1.95468 20.3772 2.39531 19.9892C3.17864 19.3586 4.1578 19.0434 5.3328 19.0434L7.75623 19.3344V11.8406C7.75623 10.725 7.78071 9.90042 7.82967 9.36688C7.92758 8.83334 8.17237 8.2513 8.56404 7.62075C9.2005 6.40816 11.0854 5.80187 14.2187 5.80187C17.5479 5.80187 19.5307 6.69918 20.1671 8.49382C20.4119 9.26988 20.5343 10.5067 20.5343 12.2043V19.3344C22.6885 19.1404 24.3041 19.0434 25.3812 19.0434C26.5072 19.0434 27.3395 19.0919 27.878 19.1889C28.4655 19.2374 29.1265 19.4556 29.8609 19.8437C31.1338 20.4742 31.7702 22.3416 31.7702 25.4459C31.7702 28.5016 31.1093 30.369 29.7874 31.048C29.053 31.3875 28.3921 31.6058 27.8046 31.7028C27.2661 31.7513 26.4338 31.7756 25.3077 31.7756Z"/>
<path d="M62.1159 19.3344C63.0461 19.6254 63.8049 20.1347 64.3924 20.8623C65.0289 21.5413 65.3471 22.6569 65.3471 24.209C65.3471 25.7611 64.882 27.4588 63.9518 29.3019C63.0216 31.145 61.6753 32.0666 59.9128 32.0666C59.0315 32.0666 58.1747 31.8726 57.3425 31.4846C56.5591 31.0965 55.5065 30.9025 54.1847 30.9025C52.8628 30.9025 51.6143 31.3633 50.4394 32.2849C49.3133 33.2064 48.7503 34.322 48.7503 35.6316V50.9103C48.7503 52.0259 48.7013 52.8747 48.6034 53.4567C48.5545 53.9903 48.3342 54.6208 47.9425 55.3484C47.2081 56.6095 45.2987 57.24 42.2144 57.24C39.8644 57.24 38.1753 56.8277 37.1472 56.0032C36.3639 55.3241 35.9232 54.2813 35.8253 52.8747C35.8253 52.3896 35.8253 51.6863 35.8253 50.7648V25.2276C35.8253 24.112 35.8498 23.2874 35.8988 22.7539C35.9967 22.1719 36.217 21.5413 36.5597 20.8623C37.2451 19.5527 39.1545 18.8979 42.2878 18.8979C45.2253 18.8979 47.0612 19.4556 47.7956 20.5712C48.3341 21.3473 48.6034 22.1476 48.6034 22.9722C48.8482 22.6326 49.1909 22.2204 49.6315 21.7353C50.1211 21.2503 51.1248 20.5955 52.6425 19.7709C54.1602 18.9464 55.482 18.5341 56.6081 18.5341C57.7831 18.5341 58.7622 18.6068 59.5456 18.7523C60.3289 18.8494 61.1857 19.0434 62.1159 19.3344Z"/>
<path d="M69.3885 25.3003C69.3885 24.1848 69.4129 23.3602 69.4619 22.8267C69.5598 22.2446 69.7801 21.5898 70.1228 20.8623C70.8083 19.6012 72.7176 18.9706 75.8509 18.9706C78.2009 18.9706 79.8655 19.3829 80.8447 20.2075C81.677 20.8865 82.1176 21.9293 82.1665 23.3359C82.2155 23.821 82.24 24.5243 82.24 25.4459V50.9103C82.24 52.0259 82.191 52.8747 82.0931 53.4567C82.0442 53.9903 81.8238 54.6208 81.4322 55.3484C80.7957 56.6095 78.9108 57.24 75.7775 57.24C72.6931 57.24 70.8083 56.5852 70.1228 55.2756C69.7801 54.548 69.5598 53.9175 69.4619 53.384C69.4129 52.8504 69.3885 52.0016 69.3885 50.8375V25.3003ZM81.4322 11.8406C81.0895 12.5196 80.453 13.0047 79.5228 13.2957C78.5926 13.5867 77.3442 13.7322 75.7775 13.7322C74.2598 13.7322 73.0359 13.5867 72.1056 13.2957C71.1754 13.0047 70.5145 12.4954 70.1228 11.7678C69.7801 11.0403 69.5598 10.4097 69.4619 9.87617C69.4129 9.29413 69.3885 8.44531 69.3885 7.32973C69.3885 6.21414 69.4129 5.38958 69.4619 4.85604C69.5598 4.274 69.7801 3.64345 70.1228 2.9644C70.8083 1.6548 72.7176 1 75.8509 1C78.9353 1 80.7957 1.6548 81.4322 2.9644C81.8238 3.69196 82.0442 4.34676 82.0931 4.9288C82.191 5.46234 82.24 6.2869 82.24 7.40248C82.24 8.51807 82.191 9.36688 82.0931 9.94893C82.0442 10.4825 81.8238 11.113 81.4322 11.8406Z"/>
<path d="M113.222 22.9722C113.516 20.256 115.45 18.8979 119.023 18.8979C120.933 18.8979 122.353 19.0434 123.283 19.3344C124.213 19.6254 124.849 20.1347 125.192 20.8623C125.584 21.5898 125.804 22.2446 125.853 22.8267C125.951 23.3602 126 24.1848 126 25.3003V50.7648C126 51.8803 125.951 52.7292 125.853 53.3112C125.804 53.8447 125.608 54.4753 125.266 55.2029C124.58 56.4639 122.891 57.0945 120.198 57.0945C117.555 57.0945 115.768 56.7792 114.838 56.1487C113.956 55.4696 113.442 54.4995 113.295 53.2385C111.484 55.8091 108.448 57.0945 104.189 57.0945C99.9787 57.0945 96.0621 55.1786 92.4392 51.3468C88.8163 47.515 87.0048 43.0769 87.0048 38.0326C87.0048 32.9397 88.8163 28.5016 92.4392 24.7183C96.111 20.8865 100.126 18.9706 104.483 18.9706C106.147 18.9706 107.665 19.2616 109.036 19.8437C110.407 20.4257 111.362 20.9835 111.9 21.5171C112.439 22.0021 112.879 22.4871 113.222 22.9722ZM99.8563 38.1053C99.8563 39.7059 100.493 41.161 101.766 42.4706C103.039 43.7317 104.581 44.3623 106.392 44.3623C108.204 44.3623 109.697 43.7075 110.872 42.3979C112.096 41.0883 112.708 39.6574 112.708 38.1053C112.708 36.5047 112.12 35.0253 110.945 33.6672C109.819 32.3091 108.277 31.6301 106.319 31.6301C104.409 31.6301 102.843 32.3091 101.619 33.6672C100.444 35.0253 99.8563 36.5047 99.8563 38.1053Z"/>
</mask>
<path d="M25.3077 31.7756L20.5343 31.4846V41.5248C20.5343 42.8344 20.7302 43.7802 21.1218 44.3623C21.5624 44.9443 22.3458 45.2353 23.4718 45.2353C24.6468 45.2353 25.5281 45.2839 26.1155 45.3809C26.752 45.4294 27.4129 45.6476 28.0984 46.0357C29.2244 46.6662 29.7874 48.2911 29.7874 50.9103C29.7874 53.966 29.102 55.8334 27.7312 56.5124C26.9968 56.852 26.3359 57.0702 25.7484 57.1672C25.2098 57.2157 24.402 57.24 23.3249 57.24C18.2333 57.24 14.3656 56.1002 11.7218 53.8205C9.0781 51.5408 7.75623 47.6848 7.75623 42.2524V31.4846C6.82602 31.6301 5.82238 31.7028 4.7453 31.7028C3.66822 31.7028 2.76249 31.2905 2.02812 30.466C1.34271 29.6414 1 28.2348 1 26.2462C1 24.2575 1.1224 22.8267 1.36719 21.9536C1.61198 21.032 1.95468 20.3772 2.39531 19.9892C3.17864 19.3586 4.1578 19.0434 5.3328 19.0434L7.75623 19.3344V11.8406C7.75623 10.725 7.78071 9.90042 7.82967 9.36688C7.92758 8.83334 8.17237 8.2513 8.56404 7.62075C9.2005 6.40816 11.0854 5.80187 14.2187 5.80187C17.5479 5.80187 19.5307 6.69918 20.1671 8.49382C20.4119 9.26988 20.5343 10.5067 20.5343 12.2043V19.3344C22.6885 19.1404 24.3041 19.0434 25.3812 19.0434C26.5072 19.0434 27.3395 19.0919 27.878 19.1889C28.4655 19.2374 29.1265 19.4556 29.8609 19.8437C31.1338 20.4742 31.7702 22.3416 31.7702 25.4459C31.7702 28.5016 31.1093 30.369 29.7874 31.048C29.053 31.3875 28.3921 31.6058 27.8046 31.7028C27.2661 31.7513 26.4338 31.7756 25.3077 31.7756Z" fill="white"/>
<path d="M62.1159 19.3344C63.0461 19.6254 63.8049 20.1347 64.3924 20.8623C65.0289 21.5413 65.3471 22.6569 65.3471 24.209C65.3471 25.7611 64.882 27.4588 63.9518 29.3019C63.0216 31.145 61.6753 32.0666 59.9128 32.0666C59.0315 32.0666 58.1747 31.8726 57.3425 31.4846C56.5591 31.0965 55.5065 30.9025 54.1847 30.9025C52.8628 30.9025 51.6143 31.3633 50.4394 32.2849C49.3133 33.2064 48.7503 34.322 48.7503 35.6316V50.9103C48.7503 52.0259 48.7013 52.8747 48.6034 53.4567C48.5545 53.9903 48.3342 54.6208 47.9425 55.3484C47.2081 56.6095 45.2987 57.24 42.2144 57.24C39.8644 57.24 38.1753 56.8277 37.1472 56.0032C36.3639 55.3241 35.9232 54.2813 35.8253 52.8747C35.8253 52.3896 35.8253 51.6863 35.8253 50.7648V25.2276C35.8253 24.112 35.8498 23.2874 35.8988 22.7539C35.9967 22.1719 36.217 21.5413 36.5597 20.8623C37.2451 19.5527 39.1545 18.8979 42.2878 18.8979C45.2253 18.8979 47.0612 19.4556 47.7956 20.5712C48.3341 21.3473 48.6034 22.1476 48.6034 22.9722C48.8482 22.6326 49.1909 22.2204 49.6315 21.7353C50.1211 21.2503 51.1248 20.5955 52.6425 19.7709C54.1602 18.9464 55.482 18.5341 56.6081 18.5341C57.7831 18.5341 58.7622 18.6068 59.5456 18.7523C60.3289 18.8494 61.1857 19.0434 62.1159 19.3344Z" fill="white"/>
<path d="M69.3885 25.3003C69.3885 24.1848 69.4129 23.3602 69.4619 22.8267C69.5598 22.2446 69.7801 21.5898 70.1228 20.8623C70.8083 19.6012 72.7176 18.9706 75.8509 18.9706C78.2009 18.9706 79.8655 19.3829 80.8447 20.2075C81.677 20.8865 82.1176 21.9293 82.1665 23.3359C82.2155 23.821 82.24 24.5243 82.24 25.4459V50.9103C82.24 52.0259 82.191 52.8747 82.0931 53.4567C82.0442 53.9903 81.8238 54.6208 81.4322 55.3484C80.7957 56.6095 78.9108 57.24 75.7775 57.24C72.6931 57.24 70.8083 56.5852 70.1228 55.2756C69.7801 54.548 69.5598 53.9175 69.4619 53.384C69.4129 52.8504 69.3885 52.0016 69.3885 50.8375V25.3003ZM81.4322 11.8406C81.0895 12.5196 80.453 13.0047 79.5228 13.2957C78.5926 13.5867 77.3442 13.7322 75.7775 13.7322C74.2598 13.7322 73.0359 13.5867 72.1056 13.2957C71.1754 13.0047 70.5145 12.4954 70.1228 11.7678C69.7801 11.0403 69.5598 10.4097 69.4619 9.87617C69.4129 9.29413 69.3885 8.44531 69.3885 7.32973C69.3885 6.21414 69.4129 5.38958 69.4619 4.85604C69.5598 4.274 69.7801 3.64345 70.1228 2.9644C70.8083 1.6548 72.7176 1 75.8509 1C78.9353 1 80.7957 1.6548 81.4322 2.9644C81.8238 3.69196 82.0442 4.34676 82.0931 4.9288C82.191 5.46234 82.24 6.2869 82.24 7.40248C82.24 8.51807 82.191 9.36688 82.0931 9.94893C82.0442 10.4825 81.8238 11.113 81.4322 11.8406Z" fill="white"/>
<path d="M113.222 22.9722C113.516 20.256 115.45 18.8979 119.023 18.8979C120.933 18.8979 122.353 19.0434 123.283 19.3344C124.213 19.6254 124.849 20.1347 125.192 20.8623C125.584 21.5898 125.804 22.2446 125.853 22.8267C125.951 23.3602 126 24.1848 126 25.3003V50.7648C126 51.8803 125.951 52.7292 125.853 53.3112C125.804 53.8447 125.608 54.4753 125.266 55.2029C124.58 56.4639 122.891 57.0945 120.198 57.0945C117.555 57.0945 115.768 56.7792 114.838 56.1487C113.956 55.4696 113.442 54.4995 113.295 53.2385C111.484 55.8091 108.448 57.0945 104.189 57.0945C99.9787 57.0945 96.0621 55.1786 92.4392 51.3468C88.8163 47.515 87.0048 43.0769 87.0048 38.0326C87.0048 32.9397 88.8163 28.5016 92.4392 24.7183C96.111 20.8865 100.126 18.9706 104.483 18.9706C106.147 18.9706 107.665 19.2616 109.036 19.8437C110.407 20.4257 111.362 20.9835 111.9 21.5171C112.439 22.0021 112.879 22.4871 113.222 22.9722ZM99.8563 38.1053C99.8563 39.7059 100.493 41.161 101.766 42.4706C103.039 43.7317 104.581 44.3623 106.392 44.3623C108.204 44.3623 109.697 43.7075 110.872 42.3979C112.096 41.0883 112.708 39.6574 112.708 38.1053C112.708 36.5047 112.12 35.0253 110.945 33.6672C109.819 32.3091 108.277 31.6301 106.319 31.6301C104.409 31.6301 102.843 32.3091 101.619 33.6672C100.444 35.0253 99.8563 36.5047 99.8563 38.1053Z" fill="white"/>
<path d="M25.3077 31.7756L20.5343 31.4846V41.5248C20.5343 42.8344 20.7302 43.7802 21.1218 44.3623C21.5624 44.9443 22.3458 45.2353 23.4718 45.2353C24.6468 45.2353 25.5281 45.2839 26.1155 45.3809C26.752 45.4294 27.4129 45.6476 28.0984 46.0357C29.2244 46.6662 29.7874 48.2911 29.7874 50.9103C29.7874 53.966 29.102 55.8334 27.7312 56.5124C26.9968 56.852 26.3359 57.0702 25.7484 57.1672C25.2098 57.2157 24.402 57.24 23.3249 57.24C18.2333 57.24 14.3656 56.1002 11.7218 53.8205C9.0781 51.5408 7.75623 47.6848 7.75623 42.2524V31.4846C6.82602 31.6301 5.82238 31.7028 4.7453 31.7028C3.66822 31.7028 2.76249 31.2905 2.02812 30.466C1.34271 29.6414 1 28.2348 1 26.2462C1 24.2575 1.1224 22.8267 1.36719 21.9536C1.61198 21.032 1.95468 20.3772 2.39531 19.9892C3.17864 19.3586 4.1578 19.0434 5.3328 19.0434L7.75623 19.3344V11.8406C7.75623 10.725 7.78071 9.90042 7.82967 9.36688C7.92758 8.83334 8.17237 8.2513 8.56404 7.62075C9.2005 6.40816 11.0854 5.80187 14.2187 5.80187C17.5479 5.80187 19.5307 6.69918 20.1671 8.49382C20.4119 9.26988 20.5343 10.5067 20.5343 12.2043V19.3344C22.6885 19.1404 24.3041 19.0434 25.3812 19.0434C26.5072 19.0434 27.3395 19.0919 27.878 19.1889C28.4655 19.2374 29.1265 19.4556 29.8609 19.8437C31.1338 20.4742 31.7702 22.3416 31.7702 25.4459C31.7702 28.5016 31.1093 30.369 29.7874 31.048C29.053 31.3875 28.3921 31.6058 27.8046 31.7028C27.2661 31.7513 26.4338 31.7756 25.3077 31.7756Z" stroke="black" stroke-width="2" mask="url(#path-2-outside-1_23_81)"/>
<path d="M62.1159 19.3344C63.0461 19.6254 63.8049 20.1347 64.3924 20.8623C65.0289 21.5413 65.3471 22.6569 65.3471 24.209C65.3471 25.7611 64.882 27.4588 63.9518 29.3019C63.0216 31.145 61.6753 32.0666 59.9128 32.0666C59.0315 32.0666 58.1747 31.8726 57.3425 31.4846C56.5591 31.0965 55.5065 30.9025 54.1847 30.9025C52.8628 30.9025 51.6143 31.3633 50.4394 32.2849C49.3133 33.2064 48.7503 34.322 48.7503 35.6316V50.9103C48.7503 52.0259 48.7013 52.8747 48.6034 53.4567C48.5545 53.9903 48.3342 54.6208 47.9425 55.3484C47.2081 56.6095 45.2987 57.24 42.2144 57.24C39.8644 57.24 38.1753 56.8277 37.1472 56.0032C36.3639 55.3241 35.9232 54.2813 35.8253 52.8747C35.8253 52.3896 35.8253 51.6863 35.8253 50.7648V25.2276C35.8253 24.112 35.8498 23.2874 35.8988 22.7539C35.9967 22.1719 36.217 21.5413 36.5597 20.8623C37.2451 19.5527 39.1545 18.8979 42.2878 18.8979C45.2253 18.8979 47.0612 19.4556 47.7956 20.5712C48.3341 21.3473 48.6034 22.1476 48.6034 22.9722C48.8482 22.6326 49.1909 22.2204 49.6315 21.7353C50.1211 21.2503 51.1248 20.5955 52.6425 19.7709C54.1602 18.9464 55.482 18.5341 56.6081 18.5341C57.7831 18.5341 58.7622 18.6068 59.5456 18.7523C60.3289 18.8494 61.1857 19.0434 62.1159 19.3344Z" stroke="black" stroke-width="2" mask="url(#path-2-outside-1_23_81)"/>
<path d="M69.3885 25.3003C69.3885 24.1848 69.4129 23.3602 69.4619 22.8267C69.5598 22.2446 69.7801 21.5898 70.1228 20.8623C70.8083 19.6012 72.7176 18.9706 75.8509 18.9706C78.2009 18.9706 79.8655 19.3829 80.8447 20.2075C81.677 20.8865 82.1176 21.9293 82.1665 23.3359C82.2155 23.821 82.24 24.5243 82.24 25.4459V50.9103C82.24 52.0259 82.191 52.8747 82.0931 53.4567C82.0442 53.9903 81.8238 54.6208 81.4322 55.3484C80.7957 56.6095 78.9108 57.24 75.7775 57.24C72.6931 57.24 70.8083 56.5852 70.1228 55.2756C69.7801 54.548 69.5598 53.9175 69.4619 53.384C69.4129 52.8504 69.3885 52.0016 69.3885 50.8375V25.3003ZM81.4322 11.8406C81.0895 12.5196 80.453 13.0047 79.5228 13.2957C78.5926 13.5867 77.3442 13.7322 75.7775 13.7322C74.2598 13.7322 73.0359 13.5867 72.1056 13.2957C71.1754 13.0047 70.5145 12.4954 70.1228 11.7678C69.7801 11.0403 69.5598 10.4097 69.4619 9.87617C69.4129 9.29413 69.3885 8.44531 69.3885 7.32973C69.3885 6.21414 69.4129 5.38958 69.4619 4.85604C69.5598 4.274 69.7801 3.64345 70.1228 2.9644C70.8083 1.6548 72.7176 1 75.8509 1C78.9353 1 80.7957 1.6548 81.4322 2.9644C81.8238 3.69196 82.0442 4.34676 82.0931 4.9288C82.191 5.46234 82.24 6.2869 82.24 7.40248C82.24 8.51807 82.191 9.36688 82.0931 9.94893C82.0442 10.4825 81.8238 11.113 81.4322 11.8406Z" stroke="black" stroke-width="2" mask="url(#path-2-outside-1_23_81)"/>
<path d="M113.222 22.9722C113.516 20.256 115.45 18.8979 119.023 18.8979C120.933 18.8979 122.353 19.0434 123.283 19.3344C124.213 19.6254 124.849 20.1347 125.192 20.8623C125.584 21.5898 125.804 22.2446 125.853 22.8267C125.951 23.3602 126 24.1848 126 25.3003V50.7648C126 51.8803 125.951 52.7292 125.853 53.3112C125.804 53.8447 125.608 54.4753 125.266 55.2029C124.58 56.4639 122.891 57.0945 120.198 57.0945C117.555 57.0945 115.768 56.7792 114.838 56.1487C113.956 55.4696 113.442 54.4995 113.295 53.2385C111.484 55.8091 108.448 57.0945 104.189 57.0945C99.9787 57.0945 96.0621 55.1786 92.4392 51.3468C88.8163 47.515 87.0048 43.0769 87.0048 38.0326C87.0048 32.9397 88.8163 28.5016 92.4392 24.7183C96.111 20.8865 100.126 18.9706 104.483 18.9706C106.147 18.9706 107.665 19.2616 109.036 19.8437C110.407 20.4257 111.362 20.9835 111.9 21.5171C112.439 22.0021 112.879 22.4871 113.222 22.9722ZM99.8563 38.1053C99.8563 39.7059 100.493 41.161 101.766 42.4706C103.039 43.7317 104.581 44.3623 106.392 44.3623C108.204 44.3623 109.697 43.7075 110.872 42.3979C112.096 41.0883 112.708 39.6574 112.708 38.1053C112.708 36.5047 112.12 35.0253 110.945 33.6672C109.819 32.3091 108.277 31.6301 106.319 31.6301C104.409 31.6301 102.843 32.3091 101.619 33.6672C100.444 35.0253 99.8563 36.5047 99.8563 38.1053Z" stroke="black" stroke-width="2" mask="url(#path-2-outside-1_23_81)"/>
</svg>
