<svg width="720" height="720" viewBox="0 0 720 720" fill="none" xmlns="http://www.w3.org/2000/svg">
<path d="M720 0H0V720H720V0Z" fill="white"/>
<path fill-rule="evenodd" clip-rule="evenodd" d="M409.045 596.913C478.577 596.913 539.596 545.191 505.328 474.94C471.06 404.689 598.386 406.958 635.789 358.405C681.402 299.193 668.193 47.8451 375.372 201.079C328.467 225.625 208.001 175.826 168.042 200.535C121.006 229.621 54.8298 289.178 121.006 350.185C153.604 380.236 36.7348 458.235 87.921 528.102C137.866 596.274 172.877 531.286 248.916 545.191C324.957 559.096 357.405 596.913 409.045 596.913Z" fill="#69CB3A"/>
<path d="M328.341 474.696C328.341 474.696 344.351 467.165 350.328 461.926C356.305 456.686 363.735 443.669 363.735 443.669C363.735 443.669 445.357 502.617 498.578 494.208C510.84 492.271 534.733 484.119 536.257 469.759C540.418 430.544 482.852 420.522 495.427 400.636C503.102 388.498 526.946 406.564 526.946 406.564L625.843 455.209C625.843 455.209 591.677 539.429 508.764 542.804C406.769 546.956 328.341 474.696 328.341 474.696Z" fill="white"/>
<path fill-rule="evenodd" clip-rule="evenodd" d="M249.931 144.869C249.003 144.505 244.019 138.4 237.689 137.289C234.814 136.785 237.424 140.447 234.259 140.48C224.833 140.577 209.514 138.807 206.677 140.48C204.567 141.719 209.212 146.049 206.677 146.247C182.751 148.122 146.253 172.011 138.334 183.6C135.814 187.288 156.196 181.03 152.948 182.854C149.304 184.901 145.261 198.3 142.844 208.65C141.171 215.777 140.118 224.949 139.745 234.926C139.436 243.54 139.56 244.966 140.799 249.676C142.224 254.943 143.34 256.493 145.261 255.75C145.943 255.501 146.253 254.572 146.253 252.837C146.253 251.473 146.996 247.383 147.926 243.727L149.537 237.157L150.219 239.885C151.087 243.045 156.168 252.837 160.754 259.963C161.002 260.341 162.066 259.86 163.025 257.541C163.9 255.427 163.545 252.051 165.031 248.433C168.415 240.189 175.058 229.471 182.751 220.892C194.122 208.212 197.893 193.539 208.552 181.76C228.443 159.777 253.406 146.233 249.931 144.869Z" fill="white"/>
<path fill-rule="evenodd" clip-rule="evenodd" d="M153.231 185.844C150.04 188.41 145.305 209.221 145.223 209.57C143.55 216.696 141.937 241.446 143.585 246.131C145.235 250.817 149.851 233.926 149.851 233.926C149.851 233.926 156.828 252.045 162.995 257.013C163.258 257.225 155.666 234.596 153.231 221.385C150.017 203.946 155.047 184.384 153.231 185.844Z" fill="#EBEBEB"/>
<path fill-rule="evenodd" clip-rule="evenodd" d="M272.156 550.321C278.105 549.02 288.144 544.488 291.988 542.938C295.831 541.388 307.543 524.85 311.757 506.196C314.794 492.439 316.343 472.856 314.607 469.57C314.351 469.105 313.414 460.199 315.909 463.107C321.456 469.571 328.041 479.718 348.816 461.535C354.474 456.583 361.975 450.191 360 444.541C354.474 428.732 330.523 396.898 326.872 394.487C322.506 391.603 300.441 394.053 267.602 384.361C230.36 373.369 214.853 341.001 200.279 345.214C188.493 348.622 160.255 369.562 153.168 382.822C119.71 445.425 160.255 489.292 169.488 501.891L178.453 505.762L178.763 513.757L179.196 518.777C180.003 528.383 180.312 529.251 184.65 532.474C195.495 540.715 216.876 548.4 236.212 551.127C245.198 552.367 264.719 551.933 272.156 550.321Z" fill="white"/>
<path fill-rule="evenodd" clip-rule="evenodd" d="M181.98 510.831L182.412 515.85C183.219 525.457 183.528 526.324 187.866 529.547C194.265 534.409 204.329 539.077 215.477 542.649C223.226 545.13 231.499 547.083 239.428 548.2C248.414 549.44 267.936 549.006 275.372 547.395C279.048 546.598 248.812 522.844 230.999 529.547C217.32 534.694 185.079 495.431 198.188 485.173C212.893 473.666 185.947 428.281 185.079 418.427C184.212 408.574 180.795 406.22 180.695 406.566C180.595 406.911 180.595 408.09 180.864 410.931C182.02 423.174 181.98 510.831 181.98 510.831Z" fill="#EBEBEB"/>
<path fill-rule="evenodd" clip-rule="evenodd" d="M178.751 415.615C180.052 415.361 181.312 416.211 181.565 417.512C186.242 441.541 206.027 457.81 241.404 466.316C276.992 474.874 301.233 474.412 314.004 465.278C315.083 464.507 314.279 471.11 313.49 471.616C305.159 476.959 276.836 484.93 243.036 477.725C199.82 468.514 179.53 432.176 176.853 418.43C176.601 417.128 177.449 415.868 178.751 415.615Z" fill="#69CB3A"/>
<path fill-rule="evenodd" clip-rule="evenodd" d="M160.729 372.259C161.88 371.602 204.803 420.795 263.708 431.93C322.614 443.065 336.876 435.983 339.168 420.795C339.366 419.484 340.589 418.582 341.899 418.78C343.21 418.978 344.112 420.201 343.914 421.511C341.008 440.761 313.752 445.339 262.901 436.662C212.688 428.093 178.262 407.735 159.838 375.535C159.18 374.385 159.579 372.918 160.729 372.259Z" fill="#69CB3A"/>
<path fill-rule="evenodd" clip-rule="evenodd" d="M407.964 369.532C406.353 368.974 404.618 367.735 403.502 366.309L401.643 364.016L408.212 357.509C418.314 347.593 426.06 337.429 432.754 325.345C434.985 321.317 440.624 307.869 440.624 306.567C440.624 306.133 441.306 304.398 442.112 302.601C443.351 299.998 444.28 299.006 446.945 297.519C450.106 295.66 453.701 295.041 455.249 296.094C458.224 298.077 458.224 304.336 455.249 315.119C451.965 326.956 447.565 335.447 438.455 347.655C437.029 349.515 434.364 353.17 432.443 355.712C427.3 362.529 423.953 365.814 419.43 368.354C414.968 370.834 412.364 371.143 407.964 369.532ZM452.46 363.954L456.922 365.938C457.848 366.364 468.056 371.268 480.316 377.16C500.083 386.658 525.188 398.721 525.341 398.721C525.589 398.721 526.752 396.032 527.014 392.895C527.634 386.141 529.927 376.968 532.592 370.585C533.831 367.735 534.823 364.171 534.823 363.862C534.823 363.72 533.816 363.314 532.166 362.649C530.202 361.857 527.33 360.698 524.164 359.182C508.547 351.683 477.994 336.376 474.213 334.083C470.495 331.914 469.751 331.728 469.751 333.154C469.751 335.013 465.971 343.627 463.058 348.275C461.509 350.816 458.472 355.402 456.303 358.438L452.46 363.954ZM524.288 387.565C526.065 388.595 522.986 390.106 522.243 390.354C517.863 390.727 512.708 389.903 508.484 387.442C506.276 385.876 488.886 376.214 477.35 369.806C472.077 366.876 468.027 364.626 467.211 364.14C464.607 362.591 462.129 360.918 461.695 360.421C460.394 358.748 461.633 358.005 465.289 358.314C467.487 358.5 520.449 385.341 524.288 387.565ZM272.367 549.811C277.148 548.765 284.569 545.633 289.294 543.639C290.45 543.152 291.443 542.732 292.199 542.428C296.043 540.877 307.754 524.34 311.968 505.686C315.005 491.928 316.554 472.345 314.819 469.06C313.773 467.158 319.988 473.539 324.617 478.292C326.021 479.732 327.278 481.023 328.143 481.888C355.163 508.723 395.384 530.289 437.153 540.391C457.977 545.473 472.788 547.27 492.682 547.27C526.085 547.27 552.423 540.701 576.345 526.261C577.481 525.575 578.546 524.945 579.561 524.344C587.899 519.407 592.867 516.466 606.464 501.162C621.714 483.995 635.281 444.147 639.805 430.389C641.788 424.191 646.622 399.542 646.622 393.392C646.622 386.109 644.081 382.67 640.611 379.138C634.475 373.126 626.171 370.957 619.292 373.56L616.069 374.799L615.078 371.515C613.652 366.557 610.678 362.591 606.092 359.616C599.275 355.092 598.283 354.782 592.148 354.782C587.376 354.782 586.074 355.03 583.038 356.456L579.505 358.066L578.762 355.835C577.336 351.25 572.555 344.857 568.846 343.007C565.556 341.367 559.861 341.217 555.894 341.954C547.217 343.565 541.02 347.593 538.479 353.233C537.735 354.968 536.806 356.332 536.435 356.332C536.124 356.332 523.916 352.922 509.352 346.476C506.895 345.386 504.587 344.362 502.421 343.402C476.268 331.81 470.6 329.298 471.115 326.15C471.548 323.485 471.424 321.998 470.681 319.706C469.379 315.863 467.892 314.81 463.678 314.81C460.331 314.81 460.331 314.81 460.703 313.137C462.686 303.655 462.625 298.201 460.518 294.73C459.092 292.437 457.419 291.508 453.576 290.95C451.345 290.64 450.292 290.826 447.813 292.189C446.14 293.057 444.714 293.676 444.59 293.553C444.466 293.429 444.9 290.021 445.582 285.993C450.663 256.184 446.738 230.5 433.786 203.232C433.662 202.971 433.518 202.663 433.354 202.309C429.416 193.856 413.582 159.863 368.302 142.711C366.252 141.934 364.313 141.184 362.449 140.462C347.025 134.492 336.771 130.523 312.031 130.564C284.3 130.61 274.908 134.531 256.626 142.897C254.086 144.074 251.855 144.755 251.669 144.508C251.483 144.198 250.306 143.455 249.128 142.835C247.951 142.215 245.41 140.666 243.55 139.427C238.22 135.831 234.936 134.344 233.263 134.716C231.342 135.212 231.342 136.823 233.263 137.567C234.068 137.877 234.998 138.93 235.37 139.984C236.175 142.215 237.105 142.463 237.662 140.603C237.911 139.922 238.283 139.427 238.469 139.55C238.539 139.585 238.775 139.696 239.135 139.864C240.041 140.289 241.732 141.081 243.55 141.967C246.091 143.207 248.88 144.508 249.624 144.818C250.987 145.313 250.553 145.686 244.666 149.156C221.674 162.666 202.958 183.675 192.485 207.596C190.873 211.191 189.448 213.421 187.96 214.662C184.18 217.822 176.744 226.808 175.008 230.34C174.079 232.261 172.095 235.236 170.546 236.971C169.059 238.707 167.447 240.938 166.889 241.867C166.394 242.859 165.899 243.54 165.712 243.417C165.588 243.231 165.774 240.194 166.208 236.662C167.138 228.419 167.138 226.25 166.394 226.065C165.278 225.755 163.667 230.093 162.985 235.484C162.49 238.769 162.366 243.727 162.676 248.808L163.047 256.865L158.648 249.738C157.135 247.355 155.645 244.972 154.586 243.279V243.278H154.585V243.277L154.583 243.274L154.581 243.273V243.272V243.271L154.58 243.27L154.578 243.267C153.907 242.193 153.41 241.399 153.194 241.062C151.582 238.707 150.653 235.174 151.334 233.997C151.706 233.315 151.644 233.005 151.024 233.005C149.723 233.005 147.182 237.157 145.509 241.93C144.704 244.161 143.897 246.019 143.65 246.019C142.72 246.019 143.154 223.834 144.146 216.707C146.191 202.639 151.582 185.286 153.999 185.286C154.495 185.286 154.929 185.038 154.929 184.667C154.929 183.551 153.318 183.985 152.016 185.411C149.103 188.571 145.261 198.3 142.844 208.65C141.171 215.777 140.118 224.949 139.745 234.926C139.436 243.54 139.56 244.966 140.799 249.676C142.225 254.943 143.34 256.493 145.261 255.75C145.943 255.501 146.253 254.572 146.253 252.837C146.253 251.473 146.996 247.383 147.926 243.727L149.537 237.157L150.219 239.885C151.087 243.045 156.168 252.837 160.754 259.963C163.915 264.798 163.977 265.107 165.031 272.668C165.588 276.944 167.323 287.345 171.351 303.345C174.911 317.482 194.919 331.504 199.916 335.006L199.919 335.008C200.576 335.468 200.972 335.746 201.036 335.818C201.657 336.5 202.524 336.872 203.02 336.686C203.578 336.5 203.888 336.748 203.888 337.429C203.888 338.05 204.322 338.855 204.817 339.226C205.437 339.66 205.871 341.334 205.995 344.246C206.305 350.073 210.642 361.227 213.989 364.883C216.158 367.238 220.682 368.23 225.702 367.362C228.987 366.867 229.916 366.495 229.606 365.751C229.421 365.256 230.598 365.875 232.21 367.115C251.049 381.492 270.136 390.107 291.579 393.825C299.884 395.25 313.642 396.056 321.14 395.498C327.772 395.065 327.772 395.065 327.462 396.366C327.028 398.101 327.586 399.154 336.695 414.586C343.946 426.795 344.566 427.6 352.622 435.843C369.727 453.505 388.38 467.201 409.514 477.799C429.407 487.714 461.168 495.956 490.203 498.56C519.237 501.162 540.09 474.513 540.029 467.697C539.905 458.338 538.603 452.203 535.443 446.254C532.344 440.49 530.299 438.508 521.002 432.31C510.654 425.432 504.271 419.792 500.056 413.78C497.391 410 496.4 405.724 496.4 403.43C496.4 401.943 498.321 398.597 501.172 397.915C503.774 397.234 504.271 397.296 507.183 398.721C508.918 399.527 513.442 401.633 517.161 403.43C520.941 405.166 524.598 406.902 525.341 407.273C527.533 407.882 528.461 412.174 528.963 414.5C529.075 415.019 529.166 415.441 529.245 415.701C530.113 418.924 534.219 423.085 536.868 424.501C541.52 426.99 552.982 427.322 556.142 423.914C556.949 423.046 559.619 421.979 560.17 422.302C560.721 422.626 562.711 425.307 562.711 427.476C562.773 431.194 564.694 434.603 568.784 438.011C576.531 444.457 582.542 446.006 588.615 443.155C591.776 441.668 594.367 441.087 594.367 441.087C594.367 441.087 596.95 444.384 597.105 445.51C598.323 454.315 611.359 458.006 614.83 458.379C615.625 458.458 617.173 458.118 618.745 457.772C620.847 457.31 622.993 456.838 623.444 457.347C624.329 458.346 608.632 484.306 606.464 487.59C585.826 518.577 545.668 537.54 496.523 539.524C464.607 540.825 425.379 531.9 391.355 515.664C369.603 505.19 350.33 492.362 329.693 474.39C326.098 471.291 321.946 467.759 320.459 466.52C318.971 465.342 315.439 461.314 312.712 457.595C308.126 451.398 305.523 449.167 305.523 451.274C305.523 452.203 308.498 457.905 311.906 463.545C313.27 465.776 314.137 467.325 313.828 467.077C313.518 466.829 312.526 471.291 311.597 476.992C308.559 495.274 303.54 513.309 298.458 524.526C295.669 530.6 290.322 535.135 288.71 536.374C282.761 540.898 273.855 542.932 261.522 544.171C245.905 545.721 222.913 542.25 205.375 535.681C200.727 533.946 188.766 528.926 187.96 528.369C187.912 528.32 187.638 526.537 187.255 524.049C187.146 523.347 187.03 522.589 186.907 521.799C184.676 506.492 181.577 447.556 181.577 420.287C181.577 409.008 181.453 406.529 180.709 406.529C179.16 406.529 178.541 408.017 177.859 413.346C176.31 425.493 176.62 488.891 178.293 502.215L178.665 505.253L176.557 504.075C173.335 502.215 161.064 489.759 156.788 483.995C153.168 479.069 151.017 472.758 149.407 468.036C149.032 466.938 148.688 465.926 148.359 465.037C139.374 440.124 142.534 412.169 154.929 387.008C165.465 365.565 178.417 353.667 197.381 347.903C200.479 346.974 203.206 345.982 203.516 345.734C204.693 344.619 197.132 345.177 192.98 346.477C179.47 350.63 165.341 361.971 155.735 376.473C142.225 396.8 136.151 426.795 140.427 452.389C141.419 458.462 145.447 471.601 146.562 472.53C146.661 472.629 147.171 473.698 147.942 475.316C150.074 479.788 154.202 488.448 157.16 492.362C160.754 497.258 171.6 507.917 176.123 511.202L178.975 513.247L179.409 518.266C180.214 527.872 180.524 528.74 184.861 531.963C195.707 540.205 217.088 547.889 236.423 550.617C245.41 551.856 264.931 551.422 272.367 549.811ZM481.836 491.618C445.83 488.457 402.324 471.29 370.842 444.766C357.581 433.548 340.352 411.735 333.535 399.651C332.109 397.171 331.056 395.994 329.817 395.684C328.515 395.313 329.63 394.94 334.96 394.073C357.456 390.23 379.332 380.872 396.995 367.548L399.598 365.627L400.342 367.425C402.015 371.453 408.46 375.543 413.232 375.543C415.153 375.543 421.598 372.631 425.503 369.966L428.168 368.169L430.336 370.337C432.32 372.321 432.691 372.444 436.41 372.444C440.686 372.444 445.83 370.523 448.681 367.796L450.229 366.371L454.63 369.284C456.985 370.957 463.554 374.613 469.193 377.526C477.622 381.864 486.546 386.884 495.036 392.09L496.4 392.958L495.098 394.692C493.735 396.552 491.195 400.085 491.195 405.476C491.195 411.549 497.51 422.461 509.6 429.955C519.098 435.843 535.443 447.423 534.823 464.35C534.748 466.395 532.468 471.477 529.431 476.063C527.448 478.976 521.933 483.314 516.913 485.855C508.36 490.131 493.301 492.609 481.836 491.618ZM151.397 213.421C153.07 213.794 154.186 214.352 153.937 214.599C153.131 215.405 148.856 215.033 147.864 214.042C146.315 212.555 146.686 211.5 148.856 211.067C149.971 210.881 151.644 209.951 152.574 209.022C153.504 208.092 154.309 207.659 154.309 207.969C154.309 208.774 151.211 211.624 149.661 212.244C148.669 212.678 148.979 212.864 151.397 213.421ZM176.062 214.413C177.859 213.421 177.487 212.74 175.38 213.05C173.273 213.36 173.149 213.112 174.513 211.005C175.07 210.2 175.38 209.022 175.256 208.403C175.07 207.596 174.636 207.969 173.645 209.951C172.901 211.377 171.848 212.555 171.351 212.555C169.803 212.555 169.678 213.794 171.166 214.352C173.087 215.157 174.574 215.157 176.062 214.413ZM154.619 180.576C153.131 180.824 148.484 182.683 144.394 184.728C140.242 186.711 136.709 188.385 136.461 188.323C130.139 187.642 138.94 177.106 154.929 166.323C170.236 155.973 180.586 150.519 190.191 147.731C196.203 145.996 202.958 145.747 204.879 147.173C205.932 147.978 205.561 148.041 200.975 148.102C191.059 148.102 179.594 153.184 160.94 165.64C151.273 172.086 140.055 181.32 140.055 182.807C140.055 183.117 141.852 182.497 144.083 181.506C148.856 179.337 153.752 178.221 155.92 178.717C158.214 179.337 157.717 180.142 154.619 180.576ZM178.602 185.906C184.428 184.728 184.676 184.667 184.676 184.046C184.676 183.737 182.445 183.427 179.656 183.303L174.636 183.117L179.284 177.85C181.825 174.937 184.8 172.024 185.853 171.343C188.147 169.855 188.27 168.802 186.411 168.181L184.986 167.747L186.535 167.19C187.403 166.881 189.014 166.756 190.13 166.942C191.803 167.19 192.175 167.066 191.988 166.198C191.803 165.331 191.122 165.145 188.084 165.207C179.222 165.331 175.442 167.686 182.383 168.802C184.304 169.112 185.915 169.607 185.915 169.917C185.915 170.165 185.605 170.412 185.234 170.412C184.056 170.412 174.079 180.515 172.839 182.993C170.918 186.65 171.971 187.208 178.602 185.906ZM219.505 161.861C217.708 161.985 217.274 162.295 217.398 163.162L217.417 163.288C217.486 163.746 217.526 164.01 217.424 164.09C217.284 164.197 216.886 163.972 215.949 163.44L215.786 163.348C214.609 162.728 214.485 162.419 215.167 161.922C215.601 161.551 216.778 160.993 217.708 160.807L219.443 160.373L218.142 159.01C217.459 158.204 217.088 157.46 217.274 157.212C217.769 156.717 223.843 157.399 224.71 158.08C225.083 158.39 225.64 158.328 226.012 157.956C226.88 157.089 228.057 157.77 228.057 159.133C228.057 159.877 227.871 159.939 227.314 159.381C226.817 158.886 226.383 158.886 225.826 159.32C225.33 159.754 224.959 159.754 224.649 159.257C224.462 158.948 223.285 158.638 222.046 158.638C220.902 158.638 220.361 158.638 220.251 158.856C220.152 159.051 220.4 159.422 220.868 160.125C221.857 161.67 221.798 161.675 219.526 161.859L219.505 161.861ZM210.084 145.376C210.084 144.57 209.341 143.145 208.411 142.215L206.676 140.48L215.972 140.851C221.116 141.1 226.941 141.658 228.987 142.215C231.032 142.711 233.387 143.082 234.254 143.082C235.556 143.082 235.307 142.835 232.891 141.534C228.677 139.364 223.285 138.311 212.936 137.567C200.541 136.699 194.282 137.877 195.459 140.976C195.645 141.595 196.637 141.905 198.124 141.905C201.16 141.905 206.119 143.702 207.792 145.376C209.589 147.173 210.084 147.173 210.084 145.376ZM179.842 309.48C184.861 315.925 191.493 323.238 194.592 325.716C196.451 327.204 198.062 328.444 198.186 328.444C198.248 328.444 196.884 325.593 195.15 322.122C188.147 308.178 184.056 294.297 182.135 278.308C181.701 274.775 181.019 271.8 180.275 270.561C178.788 268.082 178.788 264.859 180.338 261.823C181.143 260.212 181.577 258.166 181.577 255.935V252.527L178.602 255.626C175.69 258.662 172.901 259.902 172.901 258.042C172.901 256.679 177.487 250.11 179.904 248.065C181.825 246.453 182.073 245.895 182.693 241.062C183.127 238.149 184.118 233.005 184.924 229.596C185.792 226.188 186.287 223.276 186.163 223.152C185.729 222.718 171.166 239.444 169.183 244.78C168.747 245.952 167.572 248.003 166.642 249.242L165.031 251.311C165.031 251.311 165.531 254.208 166.084 257.849C166.643 261.527 166.905 264.056 167.139 266.308C167.451 269.321 167.712 271.838 168.563 275.953C169.554 281.034 170.546 285.435 170.794 285.744C170.98 286.116 171.785 288.967 172.592 292.127C174.326 299.13 177.239 306.071 179.842 309.48ZM431.328 368.106L430.027 366.804C430.027 366.804 451.627 339.361 455.498 329.249C458.451 321.533 460.189 319.344 462.535 319.344C463.847 319.344 464.917 319.643 465.413 320.387C466.281 321.688 467.117 323.3 466.001 328.815C464.143 337.739 461.291 343.627 452.739 356.332C450.756 359.244 448.215 362.467 447.1 363.583C444.497 365.999 438.641 368.478 435.232 369.035C433.064 369.346 432.443 369.222 431.328 368.106Z" fill="#282828"/>
<path d="M602.931 428.732C610.642 407.725 609.474 403.249 608.137 402.811C608.137 402.811 605.193 404.485 603.891 408.017C601.475 414.648 593.201 432 590.103 435.099C586.447 438.756 586.447 438.756 582.728 438.756C579.01 438.756 568.285 433.156 566.825 427.636C564.49 418.805 574.547 388.123 574.795 386.389L573.122 385.211C572.006 386.265 557.497 430.265 538.418 418.8C536.233 417.488 531.6 411.301 531.228 408.017C529.163 398.473 538.639 365.1 540.25 358.246C541.692 352.111 549.201 346.416 558.435 346.416C572.627 346.416 570.72 358.821 577.077 363.193C579.894 365.129 584.524 361.618 585.95 361.352C593.945 359.864 597.009 361.596 602.869 366.247C607.393 369.837 610.74 376.944 614.425 379.448C616.472 380.838 618.643 378.937 619.355 378.58C622.27 377.116 628.526 378.208 630.261 379.448C632.805 380.556 639.039 386.549 640.023 390.034C644.487 405.829 630.394 440.848 625.072 447.418C616.265 458.292 595.221 449.739 602.931 428.732Z" fill="white"/>
<path fill-rule="evenodd" clip-rule="evenodd" d="M246.649 371.172C263.629 381.893 281.139 388.895 301.093 390.817C316.835 392.304 338.059 390.259 353.304 385.301C366.132 381.149 383.485 369.646 395.074 359.917C417.57 341.077 431.762 311.649 437.96 280.415C438.827 276.014 440.15 264.954 440.088 253.985C440.088 241.218 434.47 206.332 417.446 186.216C382.335 144.728 324.62 126.038 276.115 142.007C258.618 147.767 239.988 158.204 225.921 171.838C208.196 189.129 195.12 212.678 189.914 236.724C184.461 262.133 191.555 292.5 203.888 317.413C213.741 337.244 229.979 360.574 246.649 371.172ZM412.116 296.28C400.466 331.294 370.099 357.447 331.924 365.38C326.099 366.557 322.069 366.991 313.889 367.115C308.126 367.301 302.363 367.238 301.185 367.115C274.475 363.892 254.148 354.038 235.431 335.322C227.251 327.081 223.781 322.619 218.7 313.818C210.705 299.874 206.429 285.62 205.127 268.454C200.665 209.642 242.745 160.622 301.991 155.539C325.231 153.556 351.012 160.683 370.595 174.565C377.845 179.708 390.984 192.723 395.074 198.796C396.747 201.213 412.984 224.949 415.835 238.583C419.491 256.308 418.066 278.493 412.116 296.28Z" fill="white"/>
<path fill-rule="evenodd" clip-rule="evenodd" d="M440.11 253.985C440.11 295.582 420.434 341.058 395.04 360.48C382.925 369.746 367.092 380.966 353.304 385.301C333.099 391.653 301.093 390.817 301.093 390.817C301.093 390.817 333.745 386.452 345.845 381.582C380.543 367.618 399.484 346.184 411.18 325.617C434.267 285.019 440.11 252.974 440.11 253.985Z" fill="#EBEBEB"/>
<path fill-rule="evenodd" clip-rule="evenodd" d="M301.805 359.679C285.258 357.571 268.835 351.684 255.573 342.946C247.702 337.802 235.804 325.717 230.04 317.103C221.797 304.708 216.344 291.446 213.68 277.192C211.758 266.843 211.82 250.915 213.741 241.682C215.724 232.262 218.266 225.073 222.789 215.963C228.057 205.428 233.634 197.68 242.001 189.315C256.255 175.061 272.801 166.013 292.509 161.675C298.892 160.311 322.008 159.196 322.813 160.249C323 160.559 324.239 161.365 325.541 162.046C326.842 162.79 330.312 165.393 333.163 167.934C337.439 171.652 339.36 174.007 343.079 179.833C345.619 183.799 347.665 187.393 347.665 187.703C347.665 188.385 349.647 189.624 350.763 189.624C352.312 189.624 353.366 184.977 353.676 176.796C353.862 172.272 354.234 168.554 354.482 168.554C355.35 168.554 364.893 173.822 369.355 176.796C378.093 182.622 386.832 190.802 393.276 199.354C396.189 203.197 396.623 204.188 396.623 206.543C396.623 208.712 397.243 210.385 399.164 213.732C403.998 222.16 407.778 232.758 410.072 244.471C411.559 252.341 411.559 267.214 410.009 275.457C405.795 298.139 393.276 320.697 376.978 335.013C363.158 347.098 348.47 354.535 331.118 358.191C325.168 359.492 307.32 360.36 301.805 359.679ZM257.494 317.289C258.052 316.669 258.423 315.739 258.238 315.305C258.182 315.175 257.406 314.81 256.27 314.276C253.622 313.032 249.019 310.867 247.024 308.612C239.092 299.564 236.179 292.81 234.382 278.866C232.646 265.293 234.105 256.119 237.232 241.372C238.759 234.179 242.815 228.236 245.338 224.539C247.054 222.026 248.061 220.55 247.083 220.425C244.666 220.053 244.294 220.239 241.753 222.656C236.299 227.862 233.82 232.014 231.218 240.009C227.19 252.527 226.411 286.359 234.382 301.609C242.352 316.861 256.068 318.9 257.494 317.289ZM345.619 265.232C344.567 274.859 340.104 288.782 334.898 294.855C332.482 297.705 323.609 302.601 316.12 301.609C308.887 300.652 303.23 297.272 298.396 290.021C294.244 283.762 292.099 276.163 290.65 266.595C288.146 250.071 299.078 230.836 303.788 226.065C308.559 221.169 311.968 219.433 316.307 219.372C320.521 219.372 323.247 220.301 327.523 223.337C335.332 228.791 347.665 246.523 345.619 265.232ZM262.08 213.979C263.319 212.555 263.506 211.873 263.134 209.208C262.885 206.729 262.39 205.738 261.088 204.684C258.796 202.825 255.945 202.825 253.837 204.807C252.35 206.233 252.164 206.729 252.35 210.137C252.537 213.794 252.66 214.042 254.705 215.157C257.432 216.644 260.097 216.21 262.08 213.979ZM300.752 175.743C289.596 183.737 284.762 187.022 279.742 190.12C275.776 192.599 274.537 192.662 274.537 190.431C274.537 189.253 275.404 187.951 277.635 185.906L280.734 183.055L274.722 182.249C267.968 181.382 261.398 179.523 259.973 178.097C257.618 175.68 259.663 175.122 266.356 176.363C269.331 176.858 275.095 177.478 279.184 177.602L286.621 177.911L292.013 174.007C303.85 165.455 316.12 160.622 322.008 162.109C325.665 162.976 325.231 163.967 321.079 164.463C316.307 165.021 313.394 166.632 300.752 175.743Z" fill="white"/>
<path d="M316.678 293.119C316.678 292.81 317.05 292.5 317.546 292.5C318.041 292.5 318.661 292.81 318.848 293.119C319.033 293.491 318.661 293.739 317.98 293.739C317.236 293.739 316.678 293.491 316.678 293.119Z" fill="white"/>
<path d="M320.396 292.561C320.396 291.879 321.946 291.26 323.681 291.26C325.044 291.322 325.044 291.322 323.867 292.19C322.503 293.243 320.396 293.429 320.396 292.561Z" fill="white"/>
<path d="M310.79 290.95C310.605 290.455 310.357 289.587 310.171 289.091C309.985 288.471 310.295 288.161 311.1 288.161C311.782 288.161 312.34 288.533 312.34 289.029C312.34 289.525 312.526 290.33 312.712 290.888C312.96 291.57 312.774 291.879 312.092 291.879C311.534 291.879 310.915 291.446 310.79 290.95Z" fill="white"/>
<path d="M314.075 289.401C313.765 287.541 314.447 286.922 316.678 286.922C317.36 286.922 317.917 287.541 318.165 288.595C318.661 290.392 317.856 291.26 315.686 291.26C314.695 291.26 314.261 290.826 314.075 289.401Z" fill="white"/>
<path d="M307.754 289.711C306.577 288.782 306.577 288.781 307.878 288.781C308.684 288.781 309.242 289.153 309.242 289.711C309.242 290.826 309.242 290.826 307.754 289.711Z" fill="white"/>
<path d="M320.211 289.648C319.405 288.843 319.777 286.426 320.769 286.054C322.566 285.372 323.371 285.683 323.743 287.293C323.991 288.224 324.115 289.029 323.991 289.091C323.495 289.648 320.582 290.021 320.211 289.648Z" fill="white"/>
<path d="M325.726 288.348C325.541 288.161 325.355 287.356 325.355 286.612C325.355 285.559 325.85 285.125 327.338 284.815C328.639 284.567 329.445 284.691 329.817 285.186C330.436 286.178 330.436 287.417 329.878 287.727C328.763 288.348 326.16 288.719 325.726 288.348Z" fill="white"/>
<path d="M304.904 286.426C304.904 285.683 305.461 285.062 306.267 284.877C307.878 284.443 307.816 284.381 308.126 285.993C308.25 286.922 307.94 287.294 306.638 287.417C305.275 287.604 304.904 287.356 304.904 286.426Z" fill="white"/>
<path d="M309.613 286.488C308.746 285.559 309.303 283.823 310.481 283.823C311.287 283.823 311.721 284.257 311.721 285.001C311.721 286.178 310.295 287.17 309.613 286.488Z" fill="white"/>
<path d="M313.332 284.629C312.836 283.452 313.889 282.584 315.934 282.584C316.864 282.584 317.298 282.955 317.298 283.762C317.298 284.443 316.741 285.062 315.934 285.31C313.889 285.806 313.765 285.806 313.332 284.629Z" fill="white"/>
<path d="M331.242 284.443C331.428 284.133 331.738 283.823 331.924 283.823C332.109 283.823 332.048 284.133 331.861 284.443C331.676 284.815 331.366 285.062 331.18 285.062C330.994 285.062 331.056 284.815 331.242 284.443Z" fill="white"/>
<path d="M318.909 283.389C318.414 282.15 319.033 281.531 321.016 281.221C322.132 281.097 322.627 281.344 322.752 282.212C323.185 284.257 319.653 285.373 318.909 283.389Z" fill="white"/>
<path d="M304.036 282.336C303.478 280.29 303.602 280.105 305.214 280.105C306.081 280.105 306.762 280.353 306.762 280.663C306.762 280.973 306.948 281.654 307.135 282.15C307.32 282.77 306.948 283.141 305.895 283.328C304.717 283.575 304.284 283.328 304.036 282.336Z" fill="white"/>
<path d="M324.734 281.654C324.734 280.539 325.168 280.043 326.346 279.733C328.081 279.3 329.073 280.166 329.073 282.15C329.073 282.955 328.577 283.204 326.904 283.204C324.983 283.204 324.734 283.018 324.734 281.654Z" fill="white"/>
<path d="M302.176 281.654C301.991 281.158 302.115 280.724 302.424 280.724C302.796 280.724 303.044 281.158 303.044 281.654C303.044 282.15 302.92 282.584 302.796 282.584C302.673 282.584 302.424 282.15 302.176 281.654Z" fill="white"/>
<path d="M308.436 282.15C307.569 281.344 308.064 279.609 309.18 279.299C309.861 279.113 310.543 279.175 310.729 279.361C311.473 280.042 311.039 281.84 310.109 282.212C308.932 282.646 308.932 282.646 308.436 282.15Z" fill="white"/>
<path d="M330.561 281.716C329.878 279.919 330.622 278.555 332.358 278.369C333.659 278.184 334.031 278.432 334.031 279.423C334.031 281.468 333.349 282.584 332.109 282.584C331.428 282.584 330.746 282.212 330.561 281.716Z" fill="white"/>
<path d="M312.774 280.91C312.03 280.229 312.278 278.989 313.332 278.617C314.509 278.184 316.988 279.423 316.307 280.105C315.439 280.848 313.208 281.406 312.774 280.91Z" fill="white"/>
<path d="M318.165 279.361C317.607 278.493 319.591 277.006 321.203 277.006C321.946 277.006 322.256 277.378 322.132 278.059C321.884 279.3 318.723 280.29 318.165 279.361Z" fill="white"/>
<path d="M301.185 278.927C301.185 278.617 300.999 277.935 300.813 277.378C300.627 276.82 300.689 276.386 301.061 276.386C301.867 276.386 302.486 278.742 301.742 279.237C301.433 279.423 301.185 279.3 301.185 278.927Z" fill="white"/>
<path d="M302.858 277.501C302.486 276.138 303.23 275.146 304.656 275.146C305.461 275.146 306.267 277.564 305.772 278.369C305.089 279.423 303.168 278.803 302.858 277.501Z" fill="white"/>
<path d="M307.196 277.812C306.267 276.882 306.825 274.651 308.064 274.341C308.993 274.094 309.49 274.404 309.985 275.519C310.357 276.325 310.543 277.13 310.419 277.254C309.8 277.812 307.569 278.246 307.196 277.812Z" fill="white"/>
<path d="M323.929 277.811C323.123 277.006 323.495 276.511 325.355 275.829C326.904 275.333 327.338 275.395 327.647 276.138C328.205 277.626 325.107 279.051 323.929 277.811Z" fill="white"/>
<path d="M329.383 276.387C328.764 275.395 329.63 274.527 331.242 274.527C333.163 274.527 333.721 276.138 331.985 276.635C330.127 277.13 329.817 277.068 329.383 276.387Z" fill="white"/>
<path d="M334.65 274.899C334.65 273.97 335.766 272.978 336.262 273.473C336.696 273.907 335.828 275.767 335.208 275.767C334.898 275.767 334.65 275.395 334.65 274.899Z" fill="white"/>
<path d="M300.379 274.093C300.131 273.907 299.945 273.102 300.008 272.42C300.008 271.242 300.069 271.242 300.627 272.606C301.247 274.093 301.123 274.837 300.379 274.093Z" fill="white"/>
<path d="M301.557 273.164C300.999 270.995 301.061 270.809 302.673 270.809C304.47 270.809 305.585 273.102 304.222 273.97C302.797 274.837 301.991 274.589 301.557 273.164Z" fill="white"/>
<path d="M322.876 274.404C322.876 274.217 323.186 273.226 323.557 272.11C324.425 269.631 326.346 269.508 326.78 271.925C326.965 272.854 327.028 273.66 326.965 273.722C326.656 274.094 322.876 274.651 322.876 274.404Z" fill="white"/>
<path d="M305.957 272.854C305.709 272.668 305.523 271.925 305.523 271.242C305.523 270.251 305.709 270.189 306.453 270.809C306.948 271.242 307.382 271.986 307.382 272.42C307.382 273.349 306.638 273.598 305.957 272.854Z" fill="white"/>
<path d="M328.267 271.615C327.896 269.694 328.701 268.826 330.622 269.074C331.551 269.197 331.861 269.755 331.861 271.118C331.861 272.668 331.614 273.04 330.25 273.164C328.887 273.349 328.577 273.04 328.267 271.615Z" fill="white"/>
<path d="M334.34 271.862C333.535 269.384 333.782 268.64 335.456 268.453C336.944 268.268 337.129 268.453 337.129 270.065C337.129 271.428 336.757 271.986 335.828 272.234C335.147 272.42 334.465 272.234 334.34 271.862Z" fill="white"/>
<path d="M299.45 268.329C299.45 267.153 299.574 266.656 299.76 267.276C299.884 267.834 299.884 268.826 299.76 269.445C299.574 270.003 299.45 269.507 299.45 268.329Z" fill="white"/>
<path d="M300.999 269.136C300.194 268.392 300.565 265.975 301.557 265.603C302.983 265.045 303.664 265.727 303.664 267.772C303.664 269.074 303.354 269.569 302.549 269.569C301.929 269.569 301.185 269.384 300.999 269.136Z" fill="white"/>
<path d="M304.717 267.463C304.47 266.533 304.346 265.541 304.594 265.356C305.213 264.735 305.585 265.727 305.399 267.524L305.213 269.26L304.717 267.463Z" fill="white"/>
<path d="M324.734 267.029C324.734 266.347 325.045 265.975 325.355 266.161C325.726 266.347 325.974 266.966 325.974 267.463C325.974 267.958 325.726 268.33 325.355 268.33C325.045 268.33 324.734 267.772 324.734 267.029Z" fill="white"/>
<path d="M327.523 267.834C326.656 266.905 327.338 265.232 328.763 264.859C330.561 264.425 330.622 264.425 331.18 266.222C331.551 267.338 331.304 267.587 329.693 267.834C328.701 268.02 327.709 267.958 327.523 267.834Z" fill="white"/>
<path d="M333.225 266.656C332.543 266.037 332.729 263.991 333.411 263.991C333.782 263.991 334.031 263.744 334.031 263.372C334.031 263.062 333.659 262.752 333.163 262.752C332.109 262.752 331.242 259.716 332.109 258.848C333.225 257.732 334.464 258.91 335.208 261.947C335.642 263.558 336.076 265.417 336.262 266.037C336.51 266.843 336.262 267.09 335.084 267.09C334.279 267.09 333.411 266.905 333.225 266.656Z" fill="white"/>
<path d="M336.571 263.372C336.138 261.513 335.023 257.795 334.216 255.068C332.977 251.102 332.853 250.11 333.535 249.676C333.969 249.366 334.526 249.118 334.713 249.118C335.394 249.118 337.873 261.823 337.625 264.302L337.439 266.78L336.571 263.372Z" fill="white"/>
<path d="M298.83 263.062C298.83 262.07 298.954 261.699 299.14 262.318C299.264 262.876 299.264 263.744 299.14 264.178C298.954 264.549 298.83 264.116 298.83 263.062Z" fill="white"/>
<path d="M300.069 262.938C300.318 260.77 302.115 260.273 302.61 262.257C303.044 263.868 303.168 263.682 301.308 264.302C300.008 264.674 299.884 264.549 300.069 262.938Z" fill="white"/>
<path d="M326.222 262.381C325.726 260.583 326.78 259.53 328.763 259.778C330.251 259.963 330.808 262.628 329.569 263.434C328.02 264.425 326.594 263.991 326.222 262.381Z" fill="white"/>
<path d="M303.664 261.885C303.664 260.831 303.973 260.273 304.656 260.273C305.275 260.273 305.523 260.707 305.399 261.636C305.089 263.62 303.664 263.806 303.664 261.885Z" fill="white"/>
<path d="M298.148 259.282C298.148 258.6 298.334 258.415 298.521 258.91C298.706 259.344 298.644 259.902 298.458 260.088C298.272 260.336 298.087 259.963 298.148 259.282Z" fill="white"/>
<path d="M299.326 259.096C299.326 258.166 299.698 257.794 300.627 257.794C301.495 257.794 301.805 258.105 301.681 258.848C301.371 260.459 299.326 260.645 299.326 259.096Z" fill="white"/>
<path d="M302.734 258.539C302.3 257.423 302.3 257.423 304.16 256.927C305.275 256.555 305.523 256.742 305.523 257.671C305.523 259.158 303.292 259.902 302.734 258.539Z" fill="white"/>
<path d="M325.168 257.671C324.734 256.121 325.541 255.316 327.709 255.316C328.763 255.316 329.073 255.687 329.073 256.865C329.073 257.795 328.701 258.414 328.206 258.414C327.709 258.414 326.904 258.6 326.408 258.786C325.85 258.972 325.417 258.6 325.168 257.671Z" fill="white"/>
<path d="M330.561 256.245C330.064 255.006 330.808 254.076 332.233 254.076C333.101 254.076 333.411 254.51 333.411 255.626C333.411 256.741 333.101 257.174 332.172 257.174C331.49 257.174 330.746 256.741 330.561 256.245Z" fill="white"/>
<path d="M298.706 255.377C298.706 254.076 300.132 252.588 300.752 253.27C300.999 253.456 301.185 254.324 301.185 255.13C301.185 256.121 300.813 256.555 299.945 256.555C299.14 256.555 298.706 256.121 298.706 255.377Z" fill="white"/>
<path d="M302.115 254.634C301.619 253.085 302.176 252.403 304.284 252.093C306.205 251.845 306.825 253.89 305.151 255.13C303.541 256.308 302.549 256.121 302.115 254.634Z" fill="white"/>
<path d="M324.549 254.262C324.115 253.89 323.929 251.597 324.301 251.597C324.363 251.597 325.292 251.349 326.408 251.039C328.267 250.481 328.391 250.544 328.33 252.217C328.267 253.456 327.896 254.076 326.965 254.324C325.292 254.758 325.044 254.758 324.549 254.262Z" fill="white"/>
<path d="M322.256 252.837C322.256 252.403 322.442 252.217 322.69 252.403C322.876 252.651 322.876 253.022 322.69 253.27C322.442 253.456 322.256 253.27 322.256 252.837Z" fill="white"/>
<path d="M329.196 251.845C329.383 250.791 331.304 249.242 331.738 249.738C331.924 249.924 332.234 250.668 332.419 251.473C332.853 252.712 332.667 252.837 330.932 252.837C329.445 252.837 329.011 252.588 329.196 251.845Z" fill="white"/>
<path d="M299.326 251.783C299.326 251.473 299.636 250.854 299.945 250.357C300.442 249.614 300.565 249.676 300.565 250.854C300.565 251.597 300.318 252.217 299.945 252.217C299.636 252.217 299.326 252.031 299.326 251.783Z" fill="white"/>
<path d="M301.185 250.42C301.185 248.684 302.486 248.126 303.478 249.428C304.097 250.357 304.097 250.667 303.478 251.101C302.176 251.907 301.185 251.659 301.185 250.42Z" fill="white"/>
<path d="M320.025 249.614C318.909 248.375 318.909 248.313 319.963 248.684C320.582 248.933 321.388 249.118 321.698 249.118C322.008 249.118 322.256 249.552 322.256 250.048C322.256 251.349 321.388 251.225 320.025 249.614Z" fill="white"/>
<path d="M306.701 249.552C304.036 247.507 303.664 242.921 306.143 242.921C307.816 242.921 309.366 245.524 309.117 247.941C308.932 250.172 308.188 250.668 306.701 249.552Z" fill="white"/>
<path d="M323.681 249.924C323.929 249.738 324.301 249.738 324.549 249.924C324.734 250.172 324.549 250.358 324.115 250.358C323.681 250.358 323.495 250.172 323.681 249.924Z" fill="white"/>
<path d="M333.039 247.507C333.225 246.95 333.411 246.392 333.411 246.268C333.411 246.144 333.721 246.019 334.031 246.019C334.403 246.019 334.65 246.577 334.65 247.26C334.65 248.003 334.216 248.499 333.659 248.499C332.977 248.499 332.792 248.189 333.039 247.507Z" fill="white"/>
<path d="M300.565 247.321C300.565 245.895 301.867 243.541 302.61 243.541C303.912 243.541 302.983 247.507 301.619 247.755C301.061 247.879 300.565 247.693 300.565 247.321Z" fill="white"/>
<path d="M314.509 246.639L312.65 246.205L314.323 245.771C316.059 245.276 317.298 245.648 317.298 246.702C317.298 247.321 317.236 247.321 314.509 246.639Z" fill="white"/>
<path d="M312.34 243.664C312.34 241.124 313.765 240.752 315.067 242.983C315.935 244.471 315.996 244.78 315.191 244.78C314.695 244.78 313.889 244.966 313.332 245.152C312.588 245.461 312.34 245.09 312.34 243.664Z" fill="white"/>
<path d="M323.124 244.532C320.335 243.293 318.538 240.009 318.538 236.104C318.538 233.316 318.785 232.634 320.459 231.084C321.512 230.093 322.566 229.287 322.876 229.287C324.239 229.287 329.259 234.059 330.932 237.034L332.853 240.443L330.808 242.611C328.453 245.09 325.85 245.772 323.124 244.532Z" fill="white"/>
<path d="M310.171 242.921C309.985 242.611 310.109 242.301 310.419 242.301C310.79 242.301 311.1 242.611 311.1 242.921C311.1 243.293 310.977 243.54 310.853 243.54C310.667 243.54 310.357 243.293 310.171 242.921Z" fill="white"/>
<path d="M302.052 241.93C302.239 241.372 302.425 240.814 302.425 240.69C302.425 240.566 302.983 240.443 303.664 240.443C305.214 240.443 305.275 241.433 303.726 242.301C302.052 243.169 301.619 243.107 302.052 241.93Z" fill="white"/>
<path d="M306.948 241.186C305.523 241 305.089 240.194 306.019 239.636C306.267 239.451 307.382 239.141 308.498 238.893C310.171 238.521 310.481 238.645 310.481 239.699C310.481 241 309.18 241.558 306.948 241.186Z" fill="white"/>
<path d="M311.721 239.078C311.721 238.335 311.782 237.902 311.906 238.025C311.968 238.149 312.464 238.769 312.898 239.389C313.642 240.256 313.579 240.443 312.712 240.443C312.092 240.443 311.721 239.946 311.721 239.078Z" fill="white"/>
<path d="M303.044 238.644C303.044 238.273 303.354 237.839 303.664 237.654C304.036 237.467 304.284 237.715 304.284 238.211C304.284 238.769 304.036 239.202 303.664 239.202C303.354 239.202 303.044 238.955 303.044 238.644Z" fill="white"/>
<path d="M305.338 237.715C304.841 236.476 309.242 235.113 309.985 236.29C310.543 237.281 309.985 237.715 307.63 238.212C306.205 238.521 305.585 238.397 305.338 237.715Z" fill="white"/>
<path d="M311.163 235.732C311.163 235.05 311.348 234.865 311.534 235.36C311.721 235.794 311.658 236.352 311.473 236.538C311.287 236.786 311.101 236.413 311.163 235.732Z" fill="white"/>
<path d="M305.895 234.74C306.638 233.377 308.808 231.146 309.366 231.146C309.985 231.146 310.047 234.059 309.427 234.431C309.117 234.555 308.126 234.865 307.196 235.113C305.833 235.423 305.523 235.36 305.895 234.74Z" fill="white"/>
<path d="M310.853 233.315C310.171 231.456 310.481 230.65 311.968 230.403C313.518 230.093 313.518 230.093 312.526 232.014C311.287 234.492 311.348 234.492 310.853 233.315Z" fill="white"/>
<path d="M310.481 229.596C310.481 229.473 311.721 228.605 313.27 227.738C315.129 226.622 316.43 226.25 317.36 226.499C318.475 226.87 318.166 227.118 315.439 228.419C312.402 229.783 310.481 230.278 310.481 229.596Z" fill="white"/>
<path d="M344.876 174.689C343.203 172.272 339.67 168.368 337.129 166.013C334.589 163.658 332.916 161.737 333.411 161.737C334.774 161.737 345.186 164.587 347.789 165.703C349.957 166.632 350.02 166.756 349.462 168.678C349.152 169.793 348.904 172.582 348.904 174.875C348.904 177.23 348.718 179.089 348.47 179.089C348.16 179.089 346.611 177.106 344.876 174.689Z" fill="white"/>
<path d="M218.761 362.405C216.22 361.103 215.662 360.36 212.44 353.977C207.792 344.928 207.668 342.822 212.068 347.965C213.804 350.01 217.832 354.225 220.992 357.323C226.383 362.529 226.632 362.9 224.835 362.653C223.533 362.467 223.037 362.591 223.347 363.086C224.091 364.202 221.736 363.892 218.761 362.405Z" fill="white"/>
<path fill-rule="evenodd" clip-rule="evenodd" d="M322.62 475.314C322.106 474.092 322.68 472.685 323.901 472.171L325.236 471.605C338.218 466.05 345.669 462.713 350.732 457.415C355.795 452.117 356.401 444.335 357.352 439.599C357.612 438.3 360.556 440.582 361.855 440.844C363.155 441.105 363.996 442.37 363.735 443.669C362.592 449.363 359.512 454.79 354.554 459.943C349.613 465.078 340.045 470.582 325.764 476.595C324.542 477.109 323.135 476.535 322.62 475.314Z" fill="#282828"/>
<path fill-rule="evenodd" clip-rule="evenodd" d="M381.324 228.042C382.464 227.365 383.937 227.738 384.614 228.877C391.404 240.28 395.04 253.317 395.04 266.88C395.04 307.97 361.73 341.28 320.64 341.28C309.721 341.28 299.131 338.925 289.434 334.438C288.231 333.881 283.687 329.45 288.263 331.253C292.84 333.055 310.548 337.1 320.768 337.1C359.206 337.1 386.4 305.319 386.4 266.88C386.4 254.187 381.324 242.921 380.49 231.332C380.393 229.988 380.186 228.72 381.324 228.042Z" fill="#282828"/>
<path fill-rule="evenodd" clip-rule="evenodd" d="M143.634 409.685C144.482 408.667 145.996 406.609 147.014 407.458C151.192 410.938 155.651 414.97 160.42 415.747C165.383 416.558 171.271 416.558 178.075 415.734C179.391 415.575 180.587 416.512 180.746 417.828C180.905 419.144 179.968 420.34 178.652 420.499C171.425 421.374 165.093 421.374 159.647 420.485C154.007 419.564 148.762 417.08 143.942 413.065C142.924 412.217 142.786 410.703 143.634 409.685Z" fill="#282828"/>
<path d="M194.592 325.717C191.493 323.238 184.861 315.926 179.842 309.48C177.239 306.071 174.326 299.13 172.591 292.127C171.785 288.967 170.98 286.117 170.794 285.744C170.546 285.435 169.554 281.034 168.563 275.953C167.076 268.764 167.39 266.448 166.084 257.849C165.531 254.208 165.031 251.311 165.031 251.311L166.642 249.242C167.571 248.003 168.747 245.952 169.183 244.78C171.166 239.444 185.729 222.718 186.163 223.152C186.287 223.276 185.792 226.189 184.924 229.597C184.118 233.006 183.127 238.149 182.693 241.062C182.073 245.895 181.825 246.453 179.904 248.065C177.487 250.11 172.901 256.679 172.901 258.042C172.901 259.902 175.69 258.663 178.602 255.626L181.577 252.527V255.935C181.577 258.166 181.143 260.212 180.338 261.823C178.788 264.859 178.788 268.082 180.276 270.561C181.02 271.8 181.701 274.775 182.135 278.308C184.056 294.297 188.147 308.178 195.15 322.122C196.884 325.593 198.248 328.444 198.186 328.444C198.062 328.444 196.451 327.205 194.592 325.717Z" fill="white"/>
<path fill-rule="evenodd" clip-rule="evenodd" d="M452.46 363.954L456.923 365.938C457.848 366.364 468.056 371.269 480.316 377.16C500.083 386.658 525.188 398.721 525.341 398.721C525.589 398.721 526.752 396.032 527.014 392.895C527.634 386.141 529.927 376.968 532.592 370.585C533.831 367.735 534.823 364.171 534.823 363.862C534.823 363.72 533.816 363.314 532.166 362.649C530.202 361.857 527.33 360.698 524.164 359.182C508.547 351.684 477.994 336.376 474.213 334.083C470.495 331.914 469.751 331.728 469.751 333.154C469.751 335.013 465.971 343.627 463.058 348.275C461.509 350.816 458.472 355.402 456.303 358.438L452.46 363.954ZM524.288 387.565C526.065 388.596 522.986 390.107 522.243 390.354C517.863 390.727 512.708 389.903 508.484 387.442C506.276 385.876 488.886 376.214 477.35 369.806C472.077 366.877 468.027 364.626 467.211 364.141C464.607 362.591 462.129 360.918 461.695 360.421C460.394 358.748 461.633 358.005 465.289 358.314C467.487 358.501 520.449 385.341 524.288 387.565Z" fill="white"/>
<path d="M407.964 369.532C406.353 368.974 404.618 367.735 403.502 366.309L401.643 364.016L408.212 357.509C418.314 347.593 425.75 336.757 432.443 324.672C434.675 320.644 441.305 304.398 442.112 302.601C443.351 299.998 444.28 299.006 446.945 297.519C450.106 295.66 453.7 295.041 455.249 296.094C458.224 298.077 458.224 304.336 455.249 315.119C451.965 326.956 447.565 335.447 438.455 347.655C437.029 349.515 434.364 353.171 432.443 355.712C427.3 362.529 423.953 365.814 419.429 368.354C414.968 370.834 412.364 371.143 407.964 369.532Z" fill="white"/>
<path d="M431.328 368.106L430.026 366.805C430.026 366.805 451.627 339.361 455.498 329.249C458.451 321.533 460.189 319.344 462.535 319.344C463.847 319.344 464.917 319.644 465.413 320.388C466.281 321.688 467.117 323.3 466.001 328.815C464.142 337.74 461.292 343.627 452.739 356.332C450.756 359.244 448.215 362.467 447.1 363.583C444.496 365.999 438.641 368.478 435.232 369.036C433.064 369.346 432.444 369.222 431.328 368.106Z" fill="white"/>
<path fill-rule="evenodd" clip-rule="evenodd" d="M467.611 339.409C468.861 336.55 469.751 334.056 469.751 333.154C469.751 331.728 470.495 331.914 474.213 334.083C477.994 336.376 508.547 351.684 524.164 359.182C529.989 361.971 534.823 363.552 534.823 363.862C534.823 364.171 466.285 342.441 467.611 339.409Z" fill="#EBEBEB"/>
<path fill-rule="evenodd" clip-rule="evenodd" d="M255.573 342.945C247.702 337.802 235.804 325.716 230.04 317.102C221.797 304.708 216.344 291.445 213.68 277.192C211.758 266.842 211.82 250.915 213.741 241.682C215.724 232.261 218.266 225.073 222.789 215.962C228.057 205.427 233.634 197.68 242.001 189.315C250.205 181.11 213.741 215.038 222.789 275.744C230.04 326.614 261.202 346.654 255.573 342.945Z" fill="#EBEBEB"/>
</svg>
