<?xml version="1.0" encoding="UTF-8" standalone="no"?>
<!-- Created with Inkscape (http://www.inkscape.org/) -->

<svg
   width="750"
   height="750"
   viewBox="0 0 198.4375 198.43751"
   version="1.1"
   id="svg5"
   inkscape:version="1.1.1 (3bf5ae0, 2021-09-20)"
   sodipodi:docname="Searching.svg"
   xmlns:inkscape="http://www.inkscape.org/namespaces/inkscape"
   xmlns:sodipodi="http://sodipodi.sourceforge.net/DTD/sodipodi-0.dtd"
   xmlns="http://www.w3.org/2000/svg"
   xmlns:svg="http://www.w3.org/2000/svg">
  <sodipodi:namedview
     id="namedview7"
     pagecolor="#ffffff"
     bordercolor="#666666"
     borderopacity="1.0"
     inkscape:pageshadow="2"
     inkscape:pageopacity="0.0"
     inkscape:pagecheckerboard="0"
     inkscape:document-units="mm"
     showgrid="false"
     units="px"
     width="750px"
     inkscape:zoom="0.48551487"
     inkscape:cx="396.48631"
     inkscape:cy="396.48631"
     inkscape:window-width="1366"
     inkscape:window-height="700"
     inkscape:window-x="0"
     inkscape:window-y="0"
     inkscape:window-maximized="1"
     inkscape:current-layer="layer1" />
  <defs
     id="defs2" />
  <g
     inkscape:label="Layer 1"
     inkscape:groupmode="layer"
     id="layer1">
    <path
       fill-rule="evenodd"
       clip-rule="evenodd"
       d="m 111.27791,162.83766 c 18.39701,0 34.54162,-13.68478 25.47488,-32.27202 -9.06674,-18.58725 24.62159,-17.98691 34.5178,-30.833221 C 183.33903,84.065911 179.84415,17.563447 102.3686,58.106582 89.958317,64.601045 58.085021,51.425059 47.512536,57.962649 35.067594,65.65832 17.558475,81.416109 35.067594,97.557544 c 8.624888,7.950996 -22.296754,28.588226 -8.753739,47.073876 13.214614,18.03717 22.477941,0.84243 42.596593,4.52146 20.119181,3.67903 28.704381,13.68478 42.367462,13.68478 z"
       fill="#69cb3a"
       id="path11"
       style="stroke-width:0.264583" />
    <path
       d="m 89.924979,130.50108 c 0,0 4.235979,-1.99258 5.817394,-3.37873 1.581414,-1.38642 3.547268,-4.8305 3.547268,-4.8305 0,0 21.595819,15.59666 35.677209,13.37178 3.24432,-0.5125 9.56601,-2.66938 9.96924,-6.4688 1.10093,-10.37563 -14.13008,-13.02729 -10.80294,-18.28879 2.03068,-3.21151 8.3394,1.56845 8.3394,1.56845 l 26.1665,12.87065 c 0,0 -9.03976,22.28321 -30.97715,23.17618 -26.98618,1.09855 -47.736921,-18.02024 -47.736921,-18.02024 z"
       fill="#ffffff"
       id="path13"
       style="stroke-width:0.264583" />
    <path
       fill-rule="evenodd"
       clip-rule="evenodd"
       d="m 69.179,43.234353 c -0.245533,-0.09631 -1.564216,-1.711589 -3.239029,-2.005542 -0.760677,-0.13335 -0.07012,0.835555 -0.907521,0.844286 -2.493962,0.02566 -6.547114,-0.442648 -7.297737,0 -0.558271,0.327819 0.670719,1.473464 0,1.525852 -6.330421,0.496094 -15.987183,6.816725 -18.082419,9.882981 -0.66675,0.975783 4.725988,-0.679979 3.866621,-0.197379 -0.964142,0.541602 -2.033852,4.086754 -2.67335,6.825192 -0.442648,1.885685 -0.721254,4.312443 -0.819944,6.952191 -0.08176,2.279121 -0.04895,2.656417 0.278871,3.902604 0.377031,1.393561 0.672306,1.803665 1.180571,1.607079 0.180446,-0.06588 0.262467,-0.311679 0.262467,-0.770731 0,-0.360892 0.196585,-1.443037 0.442648,-2.410354 l 0.426243,-1.738313 0.180446,0.721784 c 0.229658,0.836083 1.574006,3.426883 2.787386,5.312304 0.06562,0.100012 0.347133,-0.02725 0.600868,-0.640821 0.231511,-0.559329 0.137584,-1.452562 0.530754,-2.409825 0.89535,-2.181225 2.652977,-5.017029 4.688417,-7.286889 3.008577,-3.354917 4.006321,-7.237148 6.826515,-10.353675 5.262827,-5.816336 11.86762,-9.399852 10.948193,-9.760744 z"
       fill="#ffffff"
       id="path15"
       style="stroke-width:0.264583" />
    <path
       fill-rule="evenodd"
       clip-rule="evenodd"
       d="m 43.593792,54.075655 c -0.844285,0.678921 -2.097087,6.185165 -2.118783,6.277504 -0.442648,1.885421 -0.869421,8.433858 -0.433388,9.673431 0.436563,1.239838 1.657879,-3.229239 1.657879,-3.229239 0,0 1.845998,4.793985 3.477684,6.108435 0.06959,0.05609 -1.939131,-5.931164 -2.583392,-9.426575 -0.850371,-4.614068 0.480483,-9.789848 0,-9.403556 z"
       fill="#ebebeb"
       id="path17"
       style="stroke-width:0.264583" />
    <path
       fill-rule="evenodd"
       clip-rule="evenodd"
       d="m 75.059365,150.51019 c 1.574006,-0.34422 4.230158,-1.54331 5.247216,-1.95342 1.016794,-0.4101 4.115594,-4.78578 5.230548,-9.72132 0.80354,-3.63987 1.213379,-8.8212 0.754063,-9.69063 -0.06773,-0.12303 -0.315648,-2.47941 0.344487,-1.71 1.467644,1.71027 3.209925,4.395 8.706644,-0.41592 1.497012,-1.31022 3.481652,-3.00144 2.9591,-4.49633 -1.462088,-4.1828 -7.799123,-12.60554 -8.765117,-13.24346 -1.155171,-0.76305 -6.993202,-0.11482 -15.681854,-2.67917 -9.853612,-2.9083 -13.956506,-11.472329 -17.812543,-10.35764 -3.118379,0.9017 -10.589684,6.44208 -12.464786,9.95045 -8.852429,16.56371 1.875102,28.17019 4.318,31.50367 l 2.37199,1.0242 0.08202,2.11535 0.114564,1.32821 c 0.213519,2.54158 0.295275,2.77124 1.443038,3.62399 2.869406,2.18044 8.526462,4.21376 13.642445,4.93528 2.377546,0.32808 7.542477,0.21325 9.510184,-0.21326 z"
       fill="#ffffff"
       id="path19"
       style="stroke-width:0.264583" />
    <path
       fill-rule="evenodd"
       clip-rule="evenodd"
       d="m 51.200298,140.0618 0.1143,1.32794 c 0.213519,2.54185 0.295275,2.77125 1.443038,3.624 1.693069,1.2864 4.355835,2.52148 7.30541,3.46657 2.050256,0.65643 4.239154,1.17316 6.337035,1.4687 2.377546,0.32809 7.542742,0.21326 9.510184,-0.21299 0.972608,-0.21087 -7.027334,-6.49578 -11.740356,-4.72228 -3.619236,1.36181 -12.149667,-9.02653 -8.681244,-11.74062 3.890698,-3.04456 -3.238765,-15.05268 -3.468423,-17.65988 -0.229394,-2.60694 -1.133475,-3.22977 -1.159933,-3.13822 -0.02646,0.0913 -0.02646,0.40322 0.04471,1.1549 0.305859,3.2393 0.295275,26.43188 0.295275,26.43188 z"
       fill="#ebebeb"
       id="path21"
       style="stroke-width:0.264583" />
    <path
       fill-rule="evenodd"
       clip-rule="evenodd"
       d="m 50.345959,114.86923 c 0.344223,-0.0672 0.677598,0.15769 0.744537,0.50192 1.237456,6.35767 6.472238,10.66218 15.832402,12.91272 9.415992,2.2643 15.829756,2.14207 19.20875,-0.27464 0.285485,-0.20399 0.07276,1.54305 -0.135996,1.67693 -2.204244,1.41367 -9.698037,3.52266 -18.640954,1.61634 -11.434233,-2.43708 -16.802629,-12.0515 -17.510918,-15.68847 -0.06668,-0.34448 0.157691,-0.67786 0.502179,-0.7448 z"
       fill="#69cb3a"
       id="path23"
       style="stroke-width:0.264583" />
    <path
       fill-rule="evenodd"
       clip-rule="evenodd"
       d="m 45.577638,103.39796 c 0.304535,-0.17383 11.661246,12.84181 27.246527,15.78795 15.585545,2.94613 19.359033,1.07235 19.965458,-2.94614 0.05239,-0.34687 0.375973,-0.58552 0.722577,-0.53313 0.346869,0.0524 0.585523,0.37597 0.533135,0.72257 -0.768879,5.09323 -7.980362,6.3045 -21.434689,4.00871 -13.285523,-2.26722 -22.394069,-7.65361 -27.268752,-16.17319 -0.174096,-0.30427 -0.06853,-0.69241 0.235744,-0.86677 z"
       fill="#69cb3a"
       id="path25"
       style="stroke-width:0.264583" />
    <path
       fill-rule="evenodd"
       clip-rule="evenodd"
       d="m 110.9919,102.67644 c -0.42625,-0.14764 -0.8853,-0.47546 -1.18057,-0.85275 l -0.49186,-0.60669 1.73804,-1.721648 c 2.67283,-2.623608 4.72229,-5.312833 6.49341,-8.510058 0.59028,-1.065741 2.08227,-4.623858 2.08227,-4.968346 0,-0.114829 0.18044,-0.573881 0.3937,-1.049337 0.32782,-0.68871 0.57362,-0.951177 1.27873,-1.344613 0.83635,-0.49186 1.78753,-0.655637 2.1971,-0.377031 0.78714,0.524669 0.78714,2.180696 0,5.033698 -0.86889,3.131873 -2.03306,5.37845 -4.44341,8.608483 -0.3773,0.492125 -1.08241,1.459177 -1.59068,2.131748 -1.36075,1.803664 -2.24631,2.672824 -3.44302,3.344864 -1.18057,0.65617 -1.86955,0.73792 -3.03371,0.31168 z m 11.7729,-1.47585 1.18057,0.52494 c 0.245,0.11271 2.94587,1.41022 6.18966,2.96915 5.23002,2.51301 11.87238,5.70468 11.91287,5.70468 0.0656,0 0.37332,-0.71146 0.44264,-1.54146 0.16404,-1.787 0.77073,-4.21402 1.47585,-5.90286 0.32782,-0.75406 0.59028,-1.69703 0.59028,-1.77879 0,-0.0376 -0.26643,-0.14499 -0.70299,-0.32094 -0.51965,-0.20955 -1.27953,-0.5162 -2.1172,-0.91731 -4.132,-1.98411 -12.21581,-6.034087 -13.2162,-6.640777 -0.98372,-0.573881 -1.18057,-0.623093 -1.18057,-0.245798 0,0.491861 -1.00013,2.770982 -1.77086,4.000765 -0.40984,0.672306 -1.21338,1.885685 -1.78726,2.68896 z m 19.00449,6.24708 c 0.47016,0.27252 -0.34449,0.67231 -0.54107,0.73792 -1.15888,0.0987 -2.52281,-0.11933 -3.64041,-0.77046 -0.5842,-0.41434 -5.1853,-2.97075 -8.23753,-4.6662 -1.39515,-0.77523 -2.46671,-1.37054 -2.68261,-1.49913 -0.68898,-0.40984 -1.34462,-0.85248 -1.45945,-0.98398 -0.34422,-0.442649 -0.0164,-0.639234 0.95092,-0.557478 0.58155,0.04921 14.59441,7.150898 15.61015,7.739328 z m -66.654098,42.92759 c 1.264973,-0.27676 3.228446,-1.10543 4.478602,-1.63301 0.305858,-0.12885 0.568589,-0.23998 0.768614,-0.32041 1.017059,-0.41037 4.115594,-4.78579 5.230548,-9.72132 0.80354,-3.64014 1.213379,-8.82148 0.754327,-9.69063 -0.276754,-0.50324 1.367632,1.18507 2.592388,2.44263 0.371475,0.381 0.704056,0.72258 0.932921,0.95144 7.149041,7.1001 17.790848,12.8061 28.842228,15.47892 5.50968,1.34461 9.42843,1.82007 14.69205,1.82007 8.83788,0 15.80647,-1.73805 22.13583,-5.55863 0.30057,-0.18151 0.58235,-0.34819 0.8509,-0.50721 2.2061,-1.30625 3.52055,-2.08439 7.11809,-6.13357 4.03489,-4.5421 7.6245,-15.08522 8.82147,-18.72535 0.52467,-1.63989 1.80367,-8.16161 1.80367,-9.78879 0,-1.92696 -0.67231,-2.83687 -1.59041,-3.77137 -1.62349,-1.59068 -3.82059,-2.16456 -5.64066,-1.47585 l -0.85275,0.32782 -0.2622,-0.86889 c -0.3773,-1.31181 -1.16417,-2.36115 -2.37755,-3.14828 -1.80366,-1.196975 -2.06613,-1.278996 -3.68935,-1.278996 -1.26259,0 -1.60708,0.06562 -2.41035,0.442912 l -0.93477,0.425979 -0.19659,-0.590285 c -0.37729,-1.213115 -1.64227,-2.904596 -2.62361,-3.394075 -0.87048,-0.433917 -2.37728,-0.473604 -3.42688,-0.278606 -2.29579,0.426243 -3.93541,1.491985 -4.60772,2.984235 -0.19685,0.459052 -0.44265,0.819944 -0.54081,0.819944 -0.0823,0 -3.31232,-0.902229 -7.16571,-2.607733 -0.65008,-0.288396 -1.26074,-0.55933 -1.83382,-0.81333 -6.91965,-3.06705 -8.41931,-3.731683 -8.28305,-4.564591 0.11456,-0.705115 0.0818,-1.09855 -0.11483,-1.704975 -0.34449,-1.016794 -0.73792,-1.2954 -1.85288,-1.2954 -0.88556,0 -0.88556,0 -0.78713,-0.442648 0.52467,-2.508779 0.50853,-3.951817 -0.049,-4.870185 -0.3773,-0.60669 -0.81994,-0.852488 -1.83674,-1.000125 -0.59028,-0.08202 -0.86889,-0.03281 -1.52479,0.327818 -0.44265,0.229659 -0.81995,0.393436 -0.85275,0.360892 -0.0328,-0.03281 0.082,-0.934508 0.26246,-2.00025 1.34435,-7.886964 0.30586,-14.682523 -3.12102,-21.897181 -0.0328,-0.06906 -0.0709,-0.150548 -0.1143,-0.24421 -1.04193,-2.236523 -5.23134,-11.230504 -17.21168,-15.768638 -0.542392,-0.205581 -1.055419,-0.404018 -1.548603,-0.595048 -4.080933,-1.579562 -6.79397,-2.629693 -13.339762,-2.618845 -7.33716,0.01217 -9.822127,1.049602 -14.659239,3.263106 -0.672042,0.311414 -1.262328,0.491596 -1.31154,0.426244 -0.04921,-0.08202 -0.360627,-0.278607 -0.672306,-0.442648 -0.311415,-0.164042 -0.983721,-0.573882 -1.475846,-0.9017 -1.410229,-0.951442 -2.279121,-1.344877 -2.721769,-1.246452 -0.508264,0.131233 -0.508264,0.557477 0,0.754327 0.21299,0.08202 0.459052,0.360627 0.557477,0.639498 0.21299,0.590285 0.459052,0.655902 0.606425,0.163777 0.06588,-0.180182 0.164307,-0.31115 0.213519,-0.278607 0.01852,0.0093 0.08096,0.03863 0.176213,0.08308 0.239712,0.112447 0.687122,0.321997 1.168135,0.556418 0.672306,0.328084 1.410229,0.672307 1.607079,0.754327 0.360627,0.130969 0.245798,0.229659 -1.311804,1.147763 -6.0833,3.574521 -11.035242,9.133152 -13.806223,15.46225 -0.426508,0.951177 -0.803539,1.541198 -1.197239,1.869545 -1.000125,0.836084 -2.967567,3.21363 -3.426884,4.148138 -0.245798,0.508265 -0.770731,1.2954 -1.180571,1.754452 -0.393435,0.459317 -0.819943,1.049602 -0.967581,1.2954 -0.130968,0.262467 -0.261937,0.442648 -0.311414,0.410104 -0.03281,-0.04921 0.0164,-0.852752 0.131233,-1.78726 0.246063,-2.180961 0.246063,-2.754842 0.04921,-2.80379 -0.295275,-0.08202 -0.721519,1.065742 -0.901965,2.492111 -0.130969,0.869156 -0.163777,2.18096 -0.08176,3.525308 l 0.09816,2.131748 -1.163902,-1.885686 c -0.400258,-0.630502 -0.794487,-1.261004 -1.07468,-1.708943 v -2.65e-4 h -2.65e-4 v -2.65e-4 l -5.29e-4,-7.93e-4 -5.29e-4,-2.65e-4 v -2.64e-4 -2.65e-4 l -2.65e-4,-2.65e-4 -5.29e-4,-7.93e-4 c -0.177536,-0.284163 -0.309033,-0.494242 -0.366183,-0.583407 -0.426509,-0.623093 -0.672307,-1.557866 -0.492125,-1.869281 0.09842,-0.180446 0.08202,-0.262466 -0.08202,-0.262466 -0.344223,0 -1.016529,1.098549 -1.459177,2.361406 -0.21299,0.590285 -0.426509,1.081881 -0.491861,1.081881 -0.246062,0 -0.131233,-5.869781 0.131234,-7.755467 0.541072,-3.722158 1.967441,-8.313472 2.606939,-8.313472 0.131233,0 0.246063,-0.06562 0.246063,-0.163777 0,-0.295275 -0.426244,-0.180446 -0.770732,0.196849 -0.770731,0.836084 -1.78726,3.410215 -2.426758,6.148653 -0.442648,1.885685 -0.721254,4.312443 -0.819944,6.952191 -0.08176,2.279121 -0.04895,2.656417 0.278871,3.902604 0.377296,1.393561 0.672306,1.803665 1.180571,1.607079 0.180446,-0.06588 0.262467,-0.311679 0.262467,-0.770731 0,-0.360892 0.196585,-1.443037 0.442648,-2.410354 l 0.426243,-1.738313 0.180446,0.721784 c 0.229658,0.836083 1.574006,3.426883 2.787386,5.312304 0.836347,1.27926 0.852752,1.361017 1.131622,3.361531 0.147373,1.131358 0.606425,3.88329 1.672167,8.116623 0.941917,3.740414 6.2357,7.450402 7.557823,8.376973 l 7.94e-4,5.29e-4 c 0.173831,0.121708 0.278606,0.195262 0.295539,0.214312 0.164306,0.180446 0.3937,0.278871 0.524934,0.229659 0.147637,-0.04921 0.229658,0.0164 0.229658,0.196585 0,0.164306 0.114829,0.377296 0.245798,0.475456 0.164041,0.11483 0.278871,0.557742 0.311679,1.328209 0.08202,1.541727 1.229519,4.492886 2.115079,5.460206 0.573881,0.62309 1.770856,0.88556 3.099065,0.6559 0.869156,-0.13097 1.114954,-0.22939 1.032933,-0.42624 -0.04895,-0.13097 0.262467,0.0328 0.688975,0.36089 4.984485,3.80391 10.034587,6.0833 15.708048,7.06702 2.197364,0.37703 5.837502,0.59029 7.821347,0.44265 1.754717,-0.11457 1.754717,-0.11457 1.672696,0.22966 -0.114829,0.45905 0.03281,0.73766 2.442898,4.82071 1.918494,3.23029 2.082536,3.44328 4.214019,5.62424 4.525692,4.67307 9.460972,8.29681 15.052672,11.10086 5.26336,2.62334 13.66679,4.80404 21.34897,5.49302 7.68191,0.68844 13.19926,-6.36244 13.18313,-8.16584 -0.0328,-2.47623 -0.3773,-4.09945 -1.21338,-5.67346 -0.81995,-1.52506 -1.36102,-2.04946 -3.82085,-3.68935 -2.73791,-1.8198 -4.42675,-3.31205 -5.54196,-4.90273 -0.70512,-1.00012 -0.96732,-2.13148 -0.96732,-2.73844 0,-0.39343 0.50826,-1.27873 1.26259,-1.45917 0.68845,-0.18018 0.81994,-0.16378 1.59041,0.21325 0.45905,0.21325 1.65603,0.77047 2.64001,1.24592 1.00013,0.45932 1.96771,0.91864 2.1643,1.0168 0.57996,0.16113 0.8255,1.29672 0.95832,1.91214 0.0296,0.13732 0.0537,0.24897 0.0746,0.31777 0.22966,0.85275 1.31604,1.95368 2.01692,2.32833 1.23084,0.65855 4.26349,0.74639 5.09958,-0.15531 0.21351,-0.22966 0.91995,-0.51197 1.06574,-0.42651 0.14578,0.0857 0.6723,0.79507 0.6723,1.36895 0.0164,0.98373 0.52467,1.88569 1.60682,2.78739 2.04973,1.7055 3.64014,2.11534 5.24695,1.36102 0.83635,-0.39344 1.52188,-0.54716 1.52188,-0.54716 0,0 0.68342,0.87233 0.72443,1.17025 0.32227,2.32966 3.77137,3.30623 4.68974,3.40492 0.21035,0.0209 0.61992,-0.0691 1.03585,-0.1606 0.55615,-0.12224 1.12395,-0.24712 1.24327,-0.11245 0.23416,0.26432 -3.919,7.1329 -4.49262,8.0018 -5.46047,8.19864 -16.08561,13.21593 -29.08856,13.74087 -8.44444,0.34422 -18.82351,-2.01719 -27.8257,-6.31296 -5.75521,-2.77125 -10.854527,-6.16532 -16.314733,-10.92041 -0.951177,-0.81995 -2.049727,-1.75446 -2.443163,-2.08227 -0.3937,-0.31168 -1.328208,-1.37743 -2.049727,-2.36141 -1.213379,-1.63962 -1.902089,-2.22991 -1.902089,-1.67243 0,0.2458 0.787135,1.75445 1.688835,3.2467 0.360892,0.59029 0.590285,1.00013 0.508529,0.93451 -0.08202,-0.0656 -0.344487,1.11495 -0.590285,2.62334 -0.803804,4.83711 -2.131748,9.60888 -3.476361,12.57671 -0.737923,1.60708 -2.15265,2.80696 -2.579158,3.13478 -1.574006,1.19697 -3.930385,1.73514 -7.193491,2.06296 -4.131998,0.4101 -10.215298,-0.50827 -14.855561,-2.24632 -1.229783,-0.45905 -4.394464,-1.78726 -4.607718,-1.93463 -0.0127,-0.013 -0.0852,-0.48472 -0.186532,-1.143 -0.02884,-0.18574 -0.05953,-0.38629 -0.09208,-0.59531 -0.590285,-4.04998 -1.410229,-19.64346 -1.410229,-26.85839 0,-2.98423 -0.03281,-3.64013 -0.229658,-3.64013 -0.40984,0 -0.573617,0.3937 -0.754063,1.80366 -0.409839,3.2139 -0.327818,19.98795 0.11483,23.51326 l 0.09842,0.8038 -0.557742,-0.31168 c -0.852488,-0.49212 -4.09919,-3.78777 -5.230548,-5.31283 -0.957792,-1.30334 -1.52691,-2.97312 -1.95289,-4.22249 -0.09922,-0.29051 -0.190235,-0.55827 -0.277283,-0.79348 -2.377281,-6.59157 -1.541198,-13.98799 1.738313,-20.64517 2.78765,-5.67346 6.214533,-8.821477 11.232091,-10.346535 0.819679,-0.245798 1.541198,-0.508265 1.623219,-0.573881 0.311414,-0.295011 -1.6891,-0.147373 -2.78765,0.196585 -3.574521,1.098815 -7.312819,4.099451 -9.854406,7.936441 -3.574521,5.37819 -5.1816,13.31436 -4.050242,20.08611 0.262467,1.60681 1.328208,5.08317 1.623219,5.32897 0.02619,0.0262 0.161131,0.30903 0.365125,0.73713 0.564092,1.18322 1.656292,3.47451 2.438929,4.51009 0.950913,1.2954 3.820583,4.11559 5.017294,4.98475 l 0.754591,0.54107 0.11483,1.32794 c 0.212989,2.54159 0.29501,2.77125 1.442508,3.624 2.869671,2.1807 8.526727,4.21376 13.642446,4.93554 2.37781,0.32782 7.542741,0.21299 9.510183,-0.21325 z m 55.422008,-15.3969 c -9.52659,-0.83635 -21.03755,-5.37845 -29.36716,-12.39626 -3.508644,-2.9681 -8.067151,-8.73945 -9.870815,-11.93668 -0.377296,-0.65616 -0.655902,-0.96758 -0.983721,-1.0496 -0.344487,-0.0982 -0.04948,-0.19685 1.360752,-0.42624 5.952067,-1.0168 11.740094,-3.49277 16.413424,-7.01808 l 0.68871,-0.50826 0.19685,0.47572 c 0.44265,1.06574 2.14789,2.14789 3.41048,2.14789 0.50827,0 2.21351,-0.77047 3.2467,-1.47558 l 0.70512,-0.47546 0.57362,0.57362 c 0.52493,0.52493 0.62309,0.55747 1.60707,0.55747 1.13136,0 2.49238,-0.50826 3.24671,-1.22978 l 0.40957,-0.37703 1.16443,0.77073 c 0.6231,0.44265 2.36114,1.40997 3.85313,2.1807 2.23017,1.14776 4.59131,2.47597 6.83763,3.85339 l 0.36089,0.22966 -0.34449,0.45878 c -0.36063,0.49213 -1.03267,1.4269 -1.03267,2.85327 0,1.60682 1.67085,4.49395 4.86966,6.47674 2.51301,1.55786 6.83763,4.62174 6.67358,9.10034 -0.0198,0.54107 -0.62309,1.88569 -1.42663,3.09906 -0.52467,0.77074 -1.98384,1.9185 -3.31205,2.5908 -2.26298,1.13136 -6.24734,1.787 -9.28079,1.5248 z M 43.108546,61.37207 c 0.442648,0.09869 0.737923,0.246327 0.672042,0.311679 -0.213254,0.213254 -1.344348,0.114829 -1.606815,-0.147373 -0.409839,-0.393436 -0.311679,-0.672571 0.262467,-0.787136 0.29501,-0.04921 0.737658,-0.295275 0.983721,-0.541072 0.246062,-0.246063 0.459052,-0.360628 0.459052,-0.278607 0,0.21299 -0.819679,0.967052 -1.229783,1.131094 -0.262467,0.114829 -0.180446,0.164042 0.459316,0.311415 z m 6.525948,0.262466 c 0.475456,-0.262466 0.377031,-0.442648 -0.180446,-0.360627 -0.557477,0.08202 -0.590285,0.0164 -0.229393,-0.541073 0.147372,-0.212989 0.229393,-0.524668 0.196585,-0.688446 -0.04921,-0.213518 -0.164042,-0.114829 -0.426244,0.409575 -0.19685,0.377296 -0.475456,0.688975 -0.606954,0.688975 -0.409575,0 -0.442648,0.327819 -0.04895,0.475457 0.508265,0.212989 0.9017,0.212989 1.2954,0.01614 z m -5.67346,-8.952706 c -0.3937,0.06562 -1.623219,0.557477 -2.705365,1.09855 -1.09855,0.524669 -2.033323,0.967581 -2.098939,0.951177 -1.672696,-0.180181 0.655902,-2.967831 4.886325,-5.820833 4.049977,-2.738438 6.788414,-4.181475 9.329737,-4.919133 1.590675,-0.459052 3.377935,-0.524934 3.8862,-0.147638 0.278606,0.21299 0.180446,0.229658 -1.032933,0.245798 -2.623609,0 -5.657057,1.344613 -10.592594,4.640262 -2.557727,1.705505 -5.525823,4.148667 -5.525823,4.542103 0,0.08202 0.475456,-0.08202 1.065742,-0.344223 1.262856,-0.573882 2.558256,-0.869157 3.131873,-0.737923 0.606954,0.164041 0.475456,0.377031 -0.344223,0.49186 z m 6.345502,1.410229 c 1.541462,-0.311679 1.607079,-0.327818 1.607079,-0.492125 0,-0.08176 -0.590285,-0.163777 -1.328208,-0.196585 l -1.328209,-0.04921 1.229784,-1.39356 c 0.672306,-0.770731 1.459441,-1.541463 1.738048,-1.721644 0.606954,-0.3937 0.639497,-0.672306 0.147637,-0.836612 l -0.377031,-0.114829 0.409839,-0.147373 c 0.229659,-0.08176 0.655902,-0.11483 0.951177,-0.06562 0.442648,0.06562 0.541073,0.03281 0.491596,-0.19685 -0.04895,-0.229394 -0.229129,-0.278606 -1.032933,-0.262202 -2.344738,0.03281 -3.344863,0.655902 -1.50839,0.951177 0.508265,0.08202 0.934509,0.21299 0.934509,0.29501 0,0.06562 -0.08202,0.130969 -0.180182,0.130969 -0.311679,0 -2.951427,2.673086 -3.27951,3.328723 -0.508265,0.967581 -0.229658,1.115219 1.524794,0.770731 z m 10.822252,-6.361906 c -0.475456,0.03281 -0.590286,0.114829 -0.557477,0.344223 l 0.005,0.03334 c 0.01826,0.12118 0.02884,0.19103 0.0019,0.212196 -0.03704,0.02831 -0.142346,-0.03122 -0.390261,-0.171979 l -0.04313,-0.02434 c -0.311414,-0.164041 -0.344223,-0.245797 -0.163777,-0.377295 0.114829,-0.09816 0.426244,-0.245798 0.672307,-0.295011 l 0.459052,-0.114829 -0.344223,-0.360627 c -0.180711,-0.213254 -0.278871,-0.410104 -0.229659,-0.475721 0.130969,-0.130969 1.738048,0.04948 1.967442,0.229659 0.09869,0.08202 0.246062,0.06562 0.344487,-0.03281 0.229659,-0.229394 0.541073,-0.04921 0.541073,0.311415 0,0.19685 -0.04921,0.213254 -0.196585,0.06562 -0.131498,-0.130968 -0.246327,-0.130968 -0.3937,-0.01614 -0.131233,0.114829 -0.229394,0.114829 -0.311415,-0.01667 -0.04948,-0.08176 -0.360891,-0.163777 -0.68871,-0.163777 -0.302683,0 -0.445823,0 -0.474927,0.05768 -0.02619,0.05159 0.03942,0.149754 0.163248,0.335756 0.261673,0.408782 0.246062,0.410105 -0.355071,0.458788 z m -2.49264,-4.361656 c 0,-0.213254 -0.196585,-0.590286 -0.442648,-0.836348 l -0.459052,-0.459052 2.459567,0.09816 c 1.361016,0.06588 2.902214,0.213519 3.443552,0.360892 0.541073,0.131233 1.164167,0.229394 1.39356,0.229394 0.344488,0 0.278607,-0.06535 -0.360627,-0.409575 -1.114954,-0.574146 -2.541587,-0.852752 -5.27976,-1.049602 -3.279511,-0.229659 -4.935538,0.08202 -4.624123,0.901964 0.04921,0.163777 0.311679,0.245798 0.705115,0.245798 0.803275,0 2.115343,0.475456 2.557991,0.918369 0.475456,0.475456 0.606425,0.475456 0.606425,0 z M 50.634619,86.78768 c 1.327944,1.705239 3.082661,3.640137 3.902604,4.295775 0.491861,0.3937 0.918104,0.721783 0.950913,0.721783 0.0164,0 -0.344488,-0.754327 -0.803275,-1.672696 -1.852877,-3.68935 -2.935288,-7.362031 -3.443552,-11.592454 -0.114829,-0.934773 -0.295275,-1.721908 -0.492125,-2.049727 -0.393436,-0.655902 -0.393436,-1.508654 0.01667,-2.311929 0.21299,-0.426244 0.327819,-0.967581 0.327819,-1.557867 v -0.9017 l -0.787135,0.819944 c -0.770467,0.803275 -1.50839,1.131358 -1.50839,0.639233 0,-0.360627 1.213379,-2.098675 1.852877,-2.639748 0.508265,-0.426508 0.573882,-0.574145 0.737923,-1.852877 0.114829,-0.770731 0.377031,-2.131747 0.590286,-3.033712 0.229658,-0.9017 0.360627,-1.672167 0.327818,-1.704975 -0.114829,-0.114829 -3.967956,4.310592 -4.492625,5.722408 -0.115358,0.310092 -0.426243,0.852752 -0.672306,1.180571 l -0.426244,0.547423 c 0,0 0.132292,0.766498 0.278607,1.729846 0.147902,0.973137 0.217223,1.642268 0.279135,2.23811 0.08255,0.79719 0.151606,1.463146 0.376767,2.551906 0.262202,1.344348 0.524668,2.508779 0.590285,2.590536 0.04921,0.09842 0.262202,0.852752 0.475721,1.688835 0.458787,1.852877 1.229519,3.68935 1.918229,4.591315 z m 66.539001,15.51146 -0.34422,-0.34449 c 0,0 5.715,-7.260956 6.7392,-9.936422 0.78132,-2.041525 1.24116,-2.620698 1.86187,-2.620698 0.34714,0 0.63024,0.07911 0.76148,0.27596 0.22965,0.344223 0.45085,0.770731 0.15557,2.229908 -0.4916,2.361142 -1.24619,3.919009 -3.5089,7.28054 -0.52467,0.770467 -1.19698,1.623222 -1.49199,1.918492 -0.68871,0.63923 -2.23811,1.29514 -3.14007,1.44251 -0.57362,0.0823 -0.73793,0.0495 -1.03294,-0.2458 z"
       fill="#282828"
       id="path27"
       style="stroke-width:0.264583" />
    <path
       d="m 162.57692,118.33977 c 2.0402,-5.5581 1.73116,-6.74238 1.37742,-6.85826 0,0 -0.77894,0.44291 -1.12342,1.37742 -0.63924,1.75445 -2.8284,6.3455 -3.64808,7.16544 -0.96732,0.96758 -0.96732,0.96758 -1.9513,0.96758 -0.98372,0 -3.82138,-1.48166 -4.20767,-2.94216 -0.6178,-2.33654 2.04311,-10.45448 2.10873,-10.91327 l -0.44265,-0.31168 c -0.29527,0.27887 -4.13411,11.92054 -9.1821,8.88709 -0.57811,-0.34713 -1.80393,-1.98411 -1.90235,-2.853 -0.54637,-2.52519 1.96082,-11.35513 2.38707,-13.16858 0.38153,-1.623218 2.36828,-3.13002 4.81145,-3.13002 3.75496,0 3.2504,3.282156 4.93236,4.43891 0.74533,0.51224 1.97035,-0.41671 2.34765,-0.48709 2.11534,-0.3937 2.92602,0.0645 4.47648,1.29513 1.19698,0.94986 2.08254,2.83025 3.05753,3.49277 0.5416,0.36777 1.11601,-0.13521 1.30439,-0.22966 0.77126,-0.38735 2.4265,-0.0984 2.88555,0.22966 0.6731,0.29315 2.32251,1.8788 2.58286,2.80088 1.1811,4.17909 -2.54767,13.44453 -3.95578,15.18285 -2.33019,2.87707 -7.89808,0.61409 -5.85814,-4.94401 z"
       fill="#ffffff"
       id="path29"
       style="stroke-width:0.264583" />
    <path
       fill-rule="evenodd"
       clip-rule="evenodd"
       d="m 68.310638,103.11035 c 4.492625,2.8366 9.125479,4.68921 14.404974,5.19774 4.165071,0.39344 9.780588,-0.14763 13.814161,-1.45944 3.394075,-1.09855 7.985387,-4.14205 11.051647,-6.71618 5.95207,-4.984751 9.70703,-12.770909 11.34692,-21.034905 0.22939,-1.164431 0.57944,-4.090723 0.56303,-6.992937 0,-3.377936 -1.48643,-12.60819 -5.99069,-17.930548 -9.28979,-10.977033 -24.560216,-15.922096 -37.39383,-11.696964 -4.629414,1.524 -9.558602,4.285456 -13.280496,7.892785 -4.689739,4.57491 -8.149431,10.805583 -9.526852,17.167754 -1.442772,6.722798 0.434182,14.7574 3.697288,21.348964 2.606939,5.246952 6.903244,11.419681 11.313848,14.223731 z M 112.09045,83.29518 c -3.0824,9.26412 -11.117,16.183768 -21.217469,18.28271 -1.541198,0.31141 -2.607469,0.42624 -4.77176,0.45905 -1.524794,0.0492 -3.049588,0.0325 -3.361267,0 -7.067021,-0.85275 -12.445206,-3.459956 -17.397412,-8.411898 -2.164292,-2.180431 -3.082396,-3.361002 -4.426744,-5.6896 -2.115344,-3.68935 -3.246702,-7.460721 -3.591189,-12.002558 -1.180571,-15.560675 9.953095,-28.53055 25.628599,-29.875427 6.148917,-0.524668 12.97014,1.361017 18.151472,5.033963 1.91823,1.360752 5.39459,4.804304 6.47674,6.411118 0.44265,0.639498 4.73869,6.919648 5.49301,10.526977 0.96732,4.68974 0.59029,10.559521 -0.98398,15.265665 z"
       fill="#ffffff"
       id="path31"
       style="stroke-width:0.264583" />
    <path
       fill-rule="evenodd"
       clip-rule="evenodd"
       d="m 119.49719,72.104628 c 0,11.005873 -5.20594,23.038064 -11.92477,28.176802 -3.20542,2.45163 -7.39457,5.42025 -11.042647,6.56722 -5.345906,1.68064 -13.814161,1.45944 -13.814161,1.45944 0,0 8.639175,-1.1549 11.840634,-2.44342 9.180514,-3.69464 14.191984,-9.365724 17.286554,-14.807409 6.10843,-10.741554 7.65439,-19.220127 7.65439,-18.952633 z"
       fill="#ebebeb"
       id="path33"
       style="stroke-width:0.264583" />
    <path
       fill-rule="evenodd"
       clip-rule="evenodd"
       d="m 82.903996,100.0695 c -4.378061,-0.557743 -8.723313,-2.115345 -12.232217,-4.427275 -2.082535,-1.361016 -5.230548,-4.558506 -6.755606,-6.837627 -2.18096,-3.27951 -3.623733,-6.788414 -4.328583,-10.559785 -0.508529,-2.738173 -0.492125,-6.952456 0.01614,-9.395354 0.524669,-2.492375 1.19724,-4.394464 2.39395,-6.804819 1.393825,-2.787385 2.869407,-4.837377 5.083175,-7.050616 3.771371,-3.771371 8.149167,-6.165321 13.363575,-7.313083 1.688836,-0.360892 7.804944,-0.655902 8.017933,-0.377296 0.04948,0.08202 0.377296,0.295275 0.721784,0.475456 0.344223,0.19685 1.262327,0.88556 2.016654,1.557867 1.131358,0.98372 1.639623,1.606814 2.623608,3.148277 0.672042,1.049337 1.213379,2.00025 1.213379,2.08227 0,0.180446 0.524404,0.508265 0.819679,0.508265 0.40984,0 0.688711,-1.229519 0.770732,-3.394075 0.04921,-1.196975 0.147637,-2.180696 0.213254,-2.180696 0.229658,0 2.754577,1.393825 3.935147,2.180696 2.31193,1.541463 4.62412,3.705754 6.3291,5.968471 0.77073,1.016794 0.88556,1.278996 0.88556,1.902089 0,0.573882 0.16404,1.01653 0.6723,1.90209 1.279,2.229908 2.27913,5.033962 2.88608,8.133027 0.39343,2.082271 0.39343,6.017419 -0.0167,8.198379 -1.11495,6.001279 -4.42727,11.96975 -8.73945,15.757525 -3.656542,3.197489 -7.542742,5.165196 -12.133792,6.132512 -1.574271,0.344222 -6.296554,0.573882 -7.755731,0.393702 z M 71.180044,88.853811 c 0.147637,-0.164042 0.245798,-0.410104 0.19685,-0.524933 -0.01482,-0.0344 -0.220133,-0.130969 -0.5207,-0.272257 -0.700617,-0.329141 -1.918494,-0.901964 -2.446338,-1.4986 -2.098675,-2.39395 -2.869406,-4.180945 -3.344862,-7.870295 -0.459317,-3.59119 -0.07329,-6.018477 0.754062,-9.920288 0.404019,-1.903148 1.477169,-3.475566 2.144713,-4.453731 0.454025,-0.664898 0.72046,-1.055423 0.461698,-1.088496 -0.639498,-0.09842 -0.737923,-0.04921 -1.410229,0.590286 -1.443038,1.37742 -2.09894,2.47597 -2.787386,4.591314 -1.065741,3.312054 -1.271852,12.263437 0.837142,16.298333 2.108729,4.035425 5.737754,4.574911 6.11505,4.148667 z M 94.49645,75.080396 c -0.278342,2.547144 -1.459177,6.230938 -2.836598,7.837752 -0.639233,0.754063 -2.986881,2.049463 -4.968346,1.786996 -1.913731,-0.253206 -3.410479,-1.147498 -4.689475,-3.065991 -1.09855,-1.656027 -1.666081,-3.666596 -2.049462,-6.198129 -0.662517,-4.371975 2.229908,-9.461236 3.476096,-10.723563 1.262327,-1.2954 2.164291,-1.754716 3.312318,-1.770856 1.114954,0 1.836209,0.245798 2.967567,1.049073 2.066131,1.443037 5.329237,6.134629 4.7879,11.084718 z M 72.393423,61.519707 c 0.327819,-0.376767 0.377296,-0.557212 0.278871,-1.262327 -0.06588,-0.655902 -0.19685,-0.918104 -0.541338,-1.196975 -0.606425,-0.49186 -1.360752,-0.49186 -1.918493,0.03254 -0.393436,0.377296 -0.442648,0.508529 -0.393436,1.410229 0.04948,0.967581 0.08202,1.033198 0.623094,1.328208 0.721519,0.393436 1.426633,0.278606 1.951302,-0.311679 z M 82.62539,51.403099 c -2.951692,2.115079 -4.230688,2.984235 -5.558896,3.803914 -1.049338,0.655902 -1.377156,0.672571 -1.377156,0.08229 0,-0.311679 0.229393,-0.656167 0.819679,-1.19724 l 0.819943,-0.754327 -1.590675,-0.213254 c -1.786995,-0.229394 -3.525308,-0.721254 -3.902339,-1.09855 -0.623094,-0.639498 -0.08202,-0.787135 1.688835,-0.458787 0.787136,0.130968 2.312194,0.29501 3.394075,0.327818 l 1.967707,0.08176 1.426633,-1.032934 c 3.131873,-2.262716 6.37831,-3.541448 7.936177,-3.148012 0.967581,0.229393 0.852752,0.491596 -0.245798,0.622829 -1.262592,0.147637 -2.033323,0.573881 -5.378185,2.9845 z"
       fill="#ffffff"
       id="path35"
       style="stroke-width:0.264583" />
    <path
       d="m 86.839144,82.458832 c 0,-0.08176 0.09842,-0.163777 0.229658,-0.163777 0.130969,0 0.29501,0.08202 0.344488,0.163777 0.04895,0.09843 -0.04948,0.164041 -0.229659,0.164041 -0.19685,0 -0.344487,-0.06562 -0.344487,-0.164041 z"
       fill="#ffffff"
       id="path37"
       style="stroke-width:0.264583" />
    <path
       d="m 87.822864,82.311194 c 0,-0.180446 0.410105,-0.344223 0.869157,-0.344223 0.360627,0.01641 0.360627,0.01641 0.04921,0.246063 -0.360891,0.278606 -0.918369,0.327819 -0.918369,0.09816 z"
       fill="#ffffff"
       id="path39"
       style="stroke-width:0.264583" />
    <path
       d="m 85.281277,81.884951 c -0.04895,-0.130969 -0.114565,-0.360628 -0.163777,-0.491861 -0.04921,-0.164042 0.03281,-0.246062 0.245798,-0.246062 0.180446,0 0.328083,0.09842 0.328083,0.229658 0,0.131233 0.04921,0.344223 0.09842,0.49186 0.06562,0.180446 0.0164,0.262202 -0.164041,0.262202 -0.147638,0 -0.311415,-0.114564 -0.344488,-0.245797 z"
       fill="#ffffff"
       id="path41"
       style="stroke-width:0.264583" />
    <path
       d="m 86.150433,81.475111 c -0.08202,-0.492125 0.09842,-0.655902 0.688711,-0.655902 0.180446,0 0.327818,0.163777 0.393435,0.442648 0.131233,0.475456 -0.08176,0.705114 -0.655902,0.705114 -0.262202,0 -0.377031,-0.114829 -0.426244,-0.49186 z"
       fill="#ffffff"
       id="path43"
       style="stroke-width:0.264583" />
    <path
       d="m 84.478002,81.557132 c -0.311415,-0.245798 -0.311415,-0.246063 0.03281,-0.246063 0.213255,0 0.360892,0.09842 0.360892,0.246063 0,0.29501 0,0.29501 -0.3937,0 z"
       fill="#ffffff"
       id="path45"
       style="stroke-width:0.264583" />
    <path
       d="m 87.773917,81.540463 c -0.213255,-0.21299 -0.11483,-0.852487 0.147637,-0.950912 0.475456,-0.180446 0.688446,-0.09816 0.786871,0.327818 0.06562,0.246327 0.09842,0.459317 0.06562,0.475721 -0.131234,0.147373 -0.901965,0.246063 -1.000125,0.147373 z"
       fill="#ffffff"
       id="path47"
       style="stroke-width:0.264583" />
    <path
       d="m 89.233094,81.196505 c -0.04895,-0.04948 -0.09816,-0.262467 -0.09816,-0.459317 0,-0.278606 0.130969,-0.393435 0.524669,-0.475456 0.344223,-0.06562 0.557477,-0.03281 0.655902,0.09816 0.163777,0.262467 0.163777,0.590286 0.01614,0.672306 -0.295011,0.164307 -0.983721,0.262467 -1.098551,0.164307 z"
       fill="#ffffff"
       id="path49"
       style="stroke-width:0.264583" />
    <path
       d="m 83.72394,80.687976 c 0,-0.196586 0.147372,-0.360892 0.360627,-0.40984 0.426243,-0.114829 0.409839,-0.131233 0.49186,0.295275 0.03281,0.245798 -0.04921,0.344223 -0.3937,0.376767 -0.360627,0.04948 -0.458787,-0.01614 -0.458787,-0.262202 z"
       fill="#ffffff"
       id="path51"
       style="stroke-width:0.264583" />
    <path
       d="m 84.969862,80.70438 c -0.229393,-0.245798 -0.08202,-0.705115 0.229659,-0.705115 0.213254,0 0.328083,0.114829 0.328083,0.311679 0,0.311415 -0.377296,0.573882 -0.557742,0.393436 z"
       fill="#ffffff"
       id="path53"
       style="stroke-width:0.264583" />
    <path
       d="m 85.953848,80.212519 c -0.131233,-0.311414 0.147373,-0.541073 0.688446,-0.541073 0.246062,0 0.360891,0.09816 0.360891,0.31168 0,0.180181 -0.147373,0.343958 -0.360891,0.409575 -0.541073,0.131233 -0.573882,0.131233 -0.688446,-0.180182 z"
       fill="#ffffff"
       id="path55"
       style="stroke-width:0.264583" />
    <path
       d="m 90.692535,80.163307 c 0.04921,-0.08202 0.131234,-0.164042 0.180446,-0.164042 0.04895,0 0.03281,0.08202 -0.01667,0.164042 -0.04895,0.09842 -0.130968,0.163777 -0.180181,0.163777 -0.04921,0 -0.03281,-0.06535 0.0164,-0.163777 z"
       fill="#ffffff"
       id="path57"
       style="stroke-width:0.264583" />
    <path
       d="m 87.429429,79.884436 c -0.130969,-0.327819 0.03281,-0.491596 0.557477,-0.573617 0.295275,-0.03281 0.426244,0.03254 0.459317,0.262202 0.114564,0.541073 -0.819944,0.836348 -1.016794,0.311415 z"
       fill="#ffffff"
       id="path59"
       style="stroke-width:0.264583" />
    <path
       d="m 83.494281,79.60583 c -0.147637,-0.541338 -0.114829,-0.590286 0.311679,-0.590286 0.229394,0 0.409575,0.06562 0.409575,0.147638 0,0.08202 0.04921,0.262202 0.09869,0.393435 0.04895,0.164042 -0.04948,0.262202 -0.328083,0.311679 -0.31168,0.06535 -0.426244,0 -0.491861,-0.262466 z"
       fill="#ffffff"
       id="path61"
       style="stroke-width:0.264583" />
    <path
       d="m 88.970627,79.425384 c 0,-0.29501 0.114829,-0.426244 0.426508,-0.508265 0.459052,-0.114564 0.721519,0.114565 0.721519,0.639498 0,0.21299 -0.131233,0.278871 -0.573881,0.278871 -0.508265,0 -0.574146,-0.04921 -0.574146,-0.410104 z"
       fill="#ffffff"
       id="path63"
       style="stroke-width:0.264583" />
    <path
       d="m 83.002156,79.425384 c -0.04895,-0.131233 -0.01614,-0.246063 0.06562,-0.246063 0.09842,0 0.164042,0.11483 0.164042,0.246063 0,0.131233 -0.03281,0.246062 -0.06562,0.246062 -0.03254,0 -0.09842,-0.114829 -0.164042,-0.246062 z"
       fill="#ffffff"
       id="path65"
       style="stroke-width:0.264583" />
    <path
       d="m 84.658448,79.556617 c -0.229394,-0.213254 -0.09843,-0.672306 0.19685,-0.754327 0.180181,-0.04921 0.360627,-0.03281 0.409839,0.0164 0.19685,0.180182 0.08202,0.655902 -0.164041,0.754327 -0.311415,0.11483 -0.311415,0.11483 -0.442648,-0.0164 z"
       fill="#ffffff"
       id="path67"
       style="stroke-width:0.264583" />
    <path
       d="m 90.512354,79.441788 c -0.18071,-0.475456 0.01614,-0.836348 0.475456,-0.88556 0.344223,-0.04895 0.442648,0.01667 0.442648,0.278871 0,0.541072 -0.180446,0.836347 -0.508529,0.836347 -0.180181,0 -0.360627,-0.09843 -0.409575,-0.229658 z"
       fill="#ffffff"
       id="path69"
       style="stroke-width:0.264583" />
    <path
       d="m 85.80621,79.228534 c -0.19685,-0.180181 -0.131233,-0.508265 0.147638,-0.60669 0.311414,-0.114564 0.967317,0.213255 0.787135,0.3937 -0.229658,0.196586 -0.819943,0.344223 -0.934773,0.21299 z"
       fill="#ffffff"
       id="path71"
       style="stroke-width:0.264583" />
    <path
       d="m 87.232579,78.818694 c -0.147637,-0.229658 0.377296,-0.623093 0.803804,-0.623093 0.196586,0 0.278606,0.09843 0.245798,0.278606 -0.06562,0.328348 -0.901964,0.590285 -1.049602,0.344487 z"
       fill="#ffffff"
       id="path73"
       style="stroke-width:0.264583" />
    <path
       d="m 82.739954,78.703865 c 0,-0.08202 -0.04921,-0.262466 -0.09842,-0.409839 -0.04921,-0.147638 -0.03281,-0.262467 0.06562,-0.262467 0.213254,0 0.377031,0.623358 0.180181,0.754327 -0.08176,0.04921 -0.147373,0.01667 -0.147373,-0.08202 z"
       fill="#ffffff"
       id="path75"
       style="stroke-width:0.264583" />
    <path
       d="m 83.182602,78.326569 c -0.09843,-0.360627 0.09842,-0.623093 0.475721,-0.623093 0.212989,0 0.426244,0.639762 0.295275,0.852752 -0.180711,0.278871 -0.688975,0.114829 -0.770996,-0.229659 z"
       fill="#ffffff"
       id="path77"
       style="stroke-width:0.264583" />
    <path
       d="m 84.330365,78.408855 c -0.245798,-0.246063 -0.09816,-0.836348 0.229658,-0.918369 0.245798,-0.06535 0.377296,0.01667 0.508264,0.311679 0.09843,0.213254 0.147638,0.426244 0.11483,0.459052 -0.163777,0.147638 -0.754063,0.262467 -0.852752,0.147638 z"
       fill="#ffffff"
       id="path79"
       style="stroke-width:0.264583" />
    <path
       d="m 88.757637,78.40859 c -0.213254,-0.212989 -0.114829,-0.343958 0.377296,-0.524404 0.40984,-0.131233 0.524669,-0.114829 0.606425,0.08176 0.147638,0.3937 -0.672041,0.770732 -0.983721,0.442648 z"
       fill="#ffffff"
       id="path81"
       style="stroke-width:0.264583" />
    <path
       d="m 90.200675,78.031824 c -0.163777,-0.262467 0.06535,-0.492125 0.49186,-0.492125 0.508265,0 0.655902,0.426243 0.196586,0.557741 -0.491596,0.130969 -0.573617,0.114565 -0.688446,-0.06562 z"
       fill="#ffffff"
       id="path83"
       style="stroke-width:0.264583" />
    <path
       d="m 91.594235,77.638124 c 0,-0.245798 0.295275,-0.508265 0.426509,-0.377296 0.114829,0.114829 -0.11483,0.606954 -0.278871,0.606954 -0.08202,0 -0.147638,-0.09843 -0.147638,-0.229658 z"
       fill="#ffffff"
       id="path85"
       style="stroke-width:0.264583" />
    <path
       d="m 82.5267,77.424869 c -0.06562,-0.04921 -0.114829,-0.262202 -0.09816,-0.442648 0,-0.311679 0.01614,-0.311679 0.163777,0.04921 0.164041,0.393435 0.131233,0.590285 -0.06562,0.393435 z"
       fill="#ffffff"
       id="path87"
       style="stroke-width:0.264583" />
    <path
       d="m 82.838379,77.179071 c -0.147637,-0.573881 -0.131233,-0.623093 0.295275,-0.623093 0.475456,0 0.770467,0.606689 0.40984,0.836348 -0.377032,0.229393 -0.590286,0.163777 -0.705115,-0.213255 z"
       fill="#ffffff"
       id="path89"
       style="stroke-width:0.264583" />
    <path
       d="m 88.479031,77.507155 c 0,-0.04948 0.08202,-0.311679 0.180181,-0.606954 0.229659,-0.655902 0.737923,-0.688446 0.852752,-0.04895 0.04895,0.245798 0.06562,0.459052 0.04895,0.475456 -0.08176,0.09843 -1.081881,0.245798 -1.081881,0.180446 z"
       fill="#ffffff"
       id="path91"
       style="stroke-width:0.264583" />
    <path
       d="m 84.002546,77.097051 c -0.06562,-0.04921 -0.114829,-0.245798 -0.114829,-0.426509 0,-0.262202 0.04921,-0.278606 0.246062,-0.114564 0.130969,0.114564 0.245798,0.311414 0.245798,0.426243 0,0.245798 -0.19685,0.31168 -0.377031,0.11483 z"
       fill="#ffffff"
       id="path93"
       style="stroke-width:0.264583" />
    <path
       d="m 89.9054,76.769232 c -0.09816,-0.508265 0.114829,-0.737923 0.623094,-0.672306 0.245798,0.03254 0.327818,0.180181 0.327818,0.540808 0,0.410104 -0.06535,0.508529 -0.426243,0.541337 -0.360627,0.04895 -0.442648,-0.03281 -0.524669,-0.409839 z"
       fill="#ffffff"
       id="path95"
       style="stroke-width:0.264583" />
    <path
       d="m 91.512214,76.834584 c -0.212989,-0.655638 -0.147637,-0.852488 0.295275,-0.901965 0.3937,-0.04895 0.442648,0 0.442648,0.426509 0,0.360627 -0.09842,0.508264 -0.344223,0.573881 -0.180181,0.04921 -0.360627,0 -0.3937,-0.09842 z"
       fill="#ffffff"
       id="path97"
       style="stroke-width:0.264583" />
    <path
       d="m 82.280902,75.899811 c 0,-0.31115 0.03281,-0.442648 0.08202,-0.278606 0.03281,0.147637 0.03281,0.410104 0,0.573881 -0.04921,0.147638 -0.08202,0.0164 -0.08202,-0.295275 z"
       fill="#ffffff"
       id="path99"
       style="stroke-width:0.264583" />
    <path
       d="m 82.690742,76.11333 c -0.21299,-0.19685 -0.11483,-0.836348 0.147637,-0.934773 0.377296,-0.147638 0.557477,0.03281 0.557477,0.573881 0,0.344488 -0.08202,0.475456 -0.29501,0.475456 -0.164042,0 -0.360892,-0.04895 -0.410104,-0.114564 z"
       fill="#ffffff"
       id="path101"
       style="stroke-width:0.264583" />
    <path
       d="m 83.674462,75.670682 c -0.06535,-0.246063 -0.09816,-0.508529 -0.03254,-0.557477 0.163777,-0.164306 0.262202,0.09816 0.212989,0.573616 l -0.04921,0.459317 z"
       fill="#ffffff"
       id="path103"
       style="stroke-width:0.264583" />
    <path
       d="m 88.970627,75.555853 c 0,-0.180446 0.08229,-0.278871 0.164306,-0.229659 0.09816,0.04921 0.163777,0.21299 0.163777,0.344488 0,0.130969 -0.06562,0.229394 -0.163777,0.229394 -0.08202,0 -0.164306,-0.147638 -0.164306,-0.344223 z"
       fill="#ffffff"
       id="path105"
       style="stroke-width:0.264583" />
    <path
       d="m 89.70855,75.768842 c -0.229394,-0.245798 -0.04895,-0.688446 0.328083,-0.787135 0.475721,-0.114829 0.491861,-0.114829 0.639498,0.360627 0.09816,0.295275 0.03281,0.361156 -0.393435,0.426508 -0.262467,0.04921 -0.524934,0.03281 -0.574146,0 z"
       fill="#ffffff"
       id="path107"
       style="stroke-width:0.264583" />
    <path
       d="m 91.217204,75.457163 c -0.180446,-0.163777 -0.131233,-0.705114 0.04921,-0.705114 0.09816,0 0.164041,-0.06535 0.164041,-0.163778 0,-0.08202 -0.09843,-0.164041 -0.229658,-0.164041 -0.278871,0 -0.508265,-0.803275 -0.278871,-1.032933 0.295275,-0.295275 0.623094,0.0164 0.819944,0.819943 0.114829,0.426244 0.229658,0.918104 0.278871,1.082146 0.06562,0.213254 0,0.278606 -0.31168,0.278606 -0.212989,0 -0.442647,-0.04895 -0.49186,-0.114829 z"
       fill="#ffffff"
       id="path109"
       style="stroke-width:0.264583" />
    <path
       d="m 92.1025,74.588271 c -0.114565,-0.49186 -0.409575,-1.475581 -0.623094,-2.197099 -0.327819,-1.049338 -0.360627,-1.311805 -0.180181,-1.426634 0.114829,-0.08202 0.262202,-0.147637 0.311679,-0.147637 0.180181,0 0.836083,3.361531 0.770467,4.017433 l -0.04921,0.655637 z"
       fill="#ffffff"
       id="path111"
       style="stroke-width:0.264583" />
    <path
       d="m 82.11686,74.506251 c 0,-0.262467 0.03281,-0.360627 0.08202,-0.19685 0.03281,0.147637 0.03281,0.377295 0,0.492125 -0.04921,0.09816 -0.08202,-0.0164 -0.08202,-0.295275 z"
       fill="#ffffff"
       id="path113"
       style="stroke-width:0.264583" />
    <path
       d="m 82.444679,74.473442 c 0.06588,-0.573616 0.541338,-0.705114 0.672306,-0.180181 0.11483,0.426244 0.147638,0.377031 -0.344487,0.541073 -0.343958,0.09843 -0.376767,0.06535 -0.327819,-0.360892 z"
       fill="#ffffff"
       id="path115"
       style="stroke-width:0.264583" />
    <path
       d="m 89.364327,74.326069 c -0.131233,-0.47572 0.147637,-0.754327 0.672306,-0.68871 0.3937,0.04895 0.541073,0.754062 0.213254,0.967317 -0.409839,0.262202 -0.787135,0.147373 -0.88556,-0.278607 z"
       fill="#ffffff"
       id="path117"
       style="stroke-width:0.264583" />
    <path
       d="m 83.395856,74.194836 c 0,-0.278871 0.08176,-0.426508 0.262467,-0.426508 0.163777,0 0.229394,0.114829 0.196585,0.360627 -0.08202,0.524933 -0.459052,0.574146 -0.459052,0.06588 z"
       fill="#ffffff"
       id="path119"
       style="stroke-width:0.264583" />
    <path
       d="m 81.936415,73.506126 c 0,-0.180446 0.04921,-0.229394 0.09869,-0.09842 0.04895,0.114829 0.03254,0.262466 -0.01667,0.311679 -0.04921,0.06562 -0.09816,-0.03307 -0.08202,-0.213254 z"
       fill="#ffffff"
       id="path121"
       style="stroke-width:0.264583" />
    <path
       d="m 82.248094,73.456913 c 0,-0.246062 0.09843,-0.344487 0.344223,-0.344487 0.229658,0 0.311679,0.08228 0.27887,0.278871 -0.08202,0.426243 -0.623093,0.475456 -0.623093,0.06562 z"
       fill="#ffffff"
       id="path123"
       style="stroke-width:0.264583" />
    <path
       d="m 83.149794,73.30954 c -0.114829,-0.295275 -0.114829,-0.295275 0.377296,-0.426508 0.29501,-0.09843 0.360627,-0.04895 0.360627,0.19685 0,0.393435 -0.590286,0.590285 -0.737923,0.229658 z"
       fill="#ffffff"
       id="path125"
       style="stroke-width:0.264583" />
    <path
       d="m 89.085456,73.079882 c -0.114829,-0.410104 0.09869,-0.623094 0.672306,-0.623094 0.278871,0 0.360892,0.09816 0.360892,0.40984 0,0.246062 -0.09843,0.409839 -0.229394,0.409839 -0.131498,0 -0.344487,0.04921 -0.475721,0.09843 -0.147637,0.04921 -0.262202,-0.04921 -0.328083,-0.29501 z"
       fill="#ffffff"
       id="path127"
       style="stroke-width:0.264583" />
    <path
       d="m 90.512354,72.702586 c -0.131498,-0.327819 0.06535,-0.573881 0.442383,-0.573881 0.229659,0 0.31168,0.114829 0.31168,0.410104 0,0.29501 -0.08202,0.409575 -0.327819,0.409575 -0.180446,0 -0.377296,-0.114565 -0.426244,-0.245798 z"
       fill="#ffffff"
       id="path129"
       style="stroke-width:0.264583" />
    <path
       d="m 82.084052,72.472928 c 0,-0.344223 0.377296,-0.737923 0.541338,-0.557477 0.06535,0.04921 0.114564,0.278871 0.114564,0.492125 0,0.262202 -0.09842,0.377031 -0.328083,0.377031 -0.21299,0 -0.327819,-0.114829 -0.327819,-0.311679 z"
       fill="#ffffff"
       id="path131"
       style="stroke-width:0.264583" />
    <path
       d="m 82.986017,72.276342 c -0.131234,-0.409839 0.01614,-0.590285 0.573881,-0.672306 0.508264,-0.06562 0.672306,0.475456 0.229394,0.80354 -0.42598,0.311679 -0.688446,0.262202 -0.803275,-0.131234 z"
       fill="#ffffff"
       id="path133"
       style="stroke-width:0.264583" />
    <path
       d="m 88.921679,72.177917 c -0.114829,-0.09842 -0.164042,-0.705114 -0.06562,-0.705114 0.01641,0 0.262202,-0.06562 0.557477,-0.147638 0.491861,-0.147637 0.524669,-0.130968 0.50853,0.311679 -0.01667,0.327819 -0.11483,0.491861 -0.361157,0.557478 -0.442648,0.114829 -0.508264,0.114829 -0.639233,-0.01641 z"
       fill="#ffffff"
       id="path135"
       style="stroke-width:0.264583" />
    <path
       d="m 88.314989,71.800886 c 0,-0.114829 0.04921,-0.164042 0.11483,-0.114829 0.04921,0.06562 0.04921,0.163777 0,0.229394 -0.06562,0.04921 -0.11483,0 -0.11483,-0.114565 z"
       fill="#ffffff"
       id="path137"
       style="stroke-width:0.264583" />
    <path
       d="m 90.151198,71.538419 c 0.04948,-0.27887 0.557741,-0.68871 0.672571,-0.557477 0.04921,0.04921 0.131233,0.246063 0.180181,0.459052 0.114829,0.327819 0.06562,0.360892 -0.393436,0.360892 -0.393435,0 -0.508264,-0.06588 -0.459316,-0.262467 z"
       fill="#ffffff"
       id="path139"
       style="stroke-width:0.264583" />
    <path
       d="m 82.248094,71.522015 c 0,-0.08202 0.08202,-0.245798 0.163777,-0.377296 0.131498,-0.196585 0.164041,-0.180181 0.164041,0.131498 0,0.196586 -0.06535,0.360627 -0.164041,0.360627 -0.08176,0 -0.163777,-0.04921 -0.163777,-0.114829 z"
       fill="#ffffff"
       id="path141"
       style="stroke-width:0.264583" />
    <path
       d="m 82.739954,71.161388 c 0,-0.459316 0.344223,-0.606954 0.60669,-0.262466 0.163777,0.245797 0.163777,0.327818 0,0.442647 -0.344488,0.213255 -0.60669,0.147638 -0.60669,-0.180181 z"
       fill="#ffffff"
       id="path143"
       style="stroke-width:0.264583" />
    <path
       d="m 87.724704,70.948134 c -0.295275,-0.327819 -0.295275,-0.344223 -0.0164,-0.246062 0.163777,0.06588 0.377031,0.114829 0.459052,0.114829 0.08202,0 0.147637,0.114829 0.147637,0.246062 0,0.344223 -0.229658,0.311415 -0.590285,-0.114829 z"
       fill="#ffffff"
       id="path145"
       style="stroke-width:0.264583" />
    <path
       d="m 84.199396,70.93173 c -0.705115,-0.541073 -0.80354,-1.754452 -0.147638,-1.754452 0.442648,0 0.852752,0.68871 0.786871,1.328208 -0.04895,0.590286 -0.245798,0.721519 -0.639233,0.426244 z"
       fill="#ffffff"
       id="path147"
       style="stroke-width:0.264583" />
    <path
       d="m 88.692021,71.030155 c 0.06562,-0.04921 0.164041,-0.04921 0.229658,0 0.04895,0.06562 0,0.114829 -0.114829,0.114829 -0.114829,0 -0.164042,-0.04921 -0.114829,-0.114829 z"
       fill="#ffffff"
       id="path149"
       style="stroke-width:0.264583" />
    <path
       d="m 91.167992,70.390657 c 0.04921,-0.147373 0.09843,-0.29501 0.09843,-0.327819 0,-0.03281 0.08202,-0.06588 0.164041,-0.06588 0.09842,0 0.163777,0.147637 0.163777,0.328348 0,0.196585 -0.114829,0.327819 -0.262202,0.327819 -0.180446,0 -0.229394,-0.08202 -0.164041,-0.262467 z"
       fill="#ffffff"
       id="path151"
       style="stroke-width:0.264583" />
    <path
       d="m 82.575912,70.341444 c 0,-0.377295 0.344488,-1.000125 0.541073,-1.000125 0.344488,0 0.09869,1.049338 -0.262202,1.114955 -0.147637,0.03281 -0.278871,-0.0164 -0.278871,-0.11483 z"
       fill="#ffffff"
       id="path153"
       style="stroke-width:0.264583" />
    <path
       d="m 86.265262,70.160999 -0.49186,-0.11483 0.442648,-0.114829 c 0.459317,-0.130968 0.787135,-0.03254 0.787135,0.246327 0,0.163777 -0.0164,0.163777 -0.737923,-0.01667 z"
       fill="#ffffff"
       id="path155"
       style="stroke-width:0.264583" />
    <path
       d="m 85.691381,69.373863 c 0,-0.672041 0.377031,-0.770466 0.721519,-0.180181 0.229658,0.3937 0.245798,0.475456 0.03281,0.475456 -0.131233,0 -0.344487,0.04921 -0.49186,0.09842 -0.19685,0.08176 -0.262467,-0.0164 -0.262467,-0.3937 z"
       fill="#ffffff"
       id="path157"
       style="stroke-width:0.264583" />
    <path
       d="m 88.544648,69.603522 c -0.737923,-0.327819 -1.213379,-1.196711 -1.213379,-2.229909 0,-0.737658 0.06535,-0.918104 0.508264,-1.328208 0.278606,-0.262202 0.557477,-0.475456 0.639498,-0.475456 0.360627,0 1.688836,1.262591 2.131483,2.049727 l 0.508265,0.901964 -0.541073,0.573617 c -0.623094,0.655902 -1.311804,0.836348 -2.033058,0.508265 z"
       fill="#ffffff"
       id="path159"
       style="stroke-width:0.264583" />
    <path
       d="m 85.1175,69.177278 c -0.04921,-0.08202 -0.0164,-0.164042 0.06562,-0.164042 0.09816,0 0.180181,0.08202 0.180181,0.164042 0,0.09842 -0.03254,0.163777 -0.06535,0.163777 -0.04921,0 -0.131234,-0.06535 -0.180446,-0.163777 z"
       fill="#ffffff"
       id="path161"
       style="stroke-width:0.264583" />
    <path
       d="m 82.969348,68.915076 c 0.04948,-0.147638 0.09869,-0.295275 0.09869,-0.328084 0,-0.03281 0.147638,-0.06535 0.327819,-0.06535 0.410104,0 0.426244,0.261938 0.0164,0.491596 -0.442912,0.229658 -0.557477,0.213254 -0.442912,-0.09816 z"
       fill="#ffffff"
       id="path163"
       style="stroke-width:0.264583" />
    <path
       d="m 84.264748,68.718226 c -0.377031,-0.04921 -0.491861,-0.262467 -0.245798,-0.410104 0.06562,-0.04895 0.360627,-0.130969 0.655902,-0.196586 0.442648,-0.09843 0.524669,-0.06562 0.524669,0.213254 0,0.344223 -0.344223,0.491861 -0.934773,0.393436 z"
       fill="#ffffff"
       id="path165"
       style="stroke-width:0.264583" />
    <path
       d="m 85.527604,68.160484 c 0,-0.196585 0.01614,-0.31115 0.04895,-0.278606 0.0164,0.03281 0.147638,0.19685 0.262467,0.360891 0.19685,0.229394 0.180181,0.278871 -0.04921,0.278871 -0.164041,0 -0.262202,-0.131498 -0.262202,-0.361156 z"
       fill="#ffffff"
       id="path167"
       style="stroke-width:0.264583" />
    <path
       d="m 83.231815,68.045655 c 0,-0.09816 0.08202,-0.21299 0.164041,-0.261938 0.09843,-0.04948 0.164042,0.01614 0.164042,0.147373 0,0.147638 -0.06562,0.262202 -0.164042,0.262202 -0.08202,0 -0.164041,-0.06535 -0.164041,-0.147637 z"
       fill="#ffffff"
       id="path169"
       style="stroke-width:0.264583" />
    <path
       d="m 83.838769,67.799857 c -0.131498,-0.327819 1.032933,-0.688446 1.229518,-0.377031 0.147638,0.262202 0,0.377031 -0.623093,0.508529 -0.377032,0.08176 -0.541073,0.04895 -0.606425,-0.131498 z"
       fill="#ffffff"
       id="path171"
       style="stroke-width:0.264583" />
    <path
       d="m 85.379967,67.275188 c 0,-0.180446 0.04895,-0.229393 0.09816,-0.09843 0.04948,0.114829 0.03281,0.262467 -0.01614,0.311679 -0.04921,0.06562 -0.09842,-0.03307 -0.08202,-0.213254 z"
       fill="#ffffff"
       id="path173"
       style="stroke-width:0.264583" />
    <path
       d="m 83.986142,67.012722 c 0.196585,-0.360627 0.770731,-0.950913 0.918368,-0.950913 0.163777,0 0.180182,0.770731 0.01614,0.869156 -0.08202,0.03281 -0.344223,0.11483 -0.590285,0.180446 -0.360628,0.08202 -0.442648,0.06535 -0.344223,-0.09869 z"
       fill="#ffffff"
       id="path175"
       style="stroke-width:0.264583" />
    <path
       d="m 85.297946,66.63569 c -0.180446,-0.49186 -0.09842,-0.705114 0.29501,-0.770466 0.410104,-0.08202 0.410104,-0.08202 0.147638,0.426243 -0.327819,0.655638 -0.311679,0.655638 -0.442648,0.344223 z"
       fill="#ffffff"
       id="path177"
       style="stroke-width:0.264583" />
    <path
       d="m 85.199521,65.651705 c 0,-0.03254 0.328083,-0.262202 0.737923,-0.491596 0.49186,-0.295275 0.836083,-0.3937 1.082146,-0.327819 0.29501,0.09816 0.213254,0.163777 -0.508265,0.508 -0.80354,0.360892 -1.311804,0.491861 -1.311804,0.311415 z"
       fill="#ffffff"
       id="path179"
       style="stroke-width:0.264583" />
    <path
       d="m 94.299864,51.124228 c -0.442647,-0.639498 -1.37742,-1.672431 -2.049727,-2.295525 -0.672041,-0.623094 -1.114689,-1.131358 -0.98372,-1.131358 0.360627,0 3.115468,0.754062 3.804179,1.049337 0.573616,0.245798 0.590285,0.278606 0.442648,0.787136 -0.08202,0.29501 -0.147638,1.032933 -0.147638,1.639623 0,0.623093 -0.04921,1.114954 -0.114829,1.114954 -0.08202,0 -0.491861,-0.524669 -0.950913,-1.164167 z"
       fill="#ffffff"
       id="path181"
       style="stroke-width:0.264583" />
    <path
       d="m 60.931938,100.79075 c -0.672306,-0.34449 -0.819944,-0.54107 -1.672431,-2.229906 -1.229784,-2.394214 -1.262592,-2.951427 -0.09842,-1.590675 0.459316,0.541073 1.525058,1.656292 2.361141,2.475971 1.426369,1.37742 1.49225,1.47558 1.016794,1.41023 -0.344488,-0.0492 -0.475721,-0.0164 -0.3937,0.11456 0.19685,0.29528 -0.426244,0.21326 -1.213379,-0.18018 z"
       fill="#ffffff"
       id="path183"
       style="stroke-width:0.264583" />
    <path
       fill-rule="evenodd"
       clip-rule="evenodd"
       d="m 88.411298,130.66459 c -0.135996,-0.32332 0.01587,-0.69559 0.338931,-0.83158 l 0.353219,-0.14976 c 3.434821,-1.46976 5.406231,-2.35267 6.745816,-3.75444 1.339586,-1.40176 1.499923,-3.46075 1.751542,-4.71381 0.06879,-0.3437 0.847725,0.26008 1.191419,0.3294 0.343958,0.0691 0.566473,0.40376 0.497416,0.74745 -0.302418,1.50654 -1.117335,2.94243 -2.429139,4.30583 -1.307306,1.35864 -3.83884,2.8149 -7.617354,4.40584 -0.323321,0.136 -0.69559,-0.0159 -0.83185,-0.33893 z"
       fill="#282828"
       id="path185"
       style="stroke-width:0.264583" />
    <path
       fill-rule="evenodd"
       clip-rule="evenodd"
       d="m 103.9434,65.240542 c 0.30162,-0.179122 0.69135,-0.08043 0.87048,0.220928 1.79652,3.017043 2.75854,6.466416 2.75854,10.05496 0,10.871729 -8.813268,19.685 -19.684997,19.685 -2.888986,0 -5.690923,-0.623094 -8.256588,-1.81028 -0.318293,-0.147372 -1.52056,-1.319741 -0.309827,-0.842697 1.210998,0.476779 5.89624,1.547018 8.600281,1.547018 10.170055,0 17.365131,-8.408723 17.365131,-18.579041 0,-3.358356 -1.34302,-6.339152 -1.56368,-9.405408 -0.0257,-0.3556 -0.0804,-0.691092 0.22066,-0.87048 z"
       fill="#282828"
       id="path187"
       style="stroke-width:0.264583" />
    <path
       fill-rule="evenodd"
       clip-rule="evenodd"
       d="m 41.054586,113.30025 c 0.224367,-0.26934 0.624946,-0.81386 0.894292,-0.58922 1.105429,0.92075 2.285206,1.98755 3.547004,2.19313 1.313127,0.21457 2.870993,0.21457 4.671218,-0.003 0.348192,-0.0421 0.664634,0.20584 0.706702,0.55403 0.04207,0.3482 -0.205845,0.66464 -0.554037,0.70671 -1.912144,0.23151 -3.587485,0.23151 -5.028406,-0.004 -1.49225,-0.24368 -2.87999,-0.9009 -4.155281,-1.96321 -0.269346,-0.22436 -0.305859,-0.62494 -0.08149,-0.89429 z"
       fill="#282828"
       id="path189"
       style="stroke-width:0.264583" />
    <path
       d="M 54.537223,91.083719 C 53.71728,90.427817 51.962563,88.493184 50.634619,86.78768 49.945909,85.885715 49.175177,84.049242 48.716125,82.196365 48.502871,81.360282 48.289882,80.606219 48.240669,80.50753 48.175052,80.425773 47.912586,79.261342 47.650384,77.916994 47.256948,76.014905 47.340028,75.40213 46.994482,73.126978 46.848167,72.16363 46.715875,71.397132 46.715875,71.397132 l 0.426244,-0.547423 c 0.245798,-0.327819 0.556948,-0.870479 0.672306,-1.180571 0.524669,-1.411816 4.377796,-5.837237 4.492625,-5.722408 0.03281,0.03281 -0.09816,0.80354 -0.327818,1.70524 -0.213255,0.901964 -0.475457,2.262716 -0.590286,3.033447 -0.164041,1.278732 -0.229658,1.426369 -0.737923,1.852877 -0.639498,0.541073 -1.852877,2.279121 -1.852877,2.639748 0,0.492125 0.737923,0.164307 1.50839,-0.639233 l 0.787135,-0.819944 v 0.9017 c 0,0.590286 -0.114829,1.131623 -0.327819,1.557867 -0.410104,0.803275 -0.410104,1.656027 -0.0164,2.311929 0.19685,0.327819 0.377032,1.114954 0.491861,2.049727 0.508264,4.230423 1.590675,7.903104 3.443552,11.592454 0.458787,0.918369 0.819679,1.672696 0.803275,1.672696 -0.03281,0 -0.459052,-0.327819 -0.950913,-0.721519 z"
       fill="#ffffff"
       id="path191"
       style="stroke-width:0.264583" />
    <path
       fill-rule="evenodd"
       clip-rule="evenodd"
       d="m 122.7648,101.20059 1.18083,0.52494 c 0.24474,0.11271 2.94561,1.41049 6.1894,2.96915 5.23002,2.51301 11.87238,5.70468 11.91287,5.70468 0.0656,0 0.37332,-0.71146 0.44264,-1.54146 0.16404,-1.787 0.77073,-4.21402 1.47585,-5.90286 0.32782,-0.75406 0.59028,-1.69703 0.59028,-1.77879 0,-0.0376 -0.26643,-0.14499 -0.70299,-0.32094 -0.51965,-0.20955 -1.27953,-0.5162 -2.1172,-0.91731 -4.132,-1.983845 -12.21581,-6.034087 -13.2162,-6.640777 -0.98372,-0.573881 -1.18057,-0.623093 -1.18057,-0.245798 0,0.491861 -1.00013,2.770982 -1.77086,4.000765 -0.40984,0.672306 -1.21338,1.885685 -1.78726,2.68896 z m 19.00449,6.24708 c 0.47016,0.27278 -0.34449,0.67257 -0.54107,0.73792 -1.15888,0.0987 -2.52281,-0.11933 -3.64041,-0.77046 -0.5842,-0.41434 -5.1853,-2.97075 -8.23753,-4.6662 -1.39515,-0.77496 -2.46671,-1.37054 -2.68261,-1.49886 -0.68898,-0.41011 -1.34462,-0.85275 -1.45945,-0.98425 -0.34422,-0.442649 -0.0164,-0.639234 0.95092,-0.557478 0.58155,0.04948 14.59441,7.150898 15.61015,7.739328 z"
       fill="#ffffff"
       id="path193"
       style="stroke-width:0.264583" />
    <path
       d="m 110.9919,102.67644 c -0.42625,-0.14764 -0.8853,-0.47546 -1.18057,-0.85275 l -0.49186,-0.60669 1.73804,-1.721648 c 2.67283,-2.623608 4.64027,-5.490633 6.41112,-8.688122 0.59055,-1.065742 2.34474,-5.364163 2.55826,-5.839619 0.32782,-0.68871 0.57362,-0.951177 1.27873,-1.344613 0.83635,-0.49186 1.78726,-0.655637 2.1971,-0.377031 0.78714,0.524669 0.78714,2.180696 0,5.033698 -0.86889,3.131873 -2.03306,5.37845 -4.44341,8.608483 -0.3773,0.492125 -1.08241,1.459442 -1.59068,2.131748 -1.36075,1.803664 -2.24631,2.672824 -3.44328,3.344864 -1.18031,0.65617 -1.86929,0.73792 -3.03345,0.31168 z"
       fill="#ffffff"
       id="path195"
       style="stroke-width:0.264583" />
    <path
       d="m 117.17362,102.29914 -0.34449,-0.34422 c 0,0 5.71527,-7.261226 6.73947,-9.936692 0.78132,-2.041525 1.24116,-2.620698 1.86187,-2.620698 0.34714,0 0.63024,0.07937 0.76148,0.276225 0.22965,0.343958 0.45085,0.770466 0.15557,2.229643 -0.49186,2.361407 -1.24592,3.919009 -3.5089,7.28054 -0.52467,0.770467 -1.19698,1.623222 -1.49199,1.918492 -0.68897,0.63923 -2.23811,1.29514 -3.14007,1.44277 -0.57362,0.082 -0.73766,0.0492 -1.03294,-0.24606 z"
       fill="#ffffff"
       id="path197"
       style="stroke-width:0.264583" />
    <path
       fill-rule="evenodd"
       clip-rule="evenodd"
       d="m 126.7735,94.706394 c 0.33073,-0.756444 0.56621,-1.416314 0.56621,-1.654969 0,-0.377295 0.19685,-0.328083 1.18057,0.245798 1.00039,0.60669 9.0842,4.656932 13.2162,6.640777 1.5412,0.73792 2.82019,1.15623 2.82019,1.23825 0,0.0818 -18.13401,-5.667639 -17.78317,-6.469856 z"
       fill="#ebebeb"
       id="path199"
       style="stroke-width:0.264583" />
    <path
       fill-rule="evenodd"
       clip-rule="evenodd"
       d="m 70.671779,95.641961 c -2.082535,-1.360752 -5.230548,-4.558506 -6.755606,-6.837627 -2.18096,-3.279246 -3.623733,-6.788415 -4.328583,-10.559521 -0.508529,-2.738437 -0.492125,-6.952456 0.01614,-9.395354 0.524669,-2.492639 1.19724,-4.394464 2.39395,-6.805083 1.393825,-2.787386 2.869407,-4.837113 5.083175,-7.050352 2.170642,-2.170906 -7.477125,6.805877 -5.083175,22.867672 1.918494,13.459354 10.16344,18.761604 8.674099,17.780265 z"
       fill="#ebebeb"
       id="path201"
       style="stroke-width:0.264583" />
  </g>
</svg>
